<svg width="173" height="91" viewBox="0 0 173 91" fill="none" xmlns="http://www.w3.org/2000/svg">
<path d="M127.187 3.55333C109.864 3.55333 95.651 15.99 76.996 15.99C63.671 15.99 50.7902 0 32.1352 0C8.1502 0 0.599365 12.8808 0.599365 21.7642C0.599365 28.8708 5.04103 36.8658 6.37353 36.8658C6.37353 34.645 9.03853 26.65 9.92686 25.7617C10.8152 28.8708 29.4702 50.635 45.9044 50.635V50.7594C46.8071 50.1553 47.8569 49.8078 48.9418 49.754C50.0266 49.7002 51.1057 49.9421 52.0638 50.4538C53.0219 50.9655 53.823 51.7278 54.3816 52.6594C54.9401 53.591 55.2352 54.6567 55.2352 55.7429C55.2352 56.8291 54.9401 57.8949 54.3816 58.8264C53.823 59.758 53.0219 60.5203 52.0638 61.032C51.1057 61.5438 50.0266 61.7856 48.9418 61.7318C47.8569 61.678 46.8071 61.3305 45.9044 60.7265V73.7317H50.346C56.1202 73.7317 58.7852 71.5108 67.6685 71.5108C83.2144 71.5108 104.979 90.61 131.629 90.61C160.499 90.61 172.492 68.8458 172.492 44.4167C172.492 11.9925 141.844 3.55333 127.187 3.55333Z" fill="black"/>
</svg>
