<svg width="533" height="533" viewBox="0 0 533 533" fill="none" xmlns="http://www.w3.org/2000/svg">
<path d="M200.952 238.672C200.064 241.781 185.85 316.845 210.279 386.579C214.277 387.467 213.833 376.363 213.833 376.363L209.391 280.867L211.612 244.89L200.952 238.672Z" fill="#DE8E68"/>
<path d="M267.577 518.053H224.493C224.493 518.053 209.835 366.592 209.835 363.483C212.5 366.148 212.056 367.036 223.16 370.145C229.823 377.252 276.904 495.4 276.904 495.4L267.577 518.053Z" fill="#56CAD8"/>
<path d="M246.172 182.262C266.928 188.201 250.539 251.601 242.855 256.914C235.17 262.226 199.149 247.275 196.244 240.55C193.339 233.826 216.786 173.854 246.172 182.262Z" fill="#FCC486"/>
<path d="M264.912 165.384C331.093 165.384 332.425 355.487 323.098 363.482C313.77 371.477 218.274 379.028 209.835 363.482C201.396 347.937 192.957 165.384 264.912 165.384Z" fill="#FED385"/>
<path d="M288.897 178.265C306.219 165.384 346.639 216.908 346.194 226.235C345.75 235.563 311.994 255.106 304.887 253.329C297.78 251.553 264.37 196.503 288.897 178.265Z" fill="#FED892"/>
<path d="M339.976 228.012C356.41 255.106 360.852 291.083 360.852 297.302C360.852 314.18 352.413 322.619 347.083 322.619C325.763 322.619 255.584 268.431 250.699 263.989C245.813 259.548 260.026 246.223 262.247 248.443C264.468 250.664 289.785 266.654 326.651 282.644C321.321 275.982 305.775 255.994 305.331 249.776C304.887 243.558 339.976 228.012 339.976 228.012Z" fill="#DE8E68"/>
<path d="M241.137 215.04L213.389 219.227L220.565 266.792L248.314 262.605L241.137 215.04Z" fill="#333333"/>
<path d="M261.349 258.549C264.66 252.813 260.887 244.434 252.92 239.835C244.954 235.235 235.811 236.156 232.499 241.892C229.188 247.628 232.961 256.007 240.928 260.606C248.894 265.206 258.037 264.284 261.349 258.549Z" fill="#DE8E68"/>
<path d="M276.46 173.823C276.46 179.597 253.364 180.042 253.364 173.823V138.734H276.46V173.823Z" fill="#D37C59"/>
<path d="M258.916 159.61C271.549 159.61 281.79 141.414 281.79 118.969C281.79 96.5231 271.549 78.3274 258.916 78.3274C246.282 78.3274 236.041 96.5231 236.041 118.969C236.041 141.414 246.282 159.61 258.916 159.61Z" fill="#DE8E68"/>
<path d="M280.236 130.739C283.547 130.739 286.232 128.055 286.232 124.743C286.232 121.431 283.547 118.747 280.236 118.747C276.924 118.747 274.239 121.431 274.239 124.743C274.239 128.055 276.924 130.739 280.236 130.739Z" fill="#DE8E68"/>
<path d="M358.187 72.5533C340.864 72.5533 326.651 84.99 307.996 84.99C294.671 84.99 281.79 69 263.135 69C239.15 69 231.599 81.8808 231.599 90.7642C231.599 97.8708 236.041 105.866 237.374 105.866C237.374 103.645 240.039 95.65 240.927 94.7617C241.815 97.8708 260.47 119.635 276.904 119.635V119.759C277.807 119.155 278.857 118.808 279.942 118.754C281.027 118.7 282.106 118.942 283.064 119.454C284.022 119.965 284.823 120.728 285.382 121.659C285.94 122.591 286.235 123.657 286.235 124.743C286.235 125.829 285.94 126.895 285.382 127.826C284.823 128.758 284.022 129.52 283.064 130.032C282.106 130.544 281.027 130.786 279.942 130.732C278.857 130.678 277.807 130.33 276.904 129.726V142.732H281.346C287.12 142.732 289.785 140.511 298.669 140.511C314.214 140.511 335.979 159.61 362.629 159.61C391.499 159.61 403.492 137.846 403.492 113.417C403.492 80.9925 372.844 72.5533 358.187 72.5533Z" fill="black"/>
<path d="M323.098 363.483V518.053H267.577L223.107 370.043C238.706 372.81 297.78 375.031 323.098 363.483Z" fill="#74D5DE"/>
</svg>
