<svg width="21" height="21" viewBox="0 0 21 21" fill="none" xmlns="http://www.w3.org/2000/svg">
<path fill-rule="evenodd" clip-rule="evenodd" d="M10.6 18.8C5.96081 18.8 2.2 15.0392 2.2 10.4C2.2 5.76081 5.96081 2 10.6 2C15.2392 2 19 5.76081 19 10.4C19 15.0392 15.2392 18.8 10.6 18.8ZM10.6 16.6C7.50721 16.6 5.2 14.4167 5.2 11.6C5.2 11.3 7.50721 12.2846 10.6 12.2846C13.6928 12.2846 16 11.3 16 11.6C16 14.4167 13.6928 16.6 10.6 16.6ZM12.9 10.4C12.4029 10.4 12 9.37025 12 8.1C12 6.82974 12.4029 5.8 12.9 5.8C13.3971 5.8 13.8 6.82974 13.8 8.1C13.8 9.37025 13.3971 10.4 12.9 10.4ZM8.3 10.4C7.80294 10.4 7.4 9.37025 7.4 8.1C7.4 6.82974 7.80294 5.8 8.3 5.8C8.79706 5.8 9.2 6.82974 9.2 8.1C9.2 9.37025 8.79706 10.4 8.3 10.4Z" fill="white"/>
</svg>
