<?xml version="1.0" encoding="utf-8"?>
<!-- Generator: Adobe Illustrator 19.0.0, SVG Export Plug-In . SVG Version: 6.00 Build 0)  -->
<svg version="1.1" id="Livello_1" xmlns="http://www.w3.org/2000/svg" xmlns:xlink="http://www.w3.org/1999/xlink" x="0px" y="0px"
	 viewBox="-203.3 627.9 538.6 102" style="enable-background:new -203.3 627.9 538.6 102;" xml:space="preserve">
<style type="text/css">
	.st0{fill:#ECECEC;}
	.st1{clip-path:url(#SVGID_4_);fill:#ECECEC;}
	.st2{clip-path:url(#SVGID_8_);fill:#ECECEC;}
	.st3{clip-path:url(#SVGID_12_);fill:#ECECEC;}
	.st4{clip-path:url(#SVGID_15_);fill:#ECECEC;}
	.st5{clip-path:url(#SVGID_17_);fill:#ECECEC;}
	.st6{clip-path:url(#SVGID_19_);fill:#ECECEC;}
	.st7{clip-path:url(#SVGID_21_);fill:#ECECEC;}
	.st8{clip-path:url(#SVGID_23_);fill:url(#SVGID_24_);}
	.st9{clip-path:url(#SVGID_26_);fill:url(#SVGID_27_);}
	.st10{clip-path:url(#SVGID_29_);fill:url(#SVGID_30_);}
	.st11{clip-path:url(#SVGID_32_);fill:url(#SVGID_33_);}
	.st12{clip-path:url(#SVGID_35_);fill:url(#SVGID_36_);}
	.st13{clip-path:url(#SVGID_38_);fill:url(#SVGID_39_);}
	.st14{clip-path:url(#SVGID_41_);fill:url(#SVGID_42_);}
	.st15{clip-path:url(#SVGID_44_);fill:url(#SVGID_45_);}
	.st16{clip-path:url(#SVGID_47_);fill:url(#SVGID_48_);}
</style>
<g>
	<g>
		<path id="SVGID_1_" class="st0" d="M-202.5,684.4c0,27.3,19.7,44.7,44.1,44.7c11.9,0,23.2-5.2,31-12.7c0.6-0.6,0.4-2.4,0-3.2
			l-9.4-9.4c-1.2-1-3-1.1-3.8-0.4c-4.7,4.7-10.9,7.6-17.8,7.6c-13.7,0-24.8-10.2-24.8-26.6c0-15.3,9.3-26.6,24.8-26.6
			c6.8,0,13,2.9,17.8,7.6c0.9,0.7,2.4,0.7,3.3,0l9.7-9.6c0.7-0.7,0.7-2.5,0.2-3.4c-7.8-7.6-19.1-12.8-31-12.8
			C-184.1,639.7-202.5,658.2-202.5,684.4"/>
	</g>
	<g>
		<defs>
			<path id="SVGID_2_" d="M-202.5,684.4c0,27.3,19.7,44.7,44.1,44.7c11.9,0,23.2-5.2,31-12.7c0.6-0.6,0.4-2.4,0-3.2l-9.4-9.4
				c-1.2-1-3-1.1-3.8-0.4c-4.7,4.7-10.9,7.6-17.8,7.6c-13.7,0-24.8-10.2-24.8-26.6c0-15.3,9.3-26.6,24.8-26.6c6.8,0,13,2.9,17.8,7.6
				c0.9,0.7,2.4,0.7,3.3,0l9.7-9.6c0.7-0.7,0.7-2.5,0.2-3.4c-7.8-7.6-19.1-12.8-31-12.8C-184.1,639.7-202.5,658.2-202.5,684.4"/>
		</defs>
		<clipPath id="SVGID_4_">
			<use xlink:href="#SVGID_2_"  style="overflow:visible;"/>
		</clipPath>
		<rect x="-202.5" y="639.7" class="st1" width="75.7" height="89.4"/>
	</g>
</g>
<g>
	<g>
		<path id="SVGID_3_" class="st0" d="M-115.4,640.8c-1.5,0-2.6,1-2.6,2.1v82.8c0,1,1.1,2.1,2.6,2.1h13.5c1.6,0,2.6-1.1,2.6-2.1
			v-82.8c0-1.1-1-2.1-2.6-2.1L-115.4,640.8L-115.4,640.8z"/>
	</g>
	<g>
		<defs>
			<path id="SVGID_6_" d="M-115.4,640.8c-1.5,0-2.6,1-2.6,2.1v82.8c0,1,1.1,2.1,2.6,2.1h13.5c1.6,0,2.6-1.1,2.6-2.1v-82.8
				c0-1.1-1-2.1-2.6-2.1L-115.4,640.8L-115.4,640.8z"/>
		</defs>
		<clipPath id="SVGID_8_">
			<use xlink:href="#SVGID_6_"  style="overflow:visible;"/>
		</clipPath>
		<rect x="-118" y="640.8" class="st2" width="18.7" height="87.1"/>
	</g>
</g>
<g>
	<g>
		<path id="SVGID_5_" class="st0" d="M-33.1,641c-1.6,0-2.6,1.1-2.6,2.2v50.4c-12.5-18-24-33.9-36.4-51.8c-0.5-0.6-1.6-0.9-2.1-0.9
			h-14c-1.5,0-2.6,1.1-2.6,2.2v82.6c0,1,1.1,2.1,2.6,2.1h13.9c1.5,0,2.6-1.1,2.6-2.1v-50.6c12.8,18.2,23.6,33.8,36.2,51.9
			c0.5,0.6,1.6,0.9,2.1,0.9h13.9c1.6,0,2.6-1.1,2.6-2.1v-82.6c0-1.1-1-2.2-2.6-2.2H-33.1z"/>
	</g>
	<g>
		<defs>
			<path id="SVGID_10_" d="M-33.1,641c-1.6,0-2.6,1.1-2.6,2.2v50.4c-12.5-18-24-33.9-36.4-51.8c-0.5-0.6-1.6-0.9-2.1-0.9h-14
				c-1.5,0-2.6,1.1-2.6,2.2v82.6c0,1,1.1,2.1,2.6,2.1h13.9c1.5,0,2.6-1.1,2.6-2.1v-50.6c12.8,18.2,23.6,33.8,36.2,51.9
				c0.5,0.6,1.6,0.9,2.1,0.9h13.9c1.6,0,2.6-1.1,2.6-2.1v-82.6c0-1.1-1-2.2-2.6-2.2H-33.1z"/>
		</defs>
		<clipPath id="SVGID_12_">
			<use xlink:href="#SVGID_10_"  style="overflow:visible;"/>
		</clipPath>
		<rect x="-90.8" y="641" class="st3" width="74" height="86.9"/>
	</g>
</g>
<g>
	<g>
		<path id="SVGID_7_" class="st0" d="M-5.6,641c-1.6,0-2.6,1.1-2.6,2.2v82.6c0,1,1,2.1,2.6,2.1h55c1.6,0,2.7-1.1,2.7-2.1V712
			c0-1.1-1.1-2.2-2.7-2.2H10.8v-16.6h31.8c1.5,0,2.5-1.1,2.5-2.1v-13.4c0-1.1-1-2.2-2.5-2.2H10.8v-16.6h37.6c1.5,0,2.6-1.1,2.6-2.2
			v-13.3c0-1.1-1.1-2.2-2.6-2.2h-54V641z"/>
	</g>
	<g>
		<defs>
			<path id="SVGID_14_" d="M-5.6,641c-1.6,0-2.6,1.1-2.6,2.2v82.6c0,1,1,2.1,2.6,2.1h55c1.6,0,2.7-1.1,2.7-2.1V712
				c0-1.1-1.1-2.2-2.7-2.2H10.8v-16.6h31.8c1.5,0,2.5-1.1,2.5-2.1v-13.4c0-1.1-1-2.2-2.5-2.2H10.8v-16.6h37.6c1.5,0,2.6-1.1,2.6-2.2
				v-13.3c0-1.1-1.1-2.2-2.6-2.2h-54V641z"/>
		</defs>
		<clipPath id="SVGID_15_">
			<use xlink:href="#SVGID_14_"  style="overflow:visible;"/>
		</clipPath>
		<rect x="-8.2" y="641" class="st4" width="60.3" height="86.9"/>
	</g>
</g>
<g>
	<g>
		<path id="SVGID_9_" class="st0" d="M137.7,640.9c-0.7,0-2.2,0.7-2.5,1.4l-27.6,59.1l-29-59.1c-0.2-0.5-1.5-1.4-2.4-1.4H62
			c-1.7,0-2.5,1.1-2.5,2.2v82.7c0,1,0.7,2.1,2.5,2.1h13.9c1.5,0,2.6-1.1,2.6-2.1v-41.6l20.2,39.1v-0.1c0.2,0.6,1.6,1.4,2.4,1.4h13
			c0.6,0,2.1-0.9,2.2-1.4c6.2-12.5,12.5-25.1,18.7-37.6v40.2c0,1,1.1,2.1,2.7,2.1h13.7c1.6,0,2.7-1.1,2.7-2.1v-82.7
			c0-1.1-1.1-2.2-2.7-2.2L137.7,640.9L137.7,640.9z"/>
	</g>
	<g>
		<defs>
			<path id="SVGID_16_" d="M137.7,640.9c-0.7,0-2.2,0.7-2.5,1.4l-27.6,59.1l-29-59.1c-0.2-0.5-1.5-1.4-2.4-1.4H62
				c-1.7,0-2.5,1.1-2.5,2.2v82.7c0,1,0.7,2.1,2.5,2.1h13.9c1.5,0,2.6-1.1,2.6-2.1v-41.6l20.2,39.1v-0.1c0.2,0.6,1.6,1.4,2.4,1.4h13
				c0.6,0,2.1-0.9,2.2-1.4c6.2-12.5,12.5-25.1,18.7-37.6v40.2c0,1,1.1,2.1,2.7,2.1h13.7c1.6,0,2.7-1.1,2.7-2.1v-82.7
				c0-1.1-1.1-2.2-2.7-2.2L137.7,640.9L137.7,640.9z"/>
		</defs>
		<clipPath id="SVGID_17_">
			<use xlink:href="#SVGID_16_"  style="overflow:visible;"/>
		</clipPath>
		<rect x="59.6" y="640.9" class="st5" width="94.7" height="87"/>
	</g>
</g>
<g>
	<g>
		<path id="SVGID_11_" class="st0" d="M192.1,690c1.2-3.7,2.2-7.4,3.1-12c0.7,4.3,1.7,7.9,3,12l4.3,12.9h-14.8L192.1,690z
			 M192.8,640.5c-10.7,27.3-22.2,57.1-32.9,84.4c-0.6,1.5,0.2,3,2.4,3h14.8c1.2,0,2.4-0.6,2.6-1.5v0.1l3.1-8.6h24.7l3.4,8.6v-0.1
			c0.2,0.9,1.4,1.5,2.4,1.5h15c1.9,0,2.9-1.5,2.2-3l-32.9-84.4c-0.4-0.9-1.4-1.4-2.4-1.4S193.2,639.6,192.8,640.5"/>
	</g>
	<g>
		<defs>
			<path id="SVGID_18_" d="M192.1,690c1.2-3.7,2.2-7.4,3.1-12c0.7,4.3,1.7,7.9,3,12l4.3,12.9h-14.8L192.1,690z M192.8,640.5
				c-10.7,27.3-22.2,57.1-32.9,84.4c-0.6,1.5,0.2,3,2.4,3h14.8c1.2,0,2.4-0.6,2.6-1.5v0.1l3.1-8.6h24.7l3.4,8.6v-0.1
				c0.2,0.9,1.4,1.5,2.4,1.5h15c1.9,0,2.9-1.5,2.2-3l-32.9-84.4c-0.4-0.9-1.4-1.4-2.4-1.4S193.2,639.6,192.8,640.5"/>
		</defs>
		<clipPath id="SVGID_19_">
			<use xlink:href="#SVGID_18_"  style="overflow:visible;"/>
		</clipPath>
		<rect x="159.3" y="639.1" class="st6" width="71.9" height="88.8"/>
	</g>
</g>
<g>
	<g>
		<path id="SVGID_13_" class="st0" d="M237.6,641c-2.1,0-3.2,2-1.9,3.5h-0.1L250,665c4.6,6.5,9.3,13.2,13.9,19.5l-28.3,40h0.1
			c-1.4,1.5-0.2,3.5,1.9,3.5h16.9c0.5,0,1.7-0.4,2.2-0.9l18.9-26.4l18.8,26.3c0.5,0.6,1.7,0.9,2.2,0.9h16.9c2.2,0,3.4-2,2-3.5h0.1
			c-4.1-5.6-8.2-11.7-12.3-17.3c-5.3-7.4-10.8-15.2-16.1-22.5h-13.5v-19.1l-17-23.7c-0.5-0.6-1.6-0.9-2.2-0.9L237.6,641L237.6,641z"
			/>
	</g>
	<g>
		<defs>
			<path id="SVGID_20_" d="M237.6,641c-2.1,0-3.2,2-1.9,3.5h-0.1L250,665c4.6,6.5,9.3,13.2,13.9,19.5l-28.3,40h0.1
				c-1.4,1.5-0.2,3.5,1.9,3.5h16.9c0.5,0,1.7-0.4,2.2-0.9l18.9-26.4l18.8,26.3c0.5,0.6,1.7,0.9,2.2,0.9h16.9c2.2,0,3.4-2,2-3.5h0.1
				c-4.1-5.6-8.2-11.7-12.3-17.3c-5.3-7.4-10.8-15.2-16.1-22.5h-13.5v-19.1l-17-23.7c-0.5-0.6-1.6-0.9-2.2-0.9L237.6,641L237.6,641z
				"/>
		</defs>
		<clipPath id="SVGID_21_">
			<use xlink:href="#SVGID_20_"  style="overflow:visible;"/>
		</clipPath>
		<rect x="234.4" y="641" class="st7" width="82.6" height="86.9"/>
	</g>
</g>
<g>
	<g>
		<defs>
			<rect id="SVGID_22_" x="298.7" y="645.6" width="8.3" height="8.3"/>
		</defs>
		<clipPath id="SVGID_23_">
			<use xlink:href="#SVGID_22_"  style="overflow:visible;"/>
		</clipPath>
		
			<linearGradient id="SVGID_24_" gradientUnits="userSpaceOnUse" x1="-404.8721" y1="114.6621" x2="-403.8721" y2="114.6621" gradientTransform="matrix(0 8.2915 -8.2915 0 1253.5208 4002.6321)">
			<stop  offset="0" style="stop-color:#F39200"/>
			<stop  offset="8.839780e-04" style="stop-color:#F39200"/>
			<stop  offset="0.3445" style="stop-color:#F8B600"/>
			<stop  offset="0.7757" style="stop-color:#FDDE00"/>
			<stop  offset="1" style="stop-color:#FFED00"/>
		</linearGradient>
		<rect x="298.7" y="645.6" class="st8" width="8.3" height="8.3"/>
	</g>
</g>
<g>
	<g>
		<defs>
			<rect id="SVGID_25_" x="292.6" y="656.1" width="14.6" height="14.6"/>
		</defs>
		<clipPath id="SVGID_26_">
			<use xlink:href="#SVGID_25_"  style="overflow:visible;"/>
		</clipPath>
		
			<linearGradient id="SVGID_27_" gradientUnits="userSpaceOnUse" x1="-417.0674" y1="118.3074" x2="-416.0674" y2="118.3074" gradientTransform="matrix(0 13.9302 -13.9302 0 1947.8953 6466.0757)">
			<stop  offset="0" style="stop-color:#E30613"/>
			<stop  offset="2.265190e-03" style="stop-color:#E30613"/>
			<stop  offset="0.2961" style="stop-color:#E72D0D"/>
			<stop  offset="0.7706" style="stop-color:#ED6604"/>
			<stop  offset="0.9988" style="stop-color:#EF7D00"/>
			<stop  offset="1" style="stop-color:#EF7D00"/>
		</linearGradient>
		<rect x="292.6" y="656.1" class="st9" width="14.6" height="14.6"/>
	</g>
</g>
<g>
	<g>
		<defs>
			<rect id="SVGID_28_" x="318.6" y="636.3" width="7.4" height="7.4"/>
		</defs>
		<clipPath id="SVGID_29_">
			<use xlink:href="#SVGID_28_"  style="overflow:visible;"/>
		</clipPath>
		
			<linearGradient id="SVGID_30_" gradientUnits="userSpaceOnUse" x1="-400.2546" y1="113.3227" x2="-399.2546" y2="113.3227" gradientTransform="matrix(0 7.1896 -7.1896 0 1136.9952 3514.1055)">
			<stop  offset="0" style="stop-color:#29235C"/>
			<stop  offset="0.1464" style="stop-color:#25316A"/>
			<stop  offset="0.4252" style="stop-color:#1A5790"/>
			<stop  offset="0.8041" style="stop-color:#0A94CB"/>
			<stop  offset="1" style="stop-color:#00B6ED"/>
		</linearGradient>
		<rect x="318.6" y="636.3" class="st10" width="7.4" height="7.4"/>
	</g>
</g>
<g>
	<g>
		<defs>
			<rect id="SVGID_31_" x="308.8" y="646.4" width="10.2" height="10.2"/>
		</defs>
		<clipPath id="SVGID_32_">
			<use xlink:href="#SVGID_31_"  style="overflow:visible;"/>
		</clipPath>
		
			<linearGradient id="SVGID_33_" gradientUnits="userSpaceOnUse" x1="-410.4607" y1="116.3689" x2="-409.4607" y2="116.3689" gradientTransform="matrix(0 10.1798 -10.1798 0 1498.4624 4824.749)">
			<stop  offset="0" style="stop-color:#3AAA35"/>
			<stop  offset="2.265190e-03" style="stop-color:#3AAA35"/>
			<stop  offset="0.2038" style="stop-color:#60B629"/>
			<stop  offset="0.5837" style="stop-color:#A4CA13"/>
			<stop  offset="0.8593" style="stop-color:#CED705"/>
			<stop  offset="1" style="stop-color:#DEDC00"/>
		</linearGradient>
		<rect x="308.8" y="646.4" class="st11" width="10.2" height="10.2"/>
	</g>
</g>
<g>
	<g>
		<defs>
			<rect id="SVGID_34_" x="312" y="639.5" width="4.9" height="4.9"/>
		</defs>
		<clipPath id="SVGID_35_">
			<use xlink:href="#SVGID_34_"  style="overflow:visible;"/>
		</clipPath>
		
			<linearGradient id="SVGID_36_" gradientUnits="userSpaceOnUse" x1="-376.7892" y1="105.6948" x2="-375.7892" y2="105.6948" gradientTransform="matrix(0 4.2914 -4.2914 0 767.9785 2256.3811)">
			<stop  offset="0" style="stop-color:#662483"/>
			<stop  offset="8.839780e-04" style="stop-color:#662483"/>
			<stop  offset="0.6082" style="stop-color:#B70D80"/>
			<stop  offset="1" style="stop-color:#E6007E"/>
		</linearGradient>
		<rect x="312" y="639.5" class="st12" width="4.9" height="4.9"/>
	</g>
</g>
<g>
	<g>
		<defs>
			<rect id="SVGID_37_" x="331.1" y="628.7" width="3.5" height="3.5"/>
		</defs>
		<clipPath id="SVGID_38_">
			<use xlink:href="#SVGID_37_"  style="overflow:visible;"/>
		</clipPath>
		
			<linearGradient id="SVGID_39_" gradientUnits="userSpaceOnUse" x1="-351.9143" y1="97.8107" x2="-350.9143" y2="97.8107" gradientTransform="matrix(0 3.0066 -3.0066 0 626.8776 1686.6923)">
			<stop  offset="0" style="stop-color:#662483"/>
			<stop  offset="8.839780e-04" style="stop-color:#662483"/>
			<stop  offset="0.6082" style="stop-color:#B70D80"/>
			<stop  offset="1" style="stop-color:#E6007E"/>
		</linearGradient>
		<rect x="331.1" y="628.7" class="st13" width="3.5" height="3.5"/>
	</g>
</g>
<g>
	<g>
		<defs>
			<rect id="SVGID_40_" x="327.3" y="634.1" width="4.1" height="4.1"/>
		</defs>
		<clipPath id="SVGID_41_">
			<use xlink:href="#SVGID_40_"  style="overflow:visible;"/>
		</clipPath>
		
			<linearGradient id="SVGID_42_" gradientUnits="userSpaceOnUse" x1="-372.8547" y1="104.6855" x2="-371.8547" y2="104.6855" gradientTransform="matrix(0 4.0197 -4.0197 0 750.1043 2132.7227)">
			<stop  offset="0" style="stop-color:#E30613"/>
			<stop  offset="2.265190e-03" style="stop-color:#E30613"/>
			<stop  offset="0.2961" style="stop-color:#E72D0D"/>
			<stop  offset="0.7706" style="stop-color:#ED6604"/>
			<stop  offset="0.9988" style="stop-color:#EF7D00"/>
			<stop  offset="1" style="stop-color:#EF7D00"/>
		</linearGradient>
		<rect x="327.3" y="634.1" class="st14" width="4.1" height="4.1"/>
	</g>
</g>
<g>
	<g>
		<defs>
			<rect id="SVGID_43_" x="281.6" y="657.3" width="7.8" height="7.8"/>
		</defs>
		<clipPath id="SVGID_44_">
			<use xlink:href="#SVGID_43_"  style="overflow:visible;"/>
		</clipPath>
		
			<linearGradient id="SVGID_45_" gradientUnits="userSpaceOnUse" x1="-402.9337" y1="114.1122" x2="-401.9337" y2="114.1122" gradientTransform="matrix(0 7.7905 -7.7905 0 1174.4412 3796.3452)">
			<stop  offset="0" style="stop-color:#3AAA35"/>
			<stop  offset="2.265190e-03" style="stop-color:#3AAA35"/>
			<stop  offset="0.2038" style="stop-color:#60B629"/>
			<stop  offset="0.5837" style="stop-color:#A4CA13"/>
			<stop  offset="0.8593" style="stop-color:#CED705"/>
			<stop  offset="1" style="stop-color:#DEDC00"/>
		</linearGradient>
		<rect x="281.6" y="657.3" class="st15" width="7.8" height="7.8"/>
	</g>
</g>
<g>
	<g>
		<defs>
			<rect id="SVGID_46_" x="276.3" y="666.9" width="14.9" height="14.9"/>
		</defs>
		<clipPath id="SVGID_47_">
			<use xlink:href="#SVGID_46_"  style="overflow:visible;"/>
		</clipPath>
		
			<linearGradient id="SVGID_48_" gradientUnits="userSpaceOnUse" x1="-418.1081" y1="118.7146" x2="-417.1081" y2="118.7146" gradientTransform="matrix(0 14.7885 -14.7885 0 2039.311 6850.1768)">
			<stop  offset="0" style="stop-color:#29235C"/>
			<stop  offset="0.1464" style="stop-color:#25316A"/>
			<stop  offset="0.4252" style="stop-color:#1A5790"/>
			<stop  offset="0.8041" style="stop-color:#0A94CB"/>
			<stop  offset="1" style="stop-color:#00B6ED"/>
		</linearGradient>
		<rect x="276.3" y="666.9" class="st16" width="14.9" height="14.9"/>
	</g>
</g>
</svg>
