<?xml version="1.0" standalone="no"?>
<!DOCTYPE svg PUBLIC "-//W3C//DTD SVG 1.1//EN" "http://www.w3.org/Graphics/SVG/1.1/DTD/svg11.dtd" >
<svg>
<metadata>
Created by FontForge 20090914 at Sat Dec 11 02:57:26 2021
 By www-data
Copyright (c) 2017 by Joshua Darden, Inc. All rights reserved.
Halyard is a trademark of&#194;&#160;Joshua Darden, Inc.
</metadata>
<defs>
<font id="HalyardText-Regular" horiz-adv-x="0" >
  <font-face 
    font-family="Halyard Text"
    font-weight="400"
    font-stretch="normal"
    units-per-em="1000"
    panose-1="0 0 0 0 0 0 0 0 0 0"
    ascent="800"
    descent="-200"
    x-height="497"
    cap-height="659"
    bbox="-298 -278.999 1270 1060"
    underline-thickness="0"
    underline-position="0"
    unicode-range="U+000D-U+FB04"
  />
<missing-glyph horiz-adv-x="717" 
d="M143 -70v892h431v-892h-431zM218 0h281v752h-281v-752z" />
    <glyph glyph-name=".notdef" horiz-adv-x="717" 
d="M143 -70v892h431v-892h-431zM218 0h281v752h-281v-752z" />
    <glyph glyph-name="NULL" 
 />
    <glyph glyph-name="NULL" 
 />
    <glyph glyph-name="CR" unicode="&#xd;" horiz-adv-x="169" 
 />
    <glyph glyph-name="space" unicode=" " horiz-adv-x="218" 
 />
    <glyph glyph-name="exclam" unicode="!" horiz-adv-x="277" 
d="M117 232l-39 428v64h120v-64l-38 -428h-43zM89 0c-1.33301 0 -2.5 0.5 -3.5 1.5s-1.5 2.83301 -1.5 5.5v132c0 2.66699 0.666992 4.5 2 5.5s3 1.5 5 1.5h95c2 0 3.66699 -0.5 5 -1.5s2 -2.83301 2 -5.5v-132c0 -2.66699 -0.666992 -4.5 -2 -5.5s-3 -1.5 -5 -1.5h-97z" />
    <glyph glyph-name="quotedbl" unicode="&#x22;" horiz-adv-x="416" 
d="M294 348c-0.666992 6 -2.66797 21 -6.00098 45s-6.66602 49.5 -9.99902 76.5l-9.5 76c-3 23.667 -4.5 38.167 -4.5 43.5v117h92v-117c0 -5.33301 -1.5 -19.833 -4.5 -43.5l-9.5 -76l-9.5 -76.5c-3 -24 -4.83301 -39 -5.5 -45h-33zM88.999 348
c-0.666992 6 -2.66797 21 -6.00098 45s-6.66602 49.5 -9.99902 76.5l-9.5 76c-3 23.667 -4.5 38.167 -4.5 43.5v117h92v-117c0 -5.33301 -1.5 -19.833 -4.5 -43.5l-9.5 -76l-9.5 -76.5c-3 -24 -4.83301 -39 -5.5 -45h-33z" />
    <glyph glyph-name="numbersign" unicode="#" horiz-adv-x="660" 
d="M94 430v78h121l42 164h72l-43 -167h165l43 167h72l-42 -165h86v-77h-105l-48 -188h100v-78h-119l-41 -164h-73l42 167h-165l-42 -167h-73l41 164h-76v78h96l48 188h-101zM268 432l-49 -193h165l49 193h-165z" />
    <glyph glyph-name="dollar" unicode="$" horiz-adv-x="618" 
d="M277 -94l0.000976562 113.996c-47.333 5.33301 -90.666 18.333 -129.999 39s-72.666 47.334 -99.999 80.001l72 56c28.667 -33.333 60.5 -58.166 95.5 -74.499s72.833 -24.5 113.5 -24.5c44.667 0 78.167 7.5 100.5 22.5s33.5 35.833 33.5 62.5
c0 30 -15.333 52.833 -46 68.5s-73.334 30.834 -128.001 45.501c-26.667 6.66699 -53.167 14.334 -79.5 23.001s-49.833 19.667 -70.5 33s-37.5 29.833 -50.5 49.5s-19.5 43.834 -19.5 72.501c0 25.333 5.33301 48.333 16 69s25.667 38.5 45 53.5s42.166 27 68.499 36
s54.833 14.167 85.5 15.5v107h77v-110c40.667 -6 77.667 -18.5 111 -37.5s63.333 -43.167 90 -72.5l-74 -48c-24.667 26.667 -52.167 47.834 -82.5 63.501s-65.5 23.5 -105.5 23.5c-40.667 0 -73.167 -7.66699 -97.5 -23s-36.5 -36.333 -36.5 -63
c0 -30.667 15.333 -53.334 46 -68.001s73 -29 127 -43c28 -7.33301 55.667 -15.5 83 -24.5s51.666 -20.333 72.999 -34s38.5 -30.334 51.5 -50.001s19.5 -43.5 19.5 -71.5c0 -52 -19 -93.5 -57 -124.5s-89 -48.5 -153 -52.5v-113h-78z" />
    <glyph glyph-name="percent" unicode="%" horiz-adv-x="786" 
d="M205 420c28.667 0 51.166 8.83301 67.499 26.5s24.5 42.167 24.5 73.5v3c0 30.667 -8 54.5 -24 71.5s-38 25.5 -66 25.5c-28.667 0 -51.167 -8.66699 -67.5 -26s-24.5 -41 -24.5 -71v-3c0 -31.333 7.83301 -55.833 23.5 -73.5s37.834 -26.5 66.501 -26.5zM204.999 359
c-48 0 -86.668 14.668 -116.001 44.001s-44 68.666 -44 117.999c0 48 15 87 45 117s69.667 45 119 45c46 0 83.833 -15 113.5 -45s44.5 -69 44.5 -117s-15.167 -87 -45.5 -117s-69.166 -45 -116.499 -45zM120.998 0.000976562l462 677h83l-462 -677h-83zM578.998 47.001
c29.333 0 52 8.99805 68 26.998s24 42.333 24 73v4c0 30.667 -8 54.334 -24 71.001s-37.667 25 -65 25c-28.667 0 -51.334 -8.66699 -68.001 -26s-25 -40.666 -25 -69.999v-4c0 -30.667 7.83301 -55 23.5 -73s37.834 -27 66.501 -27zM578.998 -14.001
c-48 0 -86.667 14.832 -116 44.499s-44 68.834 -44 117.501s15 88 45 118s69.667 45 119 45c46.667 0 84.667 -15 114 -45s44 -69.333 44 -118c0 -48 -15 -87 -45 -117s-69 -45 -117 -45z" />
    <glyph glyph-name="ampersand" unicode="&#x26;" horiz-adv-x="744" 
d="M303 -12c-74.667 0 -133.668 17.001 -177.001 51.001s-65 79 -65 135c0 26.667 4.83301 50 14.5 70s22.334 37.333 38.001 52s34.167 27 55.5 37s43.333 18.333 66 25c-20.667 26.667 -36.5 51.667 -47.5 75s-16.5 48 -16.5 74c0 49.333 17.5 89.166 52.5 119.499
s80.167 45.5 135.5 45.5c52.667 0 94.667 -14 126 -42s47 -64.667 47 -110c0 -42 -15.333 -77.5 -46 -106.5s-72.334 -50.833 -125.001 -65.5l34 -36l131 -133c19.333 26 34.5 55.333 45.5 88s18.5 68 22.5 106h98c-8.66699 -52 -22.5 -98.167 -41.5 -138.5
s-42.833 -76.5 -71.5 -108.5l39.5 -41l40 -41l31 -31.5l12.5 -12.5h-130l-62 67c-25.333 -22.667 -54.666 -41.5 -87.999 -56.5s-73 -22.5 -119 -22.5zM298.999 286.001l-26 28c-33.333 -10.667 -60.5 -26.167 -81.5 -46.5s-31.5 -46.833 -31.5 -79.5
c0 -39.333 14 -69.5 42 -90.5s63.667 -31.5 107 -31.5c30.667 0 58.5 5 83.5 15s47.167 23 66.5 39zM264.999 510.001c0 -20 3.99902 -38.332 11.999 -54.999s22.333 -37 43 -61c40 10 70.667 26.167 92 48.5s32 47.166 32 74.499c0 24.667 -7.83301 44.667 -23.5 60
s-37.5 23 -65.5 23c-27.333 0 -49.166 -8.5 -65.499 -25.5s-24.5 -38.5 -24.5 -64.5z" />
    <glyph glyph-name="quotesingle" unicode="'" horiz-adv-x="211" 
d="M89 348c-0.666992 6 -2.66797 21 -6.00098 45s-6.66602 49.5 -9.99902 76.5l-9.5 76c-3 23.667 -4.5 38.167 -4.5 43.5v117h92v-117c0 -5.33301 -1.5 -19.833 -4.5 -43.5l-9.5 -76l-9.5 -76.5c-3 -24 -4.83301 -39 -5.5 -45h-33z" />
    <glyph glyph-name="parenleft" unicode="(" horiz-adv-x="385" 
d="M357 -189c-49.333 8 -92.835 27.001 -130.502 57.001s-69 66.5 -94 109.5s-43.833 90.5 -56.5 142.5s-19 104 -19 156v16c0 52 6.33301 104 19 156s31.334 99.333 56.001 142s55.834 78.667 93.501 108s81.5 48 131.5 56l-1 -83
c-60.667 -14 -109.834 -54.5 -147.501 -121.5s-56.5 -152.833 -56.5 -257.5v-16c0 -104.667 18.833 -190.834 56.5 -258.501s86.834 -108.5 147.501 -122.5z" />
    <glyph glyph-name="parenright" unicode=")" horiz-adv-x="386" 
d="M29 -189v83.999c60.667 14 109.834 54.833 147.501 122.5s56.5 153.834 56.5 258.501v16c0 104.667 -18.667 190.5 -56 257.5s-86.666 107.5 -147.999 121.5v83c50 -8 93.667 -26.667 131 -56s68.5 -65.333 93.5 -108s43.667 -90 56 -142s18.5 -104 18.5 -156v-16
c0 -52 -6.33301 -104 -19 -156s-31.334 -99.5 -56.001 -142.5s-55.834 -79.5 -93.501 -109.5s-81.167 -49 -130.5 -57z" />
    <glyph glyph-name="asterisk" unicode="*" horiz-adv-x="548" 
d="M230 323l27 198l-159 -122l-44 80l185 74l-184 75l44 78l158 -123l-27 198h91l-28 -198l156 122l46 -78l-186 -75l186 -74l-45 -80l-157 123l28 -198h-91z" />
    <glyph glyph-name="plus" unicode="+" horiz-adv-x="521" 
d="M50 262v86h166v168h91v-168h163v-86h-163v-171h-91v171h-166z" />
    <glyph glyph-name="comma" unicode="," horiz-adv-x="244" 
d="M176 53c0 -67.333 -10.168 -120.667 -30.501 -160s-53.166 -65.333 -98.499 -78l-20 44c30 10.667 50.167 28 60.5 52s15.833 56.667 16.5 98h-31c-1.33301 0 -2.5 0.5 -3.5 1.5s-1.5 2.5 -1.5 4.5v124c0 2.66699 1 4.5 3 5.5s4 1.5 6 1.5h93c2 0 3.5 -0.5 4.5 -1.5
s1.5 -2.83301 1.5 -5.5v-86z" />
    <glyph glyph-name="hyphen" unicode="-" horiz-adv-x="408" 
d="M70 223v88h268v-88h-268z" />
    <glyph glyph-name="period" unicode="." horiz-adv-x="244" 
d="M73 0c-1.33301 0 -2.5 0.5 -3.5 1.5s-1.5 2.83301 -1.5 5.5v132c0 2.66699 0.5 4.5 1.5 5.5s2.83301 1.5 5.5 1.5h95c2 0 3.5 -0.5 4.5 -1.5s1.5 -2.83301 1.5 -5.5v-132c0 -2.66699 -0.5 -4.5 -1.5 -5.5s-2.5 -1.5 -4.5 -1.5h-97z" />
    <glyph glyph-name="slash" unicode="/" horiz-adv-x="457" 
d="M40 0l279 672h98l-279 -672h-98z" />
    <glyph glyph-name="zero" unicode="0" horiz-adv-x="656" 
d="M329 72c55.333 0 97.334 22.999 126.001 68.999s43 109 43 189v3c0 80 -14.333 142.333 -43 187s-71 67 -127 67s-98.333 -22.167 -127 -66.5s-43 -107.166 -43 -188.499v-2c0 -80 14.667 -143 44 -189s71.666 -69 126.999 -69zM327.001 -13.001
c-44 0 -83 8.49707 -117 25.4971s-62.5 40.5 -85.5 70.5s-40.5 66.167 -52.5 108.5s-18 88.5 -18 138.5c0 50.667 6 97.167 18 139.5s29.5 78.5 52.5 108.5s51.667 53.167 86 69.5s73.833 24.5 118.5 24.5c44 0 83 -8.16699 117 -24.5s62.5 -39.166 85.5 -68.499
s40.5 -65.166 52.5 -107.499s18 -88.833 18 -139.5s-6 -97.167 -18 -139.5s-29.5 -78.666 -52.5 -108.999s-51.833 -54 -86.5 -71s-74 -25.5 -118 -25.5z" />
    <glyph glyph-name="one" unicode="1" horiz-adv-x="435" 
d="M232 0v408l6 117h-3c-20.667 -36 -48 -66.833 -82 -92.5s-73.667 -44.834 -119 -57.501v117c20 2.66699 40.667 8 62 16s41.333 18.833 60 32.5s35.167 30.334 49.5 50.001s24.5 42.5 30.5 68.5h98v-659h-102z" />
    <glyph glyph-name="two" unicode="2" horiz-adv-x="589" 
d="M57 0l0.000976562 38.999c0 34 5.66699 64.5 17 91.5s26.833 51.333 46.5 73s42.834 41.334 69.501 59.001s55.334 34.5 86.001 50.5c42.667 22.667 78.667 45.334 108 68.001s44 53 44 91c0 30.667 -10.333 57 -31 79s-53.667 33 -99 33
c-40 0 -74.667 -11.833 -104 -35.5s-50.333 -54.5 -63 -92.5l-88 38c7.33301 24 18.666 46.833 33.999 68.5s34 40.667 56 57s47 29.166 75 38.499s58.333 14 91 14c78 0 136.5 -19 175.5 -57s58.5 -85 58.5 -141c0 -28.667 -5.5 -54 -16.5 -76s-25.333 -41.667 -43 -59
s-37.667 -32.833 -60 -46.5s-44.833 -26.5 -67.5 -38.5c-48.667 -26.667 -89.334 -52.334 -122.001 -77.001s-52.334 -55.667 -59.001 -93l2 -2c1.33301 0 6 0.5 14 1.5s16.5 1.83301 25.5 2.5s17.5 1.33398 25.5 2.00098s12.667 1 14 1h291v-89h-480z" />
    <glyph glyph-name="three" unicode="3" horiz-adv-x="609" 
d="M302 -13c-30.667 0 -61 3.16602 -91 9.49902s-57 17.333 -81 33s-43.833 37.334 -59.5 65.001s-24.5 62.5 -26.5 104.5h104c2.66699 -43.333 17.5 -75.833 44.5 -97.5s63.833 -32.5 110.5 -32.5c46 0 81.667 10.5 107 31.5s38 49.167 38 84.5v2
c0 34.667 -11.167 62 -33.5 82s-59.5 30 -111.5 30h-60v79h57c44.667 0 78.5 10 101.5 30s34.5 46 34.5 78v2c0 31.333 -12 56 -36 74s-56 27 -96 27c-46.667 0 -82.167 -11.167 -106.5 -33.5s-38.166 -52.833 -41.499 -91.5h-102c2.66699 36 11 67.167 25 93.5
s32.167 48 54.5 65s48.5 29.5 78.5 37.5s62.333 12 97 12c69.333 0 124.666 -15.333 165.999 -46s62 -72.667 62 -126c0 -34 -11.5 -64 -34.5 -90s-56.833 -44.333 -101.5 -55c50 -9.33301 88 -28.833 114 -58.5s39 -66.167 39 -109.5c0 -59.333 -23 -107.5 -69 -144.5
s-107 -55.5 -183 -55.5z" />
    <glyph glyph-name="four" unicode="4" horiz-adv-x="588" 
d="M32 136v84l255 439h128l-232 -370l-58 -74l97 12h140l2 160l97 33v-193h93v-91h-93v-136h-99v136h-330z" />
    <glyph glyph-name="five" unicode="5" horiz-adv-x="602" 
d="M300 -11c-70.667 0 -127.335 15.333 -170.002 46s-69.667 72 -81 124l96 30c8.66699 -36 26.5 -64.667 53.5 -86s60.833 -32 101.5 -32c48 0 85 14.167 111 42.5s39 63.166 39 104.499v2c0 42.667 -13 77.334 -39 104.001s-61.333 40 -106 40c-33.333 0 -63 -7 -89 -21
s-49.333 -34.333 -70 -61l-79 33l45 344h400v-90h-323l-32 -199c22.667 26 49.834 45.333 81.501 58s63.834 19 96.501 19c67.333 0 121.333 -19.833 162 -59.5s61 -94.167 61 -163.5c0 -33.333 -6.66699 -64.5 -20 -93.5s-31.5 -53.833 -54.5 -74.5s-50.333 -37 -82 -49
s-65.5 -18 -101.5 -18z" />
    <glyph glyph-name="six" unicode="6" horiz-adv-x="595" 
d="M313 -11c-44 0 -83.168 8.33301 -117.501 25s-63 39.667 -86 69s-40.333 64.333 -52 105s-17.5 84.667 -17.5 132c0 116.667 26 204.5 78 263.5s121 88.5 207 88.5c64.667 0 114.167 -13.167 148.5 -39.5s57.833 -55.833 70.5 -88.5l-85 -34
c-8.66699 20.667 -24.5 39.167 -47.5 55.5s-52.833 24.5 -89.5 24.5c-52 0 -95 -21.167 -129 -63.5s-51.333 -102.5 -52 -180.5c0 -0.666992 -0.5 -4.5 -1.5 -11.5s-1.83301 -14.833 -2.5 -23.5c18 40.667 45.5 71.167 82.5 91.5s76.5 30.5 118.5 30.5
c68.667 0 122.834 -20 162.501 -60s59.5 -92.667 59.5 -158c0 -30 -6 -58.667 -18 -86s-28.833 -51.333 -50.5 -72s-47.667 -37.167 -78 -49.5s-63.833 -18.5 -100.5 -18.5zM310.999 67c44.667 0 80 13.335 106 40.002s39 61.667 39 105v4c0 40 -11.833 73.5 -35.5 100.5
s-58.5 40.5 -104.5 40.5c-22 0 -42.667 -3.83301 -62 -11.5s-36.333 -17.834 -51 -30.501s-26.5 -26.834 -35.5 -42.501s-14.167 -31.5 -15.5 -47.5l1 -7c2.66699 -18 8.16699 -36.167 16.5 -54.5s19.333 -34.5 33 -48.5s29.667 -25.5 48 -34.5s38.5 -13.5 60.5 -13.5z" />
    <glyph glyph-name="seven" unicode="7" horiz-adv-x="526" 
d="M500 584l-282 -584h-119l253 488l58 86l-108 -8h-264v93h462v-75z" />
    <glyph glyph-name="eight" unicode="8" horiz-adv-x="625" 
d="M316 -13c-78.667 0 -141.833 17.335 -189.5 52.002s-71.5 80.667 -71.5 138c0 44 13.333 79.333 40 106s61.667 46 105 58c-38 12 -67.833 30.833 -89.5 56.5s-32.5 57.5 -32.5 95.5c0 55.333 21.667 99 65 131s99.333 48 168 48c71.333 0 128.333 -15.667 171 -47
s64 -74.666 64 -129.999c0 -38 -11.833 -68.833 -35.5 -92.5s-54.5 -40.834 -92.5 -51.501c46 -10.667 82.833 -29.834 110.5 -57.501s41.5 -63.834 41.5 -108.501c0 -58 -22 -105.5 -66 -142.5s-106.667 -55.5 -188 -55.5zM315.001 65.002
c48.667 0 86.498 10.834 113.498 32.501s40.5 50.167 40.5 85.5c0 38 -14.667 68 -44 90s-68.666 33 -117.999 33s-86.666 -11.833 -111.999 -35.5s-38 -52.834 -38 -87.501c0 -35.333 14.333 -63.833 43 -85.5s67 -32.5 115 -32.5zM317.999 380.003c42 0 74 10 96 30
s33 47 33 81c0 32.667 -12 58.167 -36 76.5s-56.333 27.5 -97 27.5c-41.333 0 -74.333 -9.66699 -99 -29s-37 -45.333 -37 -78c0 -34 13 -60.5 39 -79.5s59.667 -28.5 101 -28.5z" />
    <glyph glyph-name="nine" unicode="9" horiz-adv-x="626" 
d="M298 -11c-62.667 0 -113.832 13.168 -153.499 39.501s-66.834 56.5 -81.501 90.5l91 40c9.33301 -24.667 26.833 -45.167 52.5 -61.5s57.5 -24.5 95.5 -24.5c60 0 103 22.833 129 68.5s39 106.5 39 182.5v16c-16.667 -34 -41.5 -61.667 -74.5 -83s-72.5 -32 -118.5 -32
c-33.333 0 -64 5.5 -92 16.5s-52 26.333 -72 46s-35.667 43 -47 70s-17 56.167 -17 87.5c0 32.667 6.33301 62.834 19 90.501s30.167 51.667 52.5 72s49.166 36.166 80.499 47.499s65 17 101 17c84.667 0 150.334 -27.667 197.001 -83s70 -137.666 70 -246.999
c0 -53.333 -5.33301 -101.833 -16 -145.5s-27 -80.834 -49 -111.501s-50.167 -54.334 -84.5 -71.001s-74.833 -25 -121.5 -25zM304.002 307.001c24.667 0 46.168 4.49902 64.501 13.499s33.666 20.333 45.999 34s22 28.5 29 44.5s10.833 31.333 11.5 46v5
c-6.66699 44 -22.5 78.5 -47.5 103.5s-59.833 37.5 -104.5 37.5c-44 0 -79.833 -13.167 -107.5 -39.5s-41.5 -59.166 -41.5 -98.499v-3c0 -40.667 13 -74.667 39 -102s63 -41 111 -41z" />
    <glyph glyph-name="colon" unicode=":" horiz-adv-x="245" 
d="M171 0h-97c-2 0 -3.5 0.5 -4.5 1.5s-1.5 2.83301 -1.5 5.5v132c0 2.66699 0.666992 4.5 2 5.5s3 1.5 5 1.5h96c1.33301 0 2.66602 -0.5 3.99902 -1.5s2 -2.83301 2 -5.5v-132c0 -2.66699 -0.666992 -4.5 -2 -5.5s-2.66602 -1.5 -3.99902 -1.5zM171 315h-97
c-2 0 -3.5 0.5 -4.5 1.5s-1.5 2.83301 -1.5 5.5v132c0 2.66699 0.666992 4.5 2 5.5s3 1.5 5 1.5h96c1.33301 0 2.66602 -0.5 3.99902 -1.5s2 -2.83301 2 -5.5v-132c0 -2.66699 -0.666992 -4.5 -2 -5.5s-2.66602 -1.5 -3.99902 -1.5z" />
    <glyph glyph-name="semicolon" unicode=";" horiz-adv-x="255" 
d="M183 53c0 -67.333 -10.168 -120.667 -30.501 -160s-53.166 -65.333 -98.499 -78l-20 44c30 10.667 50.167 28 60.5 52s15.833 56.667 16.5 98h-31c-1.33301 0 -2.5 0.5 -3.5 1.5s-1.5 2.5 -1.5 4.5v124c0 2.66699 1 4.5 3 5.5s4 1.5 6 1.5h93c2 0 3.5 -0.5 4.5 -1.5
s1.5 -2.83301 1.5 -5.5v-86zM79.999 314.999c-1.33301 0 -2.5 0.5 -3.5 1.5s-1.5 2.83301 -1.5 5.5v132c0 2.66699 0.5 4.5 1.5 5.5s2.83301 1.5 5.5 1.5h95c2 0 3.5 -0.5 4.5 -1.5s1.5 -2.83301 1.5 -5.5v-132c0 -2.66699 -0.5 -4.5 -1.5 -5.5s-2.5 -1.5 -4.5 -1.5h-97z
" />
    <glyph glyph-name="less" unicode="&#x3c;" horiz-adv-x="424" 
d="M360 65l-313 204v75l313 205v-101l-214 -142l214 -141v-100z" />
    <glyph glyph-name="equal" unicode="=" horiz-adv-x="522" 
d="M65 143v85h392v-85h-392zM65 383v85h392v-85h-392z" />
    <glyph glyph-name="greater" unicode="&#x3e;" horiz-adv-x="424" 
d="M377 269l-313 -204v100l214 141l-214 142v101l313 -205v-75z" />
    <glyph glyph-name="question" unicode="?" horiz-adv-x="535" 
d="M217 224c-0.666992 0.666992 -0.998047 4.33398 -0.998047 11.001v11c0 34 5.33301 60.833 16 80.5s24.334 37.167 41.001 52.5l43.5 36.5c13.667 11 25.667 22.333 36 34s18.666 24.5 24.999 38.5s9.5 30.667 9.5 50c0 28 -9.66699 52.167 -29 72.5
s-49.666 30.5 -90.999 30.5c-22 0 -41.333 -4 -58 -12s-31 -18.167 -43 -30.5s-21.833 -26 -29.5 -41s-13.834 -29.167 -18.501 -42.5l-90 37c8.66699 23.333 20.167 45.666 34.5 66.999s31.666 39.833 51.999 55.5s43.5 28.167 69.5 37.5s55.333 14 88 14
c37.333 0 69.833 -4.83301 97.5 -14.5s50.5 -22.5 68.5 -38.5s31.333 -35 40 -57s13 -45.333 13 -70c0 -28 -4.83301 -52.167 -14.5 -72.5s-21.667 -38.333 -36 -54s-30.333 -30.167 -48 -43.5s-34.5 -27.333 -50.5 -42c-16.667 -14 -28.834 -29 -36.501 -45
s-11.5 -37.667 -11.5 -65h-77zM207.002 0c-1.33301 0 -2.5 0.5 -3.5 1.5s-1.5 2.83301 -1.5 5.5v130c0 2.66699 0.5 4.5 1.5 5.5s2.83301 1.5 5.5 1.5h95c2 0 3.66699 -0.5 5 -1.5s2 -2.83301 2 -5.5v-130c0 -2.66699 -0.666992 -4.5 -2 -5.5s-3 -1.5 -5 -1.5h-97z" />
    <glyph glyph-name="at" unicode="@" horiz-adv-x="938" 
d="M384 39c-35.333 0 -65.6699 11.834 -91.0029 35.501s-38 62.5 -38 116.5c0 31.333 5.33301 62.166 16 92.499s25.167 57.166 43.5 80.499s40 42.166 65 56.499s51.5 21.5 79.5 21.5c36.667 0 64.167 -10.833 82.5 -32.5s28.833 -47.167 31.5 -76.5l26 97h83l-60 -216
c-6.66699 -20.667 -11 -36.167 -13 -46.5s-3 -20.166 -3 -29.499c0 -12.667 2.66699 -22 8 -28s17 -9 35 -9c26 0 48.667 8 68 24s35.166 36.333 47.499 61s21.5 51.834 27.5 81.501s9 58.167 9 85.5c0 77.333 -26.667 138.666 -80 183.999s-125.666 68 -216.999 68
c-58 0 -110.5 -10.833 -157.5 -32.5s-86.667 -51 -119 -88s-57.333 -80.5 -75 -130.5s-26.5 -103 -26.5 -159c0 -50 7.66699 -94.833 23 -134.5s37 -73 65 -100s62 -47.5 102 -61.5s84.667 -21 134 -21c37.333 0 72.833 4.83301 106.5 14.5s64.5 22.834 92.5 39.501l31 -50
c-34 -20.667 -69.833 -37 -107.5 -49s-78.834 -18 -123.501 -18c-56.667 0 -109.167 8.33301 -157.5 25s-89.833 40.834 -124.5 72.501s-61.667 71 -81 118s-29 100.5 -29 160.5c0 66 11 127.833 33 185.5s52.667 107.667 92 150s86.5 75.833 141.5 100.5s115.5 37 181.5 37
c54.667 0 104.5 -7.33301 149.5 -22s83.333 -35.334 115 -62.001s56.167 -58.834 73.5 -96.501s26 -79.5 26 -125.5c0 -43.333 -5.83301 -84.5 -17.5 -123.5s-27.667 -73.167 -48 -102.5s-44.666 -52.666 -72.999 -69.999s-58.833 -26 -91.5 -26
c-37.333 0 -64.666 8.83301 -81.999 26.5s-25.666 43.5 -24.999 77.5c-15.333 -29.333 -35.666 -53.5 -60.999 -72.5s-54.333 -28.5 -87 -28.5zM417.996 102.001c36.667 0 68.168 16.999 94.501 50.999s41.166 76 44.499 126c0 32.667 -6.83301 58 -20.5 76
s-34.5 27 -62.5 27c-19.333 0 -37.333 -5.66699 -54 -17s-31 -25.666 -43 -42.999s-21.333 -37 -28 -59s-10 -43.333 -10 -64c0 -31.333 6.5 -55.333 19.5 -72s32.833 -25 59.5 -25z" />
    <glyph glyph-name="A" unicode="A" horiz-adv-x="616" 
d="M10 0l234 659h132l230 -659h-106l-60 179h-265l-60 -179h-105zM274 476l-72 -214h212l-71 214l-31 120h-4z" />
    <glyph glyph-name="B" unicode="B" horiz-adv-x="641" 
d="M94 0v659.001h223c78.667 0 138.5 -13.333 179.5 -40s61.5 -69 61.5 -127c0 -36.667 -10 -66.334 -30 -89.001s-49.333 -38.667 -88 -48c47.333 -10 84.333 -28.5 111 -55.5s40 -63.5 40 -109.5c0 -60 -22.5 -106.667 -67.5 -140s-107.833 -50 -188.5 -50h-241z
M193 81.001l144 -0.000976562c48 0 84.833 8.83301 110.5 26.5s38.5 44.834 38.5 81.501c0 34 -12.333 61.5 -37 82.5s-68 31.5 -130 31.5h-126v-222zM193 577v-202.001h140c38.667 0.666992 69 10.334 91 29.001s33 44 33 76c0 31.333 -10.833 55.333 -32.5 72
s-59.167 25 -112.5 25h-119z" />
    <glyph glyph-name="C" unicode="C" horiz-adv-x="661" 
d="M353 -12c-47.333 0 -89.834 8.33105 -127.501 24.998s-69.5 39.834 -95.5 69.501s-45.833 65.667 -59.5 108s-20.5 88.833 -20.5 139.5c0 51.333 7.16699 98.166 21.5 140.499s34.833 78.333 61.5 108s58.834 52.667 96.501 69s79.5 24.5 125.5 24.5
c70.667 0 128.667 -17.667 174 -53s76.333 -87.333 93 -156l-101 -20c-13.333 51.333 -33.5 88.5 -60.5 111.5s-62.5 34.5 -106.5 34.5c-61.333 0 -110 -23.333 -146 -70s-54 -109 -54 -187v-3c0 -77.333 17.333 -139.666 52 -186.999s84 -71 148 -71
c50 0 88.333 13.5 115 40.5s45 64.167 55 111.5l100 -19c-14 -69.333 -44.5 -122.666 -91.5 -159.999s-106.833 -56 -179.5 -56z" />
    <glyph glyph-name="D" unicode="D" horiz-adv-x="675" 
d="M94 0v659h215c101.333 0 179.333 -28.167 234 -84.5s82 -137.833 82 -244.5c0 -104 -28.5 -185 -85.5 -243s-137.833 -87 -242.5 -87h-203zM194 85h110c71.333 0 124.833 21.333 160.5 64s53.5 102.667 53.5 180v4c0 80 -17.667 140.333 -53 181s-88.333 61 -159 61h-112
v-490z" />
    <glyph glyph-name="E" unicode="E" horiz-adv-x="580" 
d="M94 0v659h433v-88h-333v-188h236v-86h-236v-210h346v-87h-446z" />
    <glyph glyph-name="F" unicode="F" horiz-adv-x="538" 
d="M94 0v659h418v-89h-316v-200h250v-89h-250v-281h-102z" />
    <glyph glyph-name="G" unicode="G" horiz-adv-x="709" 
d="M341 -12c-43.333 0 -83.002 8.16504 -119.002 24.498s-66.667 39.333 -92 69s-45 65.5 -59 107.5s-21 88.333 -21 139c0 52 7.5 99.333 22.5 142s36.333 78.834 64 108.501s61.167 52.667 100.5 69s83.333 24.5 132 24.5c69.333 0 126.5 -14.833 171.5 -44.5
s77.5 -71.167 97.5 -124.5l-104 -33c-12 38.667 -31.667 68.167 -59 88.5s-62.666 30.5 -105.999 30.5c-64.667 0 -116.667 -22.5 -156 -67.5s-59 -107.833 -59 -188.5v-4c0 -80 18.333 -143.167 55 -189.5s86.334 -69.5 149.001 -69.5c24.667 0 48.167 3.83301 70.5 11.5
s42 19.334 59 35.001s30.833 35.5 41.5 59.5s16.667 52.333 18 85h-167v89h267v-350h-78l-8 181c-10.667 -63.333 -35.5 -111.333 -74.5 -144s-87.5 -49 -145.5 -49z" />
    <glyph glyph-name="H" unicode="H" horiz-adv-x="700" 
d="M94 0v659h102v-278h307v278h102v-659h-102v293h-307v-293h-102z" />
    <glyph glyph-name="I" unicode="I" horiz-adv-x="294" 
d="M96 0v659h102v-659h-102z" />
    <glyph glyph-name="J" unicode="J" horiz-adv-x="530" 
d="M237 -13c-67.333 0 -119.001 18.5 -155.001 55.5s-56.333 86.5 -61 148.5l100 15c4.66699 -43.333 16.334 -75.333 35.001 -96s45 -31 79 -31c41.333 0 70 11.833 86 35.5s24 61.5 24 113.5v431h101v-442c0 -78 -17.5 -135.833 -52.5 -173.5s-87.167 -56.5 -156.5 -56.5z
" />
    <glyph glyph-name="K" unicode="K" horiz-adv-x="623" 
d="M94 0v659h100v-287l-4 -80l290 367h119l-218 -271l229 -388h-117l-181 321l-122 -146l4 -67v-108h-100z" />
    <glyph glyph-name="L" unicode="L" horiz-adv-x="506" 
d="M94 0v659h103v-568h285v-91h-388z" />
    <glyph glyph-name="M" unicode="M" horiz-adv-x="886" 
d="M94 0v659h163l161 -450l25 -113h5l22 113l161 450h161v-659h-98v326l8 264h-7l-55 -173l-156 -417h-81l-155 412l-60 178h-7l12 -264v-326h-99z" />
    <glyph glyph-name="N" unicode="N" horiz-adv-x="713" 
d="M94 0v659h117l242 -388l82 -159l-14 162v385h98v-659h-96l-269 423l-80 152l16 -155v-420h-96z" />
    <glyph glyph-name="O" unicode="O" horiz-adv-x="713" 
d="M351 -12c-47.333 0 -89.6699 8 -127.003 24s-68.833 38.667 -94.5 68s-45.167 65.166 -58.5 107.499s-20 89.5 -20 141.5c0 51.333 7 98.166 21 140.499s34 78.5 60 108.5s58.333 53.167 97 69.5s82.334 24.5 131.001 24.5c47.333 0 89.833 -8.16699 127.5 -24.5
s69.334 -39.5 95.001 -69.5s45.334 -66.167 59.001 -108.5s20.5 -89.166 20.5 -140.499c0 -52 -7.16699 -99.167 -21.5 -141.5s-34.666 -78.166 -60.999 -107.499s-58.833 -52 -97.5 -68s-82.334 -24 -131.001 -24zM354.996 70c64 0 113.501 22.665 148.501 67.998
s52.5 109 52.5 191v2c0 80.667 -17.5 143.834 -52.5 189.501s-84.167 68.5 -147.5 68.5c-64 0 -113.667 -22.667 -149 -68s-53 -108.666 -53 -189.999v-3c0 -80 17.667 -143 53 -189s84.666 -69 147.999 -69z" />
    <glyph glyph-name="P" unicode="P" horiz-adv-x="579" 
d="M94 0v659h208c84 0 145.5 -17.333 184.5 -52s58.5 -85 58.5 -151c0 -68 -22.833 -122.333 -68.5 -163s-109.167 -61 -190.5 -61h-91v-232h-101zM195 579v-266h88c56 0 96.5 12.667 121.5 38s37.5 57 37.5 95c0 48 -11.833 82.167 -35.5 102.5s-64.5 30.5 -122.5 30.5h-89
z" />
    <glyph glyph-name="Q" unicode="Q" horiz-adv-x="713" 
d="M353 -12c-47.333 0 -89.832 8 -127.499 24s-69.334 38.667 -95.001 68s-45.334 65.166 -59.001 107.499s-20.5 89.5 -20.5 141.5c0 51.333 6.83301 98.166 20.5 140.499s33.5 78.5 59.5 108.5s58.167 53.167 96.5 69.5s81.833 24.5 130.5 24.5
c47.333 0 90 -8.16699 128 -24.5s70 -39.5 96 -69.5s45.833 -66.167 59.5 -108.5s20.5 -89.166 20.5 -140.499c0 -82.667 -17.167 -152.167 -51.5 -208.5s-83.166 -94.833 -146.499 -115.5c47.333 -10.667 82.833 -32 106.5 -64s40.834 -70.333 51.501 -115h-131
c-4.66699 41.333 -15.834 76.833 -33.501 106.5s-40.167 48.834 -67.5 57.501c-6 -0.666992 -12 -1.16699 -18 -1.5s-12.333 -0.5 -19 -0.5zM355.001 70c64 0 113.501 22.665 148.501 67.998s52.5 109 52.5 191v2c0 80.667 -17.5 143.834 -52.5 189.501
s-84.167 68.5 -147.5 68.5c-64 0 -113.667 -22.667 -149 -68s-53 -108.666 -53 -189.999v-3c0 -80 17.667 -143 53 -189s84.666 -69 147.999 -69z" />
    <glyph glyph-name="R" unicode="R" horiz-adv-x="636" 
d="M94 0v659h223c85.333 0 146.5 -16.333 183.5 -49s55.5 -74.667 55.5 -126c0 -16.667 -2.33301 -33.667 -7 -51s-12.834 -33.5 -24.501 -48.5s-27.167 -28.667 -46.5 -41s-43.666 -21.5 -72.999 -27.5c50 -10.667 89.167 -39.5 117.5 -86.5s45.833 -111.167 52.5 -192.5
c0.666992 -10.667 1.16699 -19 1.5 -25s0.833008 -10 1.5 -12h-105c0 2 -0.166992 5.66699 -0.5 11s-0.5 12 -0.5 20c-6 78.667 -22.833 137.5 -50.5 176.5s-70.167 58.5 -127.5 58.5h-100v-266h-100zM194 343l106.999 0.000976562c56 0 95.333 12.667 118 38s34 55 34 89
c0 33.333 -10.667 59.666 -32 78.999s-61.666 29 -120.999 29h-106v-235z" />
    <glyph glyph-name="S" unicode="S" horiz-adv-x="566" 
d="M278 -11c-60 0 -111.168 13.334 -153.501 40.001s-71.166 66.667 -86.499 120l90 36c10.667 -38.667 30.167 -67.167 58.5 -85.5s60.166 -27.5 95.499 -27.5c41.333 0 73.833 9.16699 97.5 27.5s35.5 43.166 35.5 74.499c0 34 -14 59 -42 75s-69 32.333 -123 49
c-59.333 18.667 -105.5 41.834 -138.5 69.501s-49.167 69.167 -48.5 124.5c0 51.333 20.667 94 62 128s95.666 51 162.999 51c60 0 109.667 -12.5 149 -37.5s65.333 -61.5 78 -109.5l-86 -37c-8.66699 34 -25.167 59.5 -49.5 76.5s-54.833 25.5 -91.5 25.5
c-42 0 -73.5 -9 -94.5 -27s-31.5 -39.333 -31.5 -64c0 -30.667 10.333 -53.667 31 -69s59.334 -31.666 116.001 -48.999c28.667 -8.66699 55.834 -18.334 81.501 -29.001s48 -23.334 67 -38.001s34 -32.334 45 -53.001s16.5 -45.667 16.5 -75s-6 -56.166 -18 -80.499
s-28.5 -45 -49.5 -62s-46.333 -30.167 -76 -39.5s-62.167 -14 -97.5 -14z" />
    <glyph glyph-name="T" unicode="T" horiz-adv-x="531" 
d="M25 569v90h481v-90h-189v-569h-102v569h-190z" />
    <glyph glyph-name="U" unicode="U" horiz-adv-x="672" 
d="M338 -13c-84.667 0 -148.666 23.333 -191.999 70s-65 116.667 -65 210v392h102v-389c0 -66.667 12.667 -115.667 38 -147s63.666 -47 114.999 -47c52 0 90.833 15.5 116.5 46.5s38.5 80.167 38.5 147.5v389h101v-392c0 -96 -23.167 -166.667 -69.5 -212
s-107.833 -68 -184.5 -68z" />
    <glyph glyph-name="V" unicode="V" horiz-adv-x="585" 
d="M235 0l-224 659h108l141 -439l31 -133h4l30 133l143 439h107l-227 -659h-113z" />
    <glyph glyph-name="W" unicode="W" horiz-adv-x="884" 
d="M197 0l-183 659h106l103 -423l25 -157h5l26 157l111 423h106l111 -423l26 -157h5l26 157l101 423h105l-183 -659h-107l-116 442l-21 138h-5l-22 -138l-112 -442h-107z" />
    <glyph glyph-name="X" unicode="X" horiz-adv-x="590" 
d="M454 0l-102 170l-57 117l-57 -114l-108 -173h-119l222 336l-204 323h117l104 -171l46 -101l50 100l108 172h117l-214 -317l215 -342h-118z" />
    <glyph glyph-name="Y" unicode="Y" horiz-adv-x="570" 
d="M234 0v260l-229 399h116l106 -195l54 -137h9l54 137l104 195h118l-230 -399v-260h-102z" />
    <glyph glyph-name="Z" unicode="Z" horiz-adv-x="561" 
d="M36 0v81l285 393l96 105l-130 -11h-228v91h453v-83l-284 -395l-98 -102l130 9h260v-88h-484z" />
    <glyph glyph-name="bracketleft" unicode="[" horiz-adv-x="385" 
d="M349 -114v-77h-243v951h243v-78h-154v-796h154z" />
    <glyph glyph-name="backslash" unicode="\" horiz-adv-x="455" 
d="M319 0l-279 672h98l277 -672h-96z" />
    <glyph glyph-name="bracketright" unicode="]" horiz-adv-x="385" 
d="M36 -191v78h152l1 794h-153v79h244l-1 -951h-243z" />
    <glyph glyph-name="asciicircum" unicode="^" horiz-adv-x="509" 
d="M51 136l142 523h112l154 -523h-99l-63 235l-48 216l-39 -216l-60 -235h-99z" />
    <glyph glyph-name="underscore" unicode="_" horiz-adv-x="611" 
d="M-10 -172v80h631v-80h-631z" />
    <glyph glyph-name="grave" unicode="`" horiz-adv-x="269" 
d="M181 567l-161 161v12h117l112 -173h-68z" />
    <glyph glyph-name="a" unicode="a" horiz-adv-x="529" 
d="M380 0c-6 6.66699 -11.1709 18.832 -15.5039 36.499s-6.83301 41.5 -7.5 71.5c-10.667 -34.667 -31.167 -63 -61.5 -85s-65.166 -32.667 -104.499 -32c-48 0 -84.833 12.833 -110.5 38.5s-38.5 58.5 -38.5 98.5c0.666992 46 17 80.333 49 103s74 39 126 49
c48 10 82.833 18.5 104.5 25.5s32.834 15.167 33.501 24.5v8c0 30.667 -8.16699 53.834 -24.5 69.501s-41.833 23.5 -76.5 23.5c-30.667 0 -57.167 -7.5 -79.5 -22.5s-38.5 -32.833 -48.5 -53.5l-77 40c17.333 34 45.333 61.333 84 82s82.334 31 131.001 31
c62.667 0 109.834 -15 141.501 -45s47.5 -74.667 47.5 -134v-165c0 -52 2.66699 -90.333 8 -115s12 -41 20 -49h-101zM219.996 63.998c34 0 63.832 10.834 89.499 32.501s40.834 49.5 45.501 83.5v100c-4.66699 -8 -14.667 -15.5 -30 -22.5s-33.333 -12.833 -54 -17.5
c-42 -10 -73.833 -22.833 -95.5 -38.5s-32.5 -36.834 -32.5 -63.501c0 -24.667 7.66699 -43.167 23 -55.5s33.333 -18.5 54 -18.5z" />
    <glyph glyph-name="b" unicode="b" horiz-adv-x="590" 
d="M342 -7c-42 0 -78.001 12.5 -108.001 37.5s-51 56.5 -63 94.5v-125h-89v734h96v-243l-4 -102h6c12 33.333 32.833 61.833 62.5 85.5s65.167 35.5 106.5 35.5c63.333 0 111.5 -22 144.5 -66s49.5 -104.667 49.5 -182c0 -86 -19.167 -152.333 -57.5 -199
s-86.166 -70 -143.499 -70zM311.999 68c38.667 0 69.499 17.335 92.499 52.002s34.5 79 34.5 133c0 56.667 -10.333 101 -31 133s-52 48 -94 48c-22 0 -41.667 -5.33301 -59 -16s-32 -24.334 -44 -41.001s-21.167 -35.5 -27.5 -56.5s-9.5 -41.167 -9.5 -60.5v-27
c0 -46.667 11.833 -85.834 35.5 -117.501s57.834 -47.5 102.501 -47.5z" />
    <glyph glyph-name="c" unicode="c" horiz-adv-x="504" 
d="M280 -11c-73.333 0 -131.001 23.832 -173.001 71.499s-63 110.834 -63 189.501c0 37.333 5.33301 71.833 16 103.5s26.167 59 46.5 82s45.333 41.167 75 54.5s63.167 20 100.5 20c49.333 0 89.833 -9.83301 121.5 -29.5s55.834 -51.5 72.501 -95.5l-87 -38
c-6.66699 22.667 -18.167 42.5 -34.5 59.5s-39.833 25.5 -70.5 25.5c-41.333 0 -74.333 -15.167 -99 -45.5s-37 -74.833 -37 -133.5c0 -59.333 11.5 -105.166 34.5 -137.499s56.5 -48.5 100.5 -48.5c28.667 0 52.5 6.66699 71.5 20s32.833 31.666 41.5 54.999l78 -38
c-14.667 -32.667 -38 -60 -70 -82s-73.333 -33 -124 -33z" />
    <glyph glyph-name="d" unicode="d" horiz-adv-x="590" 
d="M243 -7c-60.667 0 -108.834 23.501 -144.501 70.501s-53.5 110.167 -53.5 189.5c0 84 19 147.833 57 191.5s86.667 65.5 146 65.5c44 0 79.833 -11.833 107.5 -35.5s46.834 -51.834 57.501 -84.501h5l-6 95v249h96v-734h-93l1 121l4 38c-6 -46 -25 -85.167 -57 -117.5
s-72 -48.5 -120 -48.5zM274 69.001c21.333 0 40.667 4.99902 58 14.999s32 23.167 44 39.5s21.333 34.833 28 55.5s10 41.667 10 63v27c0 22 -2.66699 43 -8 63s-13.5 37.667 -24.5 53s-25.167 27.5 -42.5 36.5s-38 13.5 -62 13.5c-40.667 0 -72.167 -16 -94.5 -48
s-33.5 -75 -33.5 -129c0 -57.333 10.833 -103.166 32.5 -137.499s52.5 -51.5 92.5 -51.5z" />
    <glyph glyph-name="e" unicode="e" horiz-adv-x="537" 
d="M282 -11c-75.333 0 -133.5 23.166 -174.5 69.499s-61.167 109.833 -60.5 190.5c0 80.667 21 144.334 63 191.001s98.667 70 170 70c38 0 70.667 -6.16699 98 -18.5s49.5 -29.5 66.5 -51.5s29.5 -48 37.5 -78s12 -62.333 12 -97c0 -4 -0.166992 -10.5 -0.5 -19.5
s-0.5 -14.833 -0.5 -17.5h-347c3.33301 -56 17.833 -97 43.5 -123s58.5 -39 98.5 -39c28.667 0 53.667 6.33301 75 19s37.333 28.334 48 47.001l67 -47c-18.667 -26.667 -44 -49.334 -76 -68.001s-72 -28 -120 -28zM277 434.999c-34 0 -63 -11 -87 -33
s-37.667 -58.333 -41 -109h243v4c0 42 -8.66699 75.5 -26 100.5s-47 37.5 -89 37.5z" />
    <glyph glyph-name="f" unicode="f" horiz-adv-x="339" 
d="M32 416l-0.00195312 80.999h80v88c0 52 13.167 92.5 39.5 121.5s65.5 43.5 117.5 43.5c18.667 0 34.667 -1.16699 48 -3.5s25 -4.83301 35 -7.5v-76c-9.33301 2.66699 -19.666 4.83398 -30.999 6.50098s-22.666 2.5 -33.999 2.5c-30 0 -51 -7.33301 -63 -22
s-18 -38.667 -18 -72v-40l-3 -41h116v-81h-116l3 -45v-371h-94v416h-80z" />
    <glyph glyph-name="g" unicode="g" horiz-adv-x="561" 
d="M262 145c-10 0 -19.834 0.331055 -29.501 0.998047s-18.834 2 -27.501 4c-18.667 -2.66699 -33 -8 -43 -16s-15 -16.333 -15 -25c0 -12.667 5.16699 -23.167 15.5 -31.5s30.166 -14.166 59.499 -17.499l27 -2.5l33.5 -3l34.5 -3c11.333 -1 21.333 -1.83301 30 -2.5
c56.667 -6.66699 99.334 -19.5 128.001 -38.5s43 -48.833 43 -89.5c0 -46.667 -22.667 -85.5 -68 -116.5s-108.666 -46.5 -189.999 -46.5h-8c-75.333 0 -130.666 11.333 -165.999 34s-53 52.667 -53 90c0 25.333 10.667 47.666 32 66.999s51.333 32.666 90 39.999
c-26 4.66699 -47.333 14.834 -64 30.501s-25 34.834 -25 57.501c0 22 7.83301 40.333 23.5 55s39.167 25.667 70.5 33c-32 14.667 -56.833 36.334 -74.5 65.001s-26.5 60.334 -26.5 95.001c0 52 18.167 95.667 54.5 131s87.166 53 152.499 53
c40 0 74.667 -6.83301 104 -20.5s52.333 -32.167 69 -55.5c6 24.667 17 42.5 33 53.5s35 16.5 57 16.5c4 0 8 -0.333008 12 -1s6.66699 -1.33398 8 -2.00098v-94l-9 3c-4 1.33301 -9.33301 2 -16 2c-10.667 0 -21.667 -1.33301 -33 -4s-21.333 -8.33398 -30 -17.001
c3.33301 -9.33301 6 -19.166 8 -29.499s3 -20.833 3 -31.5c0 -54 -18.167 -98.167 -54.5 -132.5s-88.166 -51.5 -155.499 -51.5zM267.999 213.998c38.667 0 66.833 10.8311 84.5 32.498s26.5 48.834 26.5 81.501s-9 59.834 -27 81.501s-46.667 32.5 -86 32.5
c-38 0 -65.833 -11.333 -83.5 -34s-26.5 -49.667 -26.5 -81c0 -32.667 9 -59.667 27 -81s46.333 -32 85 -32zM314.998 -33.0039c-15.333 2 -34.668 3.83398 -58.001 5.50098s-44.333 2.83398 -63 3.50098c-24 -4.66699 -42.167 -13.334 -54.5 -26.001
s-18.166 -27.334 -17.499 -44.001c0 -22.667 12 -41 36 -55s59.667 -21 107 -21h11c56.667 0 96.167 8.33301 118.5 25s33.5 36 33.5 58c0 19.333 -10.167 32.333 -30.5 39s-47.833 11.667 -82.5 15z" />
    <glyph glyph-name="h" unicode="h" horiz-adv-x="583" 
d="M178 734v-298c0 -2.66699 -0.333008 -8 -1 -16s-1.16699 -16.167 -1.5 -24.5s-0.833008 -15.833 -1.5 -22.5l-1 -10h6c11.333 40.667 32.333 75 63 103s68.667 42 114 42c48 0 85 -15 111 -45s39 -75 39 -135v-328h-101v303c0 43.333 -8.16699 74 -24.5 92
s-38.833 27 -67.5 27c-35.333 0 -66.5 -16 -93.5 -48s-40.833 -75.333 -41.5 -130v-244h-96v734h96z" />
    <glyph glyph-name="i" unicode="i" horiz-adv-x="265" 
d="M83 0v497h99v-497h-99zM84 583c-2.66699 0 -4.5 0.666992 -5.5 2s-1.5 3 -1.5 5v99c0 2.66699 0.666992 4.66699 2 6s3.33301 2 6 2h96c2 0 3.5 -0.666992 4.5 -2s1.5 -3.33301 1.5 -6v-99c0 -2 -0.5 -3.66699 -1.5 -5s-2.5 -2 -4.5 -2h-97z" />
    <glyph glyph-name="j" unicode="j" horiz-adv-x="268" 
d="M44 -210c-12.667 0 -24.167 1.00098 -34.5 3.00098s-17.833 3.33301 -22.5 4v77c6 -1.33301 12.167 -2.33301 18.5 -3s12.5 -1 18.5 -1c24.667 0 41.667 6.16699 51 18.5s14 34.166 14 65.499v543h97v-540c0 -62 -10.667 -105.333 -32 -130s-58 -37 -110 -37zM89 583.001
c-2 0 -3.33398 0.666992 -4.00098 2s-1 3 -1 5v99c0 2.66699 0.333008 4.66699 1 6s2.33398 2 5.00098 2h96c2.66699 0 4.5 -0.666992 5.5 -2s1.5 -3.33301 1.5 -6v-99c0 -2 -0.5 -3.66699 -1.5 -5s-2.83301 -2 -5.5 -2h-97z" />
    <glyph glyph-name="k" unicode="k" horiz-adv-x="529" 
d="M82 0v734h96v-404l-5 -107l213 274h122l-165 -198l178 -299h-112l-136 239l-98 -113l2 -35v-91h-95z" />
    <glyph glyph-name="l" unicode="l" horiz-adv-x="264" 
d="M83 0v734h98v-734h-98z" />
    <glyph glyph-name="m" unicode="m" horiz-adv-x="882" 
d="M179 497l0.00292969 -68.001c0 -4 -0.166992 -9.83301 -0.5 -17.5s-0.833008 -15.167 -1.5 -22.5s-1.16699 -13.833 -1.5 -19.5l-0.5 -8.5h6c11.333 40 31.833 74.5 61.5 103.5s66.834 43.5 111.501 43.5c44 0 77.167 -14 99.5 -42s35.166 -63 38.499 -105h6
c14 46.667 36 82.834 66 108.501s65 38.5 105 38.5c48 0 82.833 -16.5 104.5 -49.5s32.5 -77.5 32.5 -133.5v-325h-100v302c0 38 -5 67.5 -15 88.5s-30.333 31.5 -61 31.5s-59.334 -13.333 -86.001 -40s-42.334 -69.667 -47.001 -129v-253h-100v303
c0 43.333 -6.83301 74 -20.5 92s-34.834 27 -63.501 27c-34.667 0 -65 -15 -91 -45s-39.333 -71.667 -40 -125v-252h-100v497h97z" />
    <glyph glyph-name="n" unicode="n" horiz-adv-x="584" 
d="M179 497v-68.001c0 -2.66699 -0.166992 -7.66699 -0.5 -15s-0.833008 -15 -1.5 -23s-1.16699 -15 -1.5 -21l-0.5 -9h6c11.333 40.667 32.333 75.334 63 104.001s68.334 43 113.001 43c48.667 0 86 -15.333 112 -46s39 -76 39 -136v-326h-101v303c0 43.333 -8 74 -24 92
s-38.333 27 -67 27c-35.333 0 -66.333 -15 -93 -45s-40.334 -71.667 -41.001 -125v-252h-100v497h97z" />
    <glyph glyph-name="o" unicode="o" horiz-adv-x="569" 
d="M282 -11c-77.333 0 -136.502 23.666 -177.502 70.999s-61.5 110.333 -61.5 189c0 36.667 5.5 71 16.5 103s27 59.667 48 83s46.833 41.666 77.5 54.999s65.334 20 104.001 20c76 0 134.5 -23.5 175.5 -70.5s61.5 -109.167 61.5 -186.5c0 -38 -5.66699 -73.167 -17 -105.5
s-27.5 -60.166 -48.5 -83.499s-46.667 -41.666 -77 -54.999s-64.166 -20 -101.499 -20zM283.998 64.999c44 0 78.167 16.998 102.5 50.998s36.5 79 36.5 135c0 54.667 -11.667 98.834 -35 132.501s-57 50.5 -101 50.5c-45.333 0 -80 -17 -104 -51s-36 -78 -36 -132
c0 -55.333 11.833 -100.166 35.5 -134.499s57.5 -51.5 101.5 -51.5z" />
    <glyph glyph-name="p" unicode="p" horiz-adv-x="589" 
d="M341 -7c-40.667 0 -75.832 12 -105.499 36s-50.834 54.333 -63.501 91h-6l12 -122v-211h-96v710h95v-42l-3 -66h5c12.667 33.333 33.667 61.833 63 85.5s65 35.5 107 35.5c63.333 0 111.5 -22 144.5 -66s49.5 -104.667 49.5 -182c0 -86 -19.167 -152.333 -57.5 -199
s-86.5 -70 -144.5 -70zM312.002 68c38.667 0 69.499 17.501 92.499 52.501s34.5 79.5 34.5 133.5c0 56.667 -10.333 100.834 -31 132.501s-52 47.5 -94 47.5c-22 0 -41.667 -5.33301 -59 -16s-32 -24.334 -44 -41.001s-21.167 -35.5 -27.5 -56.5s-9.5 -41.167 -9.5 -60.5
v-27c0 -46.667 11.833 -85.834 35.5 -117.501s57.834 -47.5 102.501 -47.5z" />
    <glyph glyph-name="q" unicode="q" horiz-adv-x="591" 
d="M243 -7c-61.333 0 -109.668 23.499 -145.001 70.499s-53 110.167 -53 189.5c0 84 19 147.833 57 191.5s86.667 65.5 146 65.5c44 0 79.833 -11.667 107.5 -35s46.834 -51.333 57.501 -84h6l-5 65v41h95v-710h-98v210l13 161h-6
c-8.66699 -45.333 -28 -84.166 -58 -116.499s-69 -48.5 -117 -48.5zM273.998 68.999c21.333 0 40.667 5.16602 58 15.499s32 23.5 44 39.5s21.333 34.5 28 55.5s10 41.833 10 62.5v27c0 22 -2.66699 43.167 -8 63.5s-13.5 38 -24.5 53s-25.167 27 -42.5 36
s-38 13.5 -62 13.5c-40.667 0 -72.167 -16 -94.5 -48s-33.5 -75 -33.5 -129c0 -57.333 10.833 -103.166 32.5 -137.499s52.5 -51.5 92.5 -51.5z" />
    <glyph glyph-name="r" unicode="r" horiz-adv-x="380" 
d="M80 0l-0.000976562 497h95v-67l-11 -155h7c2.66699 26.667 8 53.667 16 81s18.833 52 32.5 74s30.834 40 51.501 54s45.334 21 74.001 21h15v-119c-4.66699 0.666992 -10.334 1 -17.001 1h-19c-47.333 0 -82.5 -17.333 -105.5 -52s-36.167 -79.667 -39.5 -135v-200h-99z
" />
    <glyph glyph-name="s" unicode="s" horiz-adv-x="460" 
d="M231 -9c-40.667 0 -79.002 8.33496 -115.002 25.002s-63.667 42 -83 76l66 50c16.667 -26.667 36.667 -46.167 60 -58.5s48.333 -18.5 75 -18.5c24.667 0 45.167 5.5 61.5 16.5s24.5 26.833 24.5 47.5c0 24 -12.167 42.167 -36.5 54.5s-54.833 24.833 -91.5 37.5
c-17.333 6 -34.333 13 -51 21s-31.5 17.5 -44.5 28.5s-23.5 24.167 -31.5 39.5s-12 33.666 -12 54.999c0 42 17 76.333 51 103s78 40 132 40c44.667 0 81.334 -8.16699 110.001 -24.5s51.334 -36.833 68.001 -61.5l-66 -53c-8 14.667 -21.5 29.167 -40.5 43.5
s-43.167 21.5 -72.5 21.5c-24.667 0 -44.667 -5.83301 -60 -17.5s-23 -26.167 -23 -43.5c0 -24.667 11.667 -42.834 35 -54.501s51.333 -23.167 84 -34.5c18.667 -6.66699 37 -14 55 -22s33.833 -17.667 47.5 -29s24.667 -25 33 -41s12.5 -35.667 12.5 -59
c0 -44.667 -17.5 -79.5 -52.5 -104.5s-80.167 -37.5 -135.5 -37.5z" />
    <glyph glyph-name="t" unicode="t" horiz-adv-x="365" 
d="M25 416v81h86v124l89 41v-128l-4 -37h130v-81h-130l4 -38v-226c0 -32 4.5 -52.833 13.5 -62.5s26.833 -14.5 53.5 -14.5c12.667 0 25.167 1.16699 37.5 3.5s24.833 5.5 37.5 9.5v-75c-14.667 -6 -31.667 -11 -51 -15s-38.333 -6 -57 -6c-45.333 0 -78 10.667 -98 32
s-30 59 -30 113v279h-81z" />
    <glyph glyph-name="u" unicode="u" horiz-adv-x="562" 
d="M227 -8c-52.667 0 -91.333 15.6689 -116 47.002s-37 77 -37 137v321h101v-305c0 -42 6.66699 -72 20 -90s34.333 -27 63 -27c32.667 0 60.667 14.833 84 44.5s36 67.5 38 113.5v264h101v-497h-94v58l3 77h-6c-2 -12.667 -6.66699 -27.334 -14 -44.001
s-17.333 -32.334 -30 -47.001s-28.5 -27 -47.5 -37s-40.833 -15 -65.5 -15z" />
    <glyph glyph-name="v" unicode="v" horiz-adv-x="492" 
d="M198 0l-188 497h110l96 -297l28 -112h5l29 112l95 297h110l-190 -497h-95z" />
    <glyph glyph-name="w" unicode="w" horiz-adv-x="751" 
d="M159 0l-140 497h105l64 -274l24 -134h4l33 135l80 273h103l73 -273l32 -136h4l26 136l68 273h100l-148 -497h-104l-82 296l-23 113h-4l-24 -113l-88 -296h-103z" />
    <glyph glyph-name="x" unicode="x" horiz-adv-x="494" 
d="M369 0l-99 154l-21 44h-4l-25 -49l-96 -149h-114l150 215l33 39v3l-30 38l-135 202h112l89 -140l22 -46h3l24 49l84 137h111l-135 -197l-34 -41v-4l29 -34l149 -221h-113z" />
    <glyph glyph-name="y" unicode="y" horiz-adv-x="483" 
d="M107 -202c-10.667 0 -21.6689 1.16602 -33.002 3.49902s-19.666 4.83301 -24.999 7.5v74c6.66699 -1.33301 14.834 -2.66602 24.501 -3.99902s18.5 -2 26.5 -2c28 0 49.5 8 64.5 24s28.167 44.333 39.5 85l-193 511h106l100 -303l27 -114h6l26 114l94 303h104l-192 -545
c-16 -45.333 -36.833 -82.333 -62.5 -111s-63.167 -43 -112.5 -43z" />
    <glyph glyph-name="z" unicode="z" horiz-adv-x="477" 
d="M37 0v73l217 273l79 71v3l-84 -7h-193v84h377v-76l-221 -277l-69 -66v-3l85 9h209v-84h-400z" />
    <glyph glyph-name="braceleft" unicode="{" horiz-adv-x="406" 
d="M300 -195c-58 0 -98.833 15.166 -122.5 45.499s-35.5 77.5 -35.5 141.5v153c0 32.667 -6.5 57.167 -19.5 73.5s-39.5 24.5 -79.5 24.5h-15v85h15c40 0 66.333 8 79 24s19 40.333 19 73v146c0 64 12 111.5 36 142.5s65 46.5 123 46.5h73v-79h-60
c-29.333 0 -50.166 -8.16699 -62.499 -24.5s-18.5 -47.166 -18.5 -92.499v-144c0 -33.333 -7.66699 -60 -23 -80s-38.666 -34 -69.999 -42c-2.66699 -2 -8.33398 -4 -17.001 -6s-14.334 -3 -17.001 -3v-6c2.66699 0 8.33398 -1 17.001 -3s14.334 -4.33301 17.001 -7
c31.333 -8 54.666 -22 69.999 -42s23 -46.667 23 -80v-149c0 -46.667 6.16699 -78.167 18.5 -94.5s33.166 -24.5 62.499 -24.5h60v-78h-73z" />
    <glyph glyph-name="bar" unicode="|" horiz-adv-x="283" 
d="M96 -175v919h91v-919h-91z" />
    <glyph glyph-name="braceright" unicode="}" horiz-adv-x="405" 
d="M106 -195l-73 0.000976562v78h60c29.333 0 50.166 8.16699 62.499 24.5s18.5 47.833 18.5 94.5v149c0 33.333 7.5 60 22.5 80s38.5 34 70.5 42c2 2 7.5 4.16699 16.5 6.5s14.833 3.5 17.5 3.5v6c-2.66699 0 -8.5 1 -17.5 3s-14.5 4 -16.5 6c-32 8 -55.5 22 -70.5 42
s-22.5 46.667 -22.5 80v144c0 45.333 -6.16699 76.166 -18.5 92.499s-33.166 24.5 -62.499 24.5h-60v79h73c58 0 99 -15.5 123 -46.5s36 -78.5 36 -142.5v-146c0 -32.667 6.33301 -57 19 -73s39.334 -24 80.001 -24h14v-85h-14c-40.667 0 -67.334 -8.16699 -80.001 -24.5
s-19 -40.833 -19 -73.5v-153c0 -64 -12 -111.167 -36 -141.5s-65 -45.5 -123 -45.5z" />
    <glyph glyph-name="asciitilde" unicode="~" horiz-adv-x="567" 
d="M368 178c-22.667 0 -41.666 5.33301 -56.999 16s-29 22.5 -41 35.5s-24 24.833 -36 35.5s-26.333 16 -43 16c-12 0 -22.833 -4.16699 -32.5 -12.5s-15.167 -23.166 -16.5 -44.499l-4 -34h-76c0 0.666992 0.166992 3.66699 0.5 9s0.666016 11 0.999023 17
s0.666016 11.667 0.999023 17s0.5 8.33301 0.5 9c5.33301 42 19 73.5 41 94.5s54 31.5 96 31.5c22.667 0 41.5 -5.33301 56.5 -16s28.667 -22.5 41 -35.5s24.333 -24.833 36 -35.5s25.834 -16 42.501 -16c12.667 0 23.167 4.66699 31.5 14s13.5 24 15.5 44l5 32h78
c0 -0.666992 -0.333008 -3.33398 -1 -8.00098s-1.16699 -10 -1.5 -16s-0.833008 -11.5 -1.5 -16.5s-1 -7.83301 -1 -8.5c-4.66699 -42 -17.667 -73.833 -39 -95.5s-53.333 -32.5 -96 -32.5z" />
    <glyph glyph-name="uni00A0" unicode="&#xa0;" horiz-adv-x="218" 
 />
    <glyph glyph-name="exclamdown" unicode="&#xa1;" horiz-adv-x="277" 
d="M78 -2l39 429h43l38 -429v-64h-120v64zM89 659h97c2 0 3.66699 -0.666992 5 -2s2 -3.33301 2 -6v-132c0 -2 -0.666992 -3.66699 -2 -5s-3 -2 -5 -2h-95c-2 0 -3.66699 0.666992 -5 2s-2 3 -2 5v132c0 2.66699 0.5 4.66699 1.5 6s2.16699 2 3.5 2z" />
    <glyph glyph-name="cent" unicode="&#xa2;" horiz-adv-x="533" 
d="M158 -107l29.0039 116c-45.333 18.667 -78.833 48.834 -100.5 90.501s-32.5 91.5 -32.5 149.5c0 37.333 5.5 71.833 16.5 103.5s26.833 59.167 47.5 82.5s46.167 41.666 76.5 54.999s64.5 20.333 102.5 21l27 103h79l-30 -113c23.333 -6.66699 43.666 -17 60.999 -31
s32.666 -31.667 45.999 -53l-82 -50c-10 20 -23.5 35.833 -40.5 47.5s-37.5 17.5 -61.5 17.5c-43.333 0 -77.5 -14.5 -102.5 -43.5s-37.5 -74.5 -37.5 -136.5c0 -54 11.667 -97.833 35 -131.5s59.333 -50.5 108 -50.5c28 0 49.667 5.83301 65 17.5s27.666 27.5 36.999 47.5
l79 -45c-19.333 -28.667 -43 -52.5 -71 -71.5s-66.333 -28.5 -115 -28.5h-16.5c-5.66699 0 -10.834 0.333008 -15.501 1l-24 -98h-80z" />
    <glyph glyph-name="sterling" unicode="&#xa3;" horiz-adv-x="688" 
d="M90 294l-0.000976562 66.998h79c-12.667 18.667 -22.667 38.667 -30 60s-11 44.333 -11 69c0 54 19.667 97.833 59 131.5s93.666 50.5 162.999 50.5c64 0 116.833 -14.667 158.5 -44s74.834 -68 99.501 -116l-86 -55c-14.667 34 -35.5 64 -62.5 90s-62.5 39 -106.5 39
c-39.333 0 -70.166 -9.66699 -92.499 -29s-33.5 -45.666 -33.5 -78.999c0 -20.667 3.83301 -41.167 11.5 -61.5s17.5 -38.833 29.5 -55.5h191v-67h-112l-46 7c8 -16 16.333 -36.5 25 -61.5s13 -50.833 13 -77.5c0 -7.33301 -0.333008 -14.5 -1 -21.5
s-1.66699 -13.833 -3 -20.5c24 -12.667 47.5 -24.167 70.5 -34.5s45.833 -15.5 68.5 -15.5c22 0 38.667 7.16699 50 21.5s17 37.833 17 70.5v39h96v-65c0 -49.333 -14.167 -86.333 -42.5 -111s-64.5 -37 -108.5 -37c-35.333 0 -67.5 7.33301 -96.5 22
s-56.5 30.334 -82.5 47.001c-16 -22 -36.667 -39 -62 -51s-52.333 -18 -81 -18c-35.333 0 -63.833 9.33301 -85.5 28s-32.5 41.667 -32.5 69c0 30 11 53.333 33 70s51 25 87 25c16.667 0 33 -2.16699 49 -6.5s31.667 -9.83301 47 -16.5c-0.666992 26.667 -6 51.5 -16 74.5
s-21.333 43.833 -34 62.5h-122zM165.999 40.998c18.667 0 35.168 4.83105 49.501 14.498s25.5 22.834 33.5 39.501c-14.667 8.66699 -29.167 15.667 -43.5 21s-28.833 8 -43.5 8s-26.834 -3.66699 -36.501 -11s-14.5 -17.666 -14.5 -30.999c0 -14 5.66699 -24.333 17 -31
s24 -10 38 -10z" />
    <glyph glyph-name="currency" unicode="&#xa4;" horiz-adv-x="678" 
d="M59 100l101.996 90.0029c-10 16.667 -17.5 35.167 -22.5 55.5s-7.5 42.166 -7.5 65.499c0 22.667 2.5 44.167 7.5 64.5s12.5 38.833 22.5 55.5l-102 90l67 63l94 -93c16.667 10.667 35.334 18.667 56.001 24s43.334 8 68.001 8c22.667 0 43.834 -2.5 63.501 -7.5
s37.5 -12.167 53.5 -21.5l91 90l67 -63l-99 -86c10.667 -16.667 18.667 -35.5 24 -56.5s8 -43.5 8 -67.5c0 -24.667 -2.66699 -47.334 -8 -68.001s-13.333 -39.334 -24 -56.001l99 -87l-67 -64l-93 92c-16 -9.33301 -34 -16.5 -54 -21.5s-41.333 -7.5 -64 -7.5
c-23.333 0 -45.166 2.66699 -65.499 8s-38.833 13 -55.5 23l-94 -94zM341.996 174.003c38.667 0 68.501 12.167 89.501 36.5s31.5 56.5 31.5 96.5v8c0 43.333 -10.833 76.5 -32.5 99.5s-50.834 34.5 -87.501 34.5s-66.167 -11.5 -88.5 -34.5s-33.5 -56.167 -33.5 -99.5v-8
c0 -40 10.667 -72.167 32 -96.5s51 -36.5 89 -36.5z" />
    <glyph glyph-name="yen" unicode="&#xa5;" horiz-adv-x="660" 
d="M90 316v65h153l-189 278h116l119 -201l39 -77h7l39 77l118 201h116l-190 -278h146v-65h-188v-127h188v-65h-188v-124h-93v124h-193v65h193v127h-193z" />
    <glyph glyph-name="brokenbar" unicode="&#xa6;" horiz-adv-x="283" 
d="M96 -175v397h91v-397h-91zM96 347v397h91v-397h-91z" />
    <glyph glyph-name="section" unicode="&#xa7;" horiz-adv-x="639" 
d="M308 669c40 0 76.001 -6.00195 108.001 -18.002s61.333 -27.667 88 -47l-45 -69c-24 18.667 -48.667 32.667 -74 42s-50.333 14 -75 14c-30.667 0 -52.5 -6.66699 -65.5 -20s-19.5 -26.333 -19.5 -39c0 -16 4.16699 -29.5 12.5 -40.5s19.333 -20.5 33 -28.5
s29.5 -15.167 47.5 -21.5l55 -18.5c24.667 -8 49.834 -17.167 75.501 -27.5s48.5 -22.666 68.5 -36.999s36.5 -31.666 49.5 -51.999s19.5 -44.5 19.5 -72.5c0 -40.667 -15.333 -73.834 -46 -99.501s-71 -42.834 -121 -51.501c24.667 -12 46.167 -28.167 64.5 -48.5
s27.5 -44.833 27.5 -73.5c0 -40 -17.333 -73.667 -52 -101s-80.334 -41 -137.001 -41c-39.333 0 -74.333 6.16699 -105 18.5s-59.334 28.5 -86.001 48.5l46 69c22.667 -18.667 46 -32.667 70 -42s48 -14 72 -14c32.667 0 56 6.66699 70 20s21 26.333 21 39
c0 16 -4.33301 29.5 -13 40.5s-20.167 20.333 -34.5 28s-30.833 14.667 -49.5 21l-57 18.5c-24.667 8 -49 17.167 -73 27.5s-45.5 22.833 -64.5 37.5s-34.333 32.334 -46 53.001s-17.5 45 -17.5 73c0 38 14.167 69.667 42.5 95s66.5 42.666 114.5 51.999
c-23.333 12.667 -43.666 30.834 -60.999 54.501s-26 50.834 -26 81.501c0 40 16.667 71.5 50 94.5s77.666 34.5 132.999 34.5zM281.001 144.998l43.001 -15.001c15.333 -5.33301 28.666 -9.66602 39.999 -12.999c33.333 4.66699 62.5 16.667 87.5 36s37.5 43.333 37.5 72
c0 29.333 -12.5 53.5 -37.5 72.5s-59.5 34.833 -103.5 47.5l-43.5 14c-15 4.66699 -28.833 8.66699 -41.5 12c-31.333 -4.66699 -57.666 -16.5 -78.999 -35.5s-32 -41.167 -32 -66.5c0 -32 11.167 -57.167 33.5 -75.5s54.166 -34.5 95.499 -48.5z" />
    <glyph glyph-name="dieresis" unicode="&#xa8;" horiz-adv-x="343" 
d="M26 585c-2 0 -3.5 0.5 -4.5 1.5s-1.5 2.5 -1.5 4.5v99c0 2.66699 0.666992 4.66699 2 6s3.33301 2 6 2h75c2 0 3.66699 -0.666992 5 -2s2 -3.33301 2 -6v-99c0 -2 -0.666992 -3.5 -2 -4.5s-3 -1.5 -5 -1.5h-77zM238 585c-2 0 -3.5 0.5 -4.5 1.5s-1.5 2.5 -1.5 4.5v99
c0 2.66699 0.666992 4.66699 2 6s3.33301 2 6 2h76c2 0 3.66699 -0.666992 5 -2s2 -3.33301 2 -6v-99c0 -2 -0.666992 -3.5 -2 -4.5s-3 -1.5 -5 -1.5h-78z" />
    <glyph glyph-name="copyright" unicode="&#xa9;" horiz-adv-x="794" 
d="M396 135c-52 0 -94.5 16.833 -127.5 50.5s-49.5 80.167 -49.5 139.5c0 60 16.667 106.167 50 138.5s76 48.5 128 48.5c43.333 0 79.833 -11.167 109.5 -33.5s47.834 -56.833 54.501 -103.5h-65c-4.66699 26.667 -15.167 46 -31.5 58s-37.833 18 -64.5 18
c-32.667 0 -59.167 -9.83301 -79.5 -29.5s-30.5 -49.5 -30.5 -89.5v-11c0 -40.667 10.167 -71.5 30.5 -92.5s46.5 -31.5 78.5 -31.5c26 0 47.667 6 65 18s28.333 33.667 33 65h66c-5.33301 -53.333 -23.833 -90.833 -55.5 -112.5s-68.834 -32.5 -111.501 -32.5zM396 30
c89.333 0 160.833 26.832 214.5 80.499s80.5 125.167 80.5 214.5c0 44.667 -7 85.667 -21 123s-33.833 69 -59.5 95s-56.667 46.333 -93 61s-76.833 22 -121.5 22c-45.333 0 -86.166 -7.16699 -122.499 -21.5s-67.333 -34.666 -93 -60.999s-45.334 -58 -59.001 -95
s-20.5 -78.167 -20.5 -123.5c0 -89.333 26.833 -160.833 80.5 -214.5s125.167 -80.5 214.5 -80.5zM396 -17.001c-52 0 -99.5 8.16992 -142.5 24.5029s-79.667 39.166 -110 68.499s-54 65.166 -71 107.499s-25.5 89.5 -25.5 141.5s8.5 99.667 25.5 143
s40.667 80.166 71 110.499s67 53.833 110 70.5s90.5 25 142.5 25c51.333 0 98.5 -8.5 141.5 -25.5s79.833 -40.667 110.5 -71s54.5 -67 71.5 -110s25.5 -90.5 25.5 -142.5s-8.5 -99.167 -25.5 -141.5s-40.667 -78.333 -71 -108s-67 -52.5 -110 -68.5s-90.5 -24 -142.5 -24z
" />
    <glyph glyph-name="ordfeminine" unicode="&#xaa;" horiz-adv-x="410" 
d="M152 315c-32.667 0 -58.167 8.66602 -76.5 25.999s-27.5 40.333 -27.5 69c0 30.667 11.167 53.334 33.5 68.001s51.5 25.334 87.5 32.001c31.333 6.66699 54.5 12.167 69.5 16.5s23.167 8.16602 24.5 11.499v12c0 16.667 -4.33301 30 -13 40s-24 15 -46 15
c-19.333 0 -36.833 -5 -52.5 -15s-25.834 -21.667 -30.501 -35l-68 32c12 24.667 32.667 43.667 62 57s60 20 92 20c44.667 0 78.334 -10.333 101.001 -31s34 -50.667 34 -90v-120c0 -28.667 1.66699 -51.5 5 -68.5s8 -27.833 14 -32.5h-83
c-2.66699 1.33301 -5.5 8.5 -8.5 21.5s-4.83301 28.167 -5.5 45.5c-8 -22.667 -22.167 -40.667 -42.5 -54s-43.5 -20 -69.5 -20zM179 371.999c19.333 0 37.667 5.49805 55 16.498s26.333 26.833 27 47.5l2 67c-4 -5.33301 -10 -9.66602 -18 -12.999
s-18.667 -6.66602 -32 -9.99902c-26 -6.66699 -45.833 -14.5 -59.5 -23.5s-20.5 -21.833 -20.5 -38.5c0 -14.667 4.5 -26 13.5 -34s19.833 -12 32.5 -12z" />
    <glyph glyph-name="guillemotleft" unicode="&#xab;" horiz-adv-x="640" 
d="M289 77l-241 176v61l241 178v-102l-157 -104v-4l157 -106v-99zM569 73l-234 180v61l234 182v-102l-151 -108v-4l151 -109v-100z" />
    <glyph glyph-name="logicalnot" unicode="&#xac;" horiz-adv-x="528" 
d="M359 125v137h-300v86h392v-223h-92z" />
    <glyph glyph-name="uni00AD" unicode="&#xad;" horiz-adv-x="408" 
d="M70 223v88h268v-88h-268z" />
    <glyph glyph-name="registered" unicode="&#xae;" horiz-adv-x="802" 
d="M396 -17c-52 0 -99.5 8.16992 -142.5 24.5029s-79.667 39.166 -110 68.499s-54 65.166 -71 107.499s-25.5 89.5 -25.5 141.5s8.5 99.667 25.5 143s40.667 80.166 71 110.499s67 53.833 110 70.5s90.5 25 142.5 25c51.333 0 98.5 -8.5 141.5 -25.5
s79.833 -40.667 110.5 -71s54.5 -67 71.5 -110s25.5 -90.5 25.5 -142.5s-8.5 -99.167 -25.5 -141.5s-40.667 -78.333 -71 -108s-67 -52.5 -110 -68.5s-90.5 -24 -142.5 -24zM396 30.0029c89.333 0 160.833 26.832 214.5 80.499s80.5 125.167 80.5 214.5
c0 44.667 -7 85.667 -21 123s-33.833 69 -59.5 95s-56.667 46.333 -93 61s-76.833 22 -121.5 22c-45.333 0 -86.166 -7.16699 -122.499 -21.5s-67.333 -34.666 -93 -60.999s-45.334 -58 -59.001 -95s-20.5 -78.167 -20.5 -123.5c0 -89.333 26.833 -160.833 80.5 -214.5
s125.167 -80.5 214.5 -80.5zM527 141.002c-17.333 0 -30.667 5.49707 -40 16.4971s-14 27.833 -14 50.5c0.666992 32.667 -6 55.334 -20 68.001s-41 19 -81 19h-47v-149h-66v370h138c52 0 89.667 -8.5 113 -25.5s35 -42.5 35 -76.5
c0 -25.333 -6.83301 -45.666 -20.5 -60.999s-33.834 -26 -60.501 -32c26.667 -6.66699 46.834 -18.667 60.501 -36s20.5 -41.666 20.5 -72.999c0 -7.33301 0.666992 -12.5 2 -15.5s3.33301 -4.83301 6 -5.5l20 -11v-1c-2 -10.667 -6.66699 -19.667 -14 -27s-18 -11 -32 -11z
M324.999 457.999v-117h65c36 0 60 5.66699 72 17s18 26.333 18 45c0 16 -6.16699 29.167 -18.5 39.5s-36.5 15.5 -72.5 15.5h-64z" />
    <glyph glyph-name="macron" unicode="&#xaf;" horiz-adv-x="319" 
d="M20 590v74h279v-74h-279z" />
    <glyph glyph-name="degree" unicode="&#xb0;" horiz-adv-x="455" 
d="M227 395c33.333 0 60.001 10.501 80.001 31.501s30 49.833 30 86.5v3c0 36 -9.83301 64 -29.5 84s-45.834 30 -78.501 30s-59.167 -10.333 -79.5 -31s-30.5 -48.334 -30.5 -83.001v-3c0 -36.667 9.5 -65.5 28.5 -86.5s45.5 -31.5 79.5 -31.5zM227.001 329.001
c-54 0 -98 16.666 -132 49.999s-51 78 -51 134c0 54.667 17.167 98.834 51.5 132.501s79.5 50.5 135.5 50.5c53.333 0 97 -16.667 131 -50s51 -77.333 51 -132c0 -54 -17.5 -98.333 -52.5 -133s-79.5 -52 -133.5 -52z" />
    <glyph glyph-name="plusminus" unicode="&#xb1;" horiz-adv-x="528" 
d="M54 268v86h166v168h91v-168h163v-86h-163v-140h-91v140h-166zM72 0v85h385v-85h-385z" />
    <glyph glyph-name="two.sups" unicode="&#xb2;" horiz-adv-x="418" 
d="M37 322l-0.000976562 14.9971c0 28 4.5 52.333 13.5 73s20.667 38.334 35 53.001s30.666 27.334 48.999 38.001s36.166 20.334 53.499 29.001c27.333 13.333 51.666 26.5 72.999 39.5s32 30.833 32 53.5c0 19.333 -7.5 34.333 -22.5 45s-34.5 16 -58.5 16
c-24.667 0 -47 -7 -67 -21s-35 -32.667 -45 -56l-69 31c14.667 35.333 38.334 62.833 71.001 82.5s70.334 29.5 113.001 29.5c52.667 0 93.334 -11 122.001 -33s43 -52.667 43 -92c0 -19.333 -3.66699 -36 -11 -50s-17 -26.167 -29 -36.5s-25.5 -19.333 -40.5 -27
s-30.5 -15.167 -46.5 -22.5c-27.333 -11.333 -52.5 -24.166 -75.5 -38.499s-37.833 -34.833 -44.5 -61.5l3 -5c9.33301 1.33301 21.833 2.66602 37.5 3.99902s30.834 2 45.501 2h160v-68h-342z" />
    <glyph glyph-name="three.sups" unicode="&#xb3;" horiz-adv-x="433" 
d="M219 317c-52 0 -94.9971 10.168 -128.997 30.501s-52.333 54.833 -55 103.5h83c1.33301 -26 11.166 -44.167 29.499 -54.5s41.833 -15.5 70.5 -15.5s51.167 5.83301 67.5 17.5s24.5 28.5 24.5 50.5v2c0 20.667 -9.16699 35.167 -27.5 43.5s-42.5 12.5 -72.5 12.5h-29v58
h28c27.333 0 49.833 5.33301 67.5 16s26.5 25.667 26.5 45v1c-0.666992 20 -8.33398 34.833 -23.001 44.5s-36.334 14.5 -65.001 14.5c-24.667 0 -45.5 -5.83301 -62.5 -17.5s-27.167 -30.167 -30.5 -55.5h-80c4 44 21.667 77.833 53 101.5s72.333 35.5 123 35.5
c54 0 95.667 -10.333 125 -31s44 -49.334 44 -86.001c0 -22.667 -7.5 -41.5 -22.5 -56.5s-37.5 -25.833 -67.5 -32.5c32 -6 56.667 -17.5 74 -34.5s26 -39.5 26 -67.5c0 -38.667 -16.5 -69.167 -49.5 -91.5s-75.833 -33.5 -128.5 -33.5z" />
    <glyph glyph-name="acute" unicode="&#xb4;" horiz-adv-x="267" 
d="M20 567l112 173h115v-12l-160 -161h-67z" />
    <glyph glyph-name="uni00B5" unicode="&#xb5;" horiz-adv-x="579" 
d="M83 -165v661.999h102v-300c0 -39.333 9.5 -69.333 28.5 -90s42.833 -31 71.5 -31c36 0 61.833 11 77.5 33s25.834 51.333 30.501 88v300h101v-497h-86l-8 91c-9.33301 -32 -24 -56.833 -44 -74.5s-46.333 -26.5 -79 -26.5c-18.667 0 -39.334 5.83301 -62.001 17.5
s-38.667 32.834 -48 63.501l15 -236h-99z" />
    <glyph glyph-name="paragraph" unicode="&#xb6;" horiz-adv-x="713" 
d="M292 0l0.000976562 308h-8c-80.667 0 -139.667 14.333 -177 43s-56 72.667 -56 132c0 60.667 20.667 105.167 62 133.5s107.666 42.5 198.999 42.5h281v-659h-89v592h-123v-592h-89z" />
    <glyph glyph-name="periodcentered" unicode="&#xb7;" horiz-adv-x="267" 
d="M84 197c-1.33301 0 -2.5 0.666992 -3.5 2s-1.5 3 -1.5 5v133c0 2 0.5 3.66699 1.5 5s2.83301 2 5.5 2h96c1.33301 0 2.66602 -0.666992 3.99902 -2s2 -3 2 -5v-133c0 -2 -0.666992 -3.66699 -2 -5s-2.66602 -2 -3.99902 -2h-98z" />
    <glyph glyph-name="cedilla" unicode="&#xb8;" horiz-adv-x="231" 
d="M94 -237c-12.667 0 -26.0029 1.00195 -40.0029 3.00195s-25.333 5.33301 -34 10v72c6 -2.66699 13.667 -5.33398 23 -8.00098s20.333 -4 33 -4c18.667 0 32.334 5.66699 41.001 17s13 25.333 13 42c0 22 -6.16699 42 -18.5 60s-33.166 35.333 -62.499 52l26 19
c40 -12.667 72.667 -33.334 98 -62.001s38 -61 38 -97c0 -30.667 -10.167 -55.667 -30.5 -75s-49.166 -29 -86.499 -29z" />
    <glyph glyph-name="one.sups" unicode="&#xb9;" horiz-adv-x="329" 
d="M171 322l0.000976562 315.001c-18 -22.667 -39.333 -43.334 -64 -62.001s-51.334 -31.667 -80.001 -39v90c32.667 7.33301 64 20.833 94 40.5s49.333 45.5 58 77.5h80v-422h-88z" />
    <glyph glyph-name="ordmasculine" unicode="&#xba;" horiz-adv-x="427" 
d="M210 315c-54 0 -95.333 16.166 -124 48.499s-43 75.5 -43 129.5c0 51.333 15.5 93.833 46.5 127.5s73.5 50.5 127.5 50.5s95.5 -15.667 124.5 -47s43.5 -73.666 43.5 -126.999c0 -51.333 -15.667 -94.5 -47 -129.5s-74 -52.5 -128 -52.5zM212 372.999
c29.333 0 51.833 11.334 67.5 34.001s23.5 52 23.5 88c0 29.333 -7 56.166 -21 80.499s-36.333 36.5 -67 36.5c-32 0 -54.833 -12 -68.5 -36s-20.5 -51 -20.5 -81c0 -34.667 7.16699 -63.667 21.5 -87s35.833 -35 64.5 -35z" />
    <glyph glyph-name="guillemotright" unicode="&#xbb;" horiz-adv-x="640" 
d="M353 81v100l156 105v4l-156 104v102l239 -178v-61zM71 78v99l151 109v4l-151 108v102l235 -182v-61z" />
    <glyph glyph-name="onequarter" unicode="&#xbc;" horiz-adv-x="998" 
d="M199 239l-0.00195312 315c-17.333 -22.667 -38.166 -43.167 -62.499 -61.5s-51.166 -31.5 -80.499 -39.5v89c32.667 8 64 21.833 94 41.5s49.333 45.5 58 77.5h81v-422h-90zM578.998 93v67c9.33301 11.333 23.5 30.333 42.5 57l58 82.5l53.5 78
c16 23.667 26 38.167 30 43.5h113l-177 -216l-42 -54l63 7h86l1 79l80 40v-119h69v-65h-69v-93h-82v93h-226zM232.998 0l440 667h82l-440 -667h-82z" />
    <glyph glyph-name="onehalf" unicode="&#xbd;" horiz-adv-x="1029" 
d="M199 239l-0.00195312 315c-17.333 -22.667 -38.166 -43.167 -62.499 -61.5s-51.166 -31.5 -80.499 -39.5v89c32.667 8 64 21.833 94 41.5s49.333 45.5 58 77.5h81v-422h-90zM232.998 0l440 667h82l-440 -667h-82zM634.998 0v14.9951c0 28 4.5 52.333 13.5 73
s20.667 38.334 35 53.001s30.5 27.334 48.5 38.001s35.667 20.334 53 29.001c27.333 13.333 51.666 26.5 72.999 39.5s32 30.5 32 52.5c0 19.333 -7.5 34.5 -22.5 45.5s-34.167 16.5 -57.5 16.5c-25.333 0 -47.833 -7.16699 -67.5 -21.5s-34.5 -32.833 -44.5 -55.5l-70 31
c14.667 35.333 38.5 62.833 71.5 82.5s70.833 29.5 113.5 29.5c52 0 92.333 -11 121 -33s43 -53 43 -93c0 -19.333 -3.66699 -35.833 -11 -49.5s-16.833 -25.667 -28.5 -36s-25 -19.333 -40 -27s-30.5 -15.167 -46.5 -22.5c-27.333 -11.333 -52.666 -24.166 -75.999 -38.499
s-38 -35.166 -44 -62.499l2 -4c9.33301 1.33301 22 2.5 38 3.5s31.667 1.5 47 1.5h159v-67h-342z" />
    <glyph glyph-name="threequarters" unicode="&#xbe;" horiz-adv-x="1046" 
d="M232 233c-52 0 -94.9971 10.3301 -128.997 30.9971s-52.333 55.334 -55 104.001h83c1.33301 -26 11.166 -44.167 29.499 -54.5s41.833 -15.5 70.5 -15.5s51.167 5.66699 67.5 17s24.5 28.333 24.5 51v2c0 20.667 -9.16699 35.167 -27.5 43.5s-42.5 12.5 -72.5 12.5h-29
v58h28c27.333 0 49.833 5.33301 67.5 16s26.5 25.667 26.5 45v2c-0.666992 19.333 -8.33398 33.833 -23.001 43.5s-36.334 14.5 -65.001 14.5c-24.667 0 -45.5 -5.83301 -62.5 -17.5s-27.167 -30.5 -30.5 -56.5h-80c4 44.667 21.667 78.834 53 102.501s72.333 35.5 123 35.5
c54 0 95.667 -10.333 125 -31s44 -49.667 44 -87c0 -22.667 -7.83301 -41.5 -23.5 -56.5s-39.167 -25.5 -70.5 -31.5c33.333 -5.33301 59 -16.666 77 -33.999s27 -40.333 27 -69c0 -38.667 -16.5 -69.167 -49.5 -91.5s-75.833 -33.5 -128.5 -33.5zM282.003 -0.00292969
l440 667h82l-440 -667h-82zM628.003 92.9971v67c9.33301 11.333 23.5 30.333 42.5 57l58 82.5l53.5 78c16 23.667 26 38.167 30 43.5h113l-177 -216l-42 -54l63 7h86l1 79l80 40v-119h69v-65h-69v-93h-82v93h-226z" />
    <glyph glyph-name="questiondown" unicode="&#xbf;" horiz-adv-x="536" 
d="M238 434h76.998v-22c0 -33.333 -5.16699 -59.833 -15.5 -79.5s-23.833 -37.5 -40.5 -53.5l-43.5 -36.5c-13.667 -11 -25.667 -22.167 -36 -33.5s-18.5 -24 -24.5 -38s-9 -30.667 -9 -50c0 -28 9.33301 -52.333 28 -73s49 -31 91 -31c22 0 41.333 4 58 12
s31 18.167 43 30.5s21.833 26 29.5 41s13.834 29.167 18.501 42.5l90 -37c-8.66699 -23.333 -20.334 -45.666 -35.001 -66.999s-32 -39.833 -52 -55.5s-43.167 -28 -69.5 -37s-55.833 -13.5 -88.5 -13.5c-37.333 0 -69.666 4.66699 -96.999 14s-50 22.166 -68 38.499
s-31.333 35.5 -40 57.5s-13 45.333 -13 70c0 28 4.83301 52.167 14.5 72.5s21.834 38.333 36.501 54s30.667 30.167 48 43.5s34 27.333 50 42c16 14 28 28.833 36 44.5s12 37.167 12 64.5zM227.998 659h96c2 0 3.5 -0.666992 4.5 -2s1.5 -3.33301 1.5 -6v-129
c0 -2 -0.666992 -3.66699 -2 -5s-3 -2 -5 -2h-95c-1.33301 0 -2.66602 0.666992 -3.99902 2s-2 3 -2 5v129c0 2.66699 0.666992 4.66699 2 6s2.66602 2 3.99902 2z" />
    <glyph glyph-name="Agrave" unicode="&#xc0;" horiz-adv-x="616" 
d="M10 0l234 659h132l230 -659h-106l-60 179h-265l-60 -179h-105zM274 476l-72 -214h212l-71 214l-31 120h-4zM277 738l-158 155v12h114l110 -167h-66z" />
    <glyph glyph-name="Aacute" unicode="&#xc1;" horiz-adv-x="616" 
d="M10 0l234 659h132l230 -659h-106l-60 179h-265l-60 -179h-105zM274 476l-72 -214h212l-71 214l-31 120h-4zM273 738l106 167h114v-12l-154 -155h-66z" />
    <glyph glyph-name="Acircumflex" unicode="&#xc2;" horiz-adv-x="616" 
d="M10 0l234 659h132l230 -659h-106l-60 179h-265l-60 -179h-105zM274 476l-72 -214h212l-71 214l-31 120h-4zM139 740v8l127 155h85l128 -155v-8h-90l-53 74l-24 41h-6l-24 -41l-53 -74h-90z" />
    <glyph glyph-name="Atilde" unicode="&#xc3;" horiz-adv-x="616" 
d="M10 0l234 659h132l230 -659h-106l-60 179h-265l-60 -179h-105zM274 476l-72 -214h212l-71 214l-31 120h-4zM376 732c-23.333 0 -41.668 5.33008 -55.001 15.9971s-24.5 22.5 -33.5 35.5s-16.833 24.833 -23.5 35.5s-14.667 16 -24 16h-7c-10.667 0 -18.5 -7 -23.5 -21
s-8.5 -29.333 -10.5 -46c0 -0.666992 -0.333008 -4.66699 -1 -12s-1 -11.333 -1 -12h-66c0 0.666992 0.166992 3.16699 0.5 7.5s0.833008 8.83301 1.5 13.5l2 13.5c0.666992 4.33301 1 6.83301 1 7.5c4.66699 40 17.167 68.333 37.5 85s43.833 25 70.5 25
c23.333 0 41.666 -5.5 54.999 -16.5s24.5 -22.833 33.5 -35.5s16.833 -24.5 23.5 -35.5s14.667 -16.5 24 -16.5h6c11.333 0 19.333 6.83301 24 20.5s8 28.834 10 45.501c0.666992 0.666992 1.33398 4.83398 2.00098 12.501s1 11.834 1 12.501h66
c0 -0.666992 -0.166992 -3.16699 -0.5 -7.5s-0.833008 -8.83301 -1.5 -13.5s-1.16699 -9.16699 -1.5 -13.5s-0.5 -6.83301 -0.5 -7.5c-5.33301 -40 -18.166 -68.167 -38.499 -84.5s-43.833 -24.5 -70.5 -24.5z" />
    <glyph glyph-name="Adieresis" unicode="&#xc4;" horiz-adv-x="616" 
d="M10 0l234 659h132l230 -659h-106l-60 179h-265l-60 -179h-105zM274 476l-72 -214h212l-71 214l-31 120h-4zM167 740c-2 0 -3.5 0.666992 -4.5 2s-1.5 3 -1.5 5v99c0 2.66699 0.666992 4.66699 2 6s3.33301 2 6 2h76c2 0 3.66699 -0.666992 5 -2s2 -3.33301 2 -6v-99
c0 -2 -0.666992 -3.66699 -2 -5s-3 -2 -5 -2h-78zM372 740c-2 0 -3.5 0.666992 -4.5 2s-1.5 3 -1.5 5v99c0 2.66699 0.666992 4.66699 2 6s3.33301 2 6 2h76c2 0 3.66699 -0.666992 5 -2s2 -3.33301 2 -6v-99c0 -2 -0.666992 -3.66699 -2 -5s-3 -2 -5 -2h-78z" />
    <glyph glyph-name="Aring" unicode="&#xc5;" horiz-adv-x="616" 
d="M10 0l234 659h132l230 -659h-106l-60 179h-265l-60 -179h-105zM274 476l-72 -214h212l-71 214l-31 120h-4zM309 730c-38.667 0 -70.5 11.333 -95.5 34s-37.5 51.667 -37.5 87c0 36 12.5 65.333 37.5 88s56.833 34 95.5 34s70.667 -11.333 96 -34s38 -52 38 -88
c0 -35.333 -12.667 -64.333 -38 -87s-57.333 -34 -96 -34zM309 779c21.333 0 39.166 6.33301 53.499 19s21.5 30.334 21.5 53.001c0 22 -7.16699 39.5 -21.5 52.5s-32.166 19.5 -53.499 19.5s-39.166 -6.5 -53.499 -19.5s-21.5 -30.5 -21.5 -52.5
c0 -22.667 7.16699 -40.334 21.5 -53.001s32.166 -19 53.499 -19z" />
    <glyph glyph-name="AE" unicode="&#xc6;" horiz-adv-x="893" 
d="M-7 0l341 659h509v-87h-321v-191h231v-85h-231v-210h328v-86h-427v187h-221l-95 -187h-114zM374 534l-130 -263h179v345h-14z" />
    <glyph glyph-name="Ccedilla" unicode="&#xc7;" horiz-adv-x="661" 
d="M320 -232c-11.333 0 -23.334 1.00293 -36.001 3.00293s-23.334 5.33301 -32.001 10v71c4.66699 -2.66699 11.334 -4.83398 20.001 -6.50098s19 -2.5 31 -2.5c18.667 0 32.834 5.16699 42.501 15.5s14.5 23.833 14.5 40.5c0 15.333 -4.5 31.333 -13.5 48
s-22.833 31.334 -41.5 44.001c-40.667 5.33301 -76.834 17.166 -108.501 35.499s-58.334 42.166 -80.001 71.499s-38.167 63.666 -49.5 102.999s-17 82.333 -17 129c0 51.333 7.16699 98.166 21.5 140.499s34.833 78.333 61.5 108s58.834 52.667 96.501 69
s79.5 24.5 125.5 24.5c70.667 0 128.667 -17.833 174 -53.5s76.333 -87.5 93 -155.5l-101 -20c-13.333 51.333 -33.5 88.5 -60.5 111.5s-62.5 34.5 -106.5 34.5c-61.333 0 -110 -23.333 -146 -70s-54 -109 -54 -187v-3c0 -77.333 17.333 -139.666 52 -186.999
s84 -71 148 -71c50 0 88.333 13.5 115 40.5s45 64.167 55 111.5l100 -19c-13.333 -66 -41.833 -117.667 -85.5 -155s-99.167 -57.333 -166.5 -60c20.667 -14.667 36.667 -32.167 48 -52.5s17 -41.833 17 -64.5c0 -30 -9.66699 -54.833 -29 -74.5
s-48.666 -29.5 -87.999 -29.5z" />
    <glyph glyph-name="Egrave" unicode="&#xc8;" horiz-adv-x="580" 
d="M94 0v659h433v-88h-333v-188h236v-86h-236v-210h346v-87h-446zM295 738l-158 155v12h114l110 -167h-66z" />
    <glyph glyph-name="Eacute" unicode="&#xc9;" horiz-adv-x="580" 
d="M94 0v659h433v-88h-333v-188h236v-86h-236v-210h346v-87h-446zM291 738l106 167h114v-12l-154 -155h-66z" />
    <glyph glyph-name="Ecircumflex" unicode="&#xca;" horiz-adv-x="580" 
d="M94 0v659h433v-88h-333v-188h236v-86h-236v-210h346v-87h-446zM157 740v8l127 155h85l128 -155v-8h-90l-53 74l-24 41h-6l-24 -41l-53 -74h-90z" />
    <glyph glyph-name="Edieresis" unicode="&#xcb;" horiz-adv-x="580" 
d="M94 0v659h433v-88h-333v-188h236v-86h-236v-210h346v-87h-446zM185 740c-2 0 -3.5 0.666992 -4.5 2s-1.5 3 -1.5 5v99c0 2.66699 0.666992 4.66699 2 6s3.33301 2 6 2h76c2 0 3.66699 -0.666992 5 -2s2 -3.33301 2 -6v-99c0 -2 -0.666992 -3.66699 -2 -5s-3 -2 -5 -2h-78
zM390 740c-2 0 -3.5 0.666992 -4.5 2s-1.5 3 -1.5 5v99c0 2.66699 0.666992 4.66699 2 6s3.33301 2 6 2h76c2 0 3.66699 -0.666992 5 -2s2 -3.33301 2 -6v-99c0 -2 -0.666992 -3.66699 -2 -5s-3 -2 -5 -2h-78z" />
    <glyph glyph-name="Igrave" unicode="&#xcc;" horiz-adv-x="294" 
d="M96 0v659h102v-659h-102zM114 738l-158 155v12h114l110 -167h-66z" />
    <glyph glyph-name="Iacute" unicode="&#xcd;" horiz-adv-x="294" 
d="M96 0v659h102v-659h-102zM110 738l106 167h114v-12l-154 -155h-66z" />
    <glyph glyph-name="Icircumflex" unicode="&#xce;" horiz-adv-x="293" 
d="M96 0v659h102v-659h-102zM-24 740v8l127 155h85l128 -155v-8h-91l-52 74l-25 41h-5l-24 -41l-53 -74h-90z" />
    <glyph glyph-name="Idieresis" unicode="&#xcf;" horiz-adv-x="293" 
d="M96 0v659h102v-659h-102zM6 740c-2 0 -3.5 0.666992 -4.5 2s-1.5 3 -1.5 5v99c0 2.66699 0.666992 4.66699 2 6s3.33301 2 6 2h74c2.66699 0 4.5 -0.666992 5.5 -2s1.5 -3.33301 1.5 -6v-99c0 -2 -0.5 -3.66699 -1.5 -5s-2.83301 -2 -5.5 -2h-76zM208 740
c-2 0 -3.33301 0.666992 -4 2s-1 3 -1 5v99c0 2.66699 0.5 4.66699 1.5 6s2.83301 2 5.5 2h76c1.33301 0 2.66602 -0.666992 3.99902 -2s2 -3.33301 2 -6v-99c0 -2 -0.666992 -3.66699 -2 -5s-2.66602 -2 -3.99902 -2h-78z" />
    <glyph glyph-name="Eth" unicode="&#xd0;" horiz-adv-x="680" 
d="M28 294l-0.000976562 87h71v278h215c100.667 0 178.334 -28.167 233.001 -84.5s82 -137.833 82 -244.5c0 -104 -28.5 -185 -85.5 -243s-137.833 -87 -242.5 -87h-202v294h-71zM198.999 86l109 0.000976562c72.667 0 126.5 21.167 161.5 63.5s52.5 102.166 52.5 179.499v4
c0 80 -17.5 140.333 -52.5 181s-87.833 61 -158.5 61h-112v-194h160v-87h-160v-208z" />
    <glyph glyph-name="Ntilde" unicode="&#xd1;" horiz-adv-x="713" 
d="M94 0v659h117l242 -388l82 -159l-14 162v385h98v-659h-96l-269 423l-80 152l16 -155v-420h-96zM424 732c-23.333 0 -41.668 5.33008 -55.001 15.9971s-24.5 22.5 -33.5 35.5s-16.833 24.833 -23.5 35.5s-14.667 16 -24 16h-7c-10.667 0 -18.5 -7 -23.5 -21
s-8.5 -29.333 -10.5 -46c0 -0.666992 -0.333008 -4.66699 -1 -12s-1 -11.333 -1 -12h-66c0 0.666992 0.166992 3.16699 0.5 7.5s0.833008 8.83301 1.5 13.5l2 13.5c0.666992 4.33301 1 6.83301 1 7.5c4.66699 40 17.167 68.333 37.5 85s43.833 25 70.5 25
c23.333 0 41.666 -5.5 54.999 -16.5s24.5 -22.833 33.5 -35.5s16.833 -24.5 23.5 -35.5s14.667 -16.5 24 -16.5h6c11.333 0 19.333 6.83301 24 20.5s8 28.834 10 45.501c0.666992 0.666992 1.33398 4.83398 2.00098 12.501s1 11.834 1 12.501h66
c0 -0.666992 -0.166992 -3.16699 -0.5 -7.5s-0.833008 -8.83301 -1.5 -13.5s-1.16699 -9.16699 -1.5 -13.5s-0.5 -6.83301 -0.5 -7.5c-5.33301 -40 -18.166 -68.167 -38.499 -84.5s-43.833 -24.5 -70.5 -24.5z" />
    <glyph glyph-name="Ograve" unicode="&#xd2;" horiz-adv-x="713" 
d="M351 -12c-47.333 0 -89.6699 8 -127.003 24s-68.833 38.667 -94.5 68s-45.167 65.166 -58.5 107.499s-20 89.5 -20 141.5c0 51.333 7 98.166 21 140.499s34 78.5 60 108.5s58.333 53.167 97 69.5s82.334 24.5 131.001 24.5c47.333 0 89.833 -8.16699 127.5 -24.5
s69.334 -39.5 95.001 -69.5s45.334 -66.167 59.001 -108.5s20.5 -89.166 20.5 -140.499c0 -52 -7.16699 -99.167 -21.5 -141.5s-34.666 -78.166 -60.999 -107.499s-58.833 -52 -97.5 -68s-82.334 -24 -131.001 -24zM354.996 70c64 0 113.501 22.665 148.501 67.998
s52.5 109 52.5 191v2c0 80.667 -17.5 143.834 -52.5 189.501s-84.167 68.5 -147.5 68.5c-64 0 -113.667 -22.667 -149 -68s-53 -108.666 -53 -189.999v-3c0 -80 17.667 -143 53 -189s84.666 -69 147.999 -69zM323.997 737.998l-158 155v12h114l110 -167h-66z" />
    <glyph glyph-name="Oacute" unicode="&#xd3;" horiz-adv-x="713" 
d="M351 -12c-47.333 0 -89.6699 8 -127.003 24s-68.833 38.667 -94.5 68s-45.167 65.166 -58.5 107.499s-20 89.5 -20 141.5c0 51.333 7 98.166 21 140.499s34 78.5 60 108.5s58.333 53.167 97 69.5s82.334 24.5 131.001 24.5c47.333 0 89.833 -8.16699 127.5 -24.5
s69.334 -39.5 95.001 -69.5s45.334 -66.167 59.001 -108.5s20.5 -89.166 20.5 -140.499c0 -52 -7.16699 -99.167 -21.5 -141.5s-34.666 -78.166 -60.999 -107.499s-58.833 -52 -97.5 -68s-82.334 -24 -131.001 -24zM354.996 70c64 0 113.501 22.665 148.501 67.998
s52.5 109 52.5 191v2c0 80.667 -17.5 143.834 -52.5 189.501s-84.167 68.5 -147.5 68.5c-64 0 -113.667 -22.667 -149 -68s-53 -108.666 -53 -189.999v-3c0 -80 17.667 -143 53 -189s84.666 -69 147.999 -69zM319.997 737.998l106 167h114v-12l-154 -155h-66z" />
    <glyph glyph-name="Ocircumflex" unicode="&#xd4;" horiz-adv-x="713" 
d="M351 -12c-47.333 0 -89.6699 8 -127.003 24s-68.833 38.667 -94.5 68s-45.167 65.166 -58.5 107.499s-20 89.5 -20 141.5c0 51.333 7 98.166 21 140.499s34 78.5 60 108.5s58.333 53.167 97 69.5s82.334 24.5 131.001 24.5c47.333 0 89.833 -8.16699 127.5 -24.5
s69.334 -39.5 95.001 -69.5s45.334 -66.167 59.001 -108.5s20.5 -89.166 20.5 -140.499c0 -52 -7.16699 -99.167 -21.5 -141.5s-34.666 -78.166 -60.999 -107.499s-58.833 -52 -97.5 -68s-82.334 -24 -131.001 -24zM354.996 70c64 0 113.501 22.665 148.501 67.998
s52.5 109 52.5 191v2c0 80.667 -17.5 143.834 -52.5 189.501s-84.167 68.5 -147.5 68.5c-64 0 -113.667 -22.667 -149 -68s-53 -108.666 -53 -189.999v-3c0 -80 17.667 -143 53 -189s84.666 -69 147.999 -69zM185.997 739.998v8l127 155h85l128 -155v-8h-90l-53 74l-24 41
h-6l-24 -41l-53 -74h-90z" />
    <glyph glyph-name="Otilde" unicode="&#xd5;" horiz-adv-x="713" 
d="M351 -12c-47.333 0 -89.6699 8 -127.003 24s-68.833 38.667 -94.5 68s-45.167 65.166 -58.5 107.499s-20 89.5 -20 141.5c0 51.333 7 98.166 21 140.499s34 78.5 60 108.5s58.333 53.167 97 69.5s82.334 24.5 131.001 24.5c47.333 0 89.833 -8.16699 127.5 -24.5
s69.334 -39.5 95.001 -69.5s45.334 -66.167 59.001 -108.5s20.5 -89.166 20.5 -140.499c0 -52 -7.16699 -99.167 -21.5 -141.5s-34.666 -78.166 -60.999 -107.499s-58.833 -52 -97.5 -68s-82.334 -24 -131.001 -24zM354.996 70c64 0 113.501 22.665 148.501 67.998
s52.5 109 52.5 191v2c0 80.667 -17.5 143.834 -52.5 189.501s-84.167 68.5 -147.5 68.5c-64 0 -113.667 -22.667 -149 -68s-53 -108.666 -53 -189.999v-3c0 -80 17.667 -143 53 -189s84.666 -69 147.999 -69zM421.997 731.998c-23.333 0 -41.668 5.33008 -55.001 15.9971
s-24.5 22.5 -33.5 35.5s-16.833 24.833 -23.5 35.5s-14.667 16 -24 16h-7c-10.667 0 -18.5 -7 -23.5 -21s-8.5 -29.333 -10.5 -46c0 -0.666992 -0.333008 -4.66699 -1 -12s-1 -11.333 -1 -12h-66c0 0.666992 0.166992 3.16699 0.5 7.5s0.833008 8.83301 1.5 13.5l2 13.5
c0.666992 4.33301 1 6.83301 1 7.5c4.66699 40 17.167 68.333 37.5 85s43.833 25 70.5 25c23.333 0 41.666 -5.5 54.999 -16.5s24.5 -22.833 33.5 -35.5s16.833 -24.5 23.5 -35.5s14.667 -16.5 24 -16.5h6c11.333 0 19.333 6.83301 24 20.5s8 28.834 10 45.501
c0.666992 0.666992 1.33398 4.83398 2.00098 12.501s1 11.834 1 12.501h66c0 -0.666992 -0.166992 -3.16699 -0.5 -7.5s-0.833008 -8.83301 -1.5 -13.5s-1.16699 -9.16699 -1.5 -13.5s-0.5 -6.83301 -0.5 -7.5c-5.33301 -40 -18.166 -68.167 -38.499 -84.5
s-43.833 -24.5 -70.5 -24.5z" />
    <glyph glyph-name="Odieresis" unicode="&#xd6;" horiz-adv-x="713" 
d="M351 -12c-47.333 0 -89.6699 8 -127.003 24s-68.833 38.667 -94.5 68s-45.167 65.166 -58.5 107.499s-20 89.5 -20 141.5c0 51.333 7 98.166 21 140.499s34 78.5 60 108.5s58.333 53.167 97 69.5s82.334 24.5 131.001 24.5c47.333 0 89.833 -8.16699 127.5 -24.5
s69.334 -39.5 95.001 -69.5s45.334 -66.167 59.001 -108.5s20.5 -89.166 20.5 -140.499c0 -52 -7.16699 -99.167 -21.5 -141.5s-34.666 -78.166 -60.999 -107.499s-58.833 -52 -97.5 -68s-82.334 -24 -131.001 -24zM354.996 70c64 0 113.501 22.665 148.501 67.998
s52.5 109 52.5 191v2c0 80.667 -17.5 143.834 -52.5 189.501s-84.167 68.5 -147.5 68.5c-64 0 -113.667 -22.667 -149 -68s-53 -108.666 -53 -189.999v-3c0 -80 17.667 -143 53 -189s84.666 -69 147.999 -69zM213.997 739.998c-2 0 -3.5 0.666992 -4.5 2s-1.5 3 -1.5 5v99
c0 2.66699 0.666992 4.66699 2 6s3.33301 2 6 2h76c2 0 3.66699 -0.666992 5 -2s2 -3.33301 2 -6v-99c0 -2 -0.666992 -3.66699 -2 -5s-3 -2 -5 -2h-78zM418.997 739.998c-2 0 -3.5 0.666992 -4.5 2s-1.5 3 -1.5 5v99c0 2.66699 0.666992 4.66699 2 6s3.33301 2 6 2h76
c2 0 3.66699 -0.666992 5 -2s2 -3.33301 2 -6v-99c0 -2 -0.666992 -3.66699 -2 -5s-3 -2 -5 -2h-78z" />
    <glyph glyph-name="multiply" unicode="&#xd7;" horiz-adv-x="513" 
d="M119 93l-61 61l140 139l-138 139l57 58l139 -141l138 142l60 -60l-138 -141l138 -139l-60 -58l-137 139z" />
    <glyph glyph-name="Oslash" unicode="&#xd8;" horiz-adv-x="732" 
d="M363 -12c-40 0 -76.3291 5.50098 -108.996 16.501s-61.334 26.833 -86.001 47.5l-50 -58h-89l95 105c-20.667 28.667 -36.334 62.5 -47.001 101.5s-16 81.833 -16 128.5c0 51.333 6.83301 98.166 20.5 140.499s33.667 78.5 60 108.5s58.666 53.167 96.999 69.5
s81.833 24.5 130.5 24.5c39.333 0 75.5 -5.83301 108.5 -17.5s61.833 -28.167 86.5 -49.5l53 60h89l-98 -108c20.667 -28.667 36.5 -62.334 47.5 -101.001s16.5 -81 16.5 -127c0 -52 -7 -99.167 -21 -141.5s-34 -78.166 -60 -107.499s-58.333 -52 -97 -68
s-82.334 -24 -131.001 -24zM164.004 328.001c0 -32 2.83203 -61.334 8.49902 -88.001s13.834 -50.334 24.501 -71.001l307 363c-16.667 18.667 -36.667 32.834 -60 42.501s-49.333 14.5 -78 14.5c-63.333 0 -112.833 -22.667 -148.5 -68s-53.5 -108.666 -53.5 -189.999v-3z
M365.003 70c64 0 113.5 22.667 148.5 68s52.5 109 52.5 191v2c0 30.667 -2.66699 59 -8 85s-13 49.333 -23 70l-308 -360c16.667 -18 36.667 -31.833 60 -41.5s49.333 -14.5 78 -14.5z" />
    <glyph glyph-name="Ugrave" unicode="&#xd9;" horiz-adv-x="672" 
d="M338 -13c-84.667 0 -148.666 23.333 -191.999 70s-65 116.667 -65 210v392h102v-389c0 -66.667 12.667 -115.667 38 -147s63.666 -47 114.999 -47c52 0 90.833 15.5 116.5 46.5s38.5 80.167 38.5 147.5v389h101v-392c0 -96 -23.167 -166.667 -69.5 -212
s-107.833 -68 -184.5 -68zM294.001 738l-158 155v12h114l110 -167h-66z" />
    <glyph glyph-name="Uacute" unicode="&#xda;" horiz-adv-x="672" 
d="M338 -13c-84.667 0 -148.666 23.333 -191.999 70s-65 116.667 -65 210v392h102v-389c0 -66.667 12.667 -115.667 38 -147s63.666 -47 114.999 -47c52 0 90.833 15.5 116.5 46.5s38.5 80.167 38.5 147.5v389h101v-392c0 -96 -23.167 -166.667 -69.5 -212
s-107.833 -68 -184.5 -68zM300.001 738l106 167h114v-12l-154 -155h-66z" />
    <glyph glyph-name="Ucircumflex" unicode="&#xdb;" horiz-adv-x="672" 
d="M338 -13c-84.667 0 -148.666 23.333 -191.999 70s-65 116.667 -65 210v392h102v-389c0 -66.667 12.667 -115.667 38 -147s63.666 -47 114.999 -47c52 0 90.833 15.5 116.5 46.5s38.5 80.167 38.5 147.5v389h101v-392c0 -96 -23.167 -166.667 -69.5 -212
s-107.833 -68 -184.5 -68zM166.001 740v8l127 155h85l128 -155v-8h-90l-53 74l-24 41h-6l-24 -41l-53 -74h-90z" />
    <glyph glyph-name="Udieresis" unicode="&#xdc;" horiz-adv-x="672" 
d="M338 -13c-84.667 0 -148.666 23.333 -191.999 70s-65 116.667 -65 210v392h102v-389c0 -66.667 12.667 -115.667 38 -147s63.666 -47 114.999 -47c52 0 90.833 15.5 116.5 46.5s38.5 80.167 38.5 147.5v389h101v-392c0 -96 -23.167 -166.667 -69.5 -212
s-107.833 -68 -184.5 -68zM194.001 740c-2 0 -3.5 0.666992 -4.5 2s-1.5 3 -1.5 5v99c0 2.66699 0.666992 4.66699 2 6s3.33301 2 6 2h76c2 0 3.66699 -0.666992 5 -2s2 -3.33301 2 -6v-99c0 -2 -0.666992 -3.66699 -2 -5s-3 -2 -5 -2h-78zM399.001 740
c-2 0 -3.5 0.666992 -4.5 2s-1.5 3 -1.5 5v99c0 2.66699 0.666992 4.66699 2 6s3.33301 2 6 2h76c2 0 3.66699 -0.666992 5 -2s2 -3.33301 2 -6v-99c0 -2 -0.666992 -3.66699 -2 -5s-3 -2 -5 -2h-78z" />
    <glyph glyph-name="Yacute" unicode="&#xdd;" horiz-adv-x="570" 
d="M234 0v260l-229 399h116l106 -195l54 -137h9l54 137l104 195h118l-230 -399v-260h-102zM249 738l106 167h114v-12l-154 -155h-66z" />
    <glyph glyph-name="Thorn" unicode="&#xde;" horiz-adv-x="597" 
d="M94 0l-0.000976562 659h100v-106h109c81.333 0 143 -18.833 185 -56.5s63 -90.167 63 -157.5c0 -66.667 -23.167 -120.667 -69.5 -162s-110.166 -62 -191.499 -62h-95v-115h-101zM194.999 474v-278h96c51.333 0 90 12.167 116 36.5s39 56.5 39 96.5
c0 49.333 -12.833 85.833 -38.5 109.5s-65.5 35.5 -119.5 35.5h-93z" />
    <glyph glyph-name="germandbls" unicode="&#xdf;" horiz-adv-x="583" 
d="M316 -6c-10.667 0 -22.001 0.833008 -34.001 2.5s-21.333 3.16699 -28 4.5v72c5.33301 -1.33301 12.833 -2.66602 22.5 -3.99902s19.834 -2 30.501 -2c44 0 77.333 13.667 100 41s34 65 34 113c0 45.333 -11.833 81.666 -35.5 108.999s-61.167 41 -112.5 41h-38v66h23
c38 0 69.5 12.333 94.5 37s37.5 56.667 37.5 96c0 26 -6.83301 48.333 -20.5 67s-37.5 28 -71.5 28c-42 0 -76.333 -17 -103 -51s-40 -85.667 -40 -155v-459h-97v448c0 94.667 22 167.334 66 218.001s105.667 76 185 76c52.667 0 95.334 -13.167 128.001 -39.5
s49 -63.5 49 -111.5c0 -36.667 -13.167 -69.834 -39.5 -99.501s-62.166 -50.5 -107.499 -62.5c32 -2 59.667 -8.83301 83 -20.5s42.666 -26.667 57.999 -45s26.666 -39.5 33.999 -63.5s11 -49 11 -75c0 -32.667 -4.83301 -63 -14.5 -91s-24.167 -52.333 -43.5 -73
s-43.333 -37 -72 -49s-61.667 -18 -99 -18z" />
    <glyph glyph-name="agrave" unicode="&#xe0;" horiz-adv-x="528" 
d="M380 0c-6 6.66699 -11.1709 18.832 -15.5039 36.499s-6.83301 41.5 -7.5 71.5c-10.667 -34.667 -31.167 -63 -61.5 -85s-65.166 -32.667 -104.499 -32c-48 0 -84.833 12.833 -110.5 38.5s-38.5 58.5 -38.5 98.5c0.666992 46 17 80.333 49 103s74 39 126 49
c48 10 82.833 18.5 104.5 25.5s32.834 15.167 33.501 24.5v8c0 30.667 -8.16699 53.834 -24.5 69.501s-41.833 23.5 -76.5 23.5c-30.667 0 -57.167 -7.5 -79.5 -22.5s-38.5 -32.833 -48.5 -53.5l-77 40c17.333 34 45.333 61.333 84 82s82.334 31 131.001 31
c62.667 0 109.834 -15 141.501 -45s47.5 -74.667 47.5 -134v-165c0 -52 2.66699 -90.333 8 -115s12 -41 20 -49h-101zM219.996 63.998c34 0 63.832 10.834 89.499 32.501s40.834 49.5 45.501 83.5v100c-4.66699 -8 -14.667 -15.5 -30 -22.5s-33.333 -12.833 -54 -17.5
c-42 -10 -73.833 -22.833 -95.5 -38.5s-32.5 -36.834 -32.5 -63.501c0 -24.667 7.66699 -43.167 23 -55.5s33.333 -18.5 54 -18.5zM234.995 582.999l-150 164v13h111l104 -177h-65z" />
    <glyph glyph-name="aacute" unicode="&#xe1;" horiz-adv-x="528" 
d="M380 0c-6 6.66699 -11.1709 18.832 -15.5039 36.499s-6.83301 41.5 -7.5 71.5c-10.667 -34.667 -31.167 -63 -61.5 -85s-65.166 -32.667 -104.499 -32c-48 0 -84.833 12.833 -110.5 38.5s-38.5 58.5 -38.5 98.5c0.666992 46 17 80.333 49 103s74 39 126 49
c48 10 82.833 18.5 104.5 25.5s32.834 15.167 33.501 24.5v8c0 30.667 -8.16699 53.834 -24.5 69.501s-41.833 23.5 -76.5 23.5c-30.667 0 -57.167 -7.5 -79.5 -22.5s-38.5 -32.833 -48.5 -53.5l-77 40c17.333 34 45.333 61.333 84 82s82.334 31 131.001 31
c62.667 0 109.834 -15 141.501 -45s47.5 -74.667 47.5 -134v-165c0 -52 2.66699 -90.333 8 -115s12 -41 20 -49h-101zM219.996 63.998c34 0 63.832 10.834 89.499 32.501s40.834 49.5 45.501 83.5v100c-4.66699 -8 -14.667 -15.5 -30 -22.5s-33.333 -12.833 -54 -17.5
c-42 -10 -73.833 -22.833 -95.5 -38.5s-32.5 -36.834 -32.5 -63.501c0 -24.667 7.66699 -43.167 23 -55.5s33.333 -18.5 54 -18.5zM231.995 582.999l104 177h111v-13l-150 -164h-65z" />
    <glyph glyph-name="acircumflex" unicode="&#xe2;" horiz-adv-x="528" 
d="M380 0c-6 6.66699 -11.1709 18.832 -15.5039 36.499s-6.83301 41.5 -7.5 71.5c-10.667 -34.667 -31.167 -63 -61.5 -85s-65.166 -32.667 -104.499 -32c-48 0 -84.833 12.833 -110.5 38.5s-38.5 58.5 -38.5 98.5c0.666992 46 17 80.333 49 103s74 39 126 49
c48 10 82.833 18.5 104.5 25.5s32.834 15.167 33.501 24.5v8c0 30.667 -8.16699 53.834 -24.5 69.501s-41.833 23.5 -76.5 23.5c-30.667 0 -57.167 -7.5 -79.5 -22.5s-38.5 -32.833 -48.5 -53.5l-77 40c17.333 34 45.333 61.333 84 82s82.334 31 131.001 31
c62.667 0 109.834 -15 141.501 -45s47.5 -74.667 47.5 -134v-165c0 -52 2.66699 -90.333 8 -115s12 -41 20 -49h-101zM219.996 63.998c34 0 63.832 10.834 89.499 32.501s40.834 49.5 45.501 83.5v100c-4.66699 -8 -14.667 -15.5 -30 -22.5s-33.333 -12.833 -54 -17.5
c-42 -10 -73.833 -22.833 -95.5 -38.5s-32.5 -36.834 -32.5 -63.501c0 -24.667 7.66699 -43.167 23 -55.5s33.333 -18.5 54 -18.5zM96.9951 582.999v8l127 169h83l128 -169v-8h-90l-53 86l-24 43h-5l-25 -43l-53 -86h-88z" />
    <glyph glyph-name="atilde" unicode="&#xe3;" horiz-adv-x="528" 
d="M380 0c-6 6.66699 -11.1709 18.832 -15.5039 36.499s-6.83301 41.5 -7.5 71.5c-10.667 -34.667 -31.167 -63 -61.5 -85s-65.166 -32.667 -104.499 -32c-48 0 -84.833 12.833 -110.5 38.5s-38.5 58.5 -38.5 98.5c0.666992 46 17 80.333 49 103s74 39 126 49
c48 10 82.833 18.5 104.5 25.5s32.834 15.167 33.501 24.5v8c0 30.667 -8.16699 53.834 -24.5 69.501s-41.833 23.5 -76.5 23.5c-30.667 0 -57.167 -7.5 -79.5 -22.5s-38.5 -32.833 -48.5 -53.5l-77 40c17.333 34 45.333 61.333 84 82s82.334 31 131.001 31
c62.667 0 109.834 -15 141.501 -45s47.5 -74.667 47.5 -134v-165c0 -52 2.66699 -90.333 8 -115s12 -41 20 -49h-101zM219.996 63.998c34 0 63.832 10.834 89.499 32.501s40.834 49.5 45.501 83.5v100c-4.66699 -8 -14.667 -15.5 -30 -22.5s-33.333 -12.833 -54 -17.5
c-42 -10 -73.833 -22.833 -95.5 -38.5s-32.5 -36.834 -32.5 -63.501c0 -24.667 7.66699 -43.167 23 -55.5s33.333 -18.5 54 -18.5zM333.995 577.999c-24.667 0 -43.833 5.3291 -57.5 15.9961s-24.667 22.5 -33 35.5l-22 35.5c-6.33301 10.667 -14.5 16 -24.5 16h-7
c-10.667 0 -18.5 -7 -23.5 -21s-8.5 -29.333 -10.5 -46l-2 -23h-66c0 0.666992 0.333008 3 1 7s1.16699 8.33301 1.5 13s0.833008 9 1.5 13s1 6.33301 1 7c4.66699 40.667 17.167 69.334 37.5 86.001s43.833 25 70.5 25c22.667 0 40.834 -5.5 54.501 -16.5
s24.834 -22.833 33.501 -35.5s16.167 -24.5 22.5 -35.5s14.166 -16.5 23.499 -16.5h7c10.667 0 18.5 6.83301 23.5 20.5s8.5 28.834 10.5 45.501c0 0.666992 0.333008 4.83398 1 12.501s1 11.834 1 12.501h66c0 -0.666992 -0.333008 -3.16699 -1 -7.5
s-1.16699 -8.83301 -1.5 -13.5s-0.833008 -9.16699 -1.5 -13.5s-1 -6.83301 -1 -7.5c-4.66699 -40.667 -17.334 -69 -38.001 -85s-43 -24 -67 -24z" />
    <glyph glyph-name="adieresis" unicode="&#xe4;" horiz-adv-x="528" 
d="M380 0c-6 6.66699 -11.1709 18.832 -15.5039 36.499s-6.83301 41.5 -7.5 71.5c-10.667 -34.667 -31.167 -63 -61.5 -85s-65.166 -32.667 -104.499 -32c-48 0 -84.833 12.833 -110.5 38.5s-38.5 58.5 -38.5 98.5c0.666992 46 17 80.333 49 103s74 39 126 49
c48 10 82.833 18.5 104.5 25.5s32.834 15.167 33.501 24.5v8c0 30.667 -8.16699 53.834 -24.5 69.501s-41.833 23.5 -76.5 23.5c-30.667 0 -57.167 -7.5 -79.5 -22.5s-38.5 -32.833 -48.5 -53.5l-77 40c17.333 34 45.333 61.333 84 82s82.334 31 131.001 31
c62.667 0 109.834 -15 141.501 -45s47.5 -74.667 47.5 -134v-165c0 -52 2.66699 -90.333 8 -115s12 -41 20 -49h-101zM219.996 63.998c34 0 63.832 10.834 89.499 32.501s40.834 49.5 45.501 83.5v100c-4.66699 -8 -14.667 -15.5 -30 -22.5s-33.333 -12.833 -54 -17.5
c-42 -10 -73.833 -22.833 -95.5 -38.5s-32.5 -36.834 -32.5 -63.501c0 -24.667 7.66699 -43.167 23 -55.5s33.333 -18.5 54 -18.5zM123.995 582.999c-2 0 -3.5 0.666992 -4.5 2s-1.5 3 -1.5 5v99c0 2.66699 0.666992 4.66699 2 6s3.33301 2 6 2h76
c2 0 3.66699 -0.666992 5 -2s2 -3.33301 2 -6v-99c0 -2 -0.666992 -3.66699 -2 -5s-3 -2 -5 -2h-78zM328.995 582.999c-2 0 -3.5 0.666992 -4.5 2s-1.5 3 -1.5 5v99c0 2.66699 0.666992 4.66699 2 6s3.33301 2 6 2h76c2 0 3.66699 -0.666992 5 -2s2 -3.33301 2 -6v-99
c0 -2 -0.666992 -3.66699 -2 -5s-3 -2 -5 -2h-78z" />
    <glyph glyph-name="aring" unicode="&#xe5;" horiz-adv-x="528" 
d="M380 0c-6 6.66699 -11.1709 18.832 -15.5039 36.499s-6.83301 41.5 -7.5 71.5c-10.667 -34.667 -31.167 -63 -61.5 -85s-65.166 -32.667 -104.499 -32c-48 0 -84.833 12.833 -110.5 38.5s-38.5 58.5 -38.5 98.5c0.666992 46 17 80.333 49 103s74 39 126 49
c48 10 82.833 18.5 104.5 25.5s32.834 15.167 33.501 24.5v8c0 30.667 -8.16699 53.834 -24.5 69.501s-41.833 23.5 -76.5 23.5c-30.667 0 -57.167 -7.5 -79.5 -22.5s-38.5 -32.833 -48.5 -53.5l-77 40c17.333 34 45.333 61.333 84 82s82.334 31 131.001 31
c62.667 0 109.834 -15 141.501 -45s47.5 -74.667 47.5 -134v-165c0 -52 2.66699 -90.333 8 -115s12 -41 20 -49h-101zM219.996 63.998c34 0 63.832 10.834 89.499 32.501s40.834 49.5 45.501 83.5v100c-4.66699 -8 -14.667 -15.5 -30 -22.5s-33.333 -12.833 -54 -17.5
c-42 -10 -73.833 -22.833 -95.5 -38.5s-32.5 -36.834 -32.5 -63.501c0 -24.667 7.66699 -43.167 23 -55.5s33.333 -18.5 54 -18.5zM265.995 576.999c-38.667 0 -70.5 11.167 -95.5 33.5s-37.5 51.166 -37.5 86.499c0 36 12.5 65.333 37.5 88s56.833 34 95.5 34
s70.667 -11.333 96 -34s38 -52 38 -88c0 -35.333 -12.667 -64.166 -38 -86.499s-57.333 -33.5 -96 -33.5zM265.995 624.999c21.333 0 39.166 6.33301 53.499 19s21.5 30.334 21.5 53.001c0 21.333 -7.16699 38.666 -21.5 51.999s-32.166 20 -53.499 20
s-39.166 -6.66699 -53.499 -20s-21.5 -30.666 -21.5 -51.999c0 -22.667 7.16699 -40.334 21.5 -53.001s32.166 -19 53.499 -19z" />
    <glyph glyph-name="ae" unicode="&#xe6;" horiz-adv-x="842" 
d="M193 -9c-49.333 0 -86.833 12.832 -112.5 38.499s-38.5 58.5 -38.5 98.5c0.666992 46 16.834 80.167 48.501 102.5s73.834 38.833 126.501 49.5c49.333 10.667 84.5 19.334 105.5 26.001s31.833 14.667 32.5 24v8c0 30.667 -8.16699 53.834 -24.5 69.501
s-41.833 23.5 -76.5 23.5c-29.333 0 -55.333 -7.16699 -78 -21.5s-39.334 -32.5 -50.001 -54.5l-77 40c17.333 34.667 45.666 62.167 84.999 82.5s83 30.5 131 30.5c40 0 72.5 -6.16699 97.5 -18.5s43.833 -30.833 56.5 -55.5c18.667 24.667 42 43.5 70 56.5
s59.333 19.5 94 19.5c38.667 0 71.667 -6.33301 99 -19s49.666 -29.834 66.999 -51.501s30 -47.5 38 -77.5s12 -62.333 12 -97c0 -4 -0.166992 -10.5 -0.5 -19.5s-0.833008 -14.833 -1.5 -17.5h-345c2.66699 -56 17.167 -97 43.5 -123s60.833 -39 103.5 -39
c30 0 54.333 7.33301 73 22s32.334 30 41.001 46l69 -49c-18 -27.333 -42.5 -50.166 -73.5 -68.499s-70.5 -27.5 -118.5 -27.5c-54 0 -98.5 12.667 -133.5 38s-59.833 60.666 -74.5 105.999c-14.667 -51.333 -40.167 -87.833 -76.5 -109.5s-73.833 -32.5 -112.5 -32.5z
M221 63.999c34 0 63.333 10.502 88 31.502s40 48.167 46 81.5v105c-4 -6 -11.667 -12.833 -23 -20.5s-31.666 -14.834 -60.999 -21.501c-42 -10 -73.833 -22.833 -95.5 -38.5s-32.5 -36.834 -32.5 -63.501c0 -24.667 7.66699 -43.167 23 -55.5s33.666 -18.5 54.999 -18.5z
M581 435.001c-35.333 0 -64.5 -11.333 -87.5 -34s-35.833 -58.667 -38.5 -108h242c-0.666992 44 -9.16699 78.667 -25.5 104s-46.5 38 -90.5 38z" />
    <glyph glyph-name="ccedilla" unicode="&#xe7;" horiz-adv-x="504" 
d="M251 -232c-12 0 -24.332 1.00195 -36.999 3.00195s-23.334 5.33301 -32.001 10v71c5.33301 -2.66699 12.333 -4.83398 21 -6.50098s18.667 -2.5 30 -2.5c18.667 0 32.834 5.16699 42.501 15.5s14.5 23.833 14.5 40.5c0 16 -4.66699 32.5 -14 49.5s-24 31.833 -44 44.5
c-59.333 10.667 -105.333 38.834 -138 84.501s-49 103.167 -49 172.5c0 37.333 5.33301 71.833 16 103.5s26.167 59 46.5 82s45.333 41.167 75 54.5s63.5 20 101.5 20c48 0 88 -9.83301 120 -29.5s56.667 -51.5 74 -95.5l-88 -36c-6.66699 22.667 -18.334 42.5 -35.001 59.5
s-40.334 25.5 -71.001 25.5c-41.333 0 -74.333 -15.833 -99 -47.5s-37 -76.5 -37 -134.5c0 -58.667 11.833 -104.167 35.5 -136.5s57.5 -48.5 101.5 -48.5c28.667 0 52.167 6.83301 70.5 20.5s31.833 32.167 40.5 55.5l80 -39c-14 -31.333 -35.667 -57.5 -65 -78.5
s-66.333 -32.833 -111 -35.5c20.667 -14.667 37.167 -32.334 49.5 -53.001s18.5 -42.334 18.5 -65.001c0 -30 -9.66699 -54.833 -29 -74.5s-48.666 -29.5 -87.999 -29.5z" />
    <glyph glyph-name="egrave" unicode="&#xe8;" horiz-adv-x="537" 
d="M282 -11c-75.333 0 -133.5 23.166 -174.5 69.499s-61.167 109.833 -60.5 190.5c0 80.667 21 144.334 63 191.001s98.667 70 170 70c38 0 70.667 -6.16699 98 -18.5s49.5 -29.5 66.5 -51.5s29.5 -48 37.5 -78s12 -62.333 12 -97c0 -4 -0.166992 -10.5 -0.5 -19.5
s-0.5 -14.833 -0.5 -17.5h-347c3.33301 -56 17.833 -97 43.5 -123s58.5 -39 98.5 -39c28.667 0 53.667 6.33301 75 19s37.333 28.334 48 47.001l67 -47c-18.667 -26.667 -44 -49.334 -76 -68.001s-72 -28 -120 -28zM277 434.999c-34 0 -63 -11 -87 -33
s-37.667 -58.333 -41 -109h243v4c0 42 -8.66699 75.5 -26 100.5s-47 37.5 -89 37.5zM249 582.999l-150 164v13h111l104 -177h-65z" />
    <glyph glyph-name="eacute" unicode="&#xe9;" horiz-adv-x="537" 
d="M282 -11c-75.333 0 -133.5 23.166 -174.5 69.499s-61.167 109.833 -60.5 190.5c0 80.667 21 144.334 63 191.001s98.667 70 170 70c38 0 70.667 -6.16699 98 -18.5s49.5 -29.5 66.5 -51.5s29.5 -48 37.5 -78s12 -62.333 12 -97c0 -4 -0.166992 -10.5 -0.5 -19.5
s-0.5 -14.833 -0.5 -17.5h-347c3.33301 -56 17.833 -97 43.5 -123s58.5 -39 98.5 -39c28.667 0 53.667 6.33301 75 19s37.333 28.334 48 47.001l67 -47c-18.667 -26.667 -44 -49.334 -76 -68.001s-72 -28 -120 -28zM277 434.999c-34 0 -63 -11 -87 -33
s-37.667 -58.333 -41 -109h243v4c0 42 -8.66699 75.5 -26 100.5s-47 37.5 -89 37.5zM246 582.999l104 177h111v-13l-150 -164h-65z" />
    <glyph glyph-name="ecircumflex" unicode="&#xea;" horiz-adv-x="537" 
d="M282 -11c-75.333 0 -133.5 23.166 -174.5 69.499s-61.167 109.833 -60.5 190.5c0 80.667 21 144.334 63 191.001s98.667 70 170 70c38 0 70.667 -6.16699 98 -18.5s49.5 -29.5 66.5 -51.5s29.5 -48 37.5 -78s12 -62.333 12 -97c0 -4 -0.166992 -10.5 -0.5 -19.5
s-0.5 -14.833 -0.5 -17.5h-347c3.33301 -56 17.833 -97 43.5 -123s58.5 -39 98.5 -39c28.667 0 53.667 6.33301 75 19s37.333 28.334 48 47.001l67 -47c-18.667 -26.667 -44 -49.334 -76 -68.001s-72 -28 -120 -28zM277 434.999c-34 0 -63 -11 -87 -33
s-37.667 -58.333 -41 -109h243v4c0 42 -8.66699 75.5 -26 100.5s-47 37.5 -89 37.5zM111 582.999v8l127 169h83l128 -169v-8h-90l-53 86l-24 43h-5l-25 -43l-53 -86h-88z" />
    <glyph glyph-name="edieresis" unicode="&#xeb;" horiz-adv-x="537" 
d="M282 -11c-75.333 0 -133.5 23.166 -174.5 69.499s-61.167 109.833 -60.5 190.5c0 80.667 21 144.334 63 191.001s98.667 70 170 70c38 0 70.667 -6.16699 98 -18.5s49.5 -29.5 66.5 -51.5s29.5 -48 37.5 -78s12 -62.333 12 -97c0 -4 -0.166992 -10.5 -0.5 -19.5
s-0.5 -14.833 -0.5 -17.5h-347c3.33301 -56 17.833 -97 43.5 -123s58.5 -39 98.5 -39c28.667 0 53.667 6.33301 75 19s37.333 28.334 48 47.001l67 -47c-18.667 -26.667 -44 -49.334 -76 -68.001s-72 -28 -120 -28zM277 434.999c-34 0 -63 -11 -87 -33
s-37.667 -58.333 -41 -109h243v4c0 42 -8.66699 75.5 -26 100.5s-47 37.5 -89 37.5zM138 582.999c-2 0 -3.5 0.666992 -4.5 2s-1.5 3 -1.5 5v99c0 2.66699 0.666992 4.66699 2 6s3.33301 2 6 2h76c2 0 3.66699 -0.666992 5 -2s2 -3.33301 2 -6v-99
c0 -2 -0.666992 -3.66699 -2 -5s-3 -2 -5 -2h-78zM343 582.999c-2 0 -3.5 0.666992 -4.5 2s-1.5 3 -1.5 5v99c0 2.66699 0.666992 4.66699 2 6s3.33301 2 6 2h76c2 0 3.66699 -0.666992 5 -2s2 -3.33301 2 -6v-99c0 -2 -0.666992 -3.66699 -2 -5s-3 -2 -5 -2h-78z" />
    <glyph glyph-name="igrave" unicode="&#xec;" horiz-adv-x="262" 
d="M82 0v497h98v-497h-98zM100 583l-148 164v13h112l101 -177h-65z" />
    <glyph glyph-name="iacute" unicode="&#xed;" horiz-adv-x="262" 
d="M82 0v497h98v-497h-98zM97 583l103 177h111v-13l-149 -164h-65z" />
    <glyph glyph-name="icircumflex" unicode="&#xee;" horiz-adv-x="262" 
d="M82 0v497h98v-497h-98zM-38 583v8l127 169h84l127 -169v-8h-90l-52 86l-25 43h-5l-25 -43l-53 -86h-88z" />
    <glyph glyph-name="idieresis" unicode="&#xef;" horiz-adv-x="262" 
d="M-7 583c-2 0 -3.33301 0.666992 -4 2s-1 3 -1 5v99c0 2.66699 0.5 4.66699 1.5 6s2.83301 2 5.5 2h76c2 0 3.66699 -0.666992 5 -2s2 -3.33301 2 -6v-99c0 -2 -0.666992 -3.66699 -2 -5s-3 -2 -5 -2h-78zM191 583c-2.66699 0 -4.33301 0.666992 -5 2s-1 3 -1 5v99
c0 2.66699 0.5 4.66699 1.5 6s2.83301 2 5.5 2h76c2.66699 0 4.5 -0.666992 5.5 -2s1.5 -3.33301 1.5 -6v-99c0 -2 -0.5 -3.66699 -1.5 -5s-2.83301 -2 -5.5 -2h-77zM82.001 0v497h98v-497h-98z" />
    <glyph glyph-name="eth" unicode="&#xf0;" horiz-adv-x="573" 
d="M226 556l-55.0029 35.999l53 73c-15.333 8.66699 -30.833 16.334 -46.5 23.001s-33.167 12.667 -52.5 18l44 62c20 -6 37.667 -12.333 53 -19s31.333 -14.334 48 -23.001l51 69l54 -37l-48 -65c60.667 -40.667 107.834 -91.5 141.501 -152.5s50.5 -141.167 50.5 -240.5
c0 -44.667 -4.66699 -86.167 -14 -124.5s-23.666 -71.166 -42.999 -98.499s-43.833 -48.833 -73.5 -64.5s-64.5 -23.5 -104.5 -23.5c-71.333 0 -128.333 22.667 -171 68s-64 105.666 -64 180.999c0 34 4.66699 66.333 14 97s23 57.167 41 79.5s40.833 40.166 68.5 53.499
s59.5 20 95.5 20c34 0 63.833 -6.16699 89.5 -18.5s46.167 -30.166 61.5 -53.499c-3.33301 16.667 -7.66602 32.334 -12.999 47.001s-12.333 31 -21 49c-10 20 -22.333 39.167 -37 57.5s-37 38.5 -67 60.5zM287.997 65.999c22 0 41.168 5.5 57.501 16.5
s29.833 25.667 40.5 44s18.5 40 23.5 65s7.5 51.167 7.5 78.5v100c-10.667 14.667 -27.834 27.167 -51.501 37.5s-49.834 15.5 -78.501 15.5c-42 0 -74.833 -15.833 -98.5 -47.5s-35.5 -76.167 -35.5 -133.5c0 -54.667 12.333 -97.667 37 -129s57.334 -47 98.001 -47z" />
    <glyph glyph-name="ntilde" unicode="&#xf1;" horiz-adv-x="583" 
d="M179 497v-68.001c0 -2.66699 -0.166992 -7.66699 -0.5 -15s-0.833008 -15 -1.5 -23s-1.16699 -15 -1.5 -21l-0.5 -9h6c11.333 40.667 32.333 75.334 63 104.001s68.334 43 113.001 43c48.667 0 86 -15.333 112 -46s39 -76 39 -136v-326h-101v303c0 43.333 -8 74 -24 92
s-38.333 27 -67 27c-35.333 0 -66.333 -15 -93 -45s-40.334 -71.667 -41.001 -125v-252h-100v497h97zM375 577.999c-24.667 0 -43.833 5.3291 -57.5 15.9961s-24.667 22.5 -33 35.5l-22 35.5c-6.33301 10.667 -14.5 16 -24.5 16h-7c-10.667 0 -18.5 -7 -23.5 -21
s-8.5 -29.333 -10.5 -46l-2 -23h-66c0 0.666992 0.333008 3 1 7s1.16699 8.33301 1.5 13s0.833008 9 1.5 13s1 6.33301 1 7c4.66699 40.667 17.167 69.334 37.5 86.001s43.833 25 70.5 25c22.667 0 40.834 -5.5 54.501 -16.5s24.834 -22.833 33.501 -35.5
s16.167 -24.5 22.5 -35.5s14.166 -16.5 23.499 -16.5h7c10.667 0 18.5 6.83301 23.5 20.5s8.5 28.834 10.5 45.501c0 0.666992 0.333008 4.83398 1 12.501s1 11.834 1 12.501h66c0 -0.666992 -0.333008 -3.16699 -1 -7.5s-1.16699 -8.83301 -1.5 -13.5
s-0.833008 -9.16699 -1.5 -13.5s-1 -6.83301 -1 -7.5c-4.66699 -40.667 -17.334 -69 -38.001 -85s-43 -24 -67 -24z" />
    <glyph glyph-name="ograve" unicode="&#xf2;" horiz-adv-x="572" 
d="M283 -11c-77.333 0 -136.502 23.666 -177.502 70.999s-61.5 110.333 -61.5 189c0 36.667 5.5 71 16.5 103s27 59.667 48 83s46.833 41.666 77.5 54.999s65.334 20 104.001 20c76 0 134.5 -23.5 175.5 -70.5s61.5 -109.167 61.5 -186.5c0 -38 -5.66699 -73.167 -17 -105.5
s-27.5 -60.166 -48.5 -83.499s-46.667 -41.666 -77 -54.999s-64.166 -20 -101.499 -20zM284.998 64.999c44 0 78.167 16.998 102.5 50.998s36.5 79 36.5 135c0 54.667 -11.667 98.834 -35 132.501s-57 50.5 -101 50.5c-45.333 0 -80 -17 -104 -51s-36 -78 -36 -132
c0 -55.333 11.833 -100.166 35.5 -134.499s57.5 -51.5 101.5 -51.5zM256.998 582.997l-150 164v13h111l104 -177h-65z" />
    <glyph glyph-name="oacute" unicode="&#xf3;" horiz-adv-x="572" 
d="M283 -11c-77.333 0 -136.502 23.666 -177.502 70.999s-61.5 110.333 -61.5 189c0 36.667 5.5 71 16.5 103s27 59.667 48 83s46.833 41.666 77.5 54.999s65.334 20 104.001 20c76 0 134.5 -23.5 175.5 -70.5s61.5 -109.167 61.5 -186.5c0 -38 -5.66699 -73.167 -17 -105.5
s-27.5 -60.166 -48.5 -83.499s-46.667 -41.666 -77 -54.999s-64.166 -20 -101.499 -20zM284.998 64.999c44 0 78.167 16.998 102.5 50.998s36.5 79 36.5 135c0 54.667 -11.667 98.834 -35 132.501s-57 50.5 -101 50.5c-45.333 0 -80 -17 -104 -51s-36 -78 -36 -132
c0 -55.333 11.833 -100.166 35.5 -134.499s57.5 -51.5 101.5 -51.5zM253.998 582.997l104 177h111v-13l-150 -164h-65z" />
    <glyph glyph-name="ocircumflex" unicode="&#xf4;" horiz-adv-x="572" 
d="M283 -11c-77.333 0 -136.502 23.666 -177.502 70.999s-61.5 110.333 -61.5 189c0 36.667 5.5 71 16.5 103s27 59.667 48 83s46.833 41.666 77.5 54.999s65.334 20 104.001 20c76 0 134.5 -23.5 175.5 -70.5s61.5 -109.167 61.5 -186.5c0 -38 -5.66699 -73.167 -17 -105.5
s-27.5 -60.166 -48.5 -83.499s-46.667 -41.666 -77 -54.999s-64.166 -20 -101.499 -20zM284.998 64.999c44 0 78.167 16.998 102.5 50.998s36.5 79 36.5 135c0 54.667 -11.667 98.834 -35 132.501s-57 50.5 -101 50.5c-45.333 0 -80 -17 -104 -51s-36 -78 -36 -132
c0 -55.333 11.833 -100.166 35.5 -134.499s57.5 -51.5 101.5 -51.5zM118.998 582.997v8l127 169h83l128 -169v-8h-90l-53 86l-24 43h-5l-25 -43l-53 -86h-88z" />
    <glyph glyph-name="otilde" unicode="&#xf5;" horiz-adv-x="572" 
d="M283 -11c-77.333 0 -136.502 23.666 -177.502 70.999s-61.5 110.333 -61.5 189c0 36.667 5.5 71 16.5 103s27 59.667 48 83s46.833 41.666 77.5 54.999s65.334 20 104.001 20c76 0 134.5 -23.5 175.5 -70.5s61.5 -109.167 61.5 -186.5c0 -38 -5.66699 -73.167 -17 -105.5
s-27.5 -60.166 -48.5 -83.499s-46.667 -41.666 -77 -54.999s-64.166 -20 -101.499 -20zM284.998 64.999c44 0 78.167 16.998 102.5 50.998s36.5 79 36.5 135c0 54.667 -11.667 98.834 -35 132.501s-57 50.5 -101 50.5c-45.333 0 -80 -17 -104 -51s-36 -78 -36 -132
c0 -55.333 11.833 -100.166 35.5 -134.499s57.5 -51.5 101.5 -51.5zM355.998 577.997c-24.667 0 -43.833 5.3291 -57.5 15.9961s-24.667 22.5 -33 35.5l-22 35.5c-6.33301 10.667 -14.5 16 -24.5 16h-7c-10.667 0 -18.5 -7 -23.5 -21s-8.5 -29.333 -10.5 -46l-2 -23h-66
c0 0.666992 0.333008 3 1 7s1.16699 8.33301 1.5 13s0.833008 9 1.5 13s1 6.33301 1 7c4.66699 40.667 17.167 69.334 37.5 86.001s43.833 25 70.5 25c22.667 0 40.834 -5.5 54.501 -16.5s24.834 -22.833 33.501 -35.5s16.167 -24.5 22.5 -35.5s14.166 -16.5 23.499 -16.5h7
c10.667 0 18.5 6.83301 23.5 20.5s8.5 28.834 10.5 45.501c0 0.666992 0.333008 4.83398 1 12.501s1 11.834 1 12.501h66c0 -0.666992 -0.333008 -3.16699 -1 -7.5s-1.16699 -8.83301 -1.5 -13.5s-0.833008 -9.16699 -1.5 -13.5s-1 -6.83301 -1 -7.5
c-4.66699 -40.667 -17.334 -69 -38.001 -85s-43 -24 -67 -24z" />
    <glyph glyph-name="odieresis" unicode="&#xf6;" horiz-adv-x="572" 
d="M283 -11c-77.333 0 -136.502 23.666 -177.502 70.999s-61.5 110.333 -61.5 189c0 36.667 5.5 71 16.5 103s27 59.667 48 83s46.833 41.666 77.5 54.999s65.334 20 104.001 20c76 0 134.5 -23.5 175.5 -70.5s61.5 -109.167 61.5 -186.5c0 -38 -5.66699 -73.167 -17 -105.5
s-27.5 -60.166 -48.5 -83.499s-46.667 -41.666 -77 -54.999s-64.166 -20 -101.499 -20zM284.998 64.999c44 0 78.167 16.998 102.5 50.998s36.5 79 36.5 135c0 54.667 -11.667 98.834 -35 132.501s-57 50.5 -101 50.5c-45.333 0 -80 -17 -104 -51s-36 -78 -36 -132
c0 -55.333 11.833 -100.166 35.5 -134.499s57.5 -51.5 101.5 -51.5zM145.998 582.997c-2 0 -3.5 0.666992 -4.5 2s-1.5 3 -1.5 5v99c0 2.66699 0.666992 4.66699 2 6s3.33301 2 6 2h76c2 0 3.66699 -0.666992 5 -2s2 -3.33301 2 -6v-99c0 -2 -0.666992 -3.66699 -2 -5
s-3 -2 -5 -2h-78zM350.998 582.997c-2 0 -3.5 0.666992 -4.5 2s-1.5 3 -1.5 5v99c0 2.66699 0.666992 4.66699 2 6s3.33301 2 6 2h76c2 0 3.66699 -0.666992 5 -2s2 -3.33301 2 -6v-99c0 -2 -0.666992 -3.66699 -2 -5s-3 -2 -5 -2h-78z" />
    <glyph glyph-name="divide" unicode="&#xf7;" horiz-adv-x="529" 
d="M226 78c-1.33301 0 -2.5 0.666992 -3.5 2s-1.5 3 -1.5 5v108c0 2 0.666992 3.5 2 4.5s3 1.5 5 1.5h90c2 0 3.66699 -0.5 5 -1.5s2 -2.5 2 -4.5v-108c0 -2 -0.666992 -3.66699 -2 -5s-3 -2 -5 -2h-92zM226 411c-1.33301 0 -2.5 0.666992 -3.5 2s-1.5 3 -1.5 5v107
c0 2 0.666992 3.66699 2 5s3 2 5 2h90c2 0 3.66699 -0.666992 5 -2s2 -3 2 -5v-107c0 -2 -0.666992 -3.66699 -2 -5s-3 -2 -5 -2h-92zM52 262v86h425v-86h-425z" />
    <glyph glyph-name="oslash" unicode="&#xf8;" horiz-adv-x="586" 
d="M290 -11c-30.667 0 -58.6689 3.66602 -84.002 10.999s-47.333 18.333 -66 33l-59 -67l-48 38l64 73c-15.333 22 -27 47.667 -35 77s-12 61.333 -12 96c0 36.667 5.5 70.834 16.5 102.501s27 59.167 48 82.5s46.833 41.666 77.5 54.999s65.334 20 104.001 20
c30.667 0 58.5 -3.83301 83.5 -11.5s46.833 -18.834 65.5 -33.501l62 70l47 -41l-65 -75c14.667 -21.333 25.834 -46.166 33.501 -74.499s11.5 -58.833 11.5 -91.5c0 -37.333 -5.83301 -72.166 -17.5 -104.499s-28 -60.333 -49 -84s-46.5 -42.167 -76.5 -55.5
s-63.667 -20 -101 -20zM153.998 251.999c0 -23.333 1.33105 -44.332 3.99805 -62.999s6.33398 -35 11.001 -49l222 261c-10.667 11.333 -24 19.666 -40 24.999s-34.667 8 -56 8c-45.333 0 -80.166 -16.833 -104.499 -50.5s-36.5 -77.5 -36.5 -131.5zM290.996 65
c44 0 78 17.002 102 51.002s36 79 36 135c0 21.333 -1 40.666 -3 57.999s-5.33301 32.666 -10 45.999l-220 -259c10.667 -10.667 24 -18.5 40 -23.5s34.333 -7.5 55 -7.5z" />
    <glyph glyph-name="ugrave" unicode="&#xf9;" horiz-adv-x="562" 
d="M227 -8c-52.667 0 -91.333 15.6689 -116 47.002s-37 77 -37 137v321h101v-305c0 -42 6.66699 -72 20 -90s34.333 -27 63 -27c32.667 0 60.667 14.833 84 44.5s36 67.5 38 113.5v264h101v-497h-94v58l3 77h-6c-2 -12.667 -6.66699 -27.334 -14 -44.001
s-17.333 -32.334 -30 -47.001s-28.5 -27 -47.5 -37s-40.833 -15 -65.5 -15zM248.001 583.002l-150 164v13h111l104 -177h-65z" />
    <glyph glyph-name="uacute" unicode="&#xfa;" horiz-adv-x="562" 
d="M227 -8c-52.667 0 -91.333 15.6689 -116 47.002s-37 77 -37 137v321h101v-305c0 -42 6.66699 -72 20 -90s34.333 -27 63 -27c32.667 0 60.667 14.833 84 44.5s36 67.5 38 113.5v264h101v-497h-94v58l3 77h-6c-2 -12.667 -6.66699 -27.334 -14 -44.001
s-17.333 -32.334 -30 -47.001s-28.5 -27 -47.5 -37s-40.833 -15 -65.5 -15zM245.001 583.002l104 177h111v-13l-150 -164h-65z" />
    <glyph glyph-name="ucircumflex" unicode="&#xfb;" horiz-adv-x="562" 
d="M227 -8c-52.667 0 -91.333 15.6689 -116 47.002s-37 77 -37 137v321h101v-305c0 -42 6.66699 -72 20 -90s34.333 -27 63 -27c32.667 0 60.667 14.833 84 44.5s36 67.5 38 113.5v264h101v-497h-94v58l3 77h-6c-2 -12.667 -6.66699 -27.334 -14 -44.001
s-17.333 -32.334 -30 -47.001s-28.5 -27 -47.5 -37s-40.833 -15 -65.5 -15zM110.001 583.002v8l127 169h83l128 -169v-8h-90l-53 86l-24 43h-5l-25 -43l-53 -86h-88z" />
    <glyph glyph-name="udieresis" unicode="&#xfc;" horiz-adv-x="562" 
d="M227 -8c-52.667 0 -91.333 15.6689 -116 47.002s-37 77 -37 137v321h101v-305c0 -42 6.66699 -72 20 -90s34.333 -27 63 -27c32.667 0 60.667 14.833 84 44.5s36 67.5 38 113.5v264h101v-497h-94v58l3 77h-6c-2 -12.667 -6.66699 -27.334 -14 -44.001
s-17.333 -32.334 -30 -47.001s-28.5 -27 -47.5 -37s-40.833 -15 -65.5 -15zM137.001 583.002c-2 0 -3.5 0.666992 -4.5 2s-1.5 3 -1.5 5v99c0 2.66699 0.666992 4.66699 2 6s3.33301 2 6 2h76c2 0 3.66699 -0.666992 5 -2s2 -3.33301 2 -6v-99
c0 -2 -0.666992 -3.66699 -2 -5s-3 -2 -5 -2h-78zM342.001 583.002c-2 0 -3.5 0.666992 -4.5 2s-1.5 3 -1.5 5v99c0 2.66699 0.666992 4.66699 2 6s3.33301 2 6 2h76c2 0 3.66699 -0.666992 5 -2s2 -3.33301 2 -6v-99c0 -2 -0.666992 -3.66699 -2 -5s-3 -2 -5 -2h-78z" />
    <glyph glyph-name="yacute" unicode="&#xfd;" horiz-adv-x="483" 
d="M107 -202c-10.667 0 -21.6689 1.16602 -33.002 3.49902s-19.666 4.83301 -24.999 7.5v74c6.66699 -1.33301 14.834 -2.66602 24.501 -3.99902s18.5 -2 26.5 -2c28 0 49.5 8 64.5 24s28.167 44.333 39.5 85l-193 511h106l100 -303l27 -114h6l26 114l94 303h104l-192 -545
c-16 -45.333 -36.833 -82.333 -62.5 -111s-63.167 -43 -112.5 -43zM208.998 581.999l104 177h111v-13l-150 -164h-65z" />
    <glyph glyph-name="thorn" unicode="&#xfe;" horiz-adv-x="589" 
d="M342 -7c-41.333 0 -76.833 12.332 -106.5 36.999s-50.834 55.334 -63.501 92.001l5 -88v-246h-96v946h97v-271l-4 -74h6c12 33.333 32.833 61.833 62.5 85.5s65.167 35.5 106.5 35.5c63.333 0 111.5 -22 144.5 -66s49.5 -104.667 49.5 -182
c0 -86 -19.167 -152.333 -57.5 -199s-86.166 -70 -143.499 -70zM312 67.999c38.667 0 69.499 17.335 92.499 52.002s34.5 79 34.5 133c0 56.667 -10.333 101 -31 133s-52 48 -94 48c-22 0 -41.667 -5.33301 -59 -16s-32 -24.334 -44 -41.001s-21.167 -35.5 -27.5 -56.5
s-9.5 -41.167 -9.5 -60.5v-27c0 -46.667 11.833 -85.834 35.5 -117.501s57.834 -47.5 102.501 -47.5z" />
    <glyph glyph-name="ydieresis" unicode="&#xff;" horiz-adv-x="483" 
d="M107 -202c-10.667 0 -21.6689 1.16602 -33.002 3.49902s-19.666 4.83301 -24.999 7.5v74c6.66699 -1.33301 14.834 -2.66602 24.501 -3.99902s18.5 -2 26.5 -2c28 0 49.5 8 64.5 24s28.167 44.333 39.5 85l-193 511h106l100 -303l27 -114h6l26 114l94 303h104l-192 -545
c-16 -45.333 -36.833 -82.333 -62.5 -111s-63.167 -43 -112.5 -43zM100.998 581.999c-2 0 -3.5 0.666992 -4.5 2s-1.5 3 -1.5 5v99c0 2.66699 0.666992 4.66699 2 6s3.33301 2 6 2h76c2 0 3.66699 -0.666992 5 -2s2 -3.33301 2 -6v-99c0 -2 -0.666992 -3.66699 -2 -5
s-3 -2 -5 -2h-78zM305.998 581.999c-2 0 -3.5 0.666992 -4.5 2s-1.5 3 -1.5 5v99c0 2.66699 0.666992 4.66699 2 6s3.33301 2 6 2h76c2 0 3.66699 -0.666992 5 -2s2 -3.33301 2 -6v-99c0 -2 -0.666992 -3.66699 -2 -5s-3 -2 -5 -2h-78z" />
    <glyph glyph-name="Amacron" unicode="&#x100;" horiz-adv-x="616" 
d="M10 0l234 659h132l230 -659h-106l-60 179h-265l-60 -179h-105zM274 476l-72 -214h212l-71 214l-31 120h-4zM173 742v72h271v-72h-271z" />
    <glyph glyph-name="amacron" unicode="&#x101;" horiz-adv-x="528" 
d="M380 0c-6 6.66699 -11.1709 18.832 -15.5039 36.499s-6.83301 41.5 -7.5 71.5c-10.667 -34.667 -31.167 -63 -61.5 -85s-65.166 -32.667 -104.499 -32c-48 0 -84.833 12.833 -110.5 38.5s-38.5 58.5 -38.5 98.5c0.666992 46 17 80.333 49 103s74 39 126 49
c48 10 82.833 18.5 104.5 25.5s32.834 15.167 33.501 24.5v8c0 30.667 -8.16699 53.834 -24.5 69.501s-41.833 23.5 -76.5 23.5c-30.667 0 -57.167 -7.5 -79.5 -22.5s-38.5 -32.833 -48.5 -53.5l-77 40c17.333 34 45.333 61.333 84 82s82.334 31 131.001 31
c62.667 0 109.834 -15 141.501 -45s47.5 -74.667 47.5 -134v-165c0 -52 2.66699 -90.333 8 -115s12 -41 20 -49h-101zM219.996 63.998c34 0 63.832 10.834 89.499 32.501s40.834 49.5 45.501 83.5v100c-4.66699 -8 -14.667 -15.5 -30 -22.5s-33.333 -12.833 -54 -17.5
c-42 -10 -73.833 -22.833 -95.5 -38.5s-32.5 -36.834 -32.5 -63.501c0 -24.667 7.66699 -43.167 23 -55.5s33.333 -18.5 54 -18.5zM129.995 601.999v73h272v-73h-272z" />
    <glyph glyph-name="Abreve" unicode="&#x102;" horiz-adv-x="616" 
d="M10 0l234 659h132l230 -659h-106l-60 179h-265l-60 -179h-105zM274 476l-72 -214h212l-71 214l-31 120h-4zM309 732c-56 0 -97.834 15 -125.501 45s-40.834 65 -39.501 105l79 1c-0.666992 -22.667 5.83301 -42.834 19.5 -60.501s35.834 -26.5 66.501 -26.5
s52.667 8.83301 66 26.5s20 37.834 20 60.501l79 -1c0.666992 -40 -12.666 -75 -39.999 -105s-69 -45 -125 -45z" />
    <glyph glyph-name="abreve" unicode="&#x103;" horiz-adv-x="528" 
d="M380 0c-6 6.66699 -11.1709 18.832 -15.5039 36.499s-6.83301 41.5 -7.5 71.5c-10.667 -34.667 -31.167 -63 -61.5 -85s-65.166 -32.667 -104.499 -32c-48 0 -84.833 12.833 -110.5 38.5s-38.5 58.5 -38.5 98.5c0.666992 46 17 80.333 49 103s74 39 126 49
c48 10 82.833 18.5 104.5 25.5s32.834 15.167 33.501 24.5v8c0 30.667 -8.16699 53.834 -24.5 69.501s-41.833 23.5 -76.5 23.5c-30.667 0 -57.167 -7.5 -79.5 -22.5s-38.5 -32.833 -48.5 -53.5l-77 40c17.333 34 45.333 61.333 84 82s82.334 31 131.001 31
c62.667 0 109.834 -15 141.501 -45s47.5 -74.667 47.5 -134v-165c0 -52 2.66699 -90.333 8 -115s12 -41 20 -49h-101zM219.996 63.998c34 0 63.832 10.834 89.499 32.501s40.834 49.5 45.501 83.5v100c-4.66699 -8 -14.667 -15.5 -30 -22.5s-33.333 -12.833 -54 -17.5
c-42 -10 -73.833 -22.833 -95.5 -38.5s-32.5 -36.834 -32.5 -63.501c0 -24.667 7.66699 -43.167 23 -55.5s33.333 -18.5 54 -18.5zM265.995 576.999c-55.333 0 -96.333 15.834 -123 47.501s-39.667 71.5 -39 119.5h79c-0.666992 -28.667 5.5 -52.834 18.5 -72.501
s34.5 -29.5 64.5 -29.5s51.333 9.5 64 28.5s19 43.5 19 73.5h79c0.666992 -48 -12.333 -87.833 -39 -119.5s-67.667 -47.5 -123 -47.5z" />
    <glyph glyph-name="Aogonek" unicode="&#x104;" horiz-adv-x="616" 
d="M546 -238c-38.667 0 -69.5029 10 -92.5029 30s-34.5 45 -34.5 75c0 28.667 9.33301 54.334 28 77.001s43.334 41.334 74.001 56.001h-21l-60 179h-265l-60 -179h-105l234 659h132l230 -659c-31.333 -12.667 -56.833 -28.334 -76.5 -47.001s-29.5 -39.667 -29.5 -63
c0 -18.667 5.66699 -32.5 17 -41.5s26.666 -13.5 45.999 -13.5c12.667 0 22.334 0.5 29.001 1.5s12.334 2.83301 17.001 5.5v-71c-7.33301 -2.66699 -16.166 -4.83398 -26.499 -6.50098s-22.5 -2.5 -36.5 -2.5zM273.997 476l-72 -214h212l-71 214l-31 120h-4z" />
    <glyph glyph-name="aogonek" unicode="&#x105;" horiz-adv-x="526" 
d="M378 0c-5.33301 6.66699 -10.1738 18.833 -14.5068 36.5s-6.83301 41.5 -7.5 71.5c-10.667 -34.667 -31.167 -63 -61.5 -85s-65.166 -32.667 -104.499 -32c-48 0 -84.833 12.833 -110.5 38.5s-38.5 58.5 -38.5 98.5c0.666992 46 17 80.333 49 103s73.667 39 125 49
c48.667 10 83.834 18.5 105.501 25.5s32.834 15.167 33.501 24.5v8c0 30.667 -8.16699 53.834 -24.5 69.501s-41.833 23.5 -76.5 23.5c-30.667 0 -57.167 -7.5 -79.5 -22.5s-38.833 -32.833 -49.5 -53.5l-77 40c17.333 34 45.5 61.333 84.5 82s82.833 31 131.5 31
c62.667 0 109.834 -15 141.501 -45s47.5 -74.667 47.5 -134v-165c0 -52 2.66699 -90.333 8 -115s12 -41 20 -49h-4c-28.667 -12.667 -53 -28.5 -73 -47.5s-30 -40.5 -30 -64.5c0 -18.667 5.33301 -32.167 16 -40.5s25.334 -12.5 44.001 -12.5
c12.667 0 22.334 0.5 29.001 1.5s12.334 2.83301 17.001 5.5v-71c-6.66699 -2.66699 -15.167 -4.83398 -25.5 -6.50098s-22.833 -2.5 -37.5 -2.5c-38.667 0 -69.167 9.5 -91.5 28.5s-33.5 43.5 -33.5 73.5c0 29.333 9.83301 55.5 29.5 78.5s44.167 42.167 73.5 57.5h-16z
M218.992 63.999c34 0 63.832 10.834 89.499 32.501s40.834 49.5 45.501 83.5v100c-4.66699 -8 -14.667 -15.5 -30 -22.5s-33.333 -12.833 -54 -17.5c-42 -10 -73.833 -22.833 -95.5 -38.5s-32.5 -36.834 -32.5 -63.501c0 -24.667 7.5 -43.167 22.5 -55.5
s33.167 -18.5 54.5 -18.5z" />
    <glyph glyph-name="Cacute" unicode="&#x106;" horiz-adv-x="661" 
d="M353 -12c-47.333 0 -89.834 8.33105 -127.501 24.998s-69.5 39.834 -95.5 69.501s-45.833 65.667 -59.5 108s-20.5 88.833 -20.5 139.5c0 51.333 7.16699 98.166 21.5 140.499s34.833 78.333 61.5 108s58.834 52.667 96.501 69s79.5 24.5 125.5 24.5
c70.667 0 128.667 -17.667 174 -53s76.333 -87.333 93 -156l-101 -20c-13.333 51.333 -33.5 88.5 -60.5 111.5s-62.5 34.5 -106.5 34.5c-61.333 0 -110 -23.333 -146 -70s-54 -109 -54 -187v-3c0 -77.333 17.333 -139.666 52 -186.999s84 -71 148 -71
c50 0 88.333 13.5 115 40.5s45 64.167 55 111.5l100 -19c-14 -69.333 -44.5 -122.666 -91.5 -159.999s-106.833 -56 -179.5 -56zM314.999 737.998l106 167h114v-12l-154 -155h-66z" />
    <glyph glyph-name="cacute" unicode="&#x107;" horiz-adv-x="505" 
d="M281 -11c-73.333 0 -131.001 23.832 -173.001 71.499s-63 110.834 -63 189.501c0 37.333 5.33301 71.833 16 103.5s26.167 59 46.5 82s45.333 41.167 75 54.5s63.167 20 100.5 20c49.333 0 89.833 -9.83301 121.5 -29.5s55.834 -51.5 72.501 -95.5l-87 -38
c-6.66699 22.667 -18.167 42.5 -34.5 59.5s-39.833 25.5 -70.5 25.5c-41.333 0 -74.333 -15.167 -99 -45.5s-37 -74.833 -37 -133.5c0 -59.333 11.5 -105.166 34.5 -137.499s56.5 -48.5 100.5 -48.5c28.667 0 52.5 6.66699 71.5 20s32.833 31.666 41.5 54.999l78 -38
c-14.667 -32.667 -38 -60 -70 -82s-73.333 -33 -124 -33zM254.999 582.999l104 177h111v-13l-150 -164h-65z" />
    <glyph glyph-name="Ccircumflex" unicode="&#x108;" horiz-adv-x="661" 
d="M353 -12c-47.333 0 -89.834 8.33105 -127.501 24.998s-69.5 39.834 -95.5 69.501s-45.833 65.667 -59.5 108s-20.5 88.833 -20.5 139.5c0 51.333 7.16699 98.166 21.5 140.499s34.833 78.333 61.5 108s58.834 52.667 96.501 69s79.5 24.5 125.5 24.5
c70.667 0 128.667 -17.667 174 -53s76.333 -87.333 93 -156l-101 -20c-13.333 51.333 -33.5 88.5 -60.5 111.5s-62.5 34.5 -106.5 34.5c-61.333 0 -110 -23.333 -146 -70s-54 -109 -54 -187v-3c0 -77.333 17.333 -139.666 52 -186.999s84 -71 148 -71
c50 0 88.333 13.5 115 40.5s45 64.167 55 111.5l100 -19c-14 -69.333 -44.5 -122.666 -91.5 -159.999s-106.833 -56 -179.5 -56zM180.999 739.998v8l127 155h85l128 -155v-8h-90l-53 74l-24 41h-6l-24 -41l-53 -74h-90z" />
    <glyph glyph-name="ccircumflex" unicode="&#x109;" horiz-adv-x="505" 
d="M281 -11c-73.333 0 -131.001 23.832 -173.001 71.499s-63 110.834 -63 189.501c0 37.333 5.33301 71.833 16 103.5s26.167 59 46.5 82s45.333 41.167 75 54.5s63.167 20 100.5 20c49.333 0 89.833 -9.83301 121.5 -29.5s55.834 -51.5 72.501 -95.5l-87 -38
c-6.66699 22.667 -18.167 42.5 -34.5 59.5s-39.833 25.5 -70.5 25.5c-41.333 0 -74.333 -15.167 -99 -45.5s-37 -74.833 -37 -133.5c0 -59.333 11.5 -105.166 34.5 -137.499s56.5 -48.5 100.5 -48.5c28.667 0 52.5 6.66699 71.5 20s32.833 31.666 41.5 54.999l78 -38
c-14.667 -32.667 -38 -60 -70 -82s-73.333 -33 -124 -33zM119.999 582.999v8l127 169h83l128 -169v-8h-90l-53 86l-24 43h-5l-25 -43l-53 -86h-88z" />
    <glyph glyph-name="Cdotaccent" unicode="&#x10a;" horiz-adv-x="661" 
d="M353 -12c-47.333 0 -89.834 8.33105 -127.501 24.998s-69.5 39.834 -95.5 69.501s-45.833 65.667 -59.5 108s-20.5 88.833 -20.5 139.5c0 51.333 7.16699 98.166 21.5 140.499s34.833 78.333 61.5 108s58.834 52.667 96.501 69s79.5 24.5 125.5 24.5
c70.667 0 128.667 -17.667 174 -53s76.333 -87.333 93 -156l-101 -20c-13.333 51.333 -33.5 88.5 -60.5 111.5s-62.5 34.5 -106.5 34.5c-61.333 0 -110 -23.333 -146 -70s-54 -109 -54 -187v-3c0 -77.333 17.333 -139.666 52 -186.999s84 -71 148 -71
c50 0 88.333 13.5 115 40.5s45 64.167 55 111.5l100 -19c-14 -69.333 -44.5 -122.666 -91.5 -159.999s-106.833 -56 -179.5 -56zM301.999 739.998c-2 0 -3.5 0.666992 -4.5 2s-1.5 3 -1.5 5v99c0 2.66699 0.666992 4.66699 2 6s3.33301 2 6 2h95
c2.66699 0 4.5 -0.666992 5.5 -2s1.5 -3.33301 1.5 -6v-99c0 -2 -0.5 -3.66699 -1.5 -5s-2.83301 -2 -5.5 -2h-97z" />
    <glyph glyph-name="cdotaccent" unicode="&#x10b;" horiz-adv-x="505" 
d="M281 -11c-73.333 0 -131.001 23.832 -173.001 71.499s-63 110.834 -63 189.501c0 37.333 5.33301 71.833 16 103.5s26.167 59 46.5 82s45.333 41.167 75 54.5s63.167 20 100.5 20c49.333 0 89.833 -9.83301 121.5 -29.5s55.834 -51.5 72.501 -95.5l-87 -38
c-6.66699 22.667 -18.167 42.5 -34.5 59.5s-39.833 25.5 -70.5 25.5c-41.333 0 -74.333 -15.167 -99 -45.5s-37 -74.833 -37 -133.5c0 -59.333 11.5 -105.166 34.5 -137.499s56.5 -48.5 100.5 -48.5c28.667 0 52.5 6.66699 71.5 20s32.833 31.666 41.5 54.999l78 -38
c-14.667 -32.667 -38 -60 -70 -82s-73.333 -33 -124 -33zM236.999 582.999c-2 0 -3.5 0.666992 -4.5 2s-1.5 3 -1.5 5v99c0 2.66699 0.666992 4.66699 2 6s3.33301 2 6 2h95c2.66699 0 4.5 -0.666992 5.5 -2s1.5 -3.33301 1.5 -6v-99c0 -2 -0.5 -3.66699 -1.5 -5
s-2.83301 -2 -5.5 -2h-97z" />
    <glyph glyph-name="Ccaron" unicode="&#x10c;" horiz-adv-x="661" 
d="M353 -12c-47.333 0 -89.834 8.33105 -127.501 24.998s-69.5 39.834 -95.5 69.501s-45.833 65.667 -59.5 108s-20.5 88.833 -20.5 139.5c0 51.333 7.16699 98.166 21.5 140.499s34.833 78.333 61.5 108s58.834 52.667 96.501 69s79.5 24.5 125.5 24.5
c70.667 0 128.667 -17.667 174 -53s76.333 -87.333 93 -156l-101 -20c-13.333 51.333 -33.5 88.5 -60.5 111.5s-62.5 34.5 -106.5 34.5c-61.333 0 -110 -23.333 -146 -70s-54 -109 -54 -187v-3c0 -77.333 17.333 -139.666 52 -186.999s84 -71 148 -71
c50 0 88.333 13.5 115 40.5s45 64.167 55 111.5l100 -19c-14 -69.333 -44.5 -122.666 -91.5 -159.999s-106.833 -56 -179.5 -56zM307.999 739.998l-127 160v8h89l54 -78l24 -42h6l24 42l53 78h90v-8l-128 -160h-85z" />
    <glyph glyph-name="ccaron" unicode="&#x10d;" horiz-adv-x="505" 
d="M281 -11c-73.333 0 -131.001 23.832 -173.001 71.499s-63 110.834 -63 189.501c0 37.333 5.33301 71.833 16 103.5s26.167 59 46.5 82s45.333 41.167 75 54.5s63.167 20 100.5 20c49.333 0 89.833 -9.83301 121.5 -29.5s55.834 -51.5 72.501 -95.5l-87 -38
c-6.66699 22.667 -18.167 42.5 -34.5 59.5s-39.833 25.5 -70.5 25.5c-41.333 0 -74.333 -15.167 -99 -45.5s-37 -74.833 -37 -133.5c0 -59.333 11.5 -105.166 34.5 -137.499s56.5 -48.5 100.5 -48.5c28.667 0 52.5 6.66699 71.5 20s32.833 31.666 41.5 54.999l78 -38
c-14.667 -32.667 -38 -60 -70 -82s-73.333 -33 -124 -33zM243.999 582.999l-128 169v8h90l54 -87l24 -42h5l25 42l52 87h89v-8l-128 -169h-83z" />
    <glyph glyph-name="Dcaron" unicode="&#x10e;" horiz-adv-x="675" 
d="M94 0v659h215c101.333 0 179.333 -28.167 234 -84.5s82 -137.833 82 -244.5c0 -104 -28.5 -185 -85.5 -243s-137.833 -87 -242.5 -87h-203zM194 85h110c71.333 0 124.833 21.333 160.5 64s53.5 102.667 53.5 180v4c0 80 -17.667 140.333 -53 181s-88.333 61 -159 61h-112
v-490zM271 740l-127 160v8h89l54 -78l24 -42h6l24 42l53 78h90v-8l-128 -160h-85z" />
    <glyph glyph-name="dcaron" unicode="&#x10f;" horiz-adv-x="621" 
d="M244 -7c-60.667 0 -108.834 23.501 -144.501 70.501s-53.5 110.167 -53.5 189.5c0 84 19 147.833 57 191.5s86.667 65.5 146 65.5c44 0 79.833 -11.833 107.5 -35.5s46.834 -51.834 57.501 -84.501h5l-6 95v249h96v-734h-93l1 121l4 38c-6 -46 -25 -85.167 -57 -117.5
s-72 -48.5 -120 -48.5zM275 69.001c21.333 0 40.667 4.99902 58 14.999s32 23.167 44 39.5s21.333 34.833 28 55.5s10 41.667 10 63v27c0 22 -2.66699 43 -8 63s-13.5 37.667 -24.5 53s-25.167 27.5 -42.5 36.5s-38 13.5 -62 13.5c-40.667 0 -72.167 -16 -94.5 -48
s-33.5 -75 -33.5 -129c0 -57.333 10.833 -103.166 32.5 -137.499s52.5 -51.5 92.5 -51.5zM572.001 532l14 216h86v-25l-42 -191h-58z" />
    <glyph glyph-name="Dcroat" unicode="&#x110;" horiz-adv-x="680" 
d="M28 294l-0.000976562 87h71v278h215c100.667 0 178.334 -28.167 233.001 -84.5s82 -137.833 82 -244.5c0 -104 -28.5 -185 -85.5 -243s-137.833 -87 -242.5 -87h-202v294h-71zM198.999 86l109 0.000976562c72.667 0 126.5 21.167 161.5 63.5s52.5 102.166 52.5 179.499v4
c0 80 -17.5 140.333 -52.5 181s-87.833 61 -158.5 61h-112v-194h160v-87h-160v-208z" />
    <glyph glyph-name="dcroat" unicode="&#x111;" horiz-adv-x="591" 
d="M315 601v64.001h97v69h96v-69h79v-64h-79v-601h-93l1 121l4 38c-6 -46 -25 -85.167 -57 -117.5s-72 -48.5 -120 -48.5c-60.667 0 -108.834 23.5 -144.501 70.5s-53.5 110.167 -53.5 189.5c0 84 19 147.833 57 191.5s86.667 65.5 146 65.5
c44 0 79.833 -11.833 107.5 -35.5s46.834 -51.834 57.501 -84.501h5l-6 95v116h-97zM274 69.001c21.333 0 40.667 4.99902 58 14.999s32 23.167 44 39.5s21.333 34.833 28 55.5s10 41.667 10 63v27c0 22 -2.66699 43 -8 63s-13.5 37.667 -24.5 53s-25.167 27.5 -42.5 36.5
s-38 13.5 -62 13.5c-40.667 0 -72.167 -16 -94.5 -48s-33.5 -75 -33.5 -129c0 -57.333 10.833 -103.166 32.5 -137.499s52.5 -51.5 92.5 -51.5z" />
    <glyph glyph-name="Emacron" unicode="&#x112;" horiz-adv-x="580" 
d="M94 0v659h433v-88h-333v-188h236v-86h-236v-210h346v-87h-446zM191 742v72h271v-72h-271z" />
    <glyph glyph-name="emacron" unicode="&#x113;" horiz-adv-x="537" 
d="M282 -11c-75.333 0 -133.5 23.166 -174.5 69.499s-61.167 109.833 -60.5 190.5c0 80.667 21 144.334 63 191.001s98.667 70 170 70c38 0 70.667 -6.16699 98 -18.5s49.5 -29.5 66.5 -51.5s29.5 -48 37.5 -78s12 -62.333 12 -97c0 -4 -0.166992 -10.5 -0.5 -19.5
s-0.5 -14.833 -0.5 -17.5h-347c3.33301 -56 17.833 -97 43.5 -123s58.5 -39 98.5 -39c28.667 0 53.667 6.33301 75 19s37.333 28.334 48 47.001l67 -47c-18.667 -26.667 -44 -49.334 -76 -68.001s-72 -28 -120 -28zM277 434.999c-34 0 -63 -11 -87 -33
s-37.667 -58.333 -41 -109h243v4c0 42 -8.66699 75.5 -26 100.5s-47 37.5 -89 37.5zM144 601.999v73h272v-73h-272z" />
    <glyph glyph-name="Ebreve" unicode="&#x114;" horiz-adv-x="580" 
d="M94 0v659h433v-88h-333v-188h236v-86h-236v-210h346v-87h-446zM327 732c-56 0 -97.834 15 -125.501 45s-40.834 65 -39.501 105l79 1c-0.666992 -22.667 5.83301 -42.834 19.5 -60.501s35.834 -26.5 66.501 -26.5s52.667 8.83301 66 26.5s20 37.834 20 60.501l79 -1
c0.666992 -40 -12.666 -75 -39.999 -105s-69 -45 -125 -45z" />
    <glyph glyph-name="ebreve" unicode="&#x115;" horiz-adv-x="537" 
d="M282 -11c-75.333 0 -133.5 23.166 -174.5 69.499s-61.167 109.833 -60.5 190.5c0 80.667 21 144.334 63 191.001s98.667 70 170 70c38 0 70.667 -6.16699 98 -18.5s49.5 -29.5 66.5 -51.5s29.5 -48 37.5 -78s12 -62.333 12 -97c0 -4 -0.166992 -10.5 -0.5 -19.5
s-0.5 -14.833 -0.5 -17.5h-347c3.33301 -56 17.833 -97 43.5 -123s58.5 -39 98.5 -39c28.667 0 53.667 6.33301 75 19s37.333 28.334 48 47.001l67 -47c-18.667 -26.667 -44 -49.334 -76 -68.001s-72 -28 -120 -28zM277 434.999c-34 0 -63 -11 -87 -33
s-37.667 -58.333 -41 -109h243v4c0 42 -8.66699 75.5 -26 100.5s-47 37.5 -89 37.5zM280 576.999c-55.333 0 -96.333 15.834 -123 47.501s-39.667 71.5 -39 119.5h79c-0.666992 -28.667 5.5 -52.834 18.5 -72.501s34.5 -29.5 64.5 -29.5s51.333 9.5 64 28.5s19 43.5 19 73.5
h79c0.666992 -48 -12.333 -87.833 -39 -119.5s-67.667 -47.5 -123 -47.5z" />
    <glyph glyph-name="Edotaccent" unicode="&#x116;" horiz-adv-x="580" 
d="M94 0v659h433v-88h-333v-188h236v-86h-236v-210h346v-87h-446zM278 740c-2 0 -3.5 0.666992 -4.5 2s-1.5 3 -1.5 5v99c0 2.66699 0.666992 4.66699 2 6s3.33301 2 6 2h95c2.66699 0 4.5 -0.666992 5.5 -2s1.5 -3.33301 1.5 -6v-99c0 -2 -0.5 -3.66699 -1.5 -5
s-2.83301 -2 -5.5 -2h-97z" />
    <glyph glyph-name="edotaccent" unicode="&#x117;" horiz-adv-x="537" 
d="M282 -11c-75.333 0 -133.5 23.166 -174.5 69.499s-61.167 109.833 -60.5 190.5c0 80.667 21 144.334 63 191.001s98.667 70 170 70c38 0 70.667 -6.16699 98 -18.5s49.5 -29.5 66.5 -51.5s29.5 -48 37.5 -78s12 -62.333 12 -97c0 -4 -0.166992 -10.5 -0.5 -19.5
s-0.5 -14.833 -0.5 -17.5h-347c3.33301 -56 17.833 -97 43.5 -123s58.5 -39 98.5 -39c28.667 0 53.667 6.33301 75 19s37.333 28.334 48 47.001l67 -47c-18.667 -26.667 -44 -49.334 -76 -68.001s-72 -28 -120 -28zM277 434.999c-34 0 -63 -11 -87 -33
s-37.667 -58.333 -41 -109h243v4c0 42 -8.66699 75.5 -26 100.5s-47 37.5 -89 37.5zM230 582.999c-2 0 -3.5 0.666992 -4.5 2s-1.5 3 -1.5 5v99c0 2.66699 0.666992 4.66699 2 6s3.33301 2 6 2h95c2.66699 0 4.5 -0.666992 5.5 -2s1.5 -3.33301 1.5 -6v-99
c0 -2 -0.5 -3.66699 -1.5 -5s-2.83301 -2 -5.5 -2h-97z" />
    <glyph glyph-name="Eogonek" unicode="&#x118;" horiz-adv-x="580" 
d="M94 0l-0.000976562 659h433v-88h-333v-188h236v-85h-236v-211h346v-87c-31.333 -12.667 -56.833 -28.334 -76.5 -47.001s-29.5 -39.667 -29.5 -63c0 -18.667 5.66699 -32.5 17 -41.5s26.666 -13.5 45.999 -13.5c12.667 0 22.334 0.5 29.001 1.5
s12.334 2.83301 17.001 5.5v-71c-7.33301 -2.66699 -16.166 -4.83398 -26.499 -6.50098s-22.833 -2.5 -37.5 -2.5c-38.667 0 -69.334 10 -92.001 30s-34 45 -34 75c0 28.667 9.5 54.334 28.5 77.001s43.833 41.334 74.5 56.001h-362z" />
    <glyph glyph-name="eogonek" unicode="&#x119;" horiz-adv-x="537" 
d="M358 -238c-38.667 0 -69.1699 9.49805 -91.5029 28.498s-33.5 43.5 -33.5 73.5c0 23.333 6.83301 45.833 20.5 67.5s30.834 41.167 51.501 58.5c-2.66699 -0.666992 -5.83398 -1 -9.50098 -1h-10.5c-75.333 0 -134 23.167 -176 69.5s-62.667 109.833 -62 190.5
c0 80.667 20.667 144.334 62 191.001s98 70 170 70c38 0 70.667 -6.16699 98 -18.5s49.666 -29.166 66.999 -50.499s30 -47 38 -77s12 -62.667 12 -98c0 -4 -0.166992 -10.667 -0.5 -20s-0.5 -15.333 -0.5 -18h-345c2.66699 -56 17 -97 43 -123s60.333 -39 103 -39
c30 0 54.333 7.33301 73 22s32.334 30 41.001 46l70 -50c-9.33301 -13.333 -20.166 -25.666 -32.499 -36.999s-26.166 -21.333 -41.499 -30c-24.667 -16 -45.834 -36 -63.501 -60s-26.5 -47 -26.5 -69c0 -18.667 5.33301 -32.167 16 -40.5s25.667 -12.5 45 -12.5
c12.667 0 22.334 0.5 29.001 1.5s12.334 2.83301 17.001 5.5v-71c-7.33301 -2.66699 -16 -4.83398 -26 -6.50098s-22.333 -2.5 -37 -2.5zM275.997 435.998c-34 0 -62.668 -11.5 -86.001 -34.5s-36.666 -59.167 -39.999 -108.5h242c-0.666992 44 -9.16699 78.833 -25.5 104.5
s-46.5 38.5 -90.5 38.5z" />
    <glyph glyph-name="Ecaron" unicode="&#x11a;" horiz-adv-x="580" 
d="M94 0v659h433v-88h-333v-188h236v-86h-236v-210h346v-87h-446zM284 740l-127 160v8h89l54 -78l24 -42h6l24 42l53 78h90v-8l-128 -160h-85z" />
    <glyph glyph-name="ecaron" unicode="&#x11b;" horiz-adv-x="537" 
d="M282 -11c-75.333 0 -133.5 23.166 -174.5 69.499s-61.167 109.833 -60.5 190.5c0 80.667 21 144.334 63 191.001s98.667 70 170 70c38 0 70.667 -6.16699 98 -18.5s49.5 -29.5 66.5 -51.5s29.5 -48 37.5 -78s12 -62.333 12 -97c0 -4 -0.166992 -10.5 -0.5 -19.5
s-0.5 -14.833 -0.5 -17.5h-347c3.33301 -56 17.833 -97 43.5 -123s58.5 -39 98.5 -39c28.667 0 53.667 6.33301 75 19s37.333 28.334 48 47.001l67 -47c-18.667 -26.667 -44 -49.334 -76 -68.001s-72 -28 -120 -28zM277 434.999c-34 0 -63 -11 -87 -33
s-37.667 -58.333 -41 -109h243v4c0 42 -8.66699 75.5 -26 100.5s-47 37.5 -89 37.5zM238 582.999l-128 169v8h90l54 -87l24 -42h5l25 42l52 87h89v-8l-128 -169h-83z" />
    <glyph glyph-name="Gcircumflex" unicode="&#x11c;" horiz-adv-x="709" 
d="M341 -12c-43.333 0 -83.002 8.16504 -119.002 24.498s-66.667 39.333 -92 69s-45 65.5 -59 107.5s-21 88.333 -21 139c0 52 7.5 99.333 22.5 142s36.333 78.834 64 108.501s61.167 52.667 100.5 69s83.333 24.5 132 24.5c69.333 0 126.5 -14.833 171.5 -44.5
s77.5 -71.167 97.5 -124.5l-104 -33c-12 38.667 -31.667 68.167 -59 88.5s-62.666 30.5 -105.999 30.5c-64.667 0 -116.667 -22.5 -156 -67.5s-59 -107.833 -59 -188.5v-4c0 -80 18.333 -143.167 55 -189.5s86.334 -69.5 149.001 -69.5c24.667 0 48.167 3.83301 70.5 11.5
s42 19.334 59 35.001s30.833 35.5 41.5 59.5s16.667 52.333 18 85h-167v89h267v-350h-78l-8 181c-10.667 -63.333 -35.5 -111.333 -74.5 -144s-87.5 -49 -145.5 -49zM200.998 739.998v8l127 155h85l128 -155v-8h-90l-53 74l-24 41h-6l-24 -41l-53 -74h-90z" />
    <glyph glyph-name="gcircumflex" unicode="&#x11d;" horiz-adv-x="561" 
d="M262 145c-10 0 -19.834 0.331055 -29.501 0.998047s-18.834 2 -27.501 4c-18.667 -2.66699 -33 -8 -43 -16s-15 -16.333 -15 -25c0 -12.667 5.16699 -23.167 15.5 -31.5s30.166 -14.166 59.499 -17.499l27 -2.5l33.5 -3l34.5 -3c11.333 -1 21.333 -1.83301 30 -2.5
c56.667 -6.66699 99.334 -19.5 128.001 -38.5s43 -48.833 43 -89.5c0 -46.667 -22.667 -85.5 -68 -116.5s-108.666 -46.5 -189.999 -46.5h-8c-75.333 0 -130.666 11.333 -165.999 34s-53 52.667 -53 90c0 25.333 10.667 47.666 32 66.999s51.333 32.666 90 39.999
c-26 4.66699 -47.333 14.834 -64 30.501s-25 34.834 -25 57.501c0 22 7.83301 40.333 23.5 55s39.167 25.667 70.5 33c-32 14.667 -56.833 36.334 -74.5 65.001s-26.5 60.334 -26.5 95.001c0 52 18.167 95.667 54.5 131s87.166 53 152.499 53
c40 0 74.667 -6.83301 104 -20.5s52.333 -32.167 69 -55.5c6 24.667 17 42.5 33 53.5s35 16.5 57 16.5c4 0 8 -0.333008 12 -1s6.66699 -1.33398 8 -2.00098v-94l-9 3c-4 1.33301 -9.33301 2 -16 2c-10.667 0 -21.667 -1.33301 -33 -4s-21.333 -8.33398 -30 -17.001
c3.33301 -9.33301 6 -19.166 8 -29.499s3 -20.833 3 -31.5c0 -54 -18.167 -98.167 -54.5 -132.5s-88.166 -51.5 -155.499 -51.5zM267.999 213.998c38.667 0 66.833 10.8311 84.5 32.498s26.5 48.834 26.5 81.501s-9 59.834 -27 81.501s-46.667 32.5 -86 32.5
c-38 0 -65.833 -11.333 -83.5 -34s-26.5 -49.667 -26.5 -81c0 -32.667 9 -59.667 27 -81s46.333 -32 85 -32zM314.998 -33.0039c-15.333 2 -34.668 3.83398 -58.001 5.50098s-44.333 2.83398 -63 3.50098c-24 -4.66699 -42.167 -13.334 -54.5 -26.001
s-18.166 -27.334 -17.499 -44.001c0 -22.667 12 -41 36 -55s59.667 -21 107 -21h11c56.667 0 96.167 8.33301 118.5 25s33.5 36 33.5 58c0 19.333 -10.167 32.333 -30.5 39s-47.833 11.667 -82.5 15zM101.996 582.997v8l127 169h83l128 -169v-8h-90l-53 86l-24 43h-5
l-25 -43l-53 -86h-88z" />
    <glyph glyph-name="Gbreve" unicode="&#x11e;" horiz-adv-x="709" 
d="M341 -12c-43.333 0 -83.002 8.16504 -119.002 24.498s-66.667 39.333 -92 69s-45 65.5 -59 107.5s-21 88.333 -21 139c0 52 7.5 99.333 22.5 142s36.333 78.834 64 108.501s61.167 52.667 100.5 69s83.333 24.5 132 24.5c69.333 0 126.5 -14.833 171.5 -44.5
s77.5 -71.167 97.5 -124.5l-104 -33c-12 38.667 -31.667 68.167 -59 88.5s-62.666 30.5 -105.999 30.5c-64.667 0 -116.667 -22.5 -156 -67.5s-59 -107.833 -59 -188.5v-4c0 -80 18.333 -143.167 55 -189.5s86.334 -69.5 149.001 -69.5c24.667 0 48.167 3.83301 70.5 11.5
s42 19.334 59 35.001s30.833 35.5 41.5 59.5s16.667 52.333 18 85h-167v89h267v-350h-78l-8 181c-10.667 -63.333 -35.5 -111.333 -74.5 -144s-87.5 -49 -145.5 -49zM370.998 731.998c-56 0 -97.834 15 -125.501 45s-40.834 65 -39.501 105l79 1
c-0.666992 -22.667 5.83301 -42.834 19.5 -60.501s35.834 -26.5 66.501 -26.5s52.667 8.83301 66 26.5s20 37.834 20 60.501l79 -1c0.666992 -40 -12.666 -75 -39.999 -105s-69 -45 -125 -45z" />
    <glyph glyph-name="gbreve" unicode="&#x11f;" horiz-adv-x="561" 
d="M262 145c-10 0 -19.834 0.331055 -29.501 0.998047s-18.834 2 -27.501 4c-18.667 -2.66699 -33 -8 -43 -16s-15 -16.333 -15 -25c0 -12.667 5.16699 -23.167 15.5 -31.5s30.166 -14.166 59.499 -17.499l27 -2.5l33.5 -3l34.5 -3c11.333 -1 21.333 -1.83301 30 -2.5
c56.667 -6.66699 99.334 -19.5 128.001 -38.5s43 -48.833 43 -89.5c0 -46.667 -22.667 -85.5 -68 -116.5s-108.666 -46.5 -189.999 -46.5h-8c-75.333 0 -130.666 11.333 -165.999 34s-53 52.667 -53 90c0 25.333 10.667 47.666 32 66.999s51.333 32.666 90 39.999
c-26 4.66699 -47.333 14.834 -64 30.501s-25 34.834 -25 57.501c0 22 7.83301 40.333 23.5 55s39.167 25.667 70.5 33c-32 14.667 -56.833 36.334 -74.5 65.001s-26.5 60.334 -26.5 95.001c0 52 18.167 95.667 54.5 131s87.166 53 152.499 53
c40 0 74.667 -6.83301 104 -20.5s52.333 -32.167 69 -55.5c6 24.667 17 42.5 33 53.5s35 16.5 57 16.5c4 0 8 -0.333008 12 -1s6.66699 -1.33398 8 -2.00098v-94l-9 3c-4 1.33301 -9.33301 2 -16 2c-10.667 0 -21.667 -1.33301 -33 -4s-21.333 -8.33398 -30 -17.001
c3.33301 -9.33301 6 -19.166 8 -29.499s3 -20.833 3 -31.5c0 -54 -18.167 -98.167 -54.5 -132.5s-88.166 -51.5 -155.499 -51.5zM267.999 213.998c38.667 0 66.833 10.8311 84.5 32.498s26.5 48.834 26.5 81.501s-9 59.834 -27 81.501s-46.667 32.5 -86 32.5
c-38 0 -65.833 -11.333 -83.5 -34s-26.5 -49.667 -26.5 -81c0 -32.667 9 -59.667 27 -81s46.333 -32 85 -32zM314.998 -33.0039c-15.333 2 -34.668 3.83398 -58.001 5.50098s-44.333 2.83398 -63 3.50098c-24 -4.66699 -42.167 -13.334 -54.5 -26.001
s-18.166 -27.334 -17.499 -44.001c0 -22.667 12 -41 36 -55s59.667 -21 107 -21h11c56.667 0 96.167 8.33301 118.5 25s33.5 36 33.5 58c0 19.333 -10.167 32.333 -30.5 39s-47.833 11.667 -82.5 15zM270.996 576.997c-55.333 0 -96.333 15.834 -123 47.501
s-39.667 71.5 -39 119.5h79c-0.666992 -28.667 5.5 -52.834 18.5 -72.501s34.5 -29.5 64.5 -29.5s51.333 9.5 64 28.5s19 43.5 19 73.5h79c0.666992 -48 -12.333 -87.833 -39 -119.5s-67.667 -47.5 -123 -47.5z" />
    <glyph glyph-name="Gdotaccent" unicode="&#x120;" horiz-adv-x="709" 
d="M341 -12c-43.333 0 -83.002 8.16504 -119.002 24.498s-66.667 39.333 -92 69s-45 65.5 -59 107.5s-21 88.333 -21 139c0 52 7.5 99.333 22.5 142s36.333 78.834 64 108.501s61.167 52.667 100.5 69s83.333 24.5 132 24.5c69.333 0 126.5 -14.833 171.5 -44.5
s77.5 -71.167 97.5 -124.5l-104 -33c-12 38.667 -31.667 68.167 -59 88.5s-62.666 30.5 -105.999 30.5c-64.667 0 -116.667 -22.5 -156 -67.5s-59 -107.833 -59 -188.5v-4c0 -80 18.333 -143.167 55 -189.5s86.334 -69.5 149.001 -69.5c24.667 0 48.167 3.83301 70.5 11.5
s42 19.334 59 35.001s30.833 35.5 41.5 59.5s16.667 52.333 18 85h-167v89h267v-350h-78l-8 181c-10.667 -63.333 -35.5 -111.333 -74.5 -144s-87.5 -49 -145.5 -49zM321.998 739.998c-2 0 -3.5 0.666992 -4.5 2s-1.5 3 -1.5 5v99c0 2.66699 0.666992 4.66699 2 6
s3.33301 2 6 2h95c2.66699 0 4.5 -0.666992 5.5 -2s1.5 -3.33301 1.5 -6v-99c0 -2 -0.5 -3.66699 -1.5 -5s-2.83301 -2 -5.5 -2h-97z" />
    <glyph glyph-name="gdotaccent" unicode="&#x121;" horiz-adv-x="561" 
d="M262 145c-10 0 -19.834 0.331055 -29.501 0.998047s-18.834 2 -27.501 4c-18.667 -2.66699 -33 -8 -43 -16s-15 -16.333 -15 -25c0 -12.667 5.16699 -23.167 15.5 -31.5s30.166 -14.166 59.499 -17.499l27 -2.5l33.5 -3l34.5 -3c11.333 -1 21.333 -1.83301 30 -2.5
c56.667 -6.66699 99.334 -19.5 128.001 -38.5s43 -48.833 43 -89.5c0 -46.667 -22.667 -85.5 -68 -116.5s-108.666 -46.5 -189.999 -46.5h-8c-75.333 0 -130.666 11.333 -165.999 34s-53 52.667 -53 90c0 25.333 10.667 47.666 32 66.999s51.333 32.666 90 39.999
c-26 4.66699 -47.333 14.834 -64 30.501s-25 34.834 -25 57.501c0 22 7.83301 40.333 23.5 55s39.167 25.667 70.5 33c-32 14.667 -56.833 36.334 -74.5 65.001s-26.5 60.334 -26.5 95.001c0 52 18.167 95.667 54.5 131s87.166 53 152.499 53
c40 0 74.667 -6.83301 104 -20.5s52.333 -32.167 69 -55.5c6 24.667 17 42.5 33 53.5s35 16.5 57 16.5c4 0 8 -0.333008 12 -1s6.66699 -1.33398 8 -2.00098v-94l-9 3c-4 1.33301 -9.33301 2 -16 2c-10.667 0 -21.667 -1.33301 -33 -4s-21.333 -8.33398 -30 -17.001
c3.33301 -9.33301 6 -19.166 8 -29.499s3 -20.833 3 -31.5c0 -54 -18.167 -98.167 -54.5 -132.5s-88.166 -51.5 -155.499 -51.5zM267.999 213.998c38.667 0 66.833 10.8311 84.5 32.498s26.5 48.834 26.5 81.501s-9 59.834 -27 81.501s-46.667 32.5 -86 32.5
c-38 0 -65.833 -11.333 -83.5 -34s-26.5 -49.667 -26.5 -81c0 -32.667 9 -59.667 27 -81s46.333 -32 85 -32zM314.998 -33.0039c-15.333 2 -34.668 3.83398 -58.001 5.50098s-44.333 2.83398 -63 3.50098c-24 -4.66699 -42.167 -13.334 -54.5 -26.001
s-18.166 -27.334 -17.499 -44.001c0 -22.667 12 -41 36 -55s59.667 -21 107 -21h11c56.667 0 96.167 8.33301 118.5 25s33.5 36 33.5 58c0 19.333 -10.167 32.333 -30.5 39s-47.833 11.667 -82.5 15zM223.996 582.997c-2 0 -3.5 0.666992 -4.5 2s-1.5 3 -1.5 5v99
c0 2.66699 0.666992 4.66699 2 6s3.33301 2 6 2h95c2.66699 0 4.5 -0.666992 5.5 -2s1.5 -3.33301 1.5 -6v-99c0 -2 -0.5 -3.66699 -1.5 -5s-2.83301 -2 -5.5 -2h-97z" />
    <glyph glyph-name="Gcommaaccent" unicode="&#x122;" horiz-adv-x="709" 
d="M341 -12c-43.333 0 -83.002 8.16504 -119.002 24.498s-66.667 39.333 -92 69s-45 65.5 -59 107.5s-21 88.333 -21 139c0 52 7.5 99.333 22.5 142s36.333 78.834 64 108.501s61.167 52.667 100.5 69s83.333 24.5 132 24.5c69.333 0 126.5 -14.833 171.5 -44.5
s77.5 -71.167 97.5 -124.5l-104 -33c-12 38.667 -31.667 68.167 -59 88.5s-62.666 30.5 -105.999 30.5c-64.667 0 -116.667 -22.5 -156 -67.5s-59 -107.833 -59 -188.5v-4c0 -80 18.333 -143.167 55 -189.5s86.334 -69.5 149.001 -69.5c24.667 0 48.167 3.83301 70.5 11.5
s42 19.334 59 35.001s30.833 35.5 41.5 59.5s16.667 52.333 18 85h-167v89h267v-350h-78l-8 181c-10.667 -63.333 -35.5 -111.333 -74.5 -144s-87.5 -49 -145.5 -49zM407.998 -144.002c0 -25.333 -3.16797 -46.3291 -9.50098 -62.9961s-14.333 -29.834 -24 -39.501
s-20.667 -16.834 -33 -21.501s-24.166 -8 -35.499 -10l-13 20c16 5.33301 28.333 14.166 37 26.499s13.667 29.166 15 50.499h-40c-2 0 -3.5 0.5 -4.5 1.5s-1.5 2.83301 -1.5 5.5v86c0 2.66699 1 4.66699 3 6s4 2 6 2h93c2 0 3.66699 -0.666992 5 -2s2 -3.33301 2 -6v-56z
" />
    <glyph glyph-name="gcommaaccent" unicode="&#x123;" horiz-adv-x="561" 
d="M262 145c-10 0 -19.834 0.331055 -29.501 0.998047s-18.834 2 -27.501 4c-18.667 -2.66699 -33 -8 -43 -16s-15 -16.333 -15 -25c0 -12.667 5.16699 -23.167 15.5 -31.5s30.166 -14.166 59.499 -17.499l27 -2.5l33.5 -3l34.5 -3c11.333 -1 21.333 -1.83301 30 -2.5
c56.667 -6.66699 99.334 -19.5 128.001 -38.5s43 -48.833 43 -89.5c0 -46.667 -22.667 -85.5 -68 -116.5s-108.666 -46.5 -189.999 -46.5h-8c-75.333 0 -130.666 11.333 -165.999 34s-53 52.667 -53 90c0 25.333 10.667 47.666 32 66.999s51.333 32.666 90 39.999
c-26 4.66699 -47.333 14.834 -64 30.501s-25 34.834 -25 57.501c0 22 7.83301 40.333 23.5 55s39.167 25.667 70.5 33c-32 14.667 -56.833 36.334 -74.5 65.001s-26.5 60.334 -26.5 95.001c0 52 18.167 95.667 54.5 131s87.166 53 152.499 53
c40 0 74.667 -6.83301 104 -20.5s52.333 -32.167 69 -55.5c6 24.667 17 42.5 33 53.5s35 16.5 57 16.5c4 0 8 -0.333008 12 -1s6.66699 -1.33398 8 -2.00098v-94l-9 3c-4 1.33301 -9.33301 2 -16 2c-10.667 0 -21.667 -1.33301 -33 -4s-21.333 -8.33398 -30 -17.001
c3.33301 -9.33301 6 -19.166 8 -29.499s3 -20.833 3 -31.5c0 -54 -18.167 -98.167 -54.5 -132.5s-88.166 -51.5 -155.499 -51.5zM267.999 213.998c38.667 0 66.833 10.8311 84.5 32.498s26.5 48.834 26.5 81.501s-9 59.834 -27 81.501s-46.667 32.5 -86 32.5
c-38 0 -65.833 -11.333 -83.5 -34s-26.5 -49.667 -26.5 -81c0 -32.667 9 -59.667 27 -81s46.333 -32 85 -32zM314.998 -33.0039c-15.333 2 -34.668 3.83398 -58.001 5.50098s-44.333 2.83398 -63 3.50098c-24 -4.66699 -42.167 -13.334 -54.5 -26.001
s-18.166 -27.334 -17.499 -44.001c0 -22.667 12 -41 36 -55s59.667 -21 107 -21h11c56.667 0 96.167 8.33301 118.5 25s33.5 36 33.5 58c0 19.333 -10.167 32.333 -30.5 39s-47.833 11.667 -82.5 15zM325.996 590.997c0 -2.66699 -1 -4.49902 -3 -5.49902
s-4.33301 -1.5 -7 -1.5h-93c-2.66699 0 -4.5 0.5 -5.5 1.5s-1.5 2.83301 -1.5 5.5v56c0 25.333 3.33301 46.666 10 63.999s15 31 25 41s21.167 17.5 33.5 22.5s24.5 8.5 36.5 10.5l13 -20c-16.667 -6 -29.667 -15.167 -39 -27.5s-14.333 -29.5 -15 -51.5h40
c2 0 3.5 -0.666992 4.5 -2s1.5 -3.33301 1.5 -6v-87z" />
    <glyph glyph-name="Hcircumflex" unicode="&#x124;" horiz-adv-x="701" 
d="M95 0v659h102v-278h307v278h102v-659h-102v293h-307v-293h-102zM180 740v8l127 155h85l128 -155v-8h-90l-53 74l-24 41h-6l-24 -41l-53 -74h-90z" />
    <glyph glyph-name="hcircumflex" unicode="&#x125;" horiz-adv-x="582" 
d="M178 734v-298c0 -2.66699 -0.333008 -8 -1 -16s-1.16699 -16.167 -1.5 -24.5s-0.833008 -15.833 -1.5 -22.5l-1 -10h6c11.333 40.667 32.333 75 63 103s68.667 42 114 42c48 0 85 -15 111 -45s39 -75 39 -135v-328h-101v303c0 43.333 -8.16699 74 -24.5 92
s-38.833 27 -67.5 27c-35.333 0 -66.5 -16 -93.5 -48s-40.833 -75.333 -41.5 -130v-244h-96v734h96zM-41 740v8l127 155h85l128 -155v-8h-90l-53 74l-24 41h-6l-24 -41l-53 -74h-90z" />
    <glyph glyph-name="Hbar" unicode="&#x126;" horiz-adv-x="736" 
d="M33 481v79h71v101h102v-101h313v101h101v-101h73v-79h-73v-481h-101v262h-313v-262h-102v481h-71zM206 481v-132h313v132h-313z" />
    <glyph glyph-name="hbar" unicode="&#x127;" horiz-adv-x="579" 
d="M9 601l0.000976562 64h72v69h97v-69h103v-64h-103v-158l-4 -98c10.667 48.667 31.667 88.5 63 119.5s70.666 46.167 117.999 45.5c48.667 0 85.5 -15.167 110.5 -45.5s37.5 -75.833 37.5 -136.5v-328h-102v307c0 42 -7.16699 72.167 -21.5 90.5s-35.833 27.5 -64.5 27.5
c-36 0 -65.5 -14.833 -88.5 -44.5s-39.5 -70.167 -49.5 -121.5v-259h-96v601h-72z" />
    <glyph glyph-name="Itilde" unicode="&#x128;" horiz-adv-x="294" 
d="M96 0v659h102v-659h-102zM213 732c-23.333 0 -41.668 5.33008 -55.001 15.9971s-24.5 22.5 -33.5 35.5s-16.833 24.833 -23.5 35.5s-14.667 16 -24 16h-7c-10.667 0 -18.5 -7 -23.5 -21s-8.5 -29.333 -10.5 -46c0 -0.666992 -0.333008 -4.66699 -1 -12s-1 -11.333 -1 -12
h-66c0 0.666992 0.166992 3.16699 0.5 7.5s0.833008 8.83301 1.5 13.5l2 13.5c0.666992 4.33301 1 6.83301 1 7.5c4.66699 40 17.167 68.333 37.5 85s43.833 25 70.5 25c23.333 0 41.666 -5.5 54.999 -16.5s24.5 -22.833 33.5 -35.5s16.833 -24.5 23.5 -35.5
s14.667 -16.5 24 -16.5h6c11.333 0 19.333 6.83301 24 20.5s8 28.834 10 45.501c0.666992 0.666992 1.33398 4.83398 2.00098 12.501s1 11.834 1 12.501h66c0 -0.666992 -0.166992 -3.16699 -0.5 -7.5s-0.833008 -8.83301 -1.5 -13.5s-1.16699 -9.16699 -1.5 -13.5
s-0.5 -6.83301 -0.5 -7.5c-5.33301 -40 -18.166 -68.167 -38.499 -84.5s-43.833 -24.5 -70.5 -24.5z" />
    <glyph glyph-name="itilde" unicode="&#x129;" horiz-adv-x="262" 
d="M82 0v497h98v-497h-98zM193 638h7c10.667 0 17.834 7 21.501 21s6.16699 29.333 7.5 46l2 25h67c0 -0.666992 -0.333008 -3.16699 -1 -7.5s-1.16699 -9 -1.5 -14s-0.833008 -9.66699 -1.5 -14s-1 -6.83301 -1 -7.5c-5.33301 -41.333 -17.5 -70 -36.5 -86
s-40.833 -24 -65.5 -24s-43 5.5 -55 16.5s-21.167 23.167 -27.5 36.5s-11.833 25.5 -16.5 36.5s-12 16.5 -22 16.5h-7c-10.667 0 -17.834 -7.16699 -21.501 -21.5s-6.5 -29.833 -8.5 -46.5l-2 -23h-66l1 6.5c0.666992 4.33301 1.16699 9 1.5 14s0.833008 9.66699 1.5 14
s1 6.83301 1 7.5c4.66699 40 16.5 68.333 35.5 85s41.833 25 68.5 25c23.333 0 41 -5.5 53 -16.5s21.167 -23.167 27.5 -36.5l17 -36.5c5 -11 12.167 -16.5 21.5 -16.5z" />
    <glyph glyph-name="Imacron" unicode="&#x12a;" horiz-adv-x="293" 
d="M96 0v659h102v-659h-102zM12 742v72h267v-72h-267z" />
    <glyph glyph-name="imacron" unicode="&#x12b;" horiz-adv-x="262" 
d="M82 0v497h98v-497h-98zM-3 602v73h269v-73h-269z" />
    <glyph glyph-name="Ibreve" unicode="&#x12c;" horiz-adv-x="294" 
d="M98 0v659h102v-659h-102zM148 732c-56 0 -97.834 15 -125.501 45s-40.834 65 -39.501 105l79 1c-0.666992 -22.667 5.83301 -42.834 19.5 -60.501s35.834 -26.5 66.501 -26.5s52.667 8.83301 66 26.5s20 37.834 20 60.501l79 -1c0.666992 -40 -12.666 -75 -39.999 -105
s-69 -45 -125 -45z" />
    <glyph glyph-name="ibreve" unicode="&#x12d;" horiz-adv-x="262" 
d="M83 0v497h98v-497h-98zM132 577c-54 0 -94 15.834 -120 47.501s-38.667 71.5 -38 119.5h79c-0.666992 -28.667 5.16602 -52.834 17.499 -72.501s32.833 -29.5 61.5 -29.5s49.167 9.5 61.5 28.5s18.5 43.5 18.5 73.5h79c0.666992 -48 -12.166 -87.833 -38.499 -119.5
s-66.5 -47.5 -120.5 -47.5z" />
    <glyph glyph-name="Iogonek" unicode="&#x12e;" horiz-adv-x="293" 
d="M96 0v659.001h101v-659c-30.667 -12 -55.334 -27.5 -74.001 -46.5s-28 -40.167 -28 -63.5c0 -18.667 5.5 -32.5 16.5 -41.5s26.167 -13.5 45.5 -13.5c9.33301 0 17.333 0.5 24 1.5s12 2.83301 16 5.5l1 -71c-6.66699 -2.66699 -15.167 -4.83398 -25.5 -6.50098
s-22.166 -2.5 -35.499 -2.5c-38 0 -68 10 -90 30s-33 45.333 -33 76c0 28.667 9.16699 54.167 27.5 76.5s41.833 40.833 70.5 55.5h-16z" />
    <glyph glyph-name="iogonek" unicode="&#x12f;" horiz-adv-x="262" 
d="M82 0l-0.00195312 497h98v-497c-31.333 -13.333 -55.5 -29.333 -72.5 -48s-25.5 -39.667 -25.5 -63c0 -18 5.5 -31.5 16.5 -40.5s26.5 -13.5 46.5 -13.5c10.667 0 19.334 0.5 26.001 1.5s12.334 2.83301 17.001 5.5v-71c-7.33301 -2.66699 -16 -4.83398 -26 -6.50098
s-22 -2.5 -36 -2.5c-38 0 -68.5 9.66699 -91.5 29s-34.5 44.666 -34.5 75.999c0 28.667 9.5 54.334 28.5 77.001s42.833 41.334 71.5 56.001h-18zM81.998 583c-2 0 -3.5 0.666992 -4.5 2s-1.5 3 -1.5 5v99c0 2.66699 0.666992 4.66699 2 6s3.33301 2 6 2h95
c2 0 3.66699 -0.666992 5 -2s2 -3.33301 2 -6v-99c0 -2 -0.666992 -3.66699 -2 -5s-3 -2 -5 -2h-97z" />
    <glyph glyph-name="Idotaccent" unicode="&#x130;" horiz-adv-x="294" 
d="M96 0v659h102v-659h-102zM97 740c-2 0 -3.5 0.666992 -4.5 2s-1.5 3 -1.5 5v99c0 2.66699 0.666992 4.66699 2 6s3.33301 2 6 2h95c2.66699 0 4.5 -0.666992 5.5 -2s1.5 -3.33301 1.5 -6v-99c0 -2 -0.5 -3.66699 -1.5 -5s-2.83301 -2 -5.5 -2h-97z" />
    <glyph glyph-name="dotlessi" unicode="&#x131;" horiz-adv-x="262" 
d="M82 0v497h98v-497h-98z" />
    <glyph glyph-name="IJ" unicode="&#x132;" horiz-adv-x="827" 
d="M96 0v659h102v-659h-102zM537 -13c-67.333 0 -119.001 18.5 -155.001 55.5s-56.333 86.5 -61 148.5l100 15c4.66699 -43.333 16.334 -75.333 35.001 -96s45 -31 79 -31c41.333 0 70 11.833 86 35.5s24 61.5 24 113.5v431h101v-442c0 -78 -17.5 -135.833 -52.5 -173.5
s-87.167 -56.5 -156.5 -56.5z" />
    <glyph glyph-name="ij" unicode="&#x133;" horiz-adv-x="533" 
d="M82 0v497h99v-497h-99zM83 583c-2.66699 0 -4.5 0.666992 -5.5 2s-1.5 3 -1.5 5v99c0 2.66699 0.666992 4.66699 2 6s3.33301 2 6 2h96c2 0 3.5 -0.666992 4.5 -2s1.5 -3.33301 1.5 -6v-99c0 -2 -0.5 -3.66699 -1.5 -5s-2.5 -2 -4.5 -2h-97zM310 -210
c-12.667 0 -24.167 1.00098 -34.5 3.00098s-17.833 3.33301 -22.5 4v77c6 -1.33301 12.167 -2.33301 18.5 -3s12.5 -1 18.5 -1c24.667 0 41.667 6.16699 51 18.5s14 34.166 14 65.499v543h97v-540c0 -62 -10.667 -105.333 -32 -130s-58 -37 -110 -37zM355 583.001
c-2 0 -3.33398 0.666992 -4.00098 2s-1 3 -1 5v99c0 2.66699 0.333008 4.66699 1 6s2.33398 2 5.00098 2h96c2.66699 0 4.5 -0.666992 5.5 -2s1.5 -3.33301 1.5 -6v-99c0 -2 -0.5 -3.66699 -1.5 -5s-2.83301 -2 -5.5 -2h-97z" />
    <glyph glyph-name="Jcircumflex" unicode="&#x134;" horiz-adv-x="530" 
d="M240 -13c-67.333 0 -119.001 18.5 -155.001 55.5s-56.333 86.5 -61 148.5l100 15c4.66699 -43.333 16.334 -75.333 35.001 -96s45 -31 79 -31c41.333 0 70 11.833 86 35.5s24 61.5 24 113.5v431h101v-442c0 -78 -17.5 -135.833 -52.5 -173.5s-87.167 -56.5 -156.5 -56.5z
M226.999 740v8l127 155h85l128 -155v-8h-90l-53 74l-24 41h-6l-24 -41l-53 -74h-90z" />
    <glyph glyph-name="jcircumflex" unicode="&#x135;" horiz-adv-x="265" 
d="M36 -226c-10.667 0 -20.833 0.668945 -30.5 2.00195s-16.5 2.33301 -20.5 3v78c4.66699 -0.666992 10.5 -1.33398 17.5 -2.00098s12.833 -1 17.5 -1c24.667 0 42 6.16699 52 18.5s15 34.166 15 65.499v559h98v-558c0 -62 -12.333 -105 -37 -129s-62 -36 -112 -36z
M-33.999 583.002v8l127 169h83l128 -169v-8h-90l-53 86l-24 43h-5l-25 -43l-53 -86h-88z" />
    <glyph glyph-name="Kcommaaccent" unicode="&#x136;" horiz-adv-x="623" 
d="M94 0v659h100v-287l-4 -80l290 367h119l-218 -271l229 -388h-117l-181 321l-122 -146l4 -67v-108h-100zM388 -144c0 -25.333 -3.16797 -46.3291 -9.50098 -62.9961s-14.333 -29.834 -24 -39.501s-20.667 -16.834 -33 -21.501s-24.166 -8 -35.499 -10l-13 20
c16 5.33301 28.333 14.166 37 26.499s13.667 29.166 15 50.499h-40c-2 0 -3.5 0.5 -4.5 1.5s-1.5 2.83301 -1.5 5.5v86c0 2.66699 1 4.66699 3 6s4 2 6 2h93c2 0 3.66699 -0.666992 5 -2s2 -3.33301 2 -6v-56z" />
    <glyph glyph-name="kcommaaccent" unicode="&#x137;" horiz-adv-x="529" 
d="M82 0v734h96v-404l-5 -107l213 274h122l-165 -198l178 -299h-112l-136 239l-98 -113l2 -35v-91h-95zM349 -144c0 -25.333 -3.16797 -46.3291 -9.50098 -62.9961s-14.333 -29.834 -24 -39.501s-20.667 -16.834 -33 -21.501s-24.166 -8 -35.499 -10l-13 20
c16 5.33301 28.333 14.166 37 26.499s13.667 29.166 15 50.499h-40c-2 0 -3.5 0.5 -4.5 1.5s-1.5 2.83301 -1.5 5.5v86c0 2.66699 1 4.66699 3 6s4 2 6 2h93c2 0 3.66699 -0.666992 5 -2s2 -3.33301 2 -6v-56z" />
    <glyph glyph-name="kgreenlandic" unicode="&#x138;" horiz-adv-x="532" 
d="M81 0v497h96v-170l-9 -113l222 283h121l-164 -196l177 -301h-112l-136 240l-102 -120v-120h-93z" />
    <glyph glyph-name="Lacute" unicode="&#x139;" horiz-adv-x="506" 
d="M94 0v659h103v-568h285v-91h-388zM110 738l106 167h114v-12l-154 -155h-66z" />
    <glyph glyph-name="lacute" unicode="&#x13a;" horiz-adv-x="264" 
d="M83 0v734h98v-734h-98zM96 787l106 167h114v-12l-154 -155h-66z" />
    <glyph glyph-name="Lcommaaccent" unicode="&#x13b;" horiz-adv-x="506" 
d="M94 0v659h103v-568h285v-91h-388zM342 -144c0 -25.333 -3.16797 -46.3291 -9.50098 -62.9961s-14.333 -29.834 -24 -39.501s-20.667 -16.834 -33 -21.501s-24.166 -8 -35.499 -10l-13 20c16 5.33301 28.333 14.166 37 26.499s13.667 29.166 15 50.499h-40
c-2 0 -3.5 0.5 -4.5 1.5s-1.5 2.83301 -1.5 5.5v86c0 2.66699 1 4.66699 3 6s4 2 6 2h93c2 0 3.66699 -0.666992 5 -2s2 -3.33301 2 -6v-56z" />
    <glyph glyph-name="lcommaaccent" unicode="&#x13c;" horiz-adv-x="264" 
d="M83 0v734h98v-734h-98zM187 -144c0 -25.333 -3.16797 -46.3291 -9.50098 -62.9961s-14.333 -29.834 -24 -39.501s-20.667 -16.834 -33 -21.501s-24.166 -8 -35.499 -10l-13 20c16 5.33301 28.333 14.166 37 26.499s13.667 29.166 15 50.499h-40c-2 0 -3.5 0.5 -4.5 1.5
s-1.5 2.83301 -1.5 5.5v86c0 2.66699 1 4.66699 3 6s4 2 6 2h93c2 0 3.66699 -0.666992 5 -2s2 -3.33301 2 -6v-56z" />
    <glyph glyph-name="Lcaron" unicode="&#x13d;" horiz-adv-x="507" 
d="M94 0v659h103v-568h285v-91h-388zM317 532l14 216h86v-25l-42 -191h-58z" />
    <glyph glyph-name="lcaron" unicode="&#x13e;" horiz-adv-x="294" 
d="M83 0v734h98v-734h-98zM242 532l14 216h86v-25l-42 -191h-58z" />
    <glyph glyph-name="Ldot" unicode="&#x13f;" horiz-adv-x="557" 
d="M94 0v659h103v-568h285v-91h-388zM415 269c-1.33301 0 -2.5 0.666992 -3.5 2s-1.5 3 -1.5 5v133c0 2 0.5 3.66699 1.5 5s2.83301 2 5.5 2h96c1.33301 0 2.66602 -0.666992 3.99902 -2s2 -3 2 -5v-133c0 -2 -0.666992 -3.66699 -2 -5s-2.66602 -2 -3.99902 -2h-98z" />
    <glyph glyph-name="ldot" unicode="&#x140;" horiz-adv-x="390" 
d="M82 0v734h98v-734h-98zM270 232c-1.33301 0 -2.5 0.666992 -3.5 2s-1.5 3 -1.5 5v133c0 2 0.5 3.66699 1.5 5s2.83301 2 5.5 2h96c1.33301 0 2.66602 -0.666992 3.99902 -2s2 -3 2 -5v-133c0 -2 -0.666992 -3.66699 -2 -5s-2.66602 -2 -3.99902 -2h-98z" />
    <glyph glyph-name="Lslash" unicode="&#x141;" horiz-adv-x="548" 
d="M19 257v87l87 40v273h103v-227l162 77v-87l-162 -77v-253h285v-91h-388v298z" />
    <glyph glyph-name="lslash" unicode="&#x142;" horiz-adv-x="318" 
d="M37 313v83l72 32v306h100v-260l74 34v-84l-74 -33v-391h-100v346z" />
    <glyph glyph-name="Nacute" unicode="&#x143;" horiz-adv-x="713" 
d="M94 0v659h117l242 -388l82 -159l-14 162v385h98v-659h-96l-269 423l-80 152l16 -155v-420h-96zM320 738l106 167h114v-12l-154 -155h-66z" />
    <glyph glyph-name="nacute" unicode="&#x144;" horiz-adv-x="583" 
d="M179 497v-68.001c0 -2.66699 -0.166992 -7.66699 -0.5 -15s-0.833008 -15 -1.5 -23s-1.16699 -15 -1.5 -21l-0.5 -9h6c11.333 40.667 32.333 75.334 63 104.001s68.334 43 113.001 43c48.667 0 86 -15.333 112 -46s39 -76 39 -136v-326h-101v303c0 43.333 -8 74 -24 92
s-38.333 27 -67 27c-35.333 0 -66.333 -15 -93 -45s-40.334 -71.667 -41.001 -125v-252h-100v497h97zM273 582.999l104 177h111v-13l-150 -164h-65z" />
    <glyph glyph-name="Ncommaaccent" unicode="&#x145;" horiz-adv-x="713" 
d="M94 0v659h117l242 -388l82 -159l-14 162v385h98v-659h-96l-269 423l-80 152l16 -155v-420h-96zM413 -144c0 -25.333 -3.16797 -46.3291 -9.50098 -62.9961s-14.333 -29.834 -24 -39.501s-20.667 -16.834 -33 -21.501s-24.166 -8 -35.499 -10l-13 20
c16 5.33301 28.333 14.166 37 26.499s13.667 29.166 15 50.499h-40c-2 0 -3.5 0.5 -4.5 1.5s-1.5 2.83301 -1.5 5.5v86c0 2.66699 1 4.66699 3 6s4 2 6 2h93c2 0 3.66699 -0.666992 5 -2s2 -3.33301 2 -6v-56z" />
    <glyph glyph-name="ncommaaccent" unicode="&#x146;" horiz-adv-x="583" 
d="M179 497v-68.001c0 -2.66699 -0.166992 -7.66699 -0.5 -15s-0.833008 -15 -1.5 -23s-1.16699 -15 -1.5 -21l-0.5 -9h6c11.333 40.667 32.333 75.334 63 104.001s68.334 43 113.001 43c48.667 0 86 -15.333 112 -46s39 -76 39 -136v-326h-101v303c0 43.333 -8 74 -24 92
s-38.333 27 -67 27c-35.333 0 -66.333 -15 -93 -45s-40.334 -71.667 -41.001 -125v-252h-100v497h97zM351 -144.001c0 -25.333 -3.16797 -46.3291 -9.50098 -62.9961s-14.333 -29.834 -24 -39.501s-20.667 -16.834 -33 -21.501s-24.166 -8 -35.499 -10l-13 20
c16 5.33301 28.333 14.166 37 26.499s13.667 29.166 15 50.499h-40c-2 0 -3.5 0.5 -4.5 1.5s-1.5 2.83301 -1.5 5.5v86c0 2.66699 1 4.66699 3 6s4 2 6 2h93c2 0 3.66699 -0.666992 5 -2s2 -3.33301 2 -6v-56z" />
    <glyph glyph-name="Ncaron" unicode="&#x147;" horiz-adv-x="713" 
d="M94 0v659h117l242 -388l82 -159l-14 162v385h98v-659h-96l-269 423l-80 152l16 -155v-420h-96zM315 740l-127 160v8h89l54 -78l24 -42h6l24 42l53 78h90v-8l-128 -160h-85z" />
    <glyph glyph-name="ncaron" unicode="&#x148;" horiz-adv-x="583" 
d="M179 497v-68.001c0 -2.66699 -0.166992 -7.66699 -0.5 -15s-0.833008 -15 -1.5 -23s-1.16699 -15 -1.5 -21l-0.5 -9h6c11.333 40.667 32.333 75.334 63 104.001s68.334 43 113.001 43c48.667 0 86 -15.333 112 -46s39 -76 39 -136v-326h-101v303c0 43.333 -8 74 -24 92
s-38.333 27 -67 27c-35.333 0 -66.333 -15 -93 -45s-40.334 -71.667 -41.001 -125v-252h-100v497h97zM265 582.999l-128 169v8h90l54 -87l24 -42h5l25 42l52 87h89v-8l-128 -169h-83z" />
    <glyph glyph-name="Eng" unicode="&#x14a;" horiz-adv-x="713" 
d="M420 -214c-32.667 0 -62 4.83301 -88 14.5s-47.667 23.5 -65 41.5l65 68c9.33301 -10 21.666 -18.5 36.999 -25.5s32.333 -10.5 51 -10.5c36 0 61.833 10.667 77.5 32s23.5 49.333 23.5 84v13l-269 420l-77 150l16 -153v-420h-97v659h118l245 -394l77 -149l-14 158v385
h99v-655c0 -38.667 -5.16699 -71.834 -15.5 -99.501s-24.5 -50.167 -42.5 -67.5s-39.167 -30.166 -63.5 -38.499s-50.166 -12.5 -77.499 -12.5z" />
    <glyph glyph-name="eng" unicode="&#x14b;" horiz-adv-x="583" 
d="M347 -192h-33v87h25c26.667 0 44.667 5.16699 54 15.5s14 30.833 14 61.5v335c0 42 -7.33301 72.167 -22 90.5s-36.667 27.5 -66 27.5c-36 0 -65.333 -14.833 -88 -44.5s-39 -71.5 -49 -125.5v-255h-100v497h98l1 -67l-6 -84c13.333 46 36 84.833 68 116.5
s70.667 47.5 116 47.5c48.667 0 85.5 -15.5 110.5 -46.5s37.833 -76.5 38.5 -136.5v-358c0 -62 -12.333 -104.333 -37 -127s-66 -34 -124 -34z" />
    <glyph glyph-name="Omacron" unicode="&#x14c;" horiz-adv-x="713" 
d="M351 -12c-47.333 0 -89.6699 8 -127.003 24s-68.833 38.667 -94.5 68s-45.167 65.166 -58.5 107.499s-20 89.5 -20 141.5c0 51.333 7 98.166 21 140.499s34 78.5 60 108.5s58.333 53.167 97 69.5s82.334 24.5 131.001 24.5c47.333 0 89.833 -8.16699 127.5 -24.5
s69.334 -39.5 95.001 -69.5s45.334 -66.167 59.001 -108.5s20.5 -89.166 20.5 -140.499c0 -52 -7.16699 -99.167 -21.5 -141.5s-34.666 -78.166 -60.999 -107.499s-58.833 -52 -97.5 -68s-82.334 -24 -131.001 -24zM354.996 70c64 0 113.501 22.665 148.501 67.998
s52.5 109 52.5 191v2c0 80.667 -17.5 143.834 -52.5 189.501s-84.167 68.5 -147.5 68.5c-64 0 -113.667 -22.667 -149 -68s-53 -108.666 -53 -189.999v-3c0 -80 17.667 -143 53 -189s84.666 -69 147.999 -69zM219.997 741.998v72h271v-72h-271z" />
    <glyph glyph-name="omacron" unicode="&#x14d;" horiz-adv-x="572" 
d="M283 -11c-77.333 0 -136.502 23.666 -177.502 70.999s-61.5 110.333 -61.5 189c0 36.667 5.5 71 16.5 103s27 59.667 48 83s46.833 41.666 77.5 54.999s65.334 20 104.001 20c76 0 134.5 -23.5 175.5 -70.5s61.5 -109.167 61.5 -186.5c0 -38 -5.66699 -73.167 -17 -105.5
s-27.5 -60.166 -48.5 -83.499s-46.667 -41.666 -77 -54.999s-64.166 -20 -101.499 -20zM284.998 64.999c44 0 78.167 16.998 102.5 50.998s36.5 79 36.5 135c0 54.667 -11.667 98.834 -35 132.501s-57 50.5 -101 50.5c-45.333 0 -80 -17 -104 -51s-36 -78 -36 -132
c0 -55.333 11.833 -100.166 35.5 -134.499s57.5 -51.5 101.5 -51.5zM151.998 601.997v73h272v-73h-272z" />
    <glyph glyph-name="Obreve" unicode="&#x14e;" horiz-adv-x="713" 
d="M351 -12c-47.333 0 -89.6699 8 -127.003 24s-68.833 38.667 -94.5 68s-45.167 65.166 -58.5 107.499s-20 89.5 -20 141.5c0 51.333 7 98.166 21 140.499s34 78.5 60 108.5s58.333 53.167 97 69.5s82.334 24.5 131.001 24.5c47.333 0 89.833 -8.16699 127.5 -24.5
s69.334 -39.5 95.001 -69.5s45.334 -66.167 59.001 -108.5s20.5 -89.166 20.5 -140.499c0 -52 -7.16699 -99.167 -21.5 -141.5s-34.666 -78.166 -60.999 -107.499s-58.833 -52 -97.5 -68s-82.334 -24 -131.001 -24zM354.996 70c64 0 113.501 22.665 148.501 67.998
s52.5 109 52.5 191v2c0 80.667 -17.5 143.834 -52.5 189.501s-84.167 68.5 -147.5 68.5c-64 0 -113.667 -22.667 -149 -68s-53 -108.666 -53 -189.999v-3c0 -80 17.667 -143 53 -189s84.666 -69 147.999 -69zM355.997 731.998c-56 0 -97.834 15 -125.501 45
s-40.834 65 -39.501 105l79 1c-0.666992 -22.667 5.83301 -42.834 19.5 -60.501s35.834 -26.5 66.501 -26.5s52.667 8.83301 66 26.5s20 37.834 20 60.501l79 -1c0.666992 -40 -12.666 -75 -39.999 -105s-69 -45 -125 -45z" />
    <glyph glyph-name="obreve" unicode="&#x14f;" horiz-adv-x="572" 
d="M283 -11c-77.333 0 -136.502 23.666 -177.502 70.999s-61.5 110.333 -61.5 189c0 36.667 5.5 71 16.5 103s27 59.667 48 83s46.833 41.666 77.5 54.999s65.334 20 104.001 20c76 0 134.5 -23.5 175.5 -70.5s61.5 -109.167 61.5 -186.5c0 -38 -5.66699 -73.167 -17 -105.5
s-27.5 -60.166 -48.5 -83.499s-46.667 -41.666 -77 -54.999s-64.166 -20 -101.499 -20zM284.998 64.999c44 0 78.167 16.998 102.5 50.998s36.5 79 36.5 135c0 54.667 -11.667 98.834 -35 132.501s-57 50.5 -101 50.5c-45.333 0 -80 -17 -104 -51s-36 -78 -36 -132
c0 -55.333 11.833 -100.166 35.5 -134.499s57.5 -51.5 101.5 -51.5zM287.998 576.997c-55.333 0 -96.333 15.834 -123 47.501s-39.667 71.5 -39 119.5h79c-0.666992 -28.667 5.5 -52.834 18.5 -72.501s34.5 -29.5 64.5 -29.5s51.333 9.5 64 28.5s19 43.5 19 73.5h79
c0.666992 -48 -12.333 -87.833 -39 -119.5s-67.667 -47.5 -123 -47.5z" />
    <glyph glyph-name="Ohungarumlaut" unicode="&#x150;" horiz-adv-x="713" 
d="M351 -12c-47.333 0 -89.6699 8 -127.003 24s-68.833 38.667 -94.5 68s-45.167 65.166 -58.5 107.499s-20 89.5 -20 141.5c0 51.333 7 98.166 21 140.499s34 78.5 60 108.5s58.333 53.167 97 69.5s82.334 24.5 131.001 24.5c47.333 0 89.833 -8.16699 127.5 -24.5
s69.334 -39.5 95.001 -69.5s45.334 -66.167 59.001 -108.5s20.5 -89.166 20.5 -140.499c0 -52 -7.16699 -99.167 -21.5 -141.5s-34.666 -78.166 -60.999 -107.499s-58.833 -52 -97.5 -68s-82.334 -24 -131.001 -24zM354.996 70c64 0 113.501 22.665 148.501 67.998
s52.5 109 52.5 191v2c0 80.667 -17.5 143.834 -52.5 189.501s-84.167 68.5 -147.5 68.5c-64 0 -113.667 -22.667 -149 -68s-53 -108.666 -53 -189.999v-3c0 -80 17.667 -143 53 -189s84.666 -69 147.999 -69zM215.997 738.998l88 169h102v-13l-129 -156h-61z
M437.997 738.998l87 169h106v-11l-133 -158h-60z" />
    <glyph glyph-name="ohungarumlaut" unicode="&#x151;" horiz-adv-x="572" 
d="M283 -11c-77.333 0 -136.502 23.666 -177.502 70.999s-61.5 110.333 -61.5 189c0 36.667 5.5 71 16.5 103s27 59.667 48 83s46.833 41.666 77.5 54.999s65.334 20 104.001 20c76 0 134.5 -23.5 175.5 -70.5s61.5 -109.167 61.5 -186.5c0 -38 -5.66699 -73.167 -17 -105.5
s-27.5 -60.166 -48.5 -83.499s-46.667 -41.666 -77 -54.999s-64.166 -20 -101.499 -20zM284.998 64.999c44 0 78.167 16.998 102.5 50.998s36.5 79 36.5 135c0 54.667 -11.667 98.834 -35 132.501s-57 50.5 -101 50.5c-45.333 0 -80 -17 -104 -51s-36 -78 -36 -132
c0 -55.333 11.833 -100.166 35.5 -134.499s57.5 -51.5 101.5 -51.5zM146.998 581.997l93 180h98v-13l-126 -167h-65zM366.998 581.997l91 180h102v-10l-129 -170h-64z" />
    <glyph glyph-name="OE" unicode="&#x152;" horiz-adv-x="1046" 
d="M347 -11c-47.333 0 -89.3311 8.16797 -125.998 24.501s-67.5 39.333 -92.5 69s-44.167 65.667 -57.5 108s-20 88.833 -20 139.5c0 50 6.66699 96.167 20 138.5s32.833 78.5 58.5 108.5s57.5 53.333 95.5 70s81 25 129 25c50.667 0 93.167 -10.667 127.5 -32
s60.833 -53.333 79.5 -96v115h440v-82h-342v-189h237v-87h-237v-214h353v-87h-451v124c-18.667 -42.667 -45.834 -75.834 -81.501 -99.501s-79.834 -35.5 -132.501 -35.5zM354.002 70.001c64 0 113.834 23.332 149.501 69.999s53.5 109.667 53.5 189v3
c0 78 -17 140.333 -51 187s-83.333 70 -148 70s-114.834 -23.167 -150.501 -69.5s-53.5 -109.166 -53.5 -188.499v-2c0 -78.667 17.333 -141.5 52 -188.5s84 -70.5 148 -70.5z" />
    <glyph glyph-name="oe" unicode="&#x153;" horiz-adv-x="927" 
d="M666 -11c-44.667 0 -82.998 8.49902 -114.998 25.499s-57.333 40.833 -76 71.5c-18.667 -30 -43.834 -53.667 -75.501 -71s-69.167 -26 -112.5 -26c-78 0 -138 23.833 -180 71.5s-63 110.834 -63 189.501c0 36.667 5.83301 71 17.5 103s28.167 59.667 49.5 83
s47.666 41.666 78.999 54.999s66.333 20 105 20c44.667 0 82.334 -8.16699 113.001 -24.5s54.667 -39.166 72 -68.499c18.667 29.333 43.667 52.166 75 68.499s67.333 24.5 108 24.5c38 0 70.833 -6.16699 98.5 -18.5s50.167 -29.5 67.5 -51.5s30 -48 38 -78
s12 -62.333 12 -97c0 -4 -0.166992 -10.667 -0.5 -20s-0.833008 -15.333 -1.5 -18h-347c2.66699 -59.333 17 -101.166 43 -125.499s59 -36.5 99 -36.5c28.667 0 53.167 6 73.5 18s36.833 27.333 49.5 46l68 -48c-19.333 -26 -44.833 -48 -76.5 -66s-71.834 -27 -120.501 -27
zM289.002 64.999c45.333 0 79.5 17.168 102.5 51.501s34.5 79.166 34.5 134.499c0 54.667 -10.833 99 -32.5 133s-55.167 51 -100.5 51c-46 0 -81.5 -17 -106.5 -51s-37.5 -78 -37.5 -132c0 -55.333 12 -100.333 36 -135s58.667 -52 104 -52zM660.002 436
c-34 0 -63 -11 -87 -33s-37.667 -58.667 -41 -110h245v4c0 42 -9 75.667 -27 101s-48 38 -90 38z" />
    <glyph glyph-name="Racute" unicode="&#x154;" horiz-adv-x="636" 
d="M94 0v659h223c85.333 0 146.5 -16.333 183.5 -49s55.5 -74.667 55.5 -126c0 -16.667 -2.33301 -33.667 -7 -51s-12.834 -33.5 -24.501 -48.5s-27.167 -28.667 -46.5 -41s-43.666 -21.5 -72.999 -27.5c50 -10.667 89.167 -39.5 117.5 -86.5s45.833 -111.167 52.5 -192.5
c0.666992 -10.667 1.16699 -19 1.5 -25s0.833008 -10 1.5 -12h-105c0 2 -0.166992 5.66699 -0.5 11s-0.5 12 -0.5 20c-6 78.667 -22.833 137.5 -50.5 176.5s-70.167 58.5 -127.5 58.5h-100v-266h-100zM194 343l106.999 0.000976562c56 0 95.333 12.667 118 38s34 55 34 89
c0 33.333 -10.667 59.666 -32 78.999s-61.666 29 -120.999 29h-106v-235zM286.999 738.001l106 167h114v-12l-154 -155h-66z" />
    <glyph glyph-name="racute" unicode="&#x155;" horiz-adv-x="381" 
d="M80 0l-0.000976562 497h95v-67l-11 -155h7c2.66699 26.667 8 53.667 16 81s18.833 52 32.5 74s30.834 40 51.501 54s45.334 21 74.001 21h15v-119c-4.66699 0.666992 -10.334 1 -17.001 1h-19c-47.333 0 -82.5 -17.333 -105.5 -52s-36.167 -79.667 -39.5 -135v-200h-99z
M191.999 583l104 177h111v-13l-150 -164h-65z" />
    <glyph glyph-name="Rcommaaccent" unicode="&#x156;" horiz-adv-x="636" 
d="M94 0v659h223c85.333 0 146.5 -16.333 183.5 -49s55.5 -74.667 55.5 -126c0 -16.667 -2.33301 -33.667 -7 -51s-12.834 -33.5 -24.501 -48.5s-27.167 -28.667 -46.5 -41s-43.666 -21.5 -72.999 -27.5c50 -10.667 89.167 -39.5 117.5 -86.5s45.833 -111.167 52.5 -192.5
c0.666992 -10.667 1.16699 -19 1.5 -25s0.833008 -10 1.5 -12h-105c0 2 -0.166992 5.66699 -0.5 11s-0.5 12 -0.5 20c-6 78.667 -22.833 137.5 -50.5 176.5s-70.167 58.5 -127.5 58.5h-100v-266h-100zM194 343l106.999 0.000976562c56 0 95.333 12.667 118 38s34 55 34 89
c0 33.333 -10.667 59.666 -32 78.999s-61.666 29 -120.999 29h-106v-235zM379.999 -143.999c0 -25.333 -3.16797 -46.3291 -9.50098 -62.9961s-14.333 -29.834 -24 -39.501s-20.667 -16.834 -33 -21.501s-24.166 -8 -35.499 -10l-13 20c16 5.33301 28.333 14.166 37 26.499
s13.667 29.166 15 50.499h-40c-2 0 -3.5 0.5 -4.5 1.5s-1.5 2.83301 -1.5 5.5v86c0 2.66699 1 4.66699 3 6s4 2 6 2h93c2 0 3.66699 -0.666992 5 -2s2 -3.33301 2 -6v-56z" />
    <glyph glyph-name="rcommaaccent" unicode="&#x157;" horiz-adv-x="381" 
d="M80 0l-0.000976562 497h95v-67l-11 -155h7c2.66699 26.667 8 53.667 16 81s18.833 52 32.5 74s30.834 40 51.501 54s45.334 21 74.001 21h15v-119c-4.66699 0.666992 -10.334 1 -17.001 1h-19c-47.333 0 -82.5 -17.333 -105.5 -52s-36.167 -79.667 -39.5 -135v-200h-99z
M188.999 -144c0 -25.333 -3.16797 -46.3291 -9.50098 -62.9961s-14.333 -29.834 -24 -39.501s-20.667 -16.834 -33 -21.501s-24.166 -8 -35.499 -10l-13 20c16 5.33301 28.333 14.166 37 26.499s13.667 29.166 15 50.499h-40c-2 0 -3.5 0.5 -4.5 1.5s-1.5 2.83301 -1.5 5.5
v86c0 2.66699 1 4.66699 3 6s4 2 6 2h93c2 0 3.66699 -0.666992 5 -2s2 -3.33301 2 -6v-56z" />
    <glyph glyph-name="Rcaron" unicode="&#x158;" horiz-adv-x="636" 
d="M94 0v659h223c85.333 0 146.5 -16.333 183.5 -49s55.5 -74.667 55.5 -126c0 -16.667 -2.33301 -33.667 -7 -51s-12.834 -33.5 -24.501 -48.5s-27.167 -28.667 -46.5 -41s-43.666 -21.5 -72.999 -27.5c50 -10.667 89.167 -39.5 117.5 -86.5s45.833 -111.167 52.5 -192.5
c0.666992 -10.667 1.16699 -19 1.5 -25s0.833008 -10 1.5 -12h-105c0 2 -0.166992 5.66699 -0.5 11s-0.5 12 -0.5 20c-6 78.667 -22.833 137.5 -50.5 176.5s-70.167 58.5 -127.5 58.5h-100v-266h-100zM194 343l106.999 0.000976562c56 0 95.333 12.667 118 38s34 55 34 89
c0 33.333 -10.667 59.666 -32 78.999s-61.666 29 -120.999 29h-106v-235zM279.999 740.001l-127 160v8h89l54 -78l24 -42h6l24 42l53 78h90v-8l-128 -160h-85z" />
    <glyph glyph-name="rcaron" unicode="&#x159;" horiz-adv-x="381" 
d="M80 0l-0.000976562 497h95v-67l-11 -155h7c2.66699 26.667 8 53.667 16 81s18.833 52 32.5 74s30.834 40 51.501 54s45.334 21 74.001 21h15v-119c-4.66699 0.666992 -10.334 1 -17.001 1h-19c-47.333 0 -82.5 -17.333 -105.5 -52s-36.167 -79.667 -39.5 -135v-200h-99z
M183.999 583l-128 169v8h90l54 -87l24 -42h5l25 42l52 87h89v-8l-128 -169h-83z" />
    <glyph glyph-name="Sacute" unicode="&#x15a;" horiz-adv-x="566" 
d="M278 -11c-60 0 -111.168 13.334 -153.501 40.001s-71.166 66.667 -86.499 120l90 36c10.667 -38.667 30.167 -67.167 58.5 -85.5s60.166 -27.5 95.499 -27.5c41.333 0 73.833 9.16699 97.5 27.5s35.5 43.166 35.5 74.499c0 34 -14 59 -42 75s-69 32.333 -123 49
c-59.333 18.667 -105.5 41.834 -138.5 69.501s-49.167 69.167 -48.5 124.5c0 51.333 20.667 94 62 128s95.666 51 162.999 51c60 0 109.667 -12.5 149 -37.5s65.333 -61.5 78 -109.5l-86 -37c-8.66699 34 -25.167 59.5 -49.5 76.5s-54.833 25.5 -91.5 25.5
c-42 0 -73.5 -9 -94.5 -27s-31.5 -39.333 -31.5 -64c0 -30.667 10.333 -53.667 31 -69s59.334 -31.666 116.001 -48.999c28.667 -8.66699 55.834 -18.334 81.501 -29.001s48 -23.334 67 -38.001s34 -32.334 45 -53.001s16.5 -45.667 16.5 -75s-6 -56.166 -18 -80.499
s-28.5 -45 -49.5 -62s-46.333 -30.167 -76 -39.5s-62.167 -14 -97.5 -14zM237.999 738.001l106 167h114v-12l-154 -155h-66z" />
    <glyph glyph-name="sacute" unicode="&#x15b;" horiz-adv-x="464" 
d="M233 -9c-40.667 0 -79.002 8.33496 -115.002 25.002s-63.667 42 -83 76l66 50c16.667 -26.667 36.667 -46.167 60 -58.5s48.333 -18.5 75 -18.5c24.667 0 45.167 5.5 61.5 16.5s24.5 26.833 24.5 47.5c0 24 -12.167 42.167 -36.5 54.5s-54.833 24.833 -91.5 37.5
c-17.333 6 -34.333 13 -51 21s-31.5 17.5 -44.5 28.5s-23.5 24.167 -31.5 39.5s-12 33.666 -12 54.999c0 42 17 76.333 51 103s78 40 132 40c44.667 0 81.334 -8.16699 110.001 -24.5s51.334 -36.833 68.001 -61.5l-66 -53c-8 14.667 -21.5 29.167 -40.5 43.5
s-43.167 21.5 -72.5 21.5c-24.667 0 -44.667 -5.83301 -60 -17.5s-23 -26.167 -23 -43.5c0 -24.667 11.667 -42.834 35 -54.501s51.333 -23.167 84 -34.5c18.667 -6.66699 37 -14 55 -22s33.833 -17.667 47.5 -29s24.667 -25 33 -41s12.5 -35.667 12.5 -59
c0 -44.667 -17.5 -79.5 -52.5 -104.5s-80.167 -37.5 -135.5 -37.5zM194.998 583.002l104 177h111v-13l-150 -164h-65z" />
    <glyph glyph-name="Scircumflex" unicode="&#x15c;" horiz-adv-x="566" 
d="M278 -11c-60 0 -111.168 13.334 -153.501 40.001s-71.166 66.667 -86.499 120l90 36c10.667 -38.667 30.167 -67.167 58.5 -85.5s60.166 -27.5 95.499 -27.5c41.333 0 73.833 9.16699 97.5 27.5s35.5 43.166 35.5 74.499c0 34 -14 59 -42 75s-69 32.333 -123 49
c-59.333 18.667 -105.5 41.834 -138.5 69.501s-49.167 69.167 -48.5 124.5c0 51.333 20.667 94 62 128s95.666 51 162.999 51c60 0 109.667 -12.5 149 -37.5s65.333 -61.5 78 -109.5l-86 -37c-8.66699 34 -25.167 59.5 -49.5 76.5s-54.833 25.5 -91.5 25.5
c-42 0 -73.5 -9 -94.5 -27s-31.5 -39.333 -31.5 -64c0 -30.667 10.333 -53.667 31 -69s59.334 -31.666 116.001 -48.999c28.667 -8.66699 55.834 -18.334 81.501 -29.001s48 -23.334 67 -38.001s34 -32.334 45 -53.001s16.5 -45.667 16.5 -75s-6 -56.166 -18 -80.499
s-28.5 -45 -49.5 -62s-46.333 -30.167 -76 -39.5s-62.167 -14 -97.5 -14zM103.999 740.001v8l127 155h85l128 -155v-8h-90l-53 74l-24 41h-6l-24 -41l-53 -74h-90z" />
    <glyph glyph-name="scircumflex" unicode="&#x15d;" horiz-adv-x="464" 
d="M233 -9c-40.667 0 -79.002 8.33496 -115.002 25.002s-63.667 42 -83 76l66 50c16.667 -26.667 36.667 -46.167 60 -58.5s48.333 -18.5 75 -18.5c24.667 0 45.167 5.5 61.5 16.5s24.5 26.833 24.5 47.5c0 24 -12.167 42.167 -36.5 54.5s-54.833 24.833 -91.5 37.5
c-17.333 6 -34.333 13 -51 21s-31.5 17.5 -44.5 28.5s-23.5 24.167 -31.5 39.5s-12 33.666 -12 54.999c0 42 17 76.333 51 103s78 40 132 40c44.667 0 81.334 -8.16699 110.001 -24.5s51.334 -36.833 68.001 -61.5l-66 -53c-8 14.667 -21.5 29.167 -40.5 43.5
s-43.167 21.5 -72.5 21.5c-24.667 0 -44.667 -5.83301 -60 -17.5s-23 -26.167 -23 -43.5c0 -24.667 11.667 -42.834 35 -54.501s51.333 -23.167 84 -34.5c18.667 -6.66699 37 -14 55 -22s33.833 -17.667 47.5 -29s24.667 -25 33 -41s12.5 -35.667 12.5 -59
c0 -44.667 -17.5 -79.5 -52.5 -104.5s-80.167 -37.5 -135.5 -37.5zM59.998 583.002v8l127 169h83l128 -169v-8h-90l-53 86l-24 43h-5l-25 -43l-53 -86h-88z" />
    <glyph glyph-name="Scedilla" unicode="&#x15e;" horiz-adv-x="566" 
d="M255 -232c-11.333 0 -23.333 1.00488 -36 3.00488s-23.334 5.33301 -32.001 10v71c4.66699 -2.66699 11.5 -4.83398 20.5 -6.50098s18.833 -2.5 29.5 -2.5c18.667 0 33 5.16699 43 15.5s15 23.833 15 40.5c0 15.333 -4.5 31.333 -13.5 48s-22.833 31.334 -41.5 44.001
c-50.667 4.66699 -93.667 20.167 -129 46.5s-59.666 63.5 -72.999 111.5l90 36c10.667 -38.667 30.167 -67.167 58.5 -85.5s60.166 -27.5 95.499 -27.5c41.333 0 73.833 9.16699 97.5 27.5s35.5 43.166 35.5 74.499c0 34 -14 59 -42 75s-69 32.333 -123 49
c-59.333 18.667 -105.5 41.834 -138.5 69.501s-49.167 69.167 -48.5 124.5c0 51.333 20.667 94 62 128s95.666 51 162.999 51c60 0 109.667 -12.5 149 -37.5s65.333 -61.5 78 -109.5l-86 -37c-8.66699 34 -25.167 59.5 -49.5 76.5s-54.833 25.5 -91.5 25.5
c-42 0 -73.5 -9 -94.5 -27s-31.5 -39.333 -31.5 -64c0 -30.667 10.333 -53.667 31 -69s59.334 -31.666 116.001 -48.999c28.667 -8.66699 55.834 -18.334 81.501 -29.001s48 -23.334 67 -38.001s34 -32.334 45 -53.001s16.5 -45.667 16.5 -75c0 -56 -20 -101.333 -60 -136
s-91.333 -54.334 -154 -59.001c20.667 -14.667 37.167 -32.334 49.5 -53.001s18.5 -42.334 18.5 -65.001c0 -30 -9.83301 -54.833 -29.5 -74.5s-49.167 -29.5 -88.5 -29.5z" />
    <glyph glyph-name="scedilla" unicode="&#x15f;" horiz-adv-x="461" 
d="M205 -232c-11.333 0 -23.5049 1.00488 -36.5049 3.00488s-23.833 5.33301 -32.5 10v71c6 -2.66699 13.333 -4.83398 22 -6.50098s18.667 -2.5 30 -2.5c18.667 0 32.834 5.16699 42.501 15.5s14.5 23.833 14.5 40.5s-5 33.667 -15 51s-25.333 32.333 -46 45
c-32 4.66699 -61.167 15.167 -87.5 31.5s-47.5 38.166 -63.5 65.499l66 50c16.667 -26.667 36.834 -46.167 60.501 -58.5s48.834 -18.5 75.501 -18.5c24.667 0 45.167 5.5 61.5 16.5s24.5 26.833 24.5 47.5c0 24 -12.167 42.167 -36.5 54.5s-55.166 24.833 -92.499 37.5
c-17.333 6 -34.333 13 -51 21s-31.5 17.5 -44.5 28.5s-23.5 24.167 -31.5 39.5s-12 33.666 -12 54.999c0 42 17 76.333 51 103s78 40 132 40c44.667 0 81.5 -8.16699 110.5 -24.5s51.833 -36.833 68.5 -61.5l-67 -53c-8 14.667 -21.333 29.167 -40 43.5s-43 21.5 -73 21.5
c-24.667 0 -44.667 -5.83301 -60 -17.5s-23 -26.167 -23 -43.5c0 -24.667 11.667 -42.834 35 -54.501s51.333 -23.167 84 -34.5c18.667 -6.66699 37 -14 55 -22s33.833 -17.667 47.5 -29s24.667 -25 33 -41s12.5 -35.667 12.5 -59c0 -42 -15.5 -75.333 -46.5 -100
s-71.167 -38.334 -120.5 -41.001c21.333 -14.667 38.333 -32.5 51 -53.5s19 -43.167 19 -66.5c0 -30 -9.66699 -54.833 -29 -74.5s-48.666 -29.5 -87.999 -29.5z" />
    <glyph glyph-name="Scaron" unicode="&#x160;" horiz-adv-x="566" 
d="M278 -11c-60 0 -111.168 13.334 -153.501 40.001s-71.166 66.667 -86.499 120l90 36c10.667 -38.667 30.167 -67.167 58.5 -85.5s60.166 -27.5 95.499 -27.5c41.333 0 73.833 9.16699 97.5 27.5s35.5 43.166 35.5 74.499c0 34 -14 59 -42 75s-69 32.333 -123 49
c-59.333 18.667 -105.5 41.834 -138.5 69.501s-49.167 69.167 -48.5 124.5c0 51.333 20.667 94 62 128s95.666 51 162.999 51c60 0 109.667 -12.5 149 -37.5s65.333 -61.5 78 -109.5l-86 -37c-8.66699 34 -25.167 59.5 -49.5 76.5s-54.833 25.5 -91.5 25.5
c-42 0 -73.5 -9 -94.5 -27s-31.5 -39.333 -31.5 -64c0 -30.667 10.333 -53.667 31 -69s59.334 -31.666 116.001 -48.999c28.667 -8.66699 55.834 -18.334 81.501 -29.001s48 -23.334 67 -38.001s34 -32.334 45 -53.001s16.5 -45.667 16.5 -75s-6 -56.166 -18 -80.499
s-28.5 -45 -49.5 -62s-46.333 -30.167 -76 -39.5s-62.167 -14 -97.5 -14zM230.999 740.001l-127 160v8h89l54 -78l24 -42h6l24 42l53 78h90v-8l-128 -160h-85z" />
    <glyph glyph-name="scaron" unicode="&#x161;" horiz-adv-x="464" 
d="M233 -9c-40.667 0 -79.002 8.33496 -115.002 25.002s-63.667 42 -83 76l66 50c16.667 -26.667 36.667 -46.167 60 -58.5s48.333 -18.5 75 -18.5c24.667 0 45.167 5.5 61.5 16.5s24.5 26.833 24.5 47.5c0 24 -12.167 42.167 -36.5 54.5s-54.833 24.833 -91.5 37.5
c-17.333 6 -34.333 13 -51 21s-31.5 17.5 -44.5 28.5s-23.5 24.167 -31.5 39.5s-12 33.666 -12 54.999c0 42 17 76.333 51 103s78 40 132 40c44.667 0 81.334 -8.16699 110.001 -24.5s51.334 -36.833 68.001 -61.5l-66 -53c-8 14.667 -21.5 29.167 -40.5 43.5
s-43.167 21.5 -72.5 21.5c-24.667 0 -44.667 -5.83301 -60 -17.5s-23 -26.167 -23 -43.5c0 -24.667 11.667 -42.834 35 -54.501s51.333 -23.167 84 -34.5c18.667 -6.66699 37 -14 55 -22s33.833 -17.667 47.5 -29s24.667 -25 33 -41s12.5 -35.667 12.5 -59
c0 -44.667 -17.5 -79.5 -52.5 -104.5s-80.167 -37.5 -135.5 -37.5zM186.998 583.002l-128 169v8h90l54 -87l24 -42h5l25 42l52 87h89v-8l-128 -169h-83z" />
    <glyph glyph-name="uni0162" unicode="&#x162;" horiz-adv-x="531" 
d="M25 569l-0.000976562 90h481v-90h-189v-569h-19c26 -14.667 46.833 -33.167 62.5 -55.5s23.5 -46.5 23.5 -72.5c0 -30.667 -9.83301 -55.667 -29.5 -75s-49.167 -29 -88.5 -29c-12 0 -24.333 1.16699 -37 3.5s-23 5.83301 -31 10.5v70
c4.66699 -2.66699 11.334 -4.83398 20.001 -6.50098s18.667 -2.5 30 -2.5c18.667 0 33.167 5 43.5 15s15.5 23.667 15.5 41c0 19.333 -6.33301 37.833 -19 55.5s-31.667 32.834 -57 45.501h-16v569h-190z" />
    <glyph glyph-name="tcedilla" unicode="&#x163;" horiz-adv-x="366" 
d="M26 416l0.00390625 81.002h86v123l88 42v-128l-3 -37h130v-81h-132l5 -37v-224c0 -32.667 4.5 -53.834 13.5 -63.501s26.833 -14.5 53.5 -14.5c12.667 0 25.167 1 37.5 3s24.833 4.66699 37.5 8v-74c-12.667 -4.66699 -27.167 -9 -43.5 -13s-32.833 -6.33301 -49.5 -7
c20.667 -16 36.667 -34.833 48 -56.5s17 -45.167 17 -70.5c0 -30.667 -10.167 -55.667 -30.5 -75s-49.5 -29 -87.5 -29c-12.667 0 -25.834 1 -39.501 3s-24.834 5.33301 -33.501 10v72c5.33301 -2.66699 12.666 -5.33398 21.999 -8.00098s20.333 -4 33 -4
c18.667 0 32.667 5.66699 42 17s14 25.333 14 42c0 22.667 -5.33301 42.5 -16 59.5s-26.334 32.833 -47.001 47.5c-22.667 8.66699 -39 24 -49 46s-15 52.667 -15 92v276h-81z" />
    <glyph glyph-name="Tcaron" unicode="&#x164;" horiz-adv-x="531" 
d="M25 569v90h481v-90h-189v-569h-102v569h-190zM222 740l-127 160v8h89l54 -78l24 -42h6l24 42l53 78h90v-8l-128 -160h-85z" />
    <glyph glyph-name="tcaron" unicode="&#x165;" horiz-adv-x="366" 
d="M26 416v81h86v124l89 41v-128l-4 -37h130v-81h-130l4 -38v-226c0 -32 4.5 -52.833 13.5 -62.5s26.833 -14.5 53.5 -14.5c12.667 0 25.167 1.16699 37.5 3.5s24.833 5.5 37.5 9.5v-75c-14.667 -6 -31.667 -11 -51 -15s-38.333 -6 -57 -6c-45.333 0 -78 10.667 -98 32
s-30 59 -30 113v279h-81zM301 532l14 216h86v-25l-42 -191h-58z" />
    <glyph glyph-name="Tbar" unicode="&#x166;" horiz-adv-x="550" 
d="M34 569v90h481v-90h-189v-189h150v-87h-150v-293h-102v293h-149v87h149v189h-190z" />
    <glyph glyph-name="tbar" unicode="&#x167;" horiz-adv-x="373" 
d="M30 416l-0.000976562 80.999h86v123l88 42v-128l-3 -37h130v-81h-131l4 -35v-56h130v-79h-131v-21l1 -72c0 -32.667 4.66699 -53.5 14 -62.5s27.333 -13.5 54 -13.5c12.667 0 25.167 1 37.5 3s24.833 4.66699 37.5 8v-74c-14.667 -5.33301 -31.667 -10.166 -51 -14.499
s-38.333 -6.5 -57 -6.5c-45.333 0 -78.166 11 -98.499 33s-30.5 60 -30.5 114v106h-79v79h79v91h-80z" />
    <glyph glyph-name="Utilde" unicode="&#x168;" horiz-adv-x="672" 
d="M338 -13c-84.667 0 -148.666 23.333 -191.999 70s-65 116.667 -65 210v392h102v-389c0 -66.667 12.667 -115.667 38 -147s63.666 -47 114.999 -47c52 0 90.833 15.5 116.5 46.5s38.5 80.167 38.5 147.5v389h101v-392c0 -96 -23.167 -166.667 -69.5 -212
s-107.833 -68 -184.5 -68zM403.001 732c-23.333 0 -41.668 5.33008 -55.001 15.9971s-24.5 22.5 -33.5 35.5s-16.833 24.833 -23.5 35.5s-14.667 16 -24 16h-7c-10.667 0 -18.5 -7 -23.5 -21s-8.5 -29.333 -10.5 -46c0 -0.666992 -0.333008 -4.66699 -1 -12
s-1 -11.333 -1 -12h-66c0 0.666992 0.166992 3.16699 0.5 7.5s0.833008 8.83301 1.5 13.5l2 13.5c0.666992 4.33301 1 6.83301 1 7.5c4.66699 40 17.167 68.333 37.5 85s43.833 25 70.5 25c23.333 0 41.666 -5.5 54.999 -16.5s24.5 -22.833 33.5 -35.5
s16.833 -24.5 23.5 -35.5s14.667 -16.5 24 -16.5h6c11.333 0 19.333 6.83301 24 20.5s8 28.834 10 45.501c0.666992 0.666992 1.33398 4.83398 2.00098 12.501s1 11.834 1 12.501h66c0 -0.666992 -0.166992 -3.16699 -0.5 -7.5s-0.833008 -8.83301 -1.5 -13.5
s-1.16699 -9.16699 -1.5 -13.5s-0.5 -6.83301 -0.5 -7.5c-5.33301 -40 -18.166 -68.167 -38.499 -84.5s-43.833 -24.5 -70.5 -24.5z" />
    <glyph glyph-name="utilde" unicode="&#x169;" horiz-adv-x="562" 
d="M227 -8c-52.667 0 -91.333 15.6689 -116 47.002s-37 77 -37 137v321h101v-305c0 -42 6.66699 -72 20 -90s34.333 -27 63 -27c32.667 0 60.667 14.833 84 44.5s36 67.5 38 113.5v264h101v-497h-94v58l3 77h-6c-2 -12.667 -6.66699 -27.334 -14 -44.001
s-17.333 -32.334 -30 -47.001s-28.5 -27 -47.5 -37s-40.833 -15 -65.5 -15zM347.001 578.002c-24.667 0 -43.833 5.3291 -57.5 15.9961s-24.667 22.5 -33 35.5l-22 35.5c-6.33301 10.667 -14.5 16 -24.5 16h-7c-10.667 0 -18.5 -7 -23.5 -21s-8.5 -29.333 -10.5 -46l-2 -23
h-66c0 0.666992 0.333008 3 1 7s1.16699 8.33301 1.5 13s0.833008 9 1.5 13s1 6.33301 1 7c4.66699 40.667 17.167 69.334 37.5 86.001s43.833 25 70.5 25c22.667 0 40.834 -5.5 54.501 -16.5s24.834 -22.833 33.501 -35.5s16.167 -24.5 22.5 -35.5
s14.166 -16.5 23.499 -16.5h7c10.667 0 18.5 6.83301 23.5 20.5s8.5 28.834 10.5 45.501c0 0.666992 0.333008 4.83398 1 12.501s1 11.834 1 12.501h66c0 -0.666992 -0.333008 -3.16699 -1 -7.5s-1.16699 -8.83301 -1.5 -13.5s-0.833008 -9.16699 -1.5 -13.5
s-1 -6.83301 -1 -7.5c-4.66699 -40.667 -17.334 -69 -38.001 -85s-43 -24 -67 -24z" />
    <glyph glyph-name="Umacron" unicode="&#x16a;" horiz-adv-x="672" 
d="M338 -13c-84.667 0 -148.666 23.333 -191.999 70s-65 116.667 -65 210v392h102v-389c0 -66.667 12.667 -115.667 38 -147s63.666 -47 114.999 -47c52 0 90.833 15.5 116.5 46.5s38.5 80.167 38.5 147.5v389h101v-392c0 -96 -23.167 -166.667 -69.5 -212
s-107.833 -68 -184.5 -68zM200.001 742v72h271v-72h-271z" />
    <glyph glyph-name="umacron" unicode="&#x16b;" horiz-adv-x="562" 
d="M227 -8c-52.667 0 -91.333 15.6689 -116 47.002s-37 77 -37 137v321h101v-305c0 -42 6.66699 -72 20 -90s34.333 -27 63 -27c32.667 0 60.667 14.833 84 44.5s36 67.5 38 113.5v264h101v-497h-94v58l3 77h-6c-2 -12.667 -6.66699 -27.334 -14 -44.001
s-17.333 -32.334 -30 -47.001s-28.5 -27 -47.5 -37s-40.833 -15 -65.5 -15zM143.001 602.002v73h272v-73h-272z" />
    <glyph glyph-name="Ubreve" unicode="&#x16c;" horiz-adv-x="672" 
d="M338 -13c-84.667 0 -148.666 23.333 -191.999 70s-65 116.667 -65 210v392h102v-389c0 -66.667 12.667 -115.667 38 -147s63.666 -47 114.999 -47c52 0 90.833 15.5 116.5 46.5s38.5 80.167 38.5 147.5v389h101v-392c0 -96 -23.167 -166.667 -69.5 -212
s-107.833 -68 -184.5 -68zM336.001 732c-56 0 -97.834 15 -125.501 45s-40.834 65 -39.501 105l79 1c-0.666992 -22.667 5.83301 -42.834 19.5 -60.501s35.834 -26.5 66.501 -26.5s52.667 8.83301 66 26.5s20 37.834 20 60.501l79 -1c0.666992 -40 -12.666 -75 -39.999 -105
s-69 -45 -125 -45z" />
    <glyph glyph-name="ubreve" unicode="&#x16d;" horiz-adv-x="562" 
d="M227 -8c-52.667 0 -91.333 15.6689 -116 47.002s-37 77 -37 137v321h101v-305c0 -42 6.66699 -72 20 -90s34.333 -27 63 -27c32.667 0 60.667 14.833 84 44.5s36 67.5 38 113.5v264h101v-497h-94v58l3 77h-6c-2 -12.667 -6.66699 -27.334 -14 -44.001
s-17.333 -32.334 -30 -47.001s-28.5 -27 -47.5 -37s-40.833 -15 -65.5 -15zM279.001 577.002c-55.333 0 -96.333 15.834 -123 47.501s-39.667 71.5 -39 119.5h79c-0.666992 -28.667 5.5 -52.834 18.5 -72.501s34.5 -29.5 64.5 -29.5s51.333 9.5 64 28.5s19 43.5 19 73.5h79
c0.666992 -48 -12.333 -87.833 -39 -119.5s-67.667 -47.5 -123 -47.5z" />
    <glyph glyph-name="Uring" unicode="&#x16e;" horiz-adv-x="672" 
d="M338 -13c-84.667 0 -148.666 23.333 -191.999 70s-65 116.667 -65 210v392h102v-389c0 -66.667 12.667 -115.667 38 -147s63.666 -47 114.999 -47c52 0 90.833 15.5 116.5 46.5s38.5 80.167 38.5 147.5v389h101v-392c0 -96 -23.167 -166.667 -69.5 -212
s-107.833 -68 -184.5 -68zM336.001 730c-38.667 0 -70.5 11.333 -95.5 34s-37.5 51.667 -37.5 87c0 36 12.5 65.333 37.5 88s56.833 34 95.5 34s70.667 -11.333 96 -34s38 -52 38 -88c0 -35.333 -12.667 -64.333 -38 -87s-57.333 -34 -96 -34zM336.001 779
c21.333 0 39.166 6.33301 53.499 19s21.5 30.334 21.5 53.001c0 22 -7.16699 39.5 -21.5 52.5s-32.166 19.5 -53.499 19.5s-39.166 -6.5 -53.499 -19.5s-21.5 -30.5 -21.5 -52.5c0 -22.667 7.16699 -40.334 21.5 -53.001s32.166 -19 53.499 -19z" />
    <glyph glyph-name="uring" unicode="&#x16f;" horiz-adv-x="562" 
d="M227 -8c-52.667 0 -91.333 15.6689 -116 47.002s-37 77 -37 137v321h101v-305c0 -42 6.66699 -72 20 -90s34.333 -27 63 -27c32.667 0 60.667 14.833 84 44.5s36 67.5 38 113.5v264h101v-497h-94v58l3 77h-6c-2 -12.667 -6.66699 -27.334 -14 -44.001
s-17.333 -32.334 -30 -47.001s-28.5 -27 -47.5 -37s-40.833 -15 -65.5 -15zM279.001 577.002c-38.667 0 -70.5 11.167 -95.5 33.5s-37.5 51.166 -37.5 86.499c0 36 12.5 65.333 37.5 88s56.833 34 95.5 34s70.667 -11.333 96 -34s38 -52 38 -88
c0 -35.333 -12.667 -64.166 -38 -86.499s-57.333 -33.5 -96 -33.5zM279.001 625.002c21.333 0 39.166 6.33301 53.499 19s21.5 30.334 21.5 53.001c0 21.333 -7.16699 38.666 -21.5 51.999s-32.166 20 -53.499 20s-39.166 -6.66699 -53.499 -20s-21.5 -30.666 -21.5 -51.999
c0 -22.667 7.16699 -40.334 21.5 -53.001s32.166 -19 53.499 -19z" />
    <glyph glyph-name="Uhungarumlaut" unicode="&#x170;" horiz-adv-x="672" 
d="M338 -13c-84.667 0 -148.666 23.333 -191.999 70s-65 116.667 -65 210v392h102v-389c0 -66.667 12.667 -115.667 38 -147s63.666 -47 114.999 -47c52 0 90.833 15.5 116.5 46.5s38.5 80.167 38.5 147.5v389h101v-392c0 -96 -23.167 -166.667 -69.5 -212
s-107.833 -68 -184.5 -68zM196.001 739l88 169h102v-13l-129 -156h-61zM418.001 739l87 169h106v-11l-133 -158h-60z" />
    <glyph glyph-name="uhungarumlaut" unicode="&#x171;" horiz-adv-x="562" 
d="M227 -8c-52.667 0 -91.333 15.6689 -116 47.002s-37 77 -37 137v321h101v-305c0 -42 6.66699 -72 20 -90s34.333 -27 63 -27c32.667 0 60.667 14.833 84 44.5s36 67.5 38 113.5v264h101v-497h-94v58l3 77h-6c-2 -12.667 -6.66699 -27.334 -14 -44.001
s-17.333 -32.334 -30 -47.001s-28.5 -27 -47.5 -37s-40.833 -15 -65.5 -15zM138.001 582.002l93 180h98v-13l-126 -167h-65zM358.001 582.002l91 180h102v-10l-129 -170h-64z" />
    <glyph glyph-name="Uogonek" unicode="&#x172;" horiz-adv-x="673" 
d="M386 -238c-38.667 0 -69.499 10.002 -92.499 30.002s-34.5 45 -34.5 75c0 24.667 7 47.167 21 67.5s32.333 37.833 55 52.5c-83.333 0.666992 -146.5 24.334 -189.5 71.001s-64.5 116.334 -64.5 209.001v392h102v-389c0 -66.667 12.667 -115.834 38 -147.501
s63.666 -47.5 114.999 -47.5c52 0 90.833 15.667 116.5 47s38.5 80.666 38.5 147.999v389h101v-392c0 -72 -13.333 -129.833 -40 -173.5s-63.334 -73.834 -110.001 -90.501h1c-30.667 -14 -55.334 -30.5 -74.001 -49.5s-28 -40.167 -28 -63.5
c0 -18.667 5.66699 -32.5 17 -41.5s26.333 -13.5 45 -13.5c12.667 0 22.334 0.5 29.001 1.5s12.334 2.83301 17.001 5.5v-71c-6.66699 -2.66699 -15.167 -4.83398 -25.5 -6.50098s-22.833 -2.5 -37.5 -2.5z" />
    <glyph glyph-name="uogonek" unicode="&#x173;" horiz-adv-x="562" 
d="M228 -8c-53.333 0 -92.3379 15.6689 -117.005 47.002s-37 77 -37 137v321h102v-305c0 -42 6.5 -72 19.5 -90s33.833 -27 62.5 -27c32.667 0 61 14.667 85 44s36.667 66.666 38 111.999v266h101v-497c-29.333 -12 -53.833 -27.5 -73.5 -46.5s-29.5 -40.5 -29.5 -64.5
c0 -18.667 5.33301 -32.334 16 -41.001s25.334 -13 44.001 -13c12.667 0 22.334 0.5 29.001 1.5s12.334 2.83301 17.001 5.5v-71c-7.33301 -2.66699 -16 -4.83398 -26 -6.50098s-22.333 -2.5 -37 -2.5c-38.667 0 -69.167 9.83301 -91.5 29.5s-33.5 44.5 -33.5 74.5
c0 29.333 9.66699 55.333 29 78s44 41.334 74 56.001h-13v57l2 82l-3 5c-1.33301 -14.667 -5.66602 -31 -12.999 -49s-17.666 -34.5 -30.999 -49.5s-29.5 -27.667 -48.5 -38s-40.833 -15.5 -65.5 -15.5z" />
    <glyph glyph-name="Wcircumflex" unicode="&#x174;" horiz-adv-x="884" 
d="M197 0l-183 659h106l103 -423l25 -157h5l26 157l111 423h106l111 -423l26 -157h5l26 157l101 423h105l-183 -659h-107l-116 442l-21 138h-5l-22 -138l-112 -442h-107zM265 740v8l127 155h85l128 -155v-8h-90l-53 74l-24 41h-6l-24 -41l-53 -74h-90z" />
    <glyph glyph-name="wcircumflex" unicode="&#x175;" horiz-adv-x="753" 
d="M160 0l-140 497h105l64 -274l24 -134h4l33 135l80 273h103l73 -273l32 -136h4l26 136l68 273h100l-148 -497h-104l-82 296l-23 113h-4l-24 -113l-88 -296h-103zM209 583v8l127 169h83l128 -169v-8h-90l-53 86l-24 43h-5l-25 -43l-53 -86h-88z" />
    <glyph glyph-name="Ycircumflex" unicode="&#x176;" horiz-adv-x="570" 
d="M234 0v260l-229 399h116l106 -195l54 -137h9l54 137l104 195h118l-230 -399v-260h-102zM115 740v8l127 155h85l128 -155v-8h-90l-53 74l-24 41h-6l-24 -41l-53 -74h-90z" />
    <glyph glyph-name="ycircumflex" unicode="&#x177;" horiz-adv-x="483" 
d="M107 -202c-10.667 0 -21.6689 1.16602 -33.002 3.49902s-19.666 4.83301 -24.999 7.5v74c6.66699 -1.33301 14.834 -2.66602 24.501 -3.99902s18.5 -2 26.5 -2c28 0 49.5 8 64.5 24s28.167 44.333 39.5 85l-193 511h106l100 -303l27 -114h6l26 114l94 303h104l-192 -545
c-16 -45.333 -36.833 -82.333 -62.5 -111s-63.167 -43 -112.5 -43zM73.998 581.999v8l127 169h83l128 -169v-8h-90l-53 86l-24 43h-5l-25 -43l-53 -86h-88z" />
    <glyph glyph-name="Ydieresis" unicode="&#x178;" horiz-adv-x="570" 
d="M234 0v260l-229 399h116l106 -195l54 -137h9l54 137l104 195h118l-230 -399v-260h-102zM143 740c-2 0 -3.5 0.666992 -4.5 2s-1.5 3 -1.5 5v99c0 2.66699 0.666992 4.66699 2 6s3.33301 2 6 2h76c2 0 3.66699 -0.666992 5 -2s2 -3.33301 2 -6v-99
c0 -2 -0.666992 -3.66699 -2 -5s-3 -2 -5 -2h-78zM348 740c-2 0 -3.5 0.666992 -4.5 2s-1.5 3 -1.5 5v99c0 2.66699 0.666992 4.66699 2 6s3.33301 2 6 2h76c2 0 3.66699 -0.666992 5 -2s2 -3.33301 2 -6v-99c0 -2 -0.666992 -3.66699 -2 -5s-3 -2 -5 -2h-78z" />
    <glyph glyph-name="Zacute" unicode="&#x179;" horiz-adv-x="561" 
d="M36 0v81l285 393l96 105l-130 -11h-228v91h453v-83l-284 -395l-98 -102l130 9h260v-88h-484zM240 738l106 167h114v-12l-154 -155h-66z" />
    <glyph glyph-name="zacute" unicode="&#x17a;" horiz-adv-x="477" 
d="M37 0v73l217 273l79 71v3l-84 -7h-193v84h377v-76l-221 -277l-69 -66v-3l85 9h209v-84h-400zM213 583l104 177h111v-13l-150 -164h-65z" />
    <glyph glyph-name="Zdotaccent" unicode="&#x17b;" horiz-adv-x="561" 
d="M36 0v81l285 393l96 105l-130 -11h-228v91h453v-83l-284 -395l-98 -102l130 9h260v-88h-484zM227 740c-2 0 -3.5 0.666992 -4.5 2s-1.5 3 -1.5 5v99c0 2.66699 0.666992 4.66699 2 6s3.33301 2 6 2h95c2.66699 0 4.5 -0.666992 5.5 -2s1.5 -3.33301 1.5 -6v-99
c0 -2 -0.5 -3.66699 -1.5 -5s-2.83301 -2 -5.5 -2h-97z" />
    <glyph glyph-name="zdotaccent" unicode="&#x17c;" horiz-adv-x="477" 
d="M37 0v73l217 273l79 71v3l-84 -7h-193v84h377v-76l-221 -277l-69 -66v-3l85 9h209v-84h-400zM197 583c-2 0 -3.5 0.666992 -4.5 2s-1.5 3 -1.5 5v99c0 2.66699 0.666992 4.66699 2 6s3.33301 2 6 2h95c2.66699 0 4.5 -0.666992 5.5 -2s1.5 -3.33301 1.5 -6v-99
c0 -2 -0.5 -3.66699 -1.5 -5s-2.83301 -2 -5.5 -2h-97z" />
    <glyph glyph-name="Zcaron" unicode="&#x17d;" horiz-adv-x="561" 
d="M36 0v81l285 393l96 105l-130 -11h-228v91h453v-83l-284 -395l-98 -102l130 9h260v-88h-484zM233 740l-127 160v8h89l54 -78l24 -42h6l24 42l53 78h90v-8l-128 -160h-85z" />
    <glyph glyph-name="zcaron" unicode="&#x17e;" horiz-adv-x="477" 
d="M37 0v73l217 273l79 71v3l-84 -7h-193v84h377v-76l-221 -277l-69 -66v-3l85 9h209v-84h-400zM205 583l-128 169v8h90l54 -87l24 -42h5l25 42l52 87h89v-8l-128 -169h-83z" />
    <glyph glyph-name="uni018F" unicode="&#x18f;" horiz-adv-x="705" 
d="M350 -13c-92 0 -165.163 28 -219.496 84s-81.5 140 -81.5 252v15h502c-0.666992 76.667 -18.334 137.5 -53.001 182.5s-84 67.5 -148 67.5c-46 0 -84.833 -10 -116.5 -30s-53.834 -49 -66.501 -87l-105 28c20 52.667 54.667 94.667 104 126s109.666 47 180.999 47
c49.333 0 93.166 -8.5 131.499 -25.5s70.5 -40.667 96.5 -71s45.833 -66.5 59.5 -108.5s20.5 -87.667 20.5 -137c0 -53.333 -7.5 -101.333 -22.5 -144s-36 -78.667 -63 -108s-59.167 -51.833 -96.5 -67.5s-78.333 -23.5 -123 -23.5zM345.004 68
c54.667 0 99.8301 16.833 135.497 50.5s57.834 81.5 66.501 143.5h-392c6.66699 -63.333 25.334 -111.5 56.001 -144.5s75.334 -49.5 134.001 -49.5z" />
    <glyph glyph-name="florin" unicode="&#x192;" horiz-adv-x="561" 
d="M131 336l-0.000976562 79h125l28 103c12.667 52 30.834 88.5 54.501 109.5s58.5 31.5 104.5 31.5h94v-80h-54c-32 0 -55.667 -4.16699 -71 -12.5s-28.333 -31.833 -39 -70.5l-21 -81h124v-79h-145l-49 -190c-12.667 -51.333 -30.5 -88.5 -53.5 -111.5
s-58.5 -34.5 -106.5 -34.5h-71v80h35c28 0 49.833 4 65.5 12s28.167 30 37.5 66l47 178h-105z" />
    <glyph glyph-name="Ohorn" unicode="&#x1a0;" horiz-adv-x="743" 
d="M353 -12c-47.333 0 -89.8301 7.99902 -127.497 23.999s-69.334 38.667 -95.001 68s-45.334 65.166 -59.001 107.499s-20.5 89.5 -20.5 141.5c0 51.333 6.83301 98.166 20.5 140.499s33.667 78.5 60 108.5s58.666 53.167 96.999 69.5s81.833 24.5 130.5 24.5
c54 0 101.667 -10.667 143 -32s74.666 -51 99.999 -89c20.667 10.667 35.834 24.334 45.501 41.001s14.834 34 15.501 52c0.666992 18.667 -2.83301 35.334 -10.5 50.001s-18.5 27.667 -32.5 39l67 37c17.333 -10.667 31.333 -25 42 -43s16 -39.333 16 -64
c0 -12.667 -1.83301 -26.667 -5.5 -42s-10 -30 -19 -44s-21.333 -27 -37 -39s-35.167 -21.333 -58.5 -28c12 -25.333 21.167 -53.333 27.5 -84s9.5 -63 9.5 -97c0 -52 -7 -99.167 -21 -141.5s-34 -78.166 -60 -107.499s-58.333 -52 -97 -68s-82.334 -24 -131.001 -24z
M355.003 69.999c64 0 113.501 22.665 148.501 67.998s52.5 109 52.5 191v2c0 80.667 -17.5 143.834 -52.5 189.501s-84.167 68.5 -147.5 68.5s-112.833 -22.667 -148.5 -68s-53.5 -108.666 -53.5 -189.999v-3c0 -80 17.667 -143 53 -189s84.666 -69 147.999 -69z" />
    <glyph glyph-name="ohorn" unicode="&#x1a1;" horiz-adv-x="646" 
d="M287 -11c-78.667 0 -138.831 23.834 -180.498 71.501s-62.5 110.834 -62.5 189.501c0 36.667 5.66699 71 17 103s27.833 59.667 49.5 83s48 41.666 79 54.999s66.167 20 105.5 20c50 0 93 -10.5 129 -31.5s63.333 -49.833 82 -86.5c22 10.667 37.833 24.667 47.5 42
s14.834 35 15.501 53c0.666992 18.667 -2.83301 35.667 -10.5 51s-18.834 28.666 -33.501 39.999l67 37c17.333 -10.667 31.5 -25.5 42.5 -44.5s16.5 -40.833 16.5 -65.5c0 -14 -2.16699 -29 -6.5 -45s-11.5 -31 -21.5 -45s-23.167 -26.833 -39.5 -38.5
s-36.833 -20.5 -61.5 -26.5c4.66699 -14.667 8.16699 -30.334 10.5 -47.001s3.5 -33.667 3.5 -51c0 -37.333 -5.83301 -72.166 -17.5 -104.499s-28.334 -60.333 -50.001 -84s-47.834 -42.167 -78.501 -55.5s-65 -20 -103 -20zM288.003 65.001c46 0 81.333 17.168 106 51.501
s37 79.166 37 134.499c0 54.667 -11.667 99 -35 133s-57.666 51 -102.999 51c-46.667 0 -82.334 -17 -107.001 -51s-37 -78 -37 -132c0 -55.333 11.833 -100.333 35.5 -135s58.167 -52 103.5 -52z" />
    <glyph glyph-name="Uhorn" unicode="&#x1af;" horiz-adv-x="760" 
d="M338 -13c-84 0 -147.834 23.333 -191.501 70s-65.5 116.667 -65.5 210v392h102v-387c0 -66 12.833 -115.167 38.5 -147.5s64.167 -48.5 115.5 -48.5c52 0 90.667 16 116 48s38 81 38 147v388h101v-118c32.667 8.66699 56 22.5 70 41.5s21.333 39.5 22 61.5
c0.666992 18.667 -2.66602 35.334 -9.99902 50.001s-18 27.667 -32 39l66 37c18 -10.667 32.333 -25.667 43 -45s16 -41.333 16 -66c0 -16.667 -3.16699 -33.834 -9.5 -51.501s-16.333 -34 -30 -49s-31.667 -28.167 -54 -39.5s-49.5 -19 -81.5 -23v-229
c0 -96 -23 -166.667 -69 -212s-107.667 -68 -185 -68z" />
    <glyph glyph-name="uhorn" unicode="&#x1b0;" horiz-adv-x="644" 
d="M227 -8c-52.667 0 -91.332 15.6699 -115.999 47.0029s-37 77 -37 137v321h101v-305c0 -42 6.66699 -72 20 -90s34.333 -27 63 -27c32.667 0 60.667 14.833 84 44.5s36 67.5 38 113.5v264h101v-112c30.667 9.33301 52.5 23.666 65.5 42.999s19.833 39.333 20.5 60
c0.666992 18.667 -2.83301 35.667 -10.5 51s-18.834 28.666 -33.501 39.999l67 37c17.333 -10.667 31.5 -25.5 42.5 -44.5s16.5 -40.833 16.5 -65.5c0 -16 -2.66699 -32.833 -8 -50.5s-14.5 -34 -27.5 -49s-30.333 -28.167 -52 -39.5s-48.5 -18.666 -80.5 -21.999v-345h-94
v58l3 77h-6c-2 -12.667 -6.66699 -27.334 -14 -44.001s-17.333 -32.334 -30 -47.001s-28.5 -27 -47.5 -37s-40.833 -15 -65.5 -15z" />
    <glyph glyph-name="Aringacute" unicode="&#x1fa;" horiz-adv-x="616" 
d="M10 0l232 653c-18 8 -32 19.833 -42 35.5s-15 34.834 -15 57.501c0 32.667 10.333 58.5 31 77.5s49 29.167 85 30.5l47 107h86v-11l-77 -102c24.667 -6.66699 43.667 -18.667 57 -36s20 -39.333 20 -66c0 -22.667 -5 -41.834 -15 -57.501s-23.667 -27.5 -41 -35.5
l228 -653h-106l-60 179h-265l-60 -179h-105zM275 476l-73 -214h212l-71 214l-31 118h-4zM310 685c20 0 36 5.66699 48 17s18 26.666 18 45.999c0 18.667 -6 33.667 -18 45s-28 17 -48 17c-20.667 0 -37 -5.66699 -49 -17s-18 -26.333 -18 -45
c0 -19.333 6 -34.666 18 -45.999s28.333 -17 49 -17z" />
    <glyph glyph-name="aringacute" unicode="&#x1fb;" horiz-adv-x="528" 
d="M380 0c-6 6.66699 -11.1709 18.832 -15.5039 36.499s-6.83301 41.5 -7.5 71.5c-10.667 -34.667 -31.167 -63 -61.5 -85s-65.166 -32.667 -104.499 -32c-48 0 -84.833 12.833 -110.5 38.5s-38.5 58.5 -38.5 98.5c0.666992 46 17 80.333 49 103s74 39 126 49
c48 10 82.833 18.5 104.5 25.5s32.834 15.167 33.501 24.5v8c0 30.667 -8.16699 53.834 -24.5 69.501s-41.833 23.5 -76.5 23.5c-30.667 0 -57.167 -7.5 -79.5 -22.5s-38.5 -32.833 -48.5 -53.5l-77 40c17.333 34 45.333 61.333 84 82s82.334 31 131.001 31
c62.667 0 109.834 -15 141.501 -45s47.5 -74.667 47.5 -134v-165c0 -52 2.66699 -90.333 8 -115s12 -41 20 -49h-101zM258.996 576.998c-38.667 0 -69.167 8.83203 -91.5 26.499s-33.5 43.5 -33.5 77.5s10.333 60.333 31 79s49.667 28.334 87 29.001l52 116h95v-11l-90 -112
c22.667 -6.66699 40.5 -18.5 53.5 -35.5s19.5 -38.833 19.5 -65.5c0 -34 -11 -59.833 -33 -77.5s-52 -26.5 -90 -26.5zM219.996 63.9971c34 0 63.832 10.834 89.499 32.501s40.834 49.5 45.501 83.5v100c-4.66699 -8 -14.667 -15.5 -30 -22.5s-33.333 -12.833 -54 -17.5
c-42 -10 -73.833 -22.833 -95.5 -38.5s-32.5 -36.834 -32.5 -63.501c0 -24.667 7.66699 -43.167 23 -55.5s33.333 -18.5 54 -18.5zM258.995 620.998c20 0 35.833 5.66699 47.5 17s17.5 26.666 17.5 45.999c0 18.667 -5.83301 33.667 -17.5 45s-27.5 17 -47.5 17
c-20.667 0 -37 -5.66699 -49 -17s-18 -26.333 -18 -45c0 -19.333 6 -34.666 18 -45.999s28.333 -17 49 -17z" />
    <glyph glyph-name="AEacute" unicode="&#x1fc;" horiz-adv-x="893" 
d="M-7 0l341 659h509v-87h-321v-191h231v-85h-231v-210h328v-86h-427v187h-221l-95 -187h-114zM374 534l-130 -263h179v345h-14zM466 738l106 167h114v-12l-154 -155h-66z" />
    <glyph glyph-name="aeacute" unicode="&#x1fd;" horiz-adv-x="842" 
d="M193 -9c-49.333 0 -86.833 12.832 -112.5 38.499s-38.5 58.5 -38.5 98.5c0.666992 46 16.834 80.167 48.501 102.5s73.834 38.833 126.501 49.5c49.333 10.667 84.5 19.334 105.5 26.001s31.833 14.667 32.5 24v8c0 30.667 -8.16699 53.834 -24.5 69.501
s-41.833 23.5 -76.5 23.5c-29.333 0 -55.333 -7.16699 -78 -21.5s-39.334 -32.5 -50.001 -54.5l-77 40c17.333 34.667 45.666 62.167 84.999 82.5s83 30.5 131 30.5c40 0 72.5 -6.16699 97.5 -18.5s43.833 -30.833 56.5 -55.5c18.667 24.667 42 43.5 70 56.5
s59.333 19.5 94 19.5c38.667 0 71.667 -6.33301 99 -19s49.666 -29.834 66.999 -51.501s30 -47.5 38 -77.5s12 -62.333 12 -97c0 -4 -0.166992 -10.5 -0.5 -19.5s-0.833008 -14.833 -1.5 -17.5h-345c2.66699 -56 17.167 -97 43.5 -123s60.833 -39 103.5 -39
c30 0 54.333 7.33301 73 22s32.334 30 41.001 46l69 -49c-18 -27.333 -42.5 -50.166 -73.5 -68.499s-70.5 -27.5 -118.5 -27.5c-54 0 -98.5 12.667 -133.5 38s-59.833 60.666 -74.5 105.999c-14.667 -51.333 -40.167 -87.833 -76.5 -109.5s-73.833 -32.5 -112.5 -32.5z
M221 63.999c34 0 63.333 10.502 88 31.502s40 48.167 46 81.5v105c-4 -6 -11.667 -12.833 -23 -20.5s-31.666 -14.834 -60.999 -21.501c-42 -10 -73.833 -22.833 -95.5 -38.5s-32.5 -36.834 -32.5 -63.501c0 -24.667 7.66699 -43.167 23 -55.5s33.666 -18.5 54.999 -18.5z
M581 435.001c-35.333 0 -64.5 -11.333 -87.5 -34s-35.833 -58.667 -38.5 -108h242c-0.666992 44 -9.16699 78.667 -25.5 104s-46.5 38 -90.5 38zM385 583.001l104 177h111v-13l-150 -164h-65z" />
    <glyph glyph-name="Oslashacute" unicode="&#x1fe;" horiz-adv-x="732" 
d="M363 -12c-40 0 -76.3291 5.50098 -108.996 16.501s-61.334 26.833 -86.001 47.5l-50 -58h-89l95 105c-20.667 28.667 -36.334 62.5 -47.001 101.5s-16 81.833 -16 128.5c0 51.333 6.83301 98.166 20.5 140.499s33.667 78.5 60 108.5s58.666 53.167 96.999 69.5
s81.833 24.5 130.5 24.5c39.333 0 75.5 -5.83301 108.5 -17.5s61.833 -28.167 86.5 -49.5l53 60h89l-98 -108c20.667 -28.667 36.5 -62.334 47.5 -101.001s16.5 -81 16.5 -127c0 -52 -7 -99.167 -21 -141.5s-34 -78.166 -60 -107.499s-58.333 -52 -97 -68
s-82.334 -24 -131.001 -24zM164.004 328.001c0 -32 2.83203 -61.334 8.49902 -88.001s13.834 -50.334 24.501 -71.001l307 363c-16.667 18.667 -36.667 32.834 -60 42.501s-49.333 14.5 -78 14.5c-63.333 0 -112.833 -22.667 -148.5 -68s-53.5 -108.666 -53.5 -189.999v-3z
M365.003 70c64 0 113.5 22.667 148.5 68s52.5 109 52.5 191v2c0 30.667 -2.66699 59 -8 85s-13 49.333 -23 70l-308 -360c16.667 -18 36.667 -31.833 60 -41.5s49.333 -14.5 78 -14.5zM331.003 738l106 167h114v-12l-154 -155h-66z" />
    <glyph glyph-name="oslashacute" unicode="&#x1ff;" horiz-adv-x="586" 
d="M290 -11c-30.667 0 -58.6689 3.66602 -84.002 10.999s-47.333 18.333 -66 33l-59 -67l-48 38l64 73c-15.333 22 -27 47.667 -35 77s-12 61.333 -12 96c0 36.667 5.5 70.834 16.5 102.501s27 59.167 48 82.5s46.833 41.666 77.5 54.999s65.334 20 104.001 20
c30.667 0 58.5 -3.83301 83.5 -11.5s46.833 -18.834 65.5 -33.501l62 70l47 -41l-65 -75c14.667 -21.333 25.834 -46.166 33.501 -74.499s11.5 -58.833 11.5 -91.5c0 -37.333 -5.83301 -72.166 -17.5 -104.499s-28 -60.333 -49 -84s-46.5 -42.167 -76.5 -55.5
s-63.667 -20 -101 -20zM153.998 251.999c0 -23.333 1.33105 -44.332 3.99805 -62.999s6.33398 -35 11.001 -49l222 261c-10.667 11.333 -24 19.666 -40 24.999s-34.667 8 -56 8c-45.333 0 -80.166 -16.833 -104.499 -50.5s-36.5 -77.5 -36.5 -131.5zM290.996 65
c44 0 78 17.002 102 51.002s36 79 36 135c0 21.333 -1 40.666 -3 57.999s-5.33301 32.666 -10 45.999l-220 -259c10.667 -10.667 24 -18.5 40 -23.5s34.333 -7.5 55 -7.5zM265.996 583.002l104 177h111v-13l-150 -164h-65z" />
    <glyph glyph-name="Scommaaccent" unicode="&#x218;" horiz-adv-x="566" 
d="M278 -11c-60 0 -111.168 13.334 -153.501 40.001s-71.166 66.667 -86.499 120l90 36c10.667 -38.667 30.167 -67.167 58.5 -85.5s60.166 -27.5 95.499 -27.5c41.333 0 73.833 9.16699 97.5 27.5s35.5 43.166 35.5 74.499c0 34 -14 59 -42 75s-69 32.333 -123 49
c-59.333 18.667 -105.5 41.834 -138.5 69.501s-49.167 69.167 -48.5 124.5c0 51.333 20.667 94 62 128s95.666 51 162.999 51c60 0 109.667 -12.5 149 -37.5s65.333 -61.5 78 -109.5l-86 -37c-8.66699 34 -25.167 59.5 -49.5 76.5s-54.833 25.5 -91.5 25.5
c-42 0 -73.5 -9 -94.5 -27s-31.5 -39.333 -31.5 -64c0 -30.667 10.333 -53.667 31 -69s59.334 -31.666 116.001 -48.999c28.667 -8.66699 55.834 -18.334 81.501 -29.001s48 -23.334 67 -38.001s34 -32.334 45 -53.001s16.5 -45.667 16.5 -75s-6 -56.166 -18 -80.499
s-28.5 -45 -49.5 -62s-46.333 -30.167 -76 -39.5s-62.167 -14 -97.5 -14zM328.999 -144.999c0 -25.333 -3.16797 -46.3291 -9.50098 -62.9961s-14.333 -29.834 -24 -39.501s-20.667 -16.834 -33 -21.501s-24.166 -8 -35.499 -10l-13 20c16 5.33301 28.333 14.166 37 26.499
s13.667 29.166 15 50.499h-40c-2 0 -3.5 0.5 -4.5 1.5s-1.5 2.83301 -1.5 5.5v86c0 2.66699 1 4.66699 3 6s4 2 6 2h93c2 0 3.66699 -0.666992 5 -2s2 -3.33301 2 -6v-56z" />
    <glyph glyph-name="scommaaccent" unicode="&#x219;" horiz-adv-x="464" 
d="M233 -9c-40.667 0 -79.002 8.33496 -115.002 25.002s-63.667 42 -83 76l66 50c16.667 -26.667 36.667 -46.167 60 -58.5s48.333 -18.5 75 -18.5c24.667 0 45.167 5.5 61.5 16.5s24.5 26.833 24.5 47.5c0 24 -12.167 42.167 -36.5 54.5s-54.833 24.833 -91.5 37.5
c-17.333 6 -34.333 13 -51 21s-31.5 17.5 -44.5 28.5s-23.5 24.167 -31.5 39.5s-12 33.666 -12 54.999c0 42 17 76.333 51 103s78 40 132 40c44.667 0 81.334 -8.16699 110.001 -24.5s51.334 -36.833 68.001 -61.5l-66 -53c-8 14.667 -21.5 29.167 -40.5 43.5
s-43.167 21.5 -72.5 21.5c-24.667 0 -44.667 -5.83301 -60 -17.5s-23 -26.167 -23 -43.5c0 -24.667 11.667 -42.834 35 -54.501s51.333 -23.167 84 -34.5c18.667 -6.66699 37 -14 55 -22s33.833 -17.667 47.5 -29s24.667 -25 33 -41s12.5 -35.667 12.5 -59
c0 -44.667 -17.5 -79.5 -52.5 -104.5s-80.167 -37.5 -135.5 -37.5zM279.998 -143.998c0 -25.333 -3.16797 -46.3291 -9.50098 -62.9961s-14.333 -29.834 -24 -39.501s-20.667 -16.834 -33 -21.501s-24.166 -8 -35.499 -10l-13 20c16 5.33301 28.333 14.166 37 26.499
s13.667 29.166 15 50.499h-40c-2 0 -3.5 0.5 -4.5 1.5s-1.5 2.83301 -1.5 5.5v86c0 2.66699 1 4.66699 3 6s4 2 6 2h93c2 0 3.66699 -0.666992 5 -2s2 -3.33301 2 -6v-56z" />
    <glyph glyph-name="uni021A" unicode="&#x21a;" horiz-adv-x="531" 
d="M25 569v90h481v-90h-189v-569h-102v569h-190zM320 -144c0 -25.333 -3.16797 -46.3291 -9.50098 -62.9961s-14.333 -29.834 -24 -39.501s-20.667 -16.834 -33 -21.501s-24.166 -8 -35.499 -10l-13 20c16 5.33301 28.333 14.166 37 26.499s13.667 29.166 15 50.499h-40
c-2 0 -3.5 0.5 -4.5 1.5s-1.5 2.83301 -1.5 5.5v86c0 2.66699 1 4.66699 3 6s4 2 6 2h93c2 0 3.66699 -0.666992 5 -2s2 -3.33301 2 -6v-56z" />
    <glyph glyph-name="tcommaaccent" unicode="&#x21b;" horiz-adv-x="366" 
d="M26 416v81h86v124l89 41v-128l-4 -37h130v-81h-130l4 -38v-226c0 -32 4.5 -52.833 13.5 -62.5s26.833 -14.5 53.5 -14.5c12.667 0 25.167 1.16699 37.5 3.5s24.833 5.5 37.5 9.5v-75c-14.667 -6 -31.667 -11 -51 -15s-38.333 -6 -57 -6c-45.333 0 -78 10.667 -98 32
s-30 59 -30 113v279h-81zM243 -144c0 -25.333 -3.16797 -46.3291 -9.50098 -62.9961s-14.333 -29.834 -24 -39.501s-20.667 -16.834 -33 -21.501s-24.166 -8 -35.499 -10l-13 20c16 5.33301 28.333 14.166 37 26.499s13.667 29.166 15 50.499h-40c-2 0 -3.5 0.5 -4.5 1.5
s-1.5 2.83301 -1.5 5.5v86c0 2.66699 1 4.66699 3 6s4 2 6 2h93c2 0 3.66699 -0.666992 5 -2s2 -3.33301 2 -6v-56z" />
    <glyph glyph-name="uni0237" unicode="&#x237;" horiz-adv-x="265" 
d="M36 -226c-10.667 0 -20.833 0.668945 -30.5 2.00195s-16.5 2.33301 -20.5 3v78c4.66699 -0.666992 10.5 -1.33398 17.5 -2.00098s12.833 -1 17.5 -1c24.667 0 42 6.16699 52 18.5s15 34.166 15 65.499v559h98v-558c0 -62 -12.333 -105 -37 -129s-62 -36 -112 -36z" />
    <glyph glyph-name="uni0259" unicode="&#x259;" horiz-adv-x="537" 
d="M260 -9c-38 0 -70.668 6.16699 -98.001 18.5s-49.666 29.5 -66.999 51.5s-30 48.167 -38 78.5s-12 63.166 -12 98.499v20.5c0 9.66699 0.333008 15.834 1 18.501h345c-3.33301 54.667 -17.5 94.667 -42.5 120s-58.5 38 -100.5 38
c-30.667 0 -55.334 -6.83301 -74.001 -20.5s-32.667 -28.834 -42 -45.501l-71 51c18.667 25.333 43.834 47.166 75.501 65.499s71.5 27.5 119.5 27.5c75.333 0 133.5 -23.167 174.5 -69.5s61.5 -109.166 61.5 -188.499c-0.666992 -81.333 -21.5 -145.666 -62.5 -192.999
s-97.5 -71 -169.5 -71zM263.999 65c34 0 62.333 11.833 85 35.5s36 60.5 40 110.5h-242c0.666992 -45.333 9.16699 -81 25.5 -107s46.833 -39 91.5 -39z" />
    <glyph glyph-name="uni02BB" unicode="&#x2bb;" horiz-adv-x="66" 
d="M-25 576c-2 0 -3.49805 0.667969 -4.49805 2.00098s-1.5 3.33301 -1.5 6v59c0 26.667 3.66699 49.5 11 68.5s16.666 34.5 27.999 46.5s23.833 21 37.5 27s27.167 9.33301 40.5 10l11 -23c-18.667 -5.33301 -33.5 -15.333 -44.5 -30s-17.5 -36.334 -19.5 -65.001h44
c2 0 3.5 -0.5 4.5 -1.5s1.5 -2.83301 1.5 -5.5v-86c0 -2.66699 -0.833008 -4.66699 -2.5 -6s-3.83398 -2 -6.50098 -2h-99z" />
    <glyph glyph-name="uni02BC" unicode="&#x2bc;" horiz-adv-x="66" 
d="M-4 575c-2.66699 0 -4.83203 0.500977 -6.49902 1.50098s-2.5 2.83301 -2.5 5.5v87c0 2 0.5 3.66699 1.5 5s2.5 2 4.5 2h44c-2 28.667 -8.5 50.167 -19.5 64.5s-26.167 24.166 -45.5 29.499l12 23c13.333 -0.666992 26.833 -4 40.5 -10s26.167 -14.833 37.5 -26.5
s20.666 -27 27.999 -46s11 -42.167 11 -69.5v-59c0 -2.66699 -0.5 -4.5 -1.5 -5.5s-2.5 -1.5 -4.5 -1.5h-99z" />
    <glyph glyph-name="circumflex" unicode="&#x2c6;" horiz-adv-x="370" 
d="M15 583v8l127 169h85l127 -169v-8h-90l-53 86l-24 43h-6l-24 -43l-54 -86h-88z" />
    <glyph glyph-name="caron" unicode="&#x2c7;" horiz-adv-x="365" 
d="M140 583l-128 169v8h90l54 -87l24 -42h6l24 42l53 87h89v-8l-128 -169h-84z" />
    <glyph glyph-name="uni02CA" unicode="&#x2ca;" horiz-adv-x="267" 
d="M20 567l112 173h115v-12l-160 -161h-67z" />
    <glyph glyph-name="uni02CB" unicode="&#x2cb;" horiz-adv-x="269" 
d="M181 567l-161 161v12h117l112 -173h-68z" />
    <glyph glyph-name="breve" unicode="&#x2d8;" horiz-adv-x="368" 
d="M184 565c-53.333 0 -93.8301 15.502 -121.497 46.502s-41.167 71.167 -40.5 120.5h80c-0.666992 -30.667 6.16602 -55.334 20.499 -74.001s34.833 -28 61.5 -28c27.333 0 48.166 9.16699 62.499 27.5s21.166 43.166 20.499 74.499h80
c0.666992 -49.333 -12.833 -89.5 -40.5 -120.5s-68.5 -46.5 -122.5 -46.5z" />
    <glyph glyph-name="dotaccent" unicode="&#x2d9;" horiz-adv-x="149" 
d="M26 585c-2 0 -3.5 0.5 -4.5 1.5s-1.5 2.5 -1.5 4.5v99c0 2.66699 0.666992 4.66699 2 6s3.33301 2 6 2h94c2 0 3.66699 -0.666992 5 -2s2 -3.33301 2 -6v-99c0 -2 -0.666992 -3.5 -2 -4.5s-3 -1.5 -5 -1.5h-96z" />
    <glyph glyph-name="ring" unicode="&#x2da;" horiz-adv-x="66" 
d="M33 577c-38.667 0 -70.667 11.167 -96 33.5s-38 51.166 -38 86.499c0 36 12.667 65.333 38 88s57.333 34 96 34s70.5 -11.333 95.5 -34s37.5 -52 37.5 -88c0 -35.333 -12.5 -64.166 -37.5 -86.499s-56.833 -33.5 -95.5 -33.5zM33 625c21.333 0 39.166 6.33301 53.499 19
s21.5 30.334 21.5 53.001c0 21.333 -7.16699 38.666 -21.5 51.999s-32.166 20 -53.499 20c-22 0 -40 -6.66699 -54 -20s-21 -30.666 -21 -51.999c0 -22.667 7 -40.334 21 -53.001s32 -19 54 -19z" />
    <glyph glyph-name="ogonek" unicode="&#x2db;" horiz-adv-x="230" 
d="M143 -225c-38 0 -67.999 9.49805 -89.999 28.498s-33 43.167 -33 72.5c0 36.667 16 68 48 94s71 46 117 60l20 -25c-32.667 -14 -58 -29.667 -76 -47s-27 -37 -27 -59c0 -17.333 5.16699 -30.166 15.5 -38.499s24.166 -12.5 41.499 -12.5c10.667 0 20.5 1 29.5 3
s15.833 4 20.5 6l1 -70c-8 -3.33301 -17.5 -6.16602 -28.5 -8.49902s-23.833 -3.5 -38.5 -3.5z" />
    <glyph glyph-name="tilde" unicode="&#x2dc;" horiz-adv-x="395" 
d="M265 578c-24 0 -42.8311 5.3291 -56.498 15.9961s-24.834 22.5 -33.501 35.5s-16.167 24.833 -22.5 35.5s-14.5 16 -24.5 16h-6c-11.333 0 -19.333 -7 -24 -21s-8 -29.333 -10 -46l-2 -23h-66c0 0.666992 0.333008 3 1 7s1.16699 8.33301 1.5 13s0.833008 9 1.5 13
s1 6.33301 1 7c4.66699 40.667 17 69.334 37 86.001s43.333 25 70 25c23.333 0 41.666 -5.5 54.999 -16.5s24.5 -22.833 33.5 -35.5s16.667 -24.5 23 -35.5s14.166 -16.5 23.499 -16.5h7c10.667 0 18.334 6.83301 23.001 20.5s8 28.834 10 45.501
c0 0.666992 0.333008 4.83398 1 12.501s1 11.834 1 12.501h66c0 -0.666992 -0.166992 -3.16699 -0.5 -7.5s-0.833008 -8.83301 -1.5 -13.5l-2 -13.5c-0.666992 -4.33301 -1 -6.83301 -1 -7.5c-4.66699 -40.667 -17.167 -69 -37.5 -85s-42.833 -24 -67.5 -24z" />
    <glyph glyph-name="hungarumlaut" unicode="&#x2dd;" horiz-adv-x="438" 
d="M20 567l93 173h99l-1 -15l-128 -158h-63zM224 567l90 173h104l-2 -12l-129 -161h-63z" />
    <glyph glyph-name="uni0300" unicode="&#x300;" 
d="M-31 583l-150 164v13h111l104 -177h-65z" />
    <glyph glyph-name="uni0301" unicode="&#x301;" 
d="M-34 583l104 177h111v-13l-150 -164h-65z" />
    <glyph glyph-name="uni0302" unicode="&#x302;" 
d="M-169 583v8l127 169h83l128 -169v-8h-90l-53 86l-24 43h-5l-25 -43l-53 -86h-88z" />
    </font>
</defs>
</svg>
