<?xml version="1.0" standalone="no"?>
<!DOCTYPE svg PUBLIC "-//W3C//DTD SVG 1.1//EN" "http://www.w3.org/Graphics/SVG/1.1/DTD/svg11.dtd" >
<svg>
<metadata>
Created by FontForge 20090914 at Sat Dec 11 02:57:46 2021
 By www-data
Copyright (c) 2017 by Joshua Darden, Inc. All rights reserved.
Halyard is a trademark of&#194;&#160;Joshua Darden, Inc.
</metadata>
<defs>
<font id="HalyardDisplayMedium" horiz-adv-x="0" >
  <font-face 
    font-family="Halyard Display Medium"
    font-weight="500"
    font-stretch="normal"
    units-per-em="1000"
    panose-1="0 0 0 0 0 0 0 0 0 0"
    ascent="800"
    descent="-200"
    x-height="472"
    cap-height="664"
    bbox="-195 -271.002 1190 1045"
    underline-thickness="0"
    underline-position="0"
    unicode-range="U+000D-U+FB04"
  />
<missing-glyph horiz-adv-x="730" 
d="M150 -70v891h430v-891h-430zM505 751h-280v-751h280v751z" />
    <glyph glyph-name=".notdef" horiz-adv-x="730" 
d="M150 -70v891h430v-891h-430zM505 751h-280v-751h280v751z" />
    <glyph glyph-name="NULL" 
 />
    <glyph glyph-name="NULL" 
 />
    <glyph glyph-name="CR" unicode="&#xd;" horiz-adv-x="157" 
 />
    <glyph glyph-name="space" unicode=" " horiz-adv-x="195" 
 />
    <glyph glyph-name="exclam" unicode="!" horiz-adv-x="235" 
d="M32 693h170v-3l-65 -475h-37l-68 475v3zM188 142v-142h-141v142h141z" />
    <glyph glyph-name="quotedbl" unicode="&#x22;" horiz-adv-x="356" 
d="M77 328c-0.666992 4 -3.16602 15.333 -7.49902 34l-14.5 60.5l-14.5 60c-4.33301 18.333 -6.5 29.5 -6.5 33.5v148h115v-148c0 -4 -2.16699 -15.167 -6.5 -33.5l-14 -60l-14.5 -60.5c-4.66699 -18.667 -7.33398 -30 -8.00098 -34h-29zM250.001 328
c0 4 -2.33301 15.333 -7 34l-14.5 60.5l-14 60c-4.33301 18.333 -6.5 29.5 -6.5 33.5v148h114v-148c0 -4 -2.16699 -15.167 -6.5 -33.5l-14 -60l-14 -60.5c-4.33301 -18.667 -6.83301 -30 -7.5 -34h-30z" />
    <glyph glyph-name="numbersign" unicode="#" horiz-adv-x="580" 
d="M560 664l-55 -154h67v-105h-105l-52 -146h95v-105h-132l-55 -154h-75l56 157h-153l-56 -157h-75l55 154h-67v105h104l53 146h-95v105h132l56 154h73l-56 -157h154l56 157h75zM240 407l-54 -150h153l54 150h-153z" />
    <glyph glyph-name="dollar" unicode="$" horiz-adv-x="534" 
d="M302 729l-0.00390625 -80.001c36.667 -4.66699 72.834 -15.167 108.501 -31.5s68.167 -39.5 97.5 -69.5l-76 -79c-29.333 26.667 -58 46.834 -86 60.501s-59 20.5 -93 20.5c-36 0 -65.167 -6.16699 -87.5 -18.5s-33.5 -29.5 -33.5 -51.5
c0 -24.667 13.333 -42.834 40 -54.501s65.667 -22.834 117 -33.501c24 -5.33301 49.333 -11.666 76 -18.999s51.167 -17.333 73.5 -30s40.833 -29.334 55.5 -50.001s22 -47.334 22 -80.001c0 -28 -5.66699 -53.167 -17 -75.5s-26.666 -41.5 -45.999 -57.5
s-42.166 -28.667 -68.499 -38s-54.5 -15 -84.5 -17v-80h-69v80c-47.333 4.66699 -90 16.834 -128 36.501s-72 45.167 -102 76.5l77 79c29.333 -30 60.5 -52.333 93.5 -67s68.167 -21.667 105.5 -21c34 0.666992 61.667 7.33398 83 20.001s32 30 32 52
c0 14 -3.5 25.333 -10.5 34s-17.167 16 -30.5 22s-29.833 11.333 -49.5 16s-42.167 10.334 -67.5 17.001c-23.333 6 -48 12.833 -74 20.5s-49.5 18 -70.5 31s-38.5 29.5 -52.5 49.5s-21 45.333 -21 76c0 25.333 5.66699 49 17 71s26.833 41 46.5 57
s42.834 28.833 69.501 38.5s54.667 15.5 84 17.5v78h69z" />
    <glyph glyph-name="percent" unicode="%" horiz-adv-x="684" 
d="M173 434c24.667 0 43.999 7.66699 57.999 23s21 36.333 21 63v2c0 26 -6.83301 46.333 -20.5 61s-32.5 22 -56.5 22c-23.333 0 -42.166 -7.5 -56.499 -22.5s-21.5 -35.167 -21.5 -60.5v-2c0 -26.667 6.66699 -47.667 20 -63s32 -23 56 -23zM507.999 57
c24.667 0 44 7.66699 58 23s21 36.333 21 63v2c0 26 -6.83301 46.333 -20.5 61s-32.5 22 -56.5 22s-43.167 -7.5 -57.5 -22.5s-21.5 -35.167 -21.5 -60.5v-2c0 -26.667 6.66699 -47.667 20 -63s32.333 -23 57 -23zM172.999 363c-46.667 0 -84.5 14.333 -113.5 43
s-43.5 67 -43.5 115c0 46.667 14.833 84.5 44.5 113.5s68.5 43.5 116.5 43.5c46 0 83.5 -14.5 112.5 -43.5s43.5 -66.833 43.5 -113.5s-14.833 -84.667 -44.5 -114s-68.167 -44 -115.5 -44zM630.999 664l-485 -664h-97l485 664h97zM507.999 -14
c-47.333 0 -85.334 14.333 -114.001 43s-43 67 -43 115c0 46.667 14.667 84.5 44 113.5s68.333 43.5 117 43.5c46 0 83.333 -14.5 112 -43.5s43 -66.833 43 -113.5s-14.667 -84.667 -44 -114s-67.666 -44 -114.999 -44z" />
    <glyph glyph-name="ampersand" unicode="&#x26;" horiz-adv-x="698" 
d="M259 -14c-36 0 -68.666 5.33496 -97.999 16.002s-54 25.167 -74 43.5s-35.333 40.166 -46 65.499s-16 52.333 -16 81c0 54 16.667 97 50 129s75.333 55 126 69c-12 19.333 -21.5 38.833 -28.5 58.5s-10.5 39.5 -10.5 59.5c0 50 18.333 91.333 55 124s83 49 139 49
c24 0 47 -3.83301 69 -11.5s41 -18.667 57 -33s28.833 -31.5 38.5 -51.5s14.5 -42 14.5 -66c0 -44 -14.333 -80.667 -43 -110s-68 -51.333 -118 -66l66 -75c4.66699 -6 11 -13.167 19 -21.5s16.333 -17.5 25 -27.5c15.333 22.667 29.333 48 42 76s24 58.333 34 91h121
c-14.667 -44.667 -32.667 -87.834 -54 -129.501s-46 -79.5 -74 -113.5l132 -143h-150l-58 66c-31.333 -24.667 -65.333 -44.167 -102 -58.5s-75.334 -21.5 -116.001 -21.5zM272.001 299.002l-19.002 20.998c-32 -8.66699 -57.667 -22.667 -77 -42s-29 -44.666 -29 -75.999
s11.333 -57.666 34 -78.999s53.667 -32 93 -32c24.667 0 48.334 4.16699 71.001 12.5s44.334 20.5 65.001 36.5l-49 56zM280.999 511c0 -15.333 3.00098 -30.665 9.00098 -45.998s16.333 -33.333 31 -54c34 7.33301 59.667 20.666 77 39.999s26 41.666 26 66.999
c0 22 -6.16699 39.5 -18.5 52.5s-28.833 19.5 -49.5 19.5c-22.667 0 -40.834 -7.16699 -54.501 -21.5s-20.5 -33.5 -20.5 -57.5z" />
    <glyph glyph-name="quotesingle" unicode="'" horiz-adv-x="183" 
d="M77 328c-0.666992 4 -3.16602 15.333 -7.49902 34l-14.5 60.5l-14.5 60c-4.33301 18.333 -6.5 29.5 -6.5 33.5v148h115v-148c0 -4 -2.16699 -15.167 -6.5 -33.5l-14 -60l-14.5 -60.5c-4.66699 -18.667 -7.33398 -30 -8.00098 -34h-29z" />
    <glyph glyph-name="parenleft" unicode="(" horiz-adv-x="340" 
d="M333 -75v-106c-55.333 6.66699 -103 23.5 -143 50.5s-72.833 59.833 -98.5 98.5s-44.5 81.5 -56.5 128.5s-18 93.833 -18 140.5v11c0 47.333 6 94.5 18 141.5s30.833 89.667 56.5 128s58.5 70.833 98.5 97.5s87.667 43.334 143 50.001v-106c-62 -12 -111 -44 -147 -96
s-54 -123 -54 -213v-13c0 -90.667 18 -162.334 54 -215.001s85 -85 147 -97z" />
    <glyph glyph-name="parenright" unicode=")" horiz-adv-x="340" 
d="M7 -181v106c62 12 111 44.333 147 97s54 124.334 54 215.001v13c0 90 -18 161 -54 213s-85 84 -147 96v106c55.333 -6.66699 103 -23.334 143 -50.001s72.833 -59.167 98.5 -97.5s44.5 -81 56.5 -128s18 -94.167 18 -141.5v-11c0 -46.667 -6 -93.5 -18 -140.5
s-30.833 -89.833 -56.5 -128.5s-58.5 -71.5 -98.5 -98.5s-87.667 -43.833 -143 -50.5z" />
    <glyph glyph-name="asterisk" unicode="*" horiz-adv-x="402" 
d="M63 347l-44 77l119 56l-116 53l43 76l107 -75l-14 130h88l-13 -130l104 75l43 -76l-117 -54l120 -55l-44 -77l-106 75l13 -130h-88l14 131z" />
    <glyph glyph-name="plus" unicode="+" horiz-adv-x="479" 
d="M442 221h-152v-154h-101v154h-152v96h152v155h101v-155h152v-96z" />
    <glyph glyph-name="comma" unicode="," horiz-adv-x="230" 
d="M38 -166l-16.001 43.001c30.667 8.66699 52.5 24.5 65.5 47.5s19.5 51.5 19.5 85.5h-66v135h147v-123c0 -45.333 -11.167 -85.333 -33.5 -120s-61.166 -57.334 -116.499 -68.001z" />
    <glyph glyph-name="hyphen" unicode="-" horiz-adv-x="300" 
d="M262 319v-100h-224v100h224z" />
    <glyph glyph-name="period" unicode="." horiz-adv-x="225" 
d="M184 145v-145h-142v145h142z" />
    <glyph glyph-name="slash" unicode="/" horiz-adv-x="411" 
d="M401 664l-271 -664h-120l271 664h120z" />
    <glyph glyph-name="zero" unicode="0" horiz-adv-x="616" 
d="M309 -13c-88 0 -156.5 29.833 -205.5 89.5s-73.167 144.834 -72.5 255.501c0 108.667 24.333 193.334 73 254.001s117 91 205 91c87.333 0 155.5 -30.333 204.5 -91s73.5 -145.334 73.5 -254.001s-24.333 -193.334 -73 -254.001s-117 -91 -205 -91zM311 97
c47.333 0 83 18.332 107 54.999s36 91.334 36 164.001v32c0 72 -12.5 126.667 -37.5 164s-61.5 56 -109.5 56c-47.333 0 -83 -18.5 -107 -55.5s-36 -91.833 -36 -164.5v-32c0 -72 12.5 -126.5 37.5 -163.5s61.5 -55.5 109.5 -55.5z" />
    <glyph glyph-name="one" unicode="1" horiz-adv-x="442" 
d="M355 0h-124v468c-24.667 -30.667 -53.167 -57.5 -85.5 -80.5s-69.5 -40.833 -111.5 -53.5v116c51.333 18.667 94.5 45.167 129.5 79.5s58.833 79.5 71.5 135.5h120v-665z" />
    <glyph glyph-name="two" unicode="2" horiz-adv-x="542" 
d="M32 0l-0.000976562 32.001c0 75.333 18.667 134.166 56 176.499s78 77 122 104l122 72c37.333 21 56 48.5 56 82.5c0 26.667 -8.33301 49.167 -25 67.5s-43 27.5 -79 27.5c-32.667 0 -60.334 -8.33301 -83.001 -25s-43.334 -44.667 -62.001 -84l-109 50
c26.667 58 61.334 101.5 104.001 130.5s94 43.5 154 43.5c68.667 0 124.334 -18.667 167.001 -56s64 -87.333 64 -150c0 -52 -16.167 -93.167 -48.5 -123.5s-68.666 -56.5 -108.999 -78.5s-79.333 -44.333 -117 -67s-61.5 -52.667 -71.5 -90h343v-112h-484z" />
    <glyph glyph-name="three" unicode="3" horiz-adv-x="587" 
d="M294 -13c-74 0 -135 16.1709 -183 48.5039s-73.667 88.5 -77 168.5h125c2.66699 -36 14.334 -63.167 35.001 -81.5s54 -27.5 100 -27.5c42 0 73.833 8.33301 95.5 25s32.5 40 32.5 70v4c0 32 -9.16699 55.5 -27.5 70.5s-49.5 22.5 -93.5 22.5h-57v107h56
c38 0 66 7.33301 84 22s27 35.667 27 63v2c0 26.667 -10.333 48 -31 64s-50 24 -88 24c-44 0 -75.167 -10 -93.5 -30s-29.166 -47 -32.499 -81h-125c6.66699 71.333 32.167 125.666 76.5 162.999s103.166 56 176.499 56c79.333 0 139.833 -16.667 181.5 -50
s62.5 -80 62.5 -140c0 -32.667 -8.5 -60.834 -25.5 -84.501s-43.5 -40.834 -79.5 -51.501c38 -12.667 67.333 -32.834 88 -60.501s31 -61.5 31 -101.5c0 -63.333 -22.333 -112.833 -67 -148.5s-108.334 -53.5 -191.001 -53.5z" />
    <glyph glyph-name="four" unicode="4" horiz-adv-x="601" 
d="M312 664h159l-341 -414h222v119l122 75v-194h102v-102h-102v-148h-123v148h-323v122z" />
    <glyph glyph-name="five" unicode="5" horiz-adv-x="572" 
d="M285 -14c-75.333 0 -136.666 19.666 -183.999 58.999s-71 91 -71 155h123c3.33301 -34 15.333 -60 36 -78s51.667 -27 93 -27c42 0 74.5 11.167 97.5 33.5s34.5 54.5 34.5 96.5v2c0 38 -11.5 68.333 -34.5 91s-53.833 34 -92.5 34
c-35.333 0 -63.666 -7.33301 -84.999 -22s-39 -33 -53 -55l-108 62l51 327h413v-109h-324l-23 -153c17.333 16.667 38.166 29.834 62.499 39.501s51.5 14.5 81.5 14.5c71.333 0 129.333 -21 174 -63s67 -97.667 67 -167c0 -74 -23.333 -132.5 -70 -175.5
s-109.334 -64.5 -188.001 -64.5z" />
    <glyph glyph-name="six" unicode="6" horiz-adv-x="596" 
d="M317 -11c-87.333 0 -155.171 29.1689 -203.504 87.502s-72.5 142.166 -72.5 251.499c0 112 24.333 198.167 73 258.5s116.334 90.5 203.001 90.5c40 0 74.5 -5.5 103.5 -16.5s53.167 -25.5 72.5 -43.5s34 -38.833 44 -62.5s16 -48.167 18 -73.5h-123
c-4 26 -14.667 47.333 -32 64s-46.666 25 -87.999 25c-46 0 -82 -17.833 -108 -53.5s-39 -83.834 -39 -144.501l-2 -18c18.667 23.333 42.834 42 72.501 56s60.5 21 92.5 21c70 0 126.667 -19.667 170 -59s65 -91 65 -155c0 -33.333 -6.16699 -64 -18.5 -92
s-29.333 -52 -51 -72s-47.667 -35.667 -78 -47s-63.166 -17 -98.499 -17zM311.995 95.002c38 0 68.167 11.168 90.5 33.501s33.5 50.833 33.5 85.5v3c0 34 -11.667 61.833 -35 83.5s-54.333 32.5 -93 32.5c-37.333 0 -68.5 -10.833 -93.5 -32.5s-37.5 -48.834 -37.5 -81.501
v-3c0 -33.333 13 -61.833 39 -85.5s58 -35.5 96 -35.5z" />
    <glyph glyph-name="seven" unicode="7" horiz-adv-x="529" 
d="M34 554v110h472v-107l-297 -557h-134l311 554h-352z" />
    <glyph glyph-name="eight" unicode="8" horiz-adv-x="586" 
d="M293 -13c-86 0 -152.5 17.833 -199.5 53.5s-70.5 86.5 -70.5 152.5c0 34.667 10.333 65.334 31 92.001s48.667 47.334 84 62.001c-29.333 13.333 -52 31.666 -68 54.999s-24 51.333 -24 84c0 58 22.167 104.333 66.5 139s104.5 52 180.5 52s136.167 -17.333 180.5 -52
s66.5 -81 66.5 -139c0 -32.667 -8 -60.667 -24 -84s-38.667 -41.666 -68 -54.999c35.333 -14.667 63.333 -35.334 84 -62.001s31 -57.334 31 -92.001c0 -66 -23.5 -116.833 -70.5 -152.5s-113.5 -53.5 -199.5 -53.5zM293 94c42 0 75.833 8.83203 101.5 26.499
s38.5 41.834 38.5 72.501c0 33.333 -12.333 59.166 -37 77.499s-59 27.5 -103 27.5s-78.333 -9.16699 -103 -27.5s-37 -44.166 -37 -77.499c0 -30 12.833 -54 38.5 -72s59.5 -27 101.5 -27zM293 389.999c39.333 0 69.167 7.66699 89.5 23s30.5 38 30.5 68
c0 28 -10.5 49.833 -31.5 65.5s-50.5 23.5 -88.5 23.5c-37.333 0 -66.5 -7.83301 -87.5 -23.5s-31.5 -37.5 -31.5 -65.5c0 -30 10.167 -52.667 30.5 -68s49.833 -23 88.5 -23z" />
    <glyph glyph-name="nine" unicode="9" horiz-adv-x="603" 
d="M285 -10c-40 0 -74.498 5.00098 -103.498 15.001s-53.167 23.333 -72.5 40s-34 36 -44 58s-16 45 -18 69h123c4 -24 14.667 -42.5 32 -55.5s46.666 -19.5 87.999 -19.5c46 0 81.833 15.833 107.5 47.5s38.834 78.167 39.501 139.5v25
c-18 -26.667 -40.833 -47.167 -68.5 -61.5s-58.5 -21.5 -92.5 -21.5c-70.667 0 -127.834 19.833 -171.501 59.5s-65.5 91.5 -65.5 155.5c0 32.667 6.16699 63.5 18.5 92.5s29.333 54.167 51 75.5s47.667 38.166 78 50.499s63.5 18.5 99.5 18.5c87.333 0 155 -30 203 -90
s72 -144.667 72 -254c0 -112 -24.333 -197.333 -73 -256s-116.334 -88 -203.001 -88zM294.002 325.001c37.333 0 68.499 12.332 93.499 36.999s37.5 53.334 37.5 86.001v3c0 33.333 -13 61.833 -39 85.5s-58 35.5 -96 35.5c-37.333 0 -67.5 -12.5 -90.5 -37.5
s-34.5 -54.5 -34.5 -88.5v-3c0 -34 11.833 -62.167 35.5 -84.5s54.834 -33.5 93.501 -33.5z" />
    <glyph glyph-name="colon" unicode=":" horiz-adv-x="225" 
d="M184 145v-145h-142v145h142zM184 468v-145h-142v145h142z" />
    <glyph glyph-name="semicolon" unicode=";" horiz-adv-x="230" 
d="M38 -166l-16.001 43.001c30.667 8.66699 52.5 24.5 65.5 47.5s19.5 51.5 19.5 85.5h-66v135h147v-123c0 -45.333 -11.167 -85.333 -33.5 -120s-61.166 -57.334 -116.499 -68.001zM41.999 468.001h142v-145h-142v145z" />
    <glyph glyph-name="less" unicode="&#x3c;" horiz-adv-x="474" 
d="M427 46l-385 193v60l385 193v-108l-257 -115l257 -115v-108z" />
    <glyph glyph-name="equal" unicode="=" horiz-adv-x="479" 
d="M440 210v-95h-402v95h402zM440 423v-95h-402v95h402z" />
    <glyph glyph-name="greater" unicode="&#x3e;" horiz-adv-x="474" 
d="M48 46v108l248 115l-248 115v108l385 -193v-60z" />
    <glyph glyph-name="question" unicode="?" horiz-adv-x="520" 
d="M186 215l-0.00292969 21.998c4 44.667 14.833 79.834 32.5 105.501s36.167 47.167 55.5 64.5l52.5 48c15.667 14.667 23.5 33.667 23.5 57c0 20.667 -7.33301 38.5 -22 53.5s-34.667 22.5 -60 22.5c-34 0 -61.167 -11.667 -81.5 -35s-36.833 -49.333 -49.5 -78l-105 58
c24.667 48 56.334 89 95.001 123s88.667 51 150 51c62 0 112.833 -17.5 152.5 -52.5s59.5 -79.833 59.5 -134.5c0 -40 -10 -72 -30 -96s-42.167 -45.667 -66.5 -65s-46.666 -39.666 -66.999 -60.999s-31.166 -49 -32.499 -83h-107zM170.997 -0.00195312v142h141v-142h-141z
" />
    <glyph glyph-name="at" unicode="@" horiz-adv-x="752" 
d="M300 64c-32.667 0 -59.1689 10.832 -79.502 32.499s-30.5 49.167 -30.5 82.5c0 25.333 4.33301 50.5 13 75.5s20.5 47.167 35.5 66.5s33.167 35 54.5 47s44.333 18 69 18s44.5 -6.5 59.5 -19.5s24.833 -29.833 29.5 -50.5l16 60h100l-62 -206
c-2.66699 -8 -4.16699 -15 -4.5 -21s0.5 -11 2.5 -15c2.66699 -5.33301 7 -9.33301 13 -12s13 -4 21 -4c19.333 0 36.5 6.16699 51.5 18.5s27.667 27.5 38 45.5s18.333 37.333 24 58s8.5 39.667 8.5 57c0 34.667 -6.16699 65.5 -18.5 92.5s-29.333 49.5 -51 67.5
s-47.667 31.667 -78 41s-63.5 14 -99.5 14c-45.333 0 -87 -8 -125 -24s-70.5 -38.167 -97.5 -66.5s-48.167 -62.166 -63.5 -101.499s-23 -82 -23 -128c0 -76.667 23.833 -137.5 71.5 -182.5s112.167 -67.5 193.5 -67.5c46 0 87.833 7.16699 125.5 21.5
s70.5 35.166 98.5 62.499l34 -43c-12.667 -16.667 -29 -31.5 -49 -44.5s-41.5 -24 -64.5 -33s-47.167 -15.667 -72.5 -20s-50.333 -6.5 -75 -6.5c-48.667 0 -93.667 6.83301 -135 20.5s-76.666 33.667 -105.999 60s-52.333 59 -69 98s-25 83.5 -25 133.5
c0 54.667 9.66699 105.5 29 152.5s45.833 87.5 79.5 121.5s74 60.667 121 80s97.5 29 151.5 29c44 0 85.5 -5.83301 124.5 -17.5s72.667 -28.667 101 -51s50.833 -50.5 67.5 -84.5s25 -73 25 -117c0 -35.333 -6.16699 -68.166 -18.5 -98.499s-28.5 -56.5 -48.5 -78.5
s-42.833 -39.167 -68.5 -51.5s-51.167 -18.5 -76.5 -18.5c-33.333 0 -58.333 6.83301 -75 20.5s-26.667 32.5 -30 56.5c-12.667 -20 -28.667 -36.667 -48 -50s-40.666 -20 -63.999 -20zM340.998 131.999c12 0 23.5 4 34.5 12s20.667 18.167 29 30.5s15 26.333 20 42
s7.5 31.5 7.5 47.5c0 15.333 -4.66699 28.166 -14 38.499s-21.333 15.5 -36 15.5c-12 0 -23.5 -3.66699 -34.5 -11s-20.667 -17.166 -29 -29.499s-15 -26.5 -20 -42.5s-7.5 -32.333 -7.5 -49c0 -16 4.66699 -29 14 -39s21.333 -15 36 -15z" />
    <glyph glyph-name="A" unicode="A" horiz-adv-x="664" 
d="M13 0l250 664h145l242 -664h-135l-63 177h-249l-64 -177h-126zM330 528l-90 -246h177z" />
    <glyph glyph-name="B" unicode="B" horiz-adv-x="609" 
d="M50 664h265.001c75.333 0 132.666 -15.167 171.999 -45.5s59 -74.5 59 -132.5c0 -32.667 -8.66699 -60.167 -26 -82.5s-41.333 -39.833 -72 -52.5c38.667 -12.667 69.167 -32.167 91.5 -58.5s33.5 -59.833 33.5 -100.5c0 -64 -21.333 -112 -64 -144
s-106.667 -48 -192 -48h-267v664zM176.001 105h132c42 0 73.833 7.5 95.5 22.5s32.5 38.833 32.5 71.5c1.33301 32.667 -9 56.667 -31 72s-53.667 23 -95 23h-134v-189zM176.001 559l-0.000976562 -164h121c37.333 0 66 7 86 21s30 34.333 30 61
c1.33301 28.667 -5.66699 49.5 -21 62.5s-40.666 19.5 -75.999 19.5h-140z" />
    <glyph glyph-name="C" unicode="C" horiz-adv-x="656" 
d="M337 -13c-45.333 0 -86.998 8.33105 -124.998 24.998s-70.5 40 -97.5 70s-48 66.333 -63 109s-22.5 89.667 -22.5 141s7.66699 98.333 23 141s36.666 79 63.999 109s60.333 53.333 99 70s81.334 25 128.001 25c77.333 0 142.166 -20.5 194.499 -61.5
s85.833 -102.5 100.5 -184.5h-131c-10.667 46.667 -30.167 80.167 -58.5 100.5s-63.833 30.5 -106.5 30.5c-56 0 -100.167 -20.167 -132.5 -60.5s-48.5 -95.166 -48.5 -164.499v-10c0 -70 15.833 -125 47.5 -165s75.5 -60 131.5 -60c45.333 0 82.666 10.833 111.999 32.5
s48.333 57.834 57 108.501h131c-12.667 -86.667 -46.167 -151 -100.5 -193s-121.833 -63 -202.5 -63z" />
    <glyph glyph-name="D" unicode="D" horiz-adv-x="654" 
d="M50 0l-0.00195312 664.001h244c104.667 0 186.334 -28.5 245.001 -85.5s88 -139.833 88 -248.5c0 -106.667 -30.167 -188.334 -90.5 -245.001s-144.166 -85 -251.499 -85h-235zM177.998 558.001v-452h109c69.333 0 121.333 18.5 156 55.5s52 92.5 52 166.5v6
c0 76 -16.5 132.333 -49.5 169s-83.833 55 -152.5 55h-115z" />
    <glyph glyph-name="E" unicode="E" horiz-adv-x="571" 
d="M412 396v-109h-237v-178h367v-109h-492v664h481v-109h-356v-159h237z" />
    <glyph glyph-name="F" unicode="F" horiz-adv-x="543" 
d="M427 376v-109h-250v-267h-127v664h459v-109h-332v-179h250z" />
    <glyph glyph-name="G" unicode="G" horiz-adv-x="686" 
d="M524 0l-0.00195312 90.999c-18.667 -32.667 -44.5 -58.167 -77.5 -76.5s-71.5 -27.5 -115.5 -27.5c-45.333 0 -86.666 8 -123.999 24s-69.166 38.333 -95.499 67s-46.666 63.834 -60.999 105.501s-21.5 87.834 -21.5 138.501c0 54 7.83301 103 23.5 147
s37.5 81.333 65.5 112s61.5 54.334 100.5 71.001s82.167 25 129.5 25c78 0 142.333 -20 193 -60s82 -98.333 94 -175h-132c-8 42 -25.333 72.667 -52 92s-61.334 29 -104.001 29c-56 0 -101.333 -20.833 -136 -62.5s-52 -99.834 -52 -174.501v-10
c0 -68.667 17 -122.334 51 -161.001s80 -58 138 -58c40.667 0 76.167 11.5 106.5 34.5s47.833 54.5 52.5 94.5h-147v105h277v-331h-113z" />
    <glyph glyph-name="H" unicode="H" horiz-adv-x="653" 
d="M602 664v-664h-127v283h-298v-283h-127v664h127v-273h298v273h127z" />
    <glyph glyph-name="I" unicode="I" horiz-adv-x="237" 
d="M182 664v-664h-127v664h127z" />
    <glyph glyph-name="J" unicode="J" horiz-adv-x="518" 
d="M244 -13c-73.333 0 -128.167 19.501 -164.5 58.501s-56.833 89.833 -61.5 152.5l125 18c2.66699 -40.667 11.667 -70.834 27 -90.501s39.333 -29.5 72 -29.5c36 0 61.833 9.33301 77.5 28s23.5 49.667 23.5 93v447h127v-445c0 -78 -18.667 -136.167 -56 -174.5
s-94 -57.5 -170 -57.5z" />
    <glyph glyph-name="K" unicode="K" horiz-adv-x="626" 
d="M177 664v-347l286 347h139l-222 -269l232 -395h-142l-177 304l-116 -138v-166h-127v664h127z" />
    <glyph glyph-name="L" unicode="L" horiz-adv-x="510" 
d="M177 664v-555h300v-109h-427v664h127z" />
    <glyph glyph-name="M" unicode="M" horiz-adv-x="814" 
d="M261 664l144 -485l155 485h204v-664h-125v554l-184 -554h-108l-177 550v-550h-120v664h211z" />
    <glyph glyph-name="N" unicode="N" horiz-adv-x="658" 
d="M194 664l294 -449v449h120v-664h-121l-317 485v-485h-120v664h144z" />
    <glyph glyph-name="O" unicode="O" horiz-adv-x="714" 
d="M356 98c60 0 107.667 20.332 143 60.999s53 97.667 53 171v5c0 72 -17.333 128.5 -52 169.5s-82 61.5 -142 61.5s-107.667 -20.167 -143 -60.5s-53 -97.166 -53 -170.499v-5c0 -72 17.333 -128.667 52 -170s82 -62 142 -62zM354 -13.001c-48 0 -92.167 8.33301 -132.5 25
s-74.666 40.167 -102.999 70.5s-50.333 66.833 -66 109.5s-23.5 89.334 -23.5 140.001s8 97.334 24 140.001s38.333 79 67 109s63.5 53.5 104.5 70.5s86.167 25.5 135.5 25.5c48 0 92.167 -8.33301 132.5 -25s74.666 -40.167 102.999 -70.5s50.333 -66.833 66 -109.5
s23.5 -89.334 23.5 -140.001s-8 -97.334 -24 -140.001s-38.333 -79 -67 -109s-63.5 -53.5 -104.5 -70.5s-86.167 -25.5 -135.5 -25.5z" />
    <glyph glyph-name="P" unicode="P" horiz-adv-x="579" 
d="M50 664h222c92 0 160.667 -17.833 206 -53.5s68 -89.167 68 -160.5c0 -70.667 -23.5 -124.5 -70.5 -161.5s-116.5 -55.5 -208.5 -55.5h-90v-233h-127v664zM177 562l-0.000976562 -228h90c54 0.666992 92.833 10.167 116.5 28.5s35.5 47.5 35.5 87.5
c0 39.333 -11.667 67.833 -35 85.5s-61.666 26.5 -114.999 26.5h-92z" />
    <glyph glyph-name="Q" unicode="Q" horiz-adv-x="717" 
d="M510 -126c-14.667 28.667 -31.333 51.167 -50 67.5s-42.334 24.5 -71.001 24.5c-22.667 0 -41 -6.83301 -55 -20.5s-23.333 -27.834 -28 -42.501h-78c6.66699 18 15.334 34.5 26.001 49.5s23 28.167 37 39.5c-79.333 12.667 -142.833 49.167 -190.5 109.5
s-71.5 136.5 -71.5 228.5c0 52 7.83301 99.333 23.5 142s38 79.167 67 109.5s63.833 53.833 104.5 70.5s86 25 136 25c48.667 0 93 -8.33301 133 -25s74.167 -40.167 102.5 -70.5s50.333 -66.833 66 -109.5s23.5 -90 23.5 -142c0 -74.667 -16 -139.167 -48 -193.5
s-76 -94.166 -132 -119.499c30.667 -10.667 58.5 -28.167 83.5 -52.5s48.167 -54.5 69.5 -90.5h-148zM356.001 94c62 0 110.167 20.333 144.5 61s51.5 97.334 51.5 170.001v10c0 71.333 -17.333 127.666 -52 168.999s-82 62 -142 62c-62 0 -110.167 -20.333 -144.5 -61
s-51.5 -97.334 -51.5 -170.001v-10c0 -71.333 17.333 -127.666 52 -168.999s82 -62 142 -62z" />
    <glyph glyph-name="R" unicode="R" horiz-adv-x="614" 
d="M50 664l253.001 -0.000976562c93.333 0 160.5 -17.333 201.5 -52s61.5 -79 61.5 -133c0 -46.667 -14.167 -86.667 -42.5 -120s-67.5 -54.333 -117.5 -63c50.667 -14.667 89.167 -43 115.5 -85s44.166 -101.667 53.499 -179c0 -1.33301 0.5 -6.83301 1.5 -16.5
s1.83301 -14.834 2.5 -15.501h-135l-0.5 11.5c-0.333008 7.66699 -0.5 11.834 -0.5 12.501c-8 68 -26.5 121.333 -55.5 160s-75.833 58.334 -140.5 59.001h-72v-243h-125v664zM175.001 561.999v-223.001l113 1c28 0 51.5 3.83301 70.5 11.5s34.5 17.334 46.5 29.001
s20.5 25 25.5 40s7.5 29.5 7.5 43.5c0 32 -11 56.333 -33 73s-58.667 25 -110 25h-120z" />
    <glyph glyph-name="S" unicode="S" horiz-adv-x="581" 
d="M308 -11c-87.333 0 -155.165 20.1689 -203.498 60.502s-77.833 95.5 -88.5 165.5h131c8 -42.667 24.167 -73.334 48.5 -92.001s60.166 -28 107.499 -28c40 0 71 8.33301 93 25s33 40 33 70c0 28.667 -16.167 48.667 -48.5 60s-71.166 21.333 -116.499 30
c-27.333 5.33301 -54.833 12.166 -82.5 20.499s-52.334 19.5 -74.001 33.5s-39.334 32 -53.001 54s-20.5 49.333 -20.5 82c0 30 6.16699 57.833 18.5 83.5s29.333 47.5 51 65.5s47.667 32.167 78 42.5s63.166 15.5 98.499 15.5c78 0 141 -19.5 189 -58.5
s76 -94.167 84 -165.5h-129c-5.33301 40 -20 69.667 -44 89s-57.667 29 -101 29c-36.667 0 -65.667 -8.33301 -87 -25s-32 -39 -32 -67c0 -16 4.83301 -28.833 14.5 -38.5s22.5 -17.5 38.5 -23.5s34.5 -11 55.5 -15l65.5 -13c27.333 -5.33301 54.333 -11.833 81 -19.5
s50.334 -18.5 71.001 -32.5s37.5 -32 50.5 -54s19.5 -49.667 19.5 -83c0 -63.333 -22.167 -114.333 -66.5 -153s-104.833 -58 -181.5 -58z" />
    <glyph glyph-name="T" unicode="T" horiz-adv-x="574" 
d="M553 664v-109h-202v-555h-127v555h-202v109h531z" />
    <glyph glyph-name="U" unicode="U" horiz-adv-x="642" 
d="M324 -13c-89.333 0 -157.499 24.167 -204.499 72.5s-70.5 117.833 -70.5 208.5v396h127v-395c0 -58 12.333 -101.333 37 -130s62 -43 112 -43c51.333 0 88.666 14 111.999 42s35 71 35 129v397h121v-397c0 -93.333 -24.333 -163.333 -73 -210s-114 -70 -196 -70z" />
    <glyph glyph-name="V" unicode="V" horiz-adv-x="614" 
d="M5 664h134l176 -519l167 519h127l-232 -664h-139z" />
    <glyph glyph-name="W" unicode="W" horiz-adv-x="902" 
d="M194 0l-183 664h138l111 -479l130 479h126l129 -480l112 480h134l-187 -664h-122l-132 485l-133 -485h-123z" />
    <glyph glyph-name="X" unicode="X" horiz-adv-x="629" 
d="M476 664h135l-219 -319l221 -345h-141l-155 248l-166 -248h-137l232 337l-209 327h139l146 -232z" />
    <glyph glyph-name="Y" unicode="Y" horiz-adv-x="619" 
d="M476 664h138l-241 -365v-299h-127v300l-239 364h144l163 -256z" />
    <glyph glyph-name="Z" unicode="Z" horiz-adv-x="589" 
d="M398 557h-353v107h507v-98l-367 -459h368v-107h-517v98z" />
    <glyph glyph-name="bracketleft" unicode="[" horiz-adv-x="336" 
d="M318 664v-101h-158v-643h158v-101h-268v845h268z" />
    <glyph glyph-name="backslash" unicode="\" horiz-adv-x="409" 
d="M130 664l269 -664h-120l-269 664h120z" />
    <glyph glyph-name="bracketright" unicode="]" horiz-adv-x="336" 
d="M175 -80v643h-157v101h268v-845h-268v101h157z" />
    <glyph glyph-name="asciicircum" unicode="^" horiz-adv-x="457" 
d="M44 209l144 455h79l146 -455h-101l-85 281l-81 -281h-102z" />
    <glyph glyph-name="underscore" unicode="_" horiz-adv-x="640" 
d="M650 -154v-70h-660v70h660z" />
    <glyph glyph-name="grave" unicode="`" horiz-adv-x="327" 
d="M50 683h139l88 -149h-63l-164 137v12z" />
    <glyph glyph-name="a" unicode="a" horiz-adv-x="502" 
d="M189 -12c-50 0 -89.8291 12.667 -119.496 38s-44.5 58.333 -44.5 99c0 26.667 4.66699 48.5 14 65.5s22.166 31 38.499 42s35.833 19.833 58.5 26.5s47.334 13 74.001 19c43.333 8.66699 76.166 15.5 98.499 20.5s34.166 13.833 35.499 26.5v5
c0 14 -6.83301 26.5 -20.5 37.5s-36.5 16.5 -68.5 16.5s-55.833 -7.16699 -71.5 -21.5s-24.167 -31.833 -25.5 -52.5v-7h-123c2 53.333 22.833 96.333 62.5 129s92.5 49 158.5 49c64 0 114.333 -14.667 151 -44s55 -76 55 -140v-297h-119v64
c-14.667 -24.667 -35.334 -43.5 -62.001 -56.5s-57.334 -19.5 -92.001 -19.5zM218.004 77c14.667 0 29.3311 2 43.998 6s28 10.667 40 20s21.833 21.5 29.5 36.5s11.834 33.5 12.501 55.5v40c-13.333 -8 -30.166 -14.5 -50.499 -19.5l-59.5 -14.5c-24 -6 -44 -14 -60 -24
s-24 -25.333 -24 -46c0 -16 6 -29 18 -39s28.667 -15 50 -15z" />
    <glyph glyph-name="b" unicode="b" horiz-adv-x="545" 
d="M311 -10c-30 0 -57.333 6.16699 -82 18.5s-45.334 29.833 -62.001 52.5v-61h-121v674h122v-261c16 21.333 36.333 38.166 61 50.499s52.334 18.5 83.001 18.5c29.333 0 56.833 -5.5 82.5 -16.5s47.834 -26.833 66.501 -47.5s33.334 -46.167 44.001 -76.5
s16 -64.166 16 -101.499v-1c0 -38 -5.33301 -72.5 -16 -103.5s-25.334 -57.167 -44.001 -78.5s-40.834 -37.833 -66.501 -49.5s-53.5 -17.5 -83.5 -17.5zM277 91c33.333 0 60.833 12.5 82.5 37.5s32.5 60.5 32.5 106.5v7c0 46 -10.667 80.667 -32 104s-49 35 -83 35
c-35.333 0 -63.333 -13.333 -84 -40s-31 -61 -31 -103v-8c0 -42 10.167 -75.667 30.5 -101s48.5 -38 84.5 -38z" />
    <glyph glyph-name="c" unicode="c" horiz-adv-x="491" 
d="M258 -9c-72.667 0 -130.001 22.832 -172.001 68.499s-63 104.834 -63 177.501c0 35.333 5.83301 68 17.5 98s27.834 55.833 48.501 77.5s45.667 38.5 75 50.5s61.666 18 96.999 18c56.667 0 102.5 -13.833 137.5 -41.5s60.5 -64.167 76.5 -109.5l-117 -36
c-6.66699 26 -17.5 46.833 -32.5 62.5s-36.833 23.5 -65.5 23.5c-34 0 -61.333 -13.333 -82 -40s-31 -60.667 -31 -102v-4c0 -41.333 9.66699 -75.333 29 -102s46 -40 80 -40c33.333 0 57.833 8 73.5 24s26.834 38.333 33.501 67l117 -34c-16.667 -48 -43 -86.333 -79 -115
s-83.667 -43 -143 -43z" />
    <glyph glyph-name="d" unicode="d" horiz-adv-x="545" 
d="M233 -10c-29.333 0 -56.8301 5.49707 -82.4971 16.4971s-47.834 26.833 -66.501 47.5s-33.5 46.334 -44.5 77.001s-16.5 65 -16.5 103c0 37.333 5.33301 71.333 16 102s25.5 56.834 44.5 78.501s41.333 38.334 67 50.001s53.5 17.5 83.5 17.5s57.167 -6.33301 81.5 -19
s44.833 -30 61.5 -52v262h121v-673h-120v61c-16.667 -22 -37.334 -39.333 -62.001 -52s-52.334 -19 -83.001 -19zM268.003 90.9971c35.333 0 63.333 13.333 84 40s31 61 31 103v8c0 42 -10.167 75.667 -30.5 101s-48.5 38 -84.5 38c-34 0 -61.667 -12.5 -83 -37.5
s-32 -60.5 -32 -106.5v-7c0 -46 10.5 -80.667 31.5 -104s48.833 -35 83.5 -35z" />
    <glyph glyph-name="e" unicode="e" horiz-adv-x="509" 
d="M262 -8c-73.333 0 -131.499 21.832 -174.499 65.499s-64.5 102.167 -64.5 175.5c0 36 5.83301 69.333 17.5 100s27.834 56.834 48.501 78.501s45.667 38.667 75 51s61 18.5 95 18.5c71.333 0 127.166 -22.167 167.499 -66.5s60.5 -103.5 60.5 -177.5v-42h-342
c4 -34 16.5 -60.167 37.5 -78.5s48.167 -27.5 81.5 -27.5c34.667 0 60.667 7.16699 78 21.5s29.666 31.5 36.999 51.5l108 -38c-16.667 -38 -43 -69.5 -79 -94.5s-84.667 -37.5 -146 -37.5zM256.001 384.999c-30 0 -55.167 -9.16699 -75.5 -27.5
s-32.833 -43.833 -37.5 -76.5h219c-2.66699 34 -13 59.833 -31 77.5s-43 26.5 -75 26.5z" />
    <glyph glyph-name="f" unicode="f" horiz-adv-x="322" 
d="M94 0v371.001h-73v101h73v36c0 57.333 9.66699 98.5 29 123.5s53.333 39.167 102 42.5h92v-108h-35c-30 0 -49 -3.33301 -57 -10s-12 -26.334 -12 -59.001v-25h94v-101h-93v-371h-120z" />
    <glyph glyph-name="g" unicode="g" horiz-adv-x="519" 
d="M236 121c-12 0 -23.666 0.833984 -34.999 2.50098s-22.333 4.16699 -33 7.5h-4c-12 0 -22.167 -2.5 -30.5 -7.5s-12.5 -11.167 -12.5 -18.5c0 -8.66699 5.5 -15.834 16.5 -21.501s24.833 -8.5 41.5 -8.5h110c73.333 0 129.666 -13.167 168.999 -39.5
s59 -64.166 59 -113.499c0 -50.667 -23.167 -90.667 -69.5 -120s-110.166 -44 -191.499 -44c-79.333 0 -140.166 12 -182.499 36s-63.5 58 -63.5 102c0 22.667 7.33301 43 22 61s35 32.333 61 43c-22.667 5.33301 -40.834 15.166 -54.501 29.499s-20.5 30.833 -20.5 49.5
c0 20.667 7.33301 38.334 22 53.001s35.334 25.667 62.001 33c-20.667 16 -37.167 35.667 -49.5 59s-18.5 48.333 -18.5 75c0 26 5.16699 50.167 15.5 72.5s24.666 41.5 42.999 57.5s40.333 28.667 66 38s53.167 14 82.5 14c36.667 0 69.834 -7.16699 99.501 -21.5
s53.167 -33.833 70.5 -58.5c8.66699 22 21.167 39.333 37.5 52s36.833 19 61.5 19v-121c-10.667 4.66699 -22.834 6.33398 -36.501 5.00098s-25.834 -6.33301 -36.501 -15c1.33301 -6.66699 2.5 -13.334 3.5 -20.001s1.5 -13.334 1.5 -20.001
c0 -54 -18.833 -97.5 -56.5 -130.5s-87.5 -49.5 -149.5 -49.5zM283.001 -29.999l-94 0.000976562c-21.333 -2.66699 -39.166 -9.33398 -53.499 -20.001s-21.5 -25 -21.5 -43c0 -18.667 12.667 -33.5 38 -44.5s61.333 -16.5 108 -16.5c45.333 0 81.666 5.83301 108.999 17.5
s41 27.5 41 47.5c0 20.667 -10.333 35.667 -31 45s-52.667 14 -96 14zM239.001 212.002c28.667 0 51.5 7.99902 68.5 23.999s25.5 36.667 25.5 62v6c0 24.667 -9 45.334 -27 62.001s-40.333 25 -67 25s-48.667 -8.5 -66 -25.5s-26 -37.833 -26 -62.5v-5
c0 -24.667 8.5 -45.167 25.5 -61.5s39.167 -24.5 66.5 -24.5z" />
    <glyph glyph-name="h" unicode="h" horiz-adv-x="508" 
d="M167 673v-284.998c12 29.333 29.5 52.166 52.5 68.499s51.5 24.5 85.5 24.5c51.333 0 91.5 -16.833 120.5 -50.5s43.5 -82.834 43.5 -147.501v-283h-124v276c0 32.667 -6.66699 57.5 -20 74.5s-34.333 25.5 -63 25.5s-51.667 -11.667 -69 -35s-26 -57 -26 -101v-240h-121
v673h121z" />
    <glyph glyph-name="i" unicode="i" horiz-adv-x="219" 
d="M172 472v-472h-125v472h125zM174 662v-121h-129v121h129z" />
    <glyph glyph-name="j" unicode="j" horiz-adv-x="219" 
d="M-33 -84l30 -0.000976562c20 0 33.333 3.83301 40 11.5s10 22.834 10 45.501v499h125v-502c0 -61.333 -13.333 -103.333 -40 -126s-71 -34 -133 -34h-32v106zM174 661.999v-121h-129v121h129z" />
    <glyph glyph-name="k" unicode="k" horiz-adv-x="481" 
d="M167 673v-408l169 207h140l-163 -177l174 -295h-134l-120 208l-66 -77v-131h-121v673h121z" />
    <glyph glyph-name="l" unicode="l" horiz-adv-x="219" 
d="M172 673v-673h-125v673h125z" />
    <glyph glyph-name="m" unicode="m" horiz-adv-x="778" 
d="M170 472v-75.999c12 27.333 29.5 48.5 52.5 63.5s51.167 22.5 84.5 22.5c26.667 0 52 -7.33301 76 -22s42 -40.334 54 -77.001c10.667 28.667 28.834 52.334 54.501 71.001s58.834 28 99.501 28c46 0 82.333 -17 109 -51s40 -81 40 -141v-290h-124v283
c0 31.333 -6.66699 54.666 -20 69.999s-32.333 23 -57 23c-26.667 0 -47.334 -9.33301 -62.001 -28s-22 -45 -22 -79v-269h-124v288c0 28.667 -6.5 50.5 -19.5 65.5s-32.167 22.5 -57.5 22.5c-22.667 0 -42.334 -8.83301 -59.001 -26.5s-25 -44.5 -25 -80.5v-269h-124v472
h124z" />
    <glyph glyph-name="n" unicode="n" horiz-adv-x="510" 
d="M170 472v-76.999c12.667 27.333 30.5 48.666 53.5 63.999s51.167 23 84.5 23c51.333 0 91.5 -17 120.5 -51s43.5 -83.333 43.5 -148v-283h-124v276c0 32.667 -6.66699 57.5 -20 74.5s-34.333 25.5 -63 25.5c-29.333 0 -52.5 -11.667 -69.5 -35s-25.5 -57 -25.5 -101v-240
h-124v472h124z" />
    <glyph glyph-name="o" unicode="o" horiz-adv-x="531" 
d="M264 92c36 0 64.667 12.333 86 37s32 59 32 103v4c0 44.667 -10.333 79.834 -31 105.501s-49 38.5 -85 38.5s-64.5 -12.833 -85.5 -38.5s-31.5 -60.834 -31.5 -105.501v-4c0 -44 10.167 -78.333 30.5 -103s48.5 -37 84.5 -37zM263 -9c-35.333 0 -67.8359 6 -97.5029 18
s-55 28.667 -76 50s-37.333 47 -49 77s-17.5 63 -17.5 99s6 69.167 18 99.5s28.667 56.166 50 77.499s47 38.166 77 50.499s62.667 18.5 98 18.5s67.833 -6.16699 97.5 -18.5s55.167 -29.166 76.5 -50.499s38 -47.166 50 -77.499s18 -63.5 18 -99.5
c0 -35.333 -6.16699 -68 -18.5 -98s-29.166 -55.833 -50.499 -77.5s-47.166 -38.5 -77.499 -50.5s-63.166 -18 -98.499 -18z" />
    <glyph glyph-name="p" unicode="p" horiz-adv-x="546" 
d="M312 -10c-30 0 -57.168 6.16699 -81.501 18.5s-44.833 29.5 -61.5 51.5v-246h-123v658h123v-60c16 22 36.333 39.167 61 51.5s52.334 18.5 83.001 18.5c29.333 0 57 -5.66699 83 -17s48.333 -27.333 67 -48s33.334 -46 44.001 -76s16 -63.667 16 -101v-1
c0 -38 -5.33301 -72.5 -16 -103.5s-25.334 -57.167 -44.001 -78.5s-41 -37.833 -67 -49.5s-54 -17.5 -84 -17.5zM278.999 91c33.333 0 60.667 12.499 82 37.499s32 60.5 32 106.5v7c0 46 -10.5 80.667 -31.5 104s-48.5 35 -82.5 35c-36 0 -64.333 -13.333 -85 -40
s-31 -61 -31 -103v-9c0 -41.333 10.167 -74.666 30.5 -99.999s48.833 -38 85.5 -38z" />
    <glyph glyph-name="q" unicode="q" horiz-adv-x="546" 
d="M233 -10c-29.333 0 -56.8301 5.50098 -82.4971 16.501s-47.834 26.833 -66.501 47.5s-33.5 46.167 -44.5 76.5s-16.5 64.166 -16.5 101.499v1c0 38 5.33301 72.5 16 103.5s25.5 57.167 44.5 78.5s41.333 37.833 67 49.5s53.5 17.5 83.5 17.5
c30.667 0 58.167 -6.5 82.5 -19.5s44.833 -30.833 61.5 -53.5v63h122v-653h-122v242c-16.667 -22 -37.334 -39.333 -62.001 -52s-52.334 -19 -83.001 -19zM268.003 91.001c35.333 0 63.333 13.333 84 40s31 61 31 103v9c0 41.333 -10.167 74.333 -30.5 99s-48.5 37 -84.5 37
c-34 0 -61.667 -12.167 -83 -36.5s-32 -59.5 -32 -105.5v-7c0 -46 10.5 -80.667 31.5 -104s48.833 -35 83.5 -35z" />
    <glyph glyph-name="r" unicode="r" horiz-adv-x="339" 
d="M170 472l-0.000976562 -87c6.66699 26.667 20 48.667 40 66s51.667 26 95 26h10v-119h-49c-37.333 0 -62.666 -9.16699 -75.999 -27.5s-20 -47.833 -20 -88.5v-242h-124v472h124z" />
    <glyph glyph-name="s" unicode="s" horiz-adv-x="446" 
d="M233 -14c-48 0 -90.167 9.33496 -126.5 28.002s-65.5 42.667 -87.5 72l98 56c12.667 -18.667 29.5 -33.167 50.5 -43.5s43.833 -15.5 68.5 -15.5c22 0 39.333 4.5 52 13.5s19 21.167 19 36.5c0 16.667 -11.667 28 -35 34s-52 12.667 -86 20
c-20.667 4 -40.834 9.33301 -60.501 16s-37.167 15.5 -52.5 26.5s-27.666 24.667 -36.999 41s-14 36.166 -14 59.499c0 21.333 4.83301 41.333 14.5 60s22.834 34.834 39.501 48.501s36.5 24.5 59.5 32.5s47.833 12 74.5 12c46.667 0 88 -9.66699 124 -29
s65.333 -44.333 88 -75l-98 -52c-12.667 19.333 -28.834 34 -48.501 44s-41.167 15 -64.5 15c-22 0 -39.5 -4.33301 -52.5 -13s-19.5 -20 -19.5 -34c0 -16 8 -26.833 24 -32.5s44.333 -12.5 85 -20.5c21.333 -4 42.666 -9.33301 63.999 -16s40.333 -15.334 57 -26.001
s30.334 -24.334 41.001 -41.001s16 -37 16 -61c0 -44 -18.333 -81 -55 -111s-82.667 -45 -138 -45z" />
    <glyph glyph-name="t" unicode="t" horiz-adv-x="320" 
d="M290 0l-95.999 -0.000976562c-45.333 2.66699 -75.333 14.5 -90 35.5s-22.334 50.833 -23.001 89.5v247h-67v100h67v89l121 68v-157h93v-100h-94v-235c0 -11.333 2.83301 -19.666 8.5 -24.999s14.167 -8.33301 25.5 -9h55v-103z" />
    <glyph glyph-name="u" unicode="u" horiz-adv-x="510" 
d="M211 -9c-53.333 0 -95.5 17.832 -126.5 53.499s-46.5 83.834 -46.5 144.501v283h124v-276c0 -31.333 7.33301 -55.833 22 -73.5s36 -26.5 64 -26.5c32.667 0 56.167 12.667 70.5 38s21.5 58 21.5 98v240h124v-472h-124v67c-12.667 -24.667 -29.667 -43.5 -51 -56.5
s-47.333 -19.5 -78 -19.5z" />
    <glyph glyph-name="v" unicode="v" horiz-adv-x="474" 
d="M131 472l112 -329l104 329h124l-172 -472h-115l-181 472h128z" />
    <glyph glyph-name="w" unicode="w" horiz-adv-x="713" 
d="M135 472l81 -300l86 300h115l86 -303l80 303h122l-147 -472h-111l-90 323l-89 -323h-112l-149 472h128z" />
    <glyph glyph-name="x" unicode="x" horiz-adv-x="478" 
d="M4 0l165 242l-151 230h138l90 -145l91 145h129l-154 -226l162 -246h-139l-99 161l-102 -161h-130z" />
    <glyph glyph-name="y" unicode="y" horiz-adv-x="465" 
d="M26 -84h49c28.667 0 49.167 5 61.5 15s25.833 34.333 40.5 73l-178 468h130l110 -329l103 329h124l-180 -516c-20 -52 -44.5 -89.5 -73.5 -112.5s-71.833 -34.5 -128.5 -34.5h-58v107z" />
    <glyph glyph-name="z" unicode="z" horiz-adv-x="436" 
d="M266 371h-241v101h386v-89l-238 -282h238v-101h-387v89z" />
    <glyph glyph-name="braceleft" unicode="{" horiz-adv-x="369" 
d="M351 -181h-70.001c-62.667 0 -106.334 15 -131.001 45s-37 76.333 -37 139v98c0 32 -7.5 54.167 -22.5 66.5s-37.167 18.5 -66.5 18.5h-8v125h8c29.333 0 51.5 6.16699 66.5 18.5s22.5 34.166 22.5 65.499v84c0 63.333 12.333 110 37 140s68.334 45 131.001 45h70v-102
h-54c-14 0 -25.5 -1.16699 -34.5 -3.5s-16.167 -7.16602 -21.5 -14.499s-9.16602 -18 -11.499 -32s-3.5 -32.667 -3.5 -56v-66c0 -38 -9.66699 -69.167 -29 -93.5s-51 -40.5 -95 -48.5c45.333 -8 77.333 -24.167 96 -48.5s28 -55.5 28 -93.5v-80c0 -46 5 -75 15 -87
s28.667 -18 56 -18h54v-102z" />
    <glyph glyph-name="bar" unicode="|" horiz-adv-x="220" 
d="M170 664v-836h-120v836h120z" />
    <glyph glyph-name="braceright" unicode="}" horiz-adv-x="369" 
d="M19 -79h53.998c26.667 0 45 6 55 18s15 41 15 87v80c0 38 9.33301 69.167 28 93.5s50.334 40.5 95.001 48.5c-44 8 -75.5 24.167 -94.5 48.5s-28.5 55.5 -28.5 93.5v66c0 23.333 -1.16699 42 -3.5 56s-6.16602 24.667 -11.499 32s-12.5 12.166 -21.5 14.499
s-20.167 3.5 -33.5 3.5h-54v102h69c62.667 0 106.334 -15 131.001 -45s37 -76.667 37 -140v-84c0 -31.333 7.5 -53.166 22.5 -65.499s37.5 -18.5 67.5 -18.5h8v-125h-8c-30 0 -52.5 -6.16699 -67.5 -18.5s-22.5 -34.5 -22.5 -66.5v-98c0 -62.667 -12.333 -109 -37 -139
s-68.334 -45 -131.001 -45h-69v102z" />
    <glyph glyph-name="asciitilde" unicode="~" horiz-adv-x="474" 
d="M38 278c0 2.66699 0.501953 9.33496 1.50195 20.002s1.5 17.334 1.5 20.001c0 21.333 3.5 40.166 10.5 56.499s15.833 29.666 26.5 39.999s22.667 18 36 23s26.666 7.5 39.999 7.5c25.333 0 45.5 -4.66699 60.5 -14s27.833 -19.666 38.5 -30.999l29 -31
c8.66699 -9.33301 19 -14 31 -14c9.33301 0 18.166 4 26.499 12s12.5 19.333 12.5 34c0 1.33301 0.666992 5.66602 2 12.999s2 11.666 2 12.999l80 -8c0 -2.66699 -0.5 -9.5 -1.5 -20.5s-1.5 -17.5 -1.5 -19.5c-0.666992 -42 -12.667 -73.333 -36 -94s-48.333 -31 -75 -31
c-25.333 0 -45.5 4.66699 -60.5 14s-27.667 19.5 -38 30.5l-28.5 30.5c-8.66699 9.33301 -19 14 -31 14c-10 0 -18.167 -4 -24.5 -12s-11.5 -18.333 -15.5 -31c-0.666992 -1.33301 -1.5 -6 -2.5 -14s-1.5 -13.333 -1.5 -16z" />
    <glyph glyph-name="uni00A0" unicode="&#xa0;" horiz-adv-x="195" 
 />
    <glyph glyph-name="exclamdown" unicode="&#xa1;" horiz-adv-x="235" 
d="M202 -221h-170v3l66 475h37l67 -475v-3zM49 328v144h141v-144h-141z" />
    <glyph glyph-name="cent" unicode="&#xa2;" horiz-adv-x="509" 
d="M427 569l-38.998 -113.001c24 -13.333 44.167 -30.666 60.5 -51.999s29.166 -45.333 38.499 -72l-110 -36c-6.66699 26.667 -19 47.667 -37 63s-43 23 -75 23c-36 0 -64.667 -13.5 -86 -40.5s-32 -61.5 -32 -103.5v-4c0 -42.667 10.667 -77.334 32 -104.001
s50 -40 86 -40c33.333 0 59.333 8.16699 78 24.5s31.334 38.833 38.001 67.5l110 -35c-16.667 -48.667 -43.834 -87.5 -81.501 -116.5s-86.5 -43.5 -146.5 -43.5c-8.66699 0 -17.334 0.5 -26.001 1.5s-17 2.16699 -25 3.5l-31 -82h-76l40 105
c-37.333 20.667 -67.166 50.334 -89.499 89.001s-33.5 83 -33.5 133c0 36 6.16699 69.167 18.5 99.5s29.166 56.5 50.499 78.5s47 39.167 77 51.5s62.333 18.5 97 18.5c10 0 19.667 -0.5 29 -1.5s18.333 -2.16699 27 -3.5l31 89h75z" />
    <glyph glyph-name="sterling" unicode="&#xa3;" horiz-adv-x="608" 
d="M416 322l-0.00195312 -76h-109c2.66699 -8.66699 4.66699 -17.5 6 -26.5s2 -18.5 2 -28.5c0 -9.33301 -0.5 -18.5 -1.5 -27.5s-2.5 -17.833 -4.5 -26.5c18 -8.66699 36 -16.167 54 -22.5s36.333 -9.5 55 -9.5c19.333 0 33.666 4.66699 42.999 14s14 23.333 14 42v34h107
v-76c0 -46 -10.5 -79.5 -31.5 -100.5s-53.5 -31.5 -97.5 -31.5c-36 0 -68.5 7.83301 -97.5 23.5s-56.167 32.834 -81.5 51.501c-16 -22.667 -35.833 -40.834 -59.5 -54.501s-48.834 -20.5 -75.501 -20.5c-35.333 0 -63.833 9 -85.5 27s-32.5 41.667 -32.5 71
c0 30.667 11.167 56 33.5 76s51.166 30 86.499 30c14 0 27.5 -1.16699 40.5 -3.5s25.5 -5.5 37.5 -9.5c-1.33301 12 -4.16602 23.667 -8.49902 35s-9.16602 22.333 -14.499 33h-146v76h94c-16 22 -30.333 44.667 -43 68s-19 49.333 -19 78c0 62 21.333 112.333 64 151
s98.334 58 167.001 58c62.667 0 115.334 -15.167 158.001 -45.5s77.334 -68.5 104.001 -114.5l-103 -72c-14.667 28.667 -34 54.5 -58 77.5s-57 34.5 -99 34.5c-32 0 -57.667 -9.16699 -77 -27.5s-29 -42.5 -29 -72.5c0 -25.333 6.5 -48.5 19.5 -69.5l41.5 -65.5h146z
M140.998 47c18 0 33.002 5.16699 45.002 15.5s21 24.5 27 42.5c-12.667 7.33301 -25.334 13.5 -38.001 18.5s-25.334 7.5 -38.001 7.5c-12 0 -22 -4.16699 -30 -12.5s-12 -18.833 -12 -31.5c0 -11.333 4.66699 -20.833 14 -28.5s20 -11.5 32 -11.5z" />
    <glyph glyph-name="currency" unicode="&#xa4;" horiz-adv-x="661" 
d="M330 116c-24.667 0 -47.832 3.33398 -69.499 10.001s-41.167 16 -58.5 28l-97 -100l-64 56l107 100c-10.667 16 -18.667 33.833 -24 53.5s-8 39.834 -8 60.501c0 20 2.66699 39.333 8 58s13 36 23 52l-107 99l64 56l95 -99c18 12.667 38.167 22.5 60.5 29.5
s46.5 10.5 72.5 10.5c24.667 0 48 -3.5 70 -10.5s41.667 -16.5 59 -28.5l95 98l64 -56l-106 -99c10 -16 17.667 -33.333 23 -52s8 -38 8 -58c0 -20.667 -3 -40.834 -9 -60.501s-14.333 -37.834 -25 -54.501l108 -99l-64 -56l-97 100c-17.333 -12 -36.833 -21.333 -58.5 -28
s-44.834 -10 -69.501 -10zM330.002 210.001c36 0 62.668 10.333 80.001 31s26 48 26 82v2c0 33.333 -8.5 60 -25.5 80s-43.5 30 -79.5 30c-36.667 0 -63.334 -10 -80.001 -30s-25 -46.667 -25 -80v-2c0 -34 8.16699 -61.333 24.5 -82s42.833 -31 79.5 -31z" />
    <glyph glyph-name="yen" unicode="&#xa5;" horiz-adv-x="595" 
d="M50 151v71h182v75h-182v71h179l-190 296h131l133 -211l130 211h126l-193 -296h175v-71h-181v-75h181v-71h-181v-151h-128v151h-182z" />
    <glyph glyph-name="brokenbar" unicode="&#xa6;" horiz-adv-x="221" 
d="M171 214v-386h-120v386h120zM170 664v-386h-120v386h120z" />
    <glyph glyph-name="section" unicode="&#xa7;" horiz-adv-x="606" 
d="M310 -163c-40 0 -78.168 5.83105 -114.501 17.498s-68.833 27.834 -97.5 48.501l56 90c27.333 -18.667 53.833 -32.334 79.5 -41.001s49.167 -13 70.5 -13c30 0.666992 51.167 6.83398 63.5 18.501s18.5 23.834 18.5 36.501c0 20 -14 34.833 -42 44.5
s-61.333 20.167 -100 31.5c-24 6.66699 -49.5 14.5 -76.5 23.5s-51.833 20.333 -74.5 34s-41.334 30.834 -56.001 51.501s-22 46.334 -22 77.001c0 42 13.333 75.333 40 100s62 42.334 106 53.001c-20 10 -36.833 23.833 -50.5 41.5s-20.5 41.834 -20.5 72.501
c0 44 17.167 80.667 51.5 110s84.5 44 150.5 44c40.667 0 79 -5.83301 115 -17.5s68.333 -27.834 97 -48.501l-55 -91c-28 19.333 -54.667 33.333 -80 42s-49 13 -71 13c-29.333 -0.666992 -50.166 -6.83398 -62.499 -18.501s-18.5 -23.834 -18.5 -36.501
c0 -20 13.833 -34.833 41.5 -44.5s60.834 -20.167 99.501 -31.5c24 -6.66699 49.5 -14.5 76.5 -23.5s51.833 -20.5 74.5 -34.5s41.334 -31.333 56.001 -52s22 -46.334 22 -77.001c0 -42 -12.667 -75.5 -38 -100.5s-60.333 -42.833 -105 -53.5
c19.333 -10 35.666 -23.833 48.999 -41.5s20 -41.167 20 -70.5c0 -44 -17.333 -80.667 -52 -110s-85 -44 -151 -44zM285.999 175.998l37.998 -10.9971c11.333 -3.33301 22.333 -7 33 -11c34 0.666992 60.167 8.5 78.5 23.5s27.5 35.167 27.5 60.5
c0 30.667 -13.833 52.167 -41.5 64.5s-62.5 24.166 -104.5 35.499c-15.333 4 -28.666 7.66699 -39.999 11s-22.666 7.33301 -33.999 12c-34 -2 -59.833 -10.333 -77.5 -25s-26.5 -33.334 -26.5 -56.001c0 -32.667 14 -55.334 42 -68.001s63 -24.667 105 -36z" />
    <glyph glyph-name="dieresis" unicode="&#xa8;" horiz-adv-x="396" 
d="M160 662v-121h-110v121h110zM346 662v-121h-110v121h110z" />
    <glyph glyph-name="copyright" unicode="&#xa9;" horiz-adv-x="617" 
d="M308 249c-44 0 -79.167 13.668 -105.5 41.001s-39.5 64.333 -39.5 111c0 48.667 13.667 86.334 41 113.001s62.666 40 105.999 40c38.667 0 69.667 -10.333 93 -31s37.333 -50.334 42 -89.001h-70c-2.66699 20 -9.5 34.167 -20.5 42.5s-23.833 12.5 -38.5 12.5
c-19.333 0 -34.5 -6.5 -45.5 -19.5s-16.5 -33.833 -16.5 -62.5v-10c0 -28.667 5.66699 -49.834 17 -63.501s25.666 -20.5 42.999 -20.5c16.667 0 30.334 4.5 41.001 13.5s17.334 25.833 20.001 50.5h73c-2 -46 -16.333 -78.833 -43 -98.5s-59 -29.5 -97 -29.5zM307 184.001
c64.667 0 117.5 19.833 158.5 59.5s61.5 91.5 61.5 155.5c0 65.333 -20.667 118.333 -62 159s-94 61 -158 61s-116.167 -20.167 -156.5 -60.5s-60.5 -93.5 -60.5 -159.5c0 -64 20.333 -115.833 61 -155.5s92.667 -59.5 156 -59.5zM307 124.001
c-42 0 -80.5 6.66797 -115.5 20.001s-64.833 32 -89.5 56s-43.834 52.833 -57.501 86.5s-20.5 71.167 -20.5 112.5c0 42 6.83301 80.333 20.5 115s32.834 64.167 57.501 88.5s54.5 43.166 89.5 56.499s73.5 20 115.5 20c42.667 0 81.667 -6.66699 117 -20
s65.5 -32.333 90.5 -57s44.333 -54.167 58 -88.5s20.5 -72.5 20.5 -114.5c0 -41.333 -6.83301 -78.833 -20.5 -112.5s-33 -62.5 -58 -86.5s-55.167 -42.667 -90.5 -56s-74.333 -20 -117 -20z" />
    <glyph glyph-name="ordfeminine" unicode="&#xaa;" horiz-adv-x="414" 
d="M154 320c-38 0 -68.334 9.33301 -91.001 28s-34 43.334 -34 74.001c0 38 13.5 64 40.5 78s59.833 24.667 98.5 32l75.5 15.5c17.667 3.66699 26.834 10.167 27.501 19.5v3c0 10.667 -5 19.667 -15 27s-26 11 -48 11s-38.667 -4.66699 -50 -14s-17.333 -21.333 -18 -36v-6
h-104c0.666992 40.667 16.5 73.167 47.5 97.5s72.833 36.5 125.5 36.5c51.333 0 91.5 -11.333 120.5 -34s43.5 -58.334 43.5 -107.001v-216h-102v48c-10.667 -18 -26 -32 -46 -42s-43.667 -15 -71 -15zM134.999 429c0 -10.667 4.50098 -19.668 13.501 -27.001
s20.833 -11 35.5 -11c20.667 0 40.167 6 58.5 18s27.833 32.333 28.5 61v31c-8.66699 -5.33301 -20.167 -9.66602 -34.5 -12.999l-41.5 -10c-16.667 -4 -30.834 -9.5 -42.501 -16.5s-17.5 -17.833 -17.5 -32.5z" />
    <glyph glyph-name="guillemotleft" unicode="&#xab;" horiz-adv-x="458" 
d="M22 296l181 121v-101l-86 -48l86 -50v-100l-181 120v58zM231 296l191 138v-111l-93 -55l93 -56v-111l-191 137v58z" />
    <glyph glyph-name="logicalnot" unicode="&#xac;" horiz-adv-x="475" 
d="M428 319v-257h-105v157h-286v100h391z" />
    <glyph glyph-name="uni00AD" unicode="&#xad;" horiz-adv-x="300" 
d="M262 319v-100h-224v100h224z" />
    <glyph glyph-name="registered" unicode="&#xae;" horiz-adv-x="617" 
d="M307 124c-42 0 -80.5 6.66797 -115.5 20.001s-64.833 32 -89.5 56s-43.834 52.833 -57.501 86.5s-20.5 71.167 -20.5 112.5c0 42 6.83301 80.333 20.5 115s32.834 64.167 57.501 88.5s54.5 43.166 89.5 56.499s73.5 20 115.5 20c42.667 0 81.667 -6.66699 117 -20
s65.5 -32.333 90.5 -57s44.333 -54.167 58 -88.5s20.5 -72.5 20.5 -114.5c0 -41.333 -6.83301 -78.833 -20.5 -112.5s-33 -62.5 -58 -86.5s-55.167 -42.667 -90.5 -56s-74.333 -20 -117 -20zM307 183.001c64.667 0 117.5 20 158.5 60s61.5 92 61.5 156
c0 65.333 -20.667 118.333 -62 159s-94 61 -158 61s-116.167 -20.167 -156.5 -60.5s-60.5 -93.5 -60.5 -159.5c0 -64 20.333 -116 61 -156s92.667 -60 156 -60zM409 254.001c-18 0 -32.167 4.33301 -42.5 13s-15.5 23 -15.5 43c0 28.667 -5.5 46.5 -16.5 53.5
s-30.167 10.5 -57.5 10.5h-10v-115h-76v288h128c40 0 68.833 -6.5 86.5 -19.5s26.5 -31.5 26.5 -55.5c0 -18.667 -4.66699 -34.834 -14 -48.501s-24.666 -23.167 -45.999 -28.5c20.667 -5.33301 36.5 -14.666 47.5 -27.999s16.5 -31.333 16.5 -54
c0 -6 0.166992 -9.66699 0.5 -11s1.16602 -2.33301 2.49902 -3l20 -10v-1c-2.66699 -8.66699 -7.66699 -16.5 -15 -23.5s-19 -10.5 -35 -10.5zM267 491.001v-67.999h38c22 0 36.5 3.33301 43.5 10s10.5 16 10.5 28c0 9.33301 -4 16.666 -12 21.999s-21.667 8 -41 8h-39z" />
    <glyph glyph-name="macron" unicode="&#xaf;" horiz-adv-x="396" 
d="M346 643v-88h-296v88h296z" />
    <glyph glyph-name="degree" unicode="&#xb0;" horiz-adv-x="349" 
d="M173 434c24.667 0 43.999 7.66699 57.999 23s21 36.333 21 63v2c0 26 -6.83301 46.333 -20.5 61s-32.5 22 -56.5 22c-23.333 0 -42.166 -7.5 -56.499 -22.5s-21.5 -35.167 -21.5 -60.5v-2c0 -26.667 6.66699 -47.667 20 -63s32 -23 56 -23zM172.999 363
c-46.667 0 -84.5 14.333 -113.5 43s-43.5 67 -43.5 115c0 46.667 14.833 84.5 44.5 113.5s68.5 43.5 116.5 43.5c46 0 83.5 -14.5 112.5 -43.5s43.5 -66.833 43.5 -113.5s-14.833 -84.667 -44.5 -114s-68.167 -44 -115.5 -44z" />
    <glyph glyph-name="plusminus" unicode="&#xb1;" horiz-adv-x="480" 
d="M442 334v-94h-152v-104h-101v104h-151v94h151v156h101v-156h152zM442 98v-98h-404v98h404z" />
    <glyph glyph-name="two.sups" unicode="&#xb2;" horiz-adv-x="394" 
d="M30 329l-0.00195312 17.999c0 46 11.833 82.167 35.5 108.5s49.5 48 77.5 65s53.833 31.833 77.5 44.5s35.5 28 35.5 46c0 12.667 -5 23.5 -15 32.5s-25 13.5 -45 13.5c-20.667 0 -38.667 -5.33301 -54 -16s-29.333 -26.667 -42 -48l-79 49
c18.667 32.667 42.834 57.834 72.501 75.501s65.5 26.5 107.5 26.5c48 0 86.833 -11.667 116.5 -35s44.5 -55 44.5 -95c0 -32 -10.167 -57 -30.5 -75s-43.166 -33.333 -68.499 -46l-74 -36.5c-24 -11.667 -39.667 -27.167 -47 -46.5l91 1h129l2 -82h-334z" />
    <glyph glyph-name="three.sups" unicode="&#xb3;" horiz-adv-x="425" 
d="M212 321c-52 0 -94.8311 10.168 -128.498 30.501s-52.167 56.5 -55.5 108.5h100c1.33301 -20.667 8.5 -35.667 21.5 -45s32.833 -14 59.5 -14c24.667 0 43.167 4.16699 55.5 12.5s18.5 20.5 18.5 36.5v2c0 16.667 -5.66699 28.834 -17 36.501s-30 11.5 -56 11.5h-33v73
h33c22 0 38 3.5 48 10.5s15 17.833 15 32.5v2c0 14.667 -6 26.167 -18 34.5s-29.333 12.5 -52 12.5c-24.667 0 -42.834 -5.5 -54.501 -16.5s-18.5 -25.833 -20.5 -44.5h-99c4 45.333 21 80 51 104s71.333 36 124 36c56 0 99 -10.333 129 -31s45 -50 45 -88
c0 -20.667 -5.83301 -37.834 -17.5 -51.501s-29.834 -23.834 -54.501 -30.501c27.333 -7.33301 48.333 -19.333 63 -36s22 -37.667 22 -63c0 -38 -15.333 -68 -46 -90s-75 -33 -133 -33z" />
    <glyph glyph-name="acute" unicode="&#xb4;" horiz-adv-x="327" 
d="M277 683v-12l-163 -137h-64l88 149h139z" />
    <glyph glyph-name="uni00B5" unicode="&#xb5;" horiz-adv-x="525" 
d="M258 -9c-21.333 0 -41.333 5.16895 -60 15.502s-32 28.166 -40 53.499l6 -246h-118v658h125v-265c0 -32.667 7.66699 -59.334 23 -80.001s38.333 -31 69 -31s53.334 10.333 68.001 31s22 47.334 22 80.001v265h125v-472h-100l-13 75
c-9.33301 -28.667 -23.833 -49.834 -43.5 -63.501s-40.834 -20.5 -63.501 -20.5z" />
    <glyph glyph-name="paragraph" unicode="&#xb6;" horiz-adv-x="610" 
d="M306 0l-0.000976562 274h-8c-89.333 0 -156.5 15.667 -201.5 47s-67.5 79 -67.5 143c0 67.333 22.833 117.5 68.5 150.5s113.834 49.5 204.501 49.5h251v-664h-75v582h-97v-582h-75z" />
    <glyph glyph-name="periodcentered" unicode="&#xb7;" horiz-adv-x="234" 
d="M185 338v-138h-136v138h136z" />
    <glyph glyph-name="cedilla" unicode="&#xb8;" horiz-adv-x="26" 
d="M1 -206c-14.667 0 -28.1689 1.16797 -40.502 3.50098s-22.166 4.83301 -29.499 7.5v85c4.66699 -1.33301 10.667 -2.83301 18 -4.5s16 -2.5 26 -2.5c16.667 0 28.834 3 36.501 9s11.5 15.333 11.5 28c0 16.667 -7 31.667 -21 45s-35 25 -63 35l33 26
c50 -13.333 87.167 -31.333 111.5 -54s36.5 -50 36.5 -82c0 -26.667 -9.5 -49.334 -28.5 -68.001s-49.167 -28 -90.5 -28z" />
    <glyph glyph-name="one.sups" unicode="&#xb9;" horiz-adv-x="323" 
d="M156 329l-0.00195312 277c-16.667 -19.333 -35.5 -36.833 -56.5 -52.5s-44.5 -27.167 -70.5 -34.5l-2 89c34.667 11.333 64.334 28 89.001 50s40.334 48 47.001 78h94v-407h-101z" />
    <glyph glyph-name="ordmasculine" unicode="&#xba;" horiz-adv-x="437" 
d="M218 322c-57.333 0 -103.5 16.832 -138.5 50.499s-52.5 77.5 -52.5 131.5s17.5 97.833 52.5 131.5s80.833 50.5 137.5 50.5c57.333 0 103.5 -17.167 138.5 -51.5s52.5 -78.5 52.5 -132.5c0 -53.333 -17.5 -96.666 -52.5 -129.999s-80.833 -50 -137.5 -50zM217 401.999
c26 0 46.333 8.5 61 25.5s22 41.167 22 72.5v5c0 32 -7.5 57 -22.5 75s-35.167 27 -60.5 27s-45.166 -8.83301 -59.499 -26.5s-21.5 -42.5 -21.5 -74.5v-6c0 -32 7.16699 -56.333 21.5 -73s34.166 -25 59.499 -25z" />
    <glyph glyph-name="guillemotright" unicode="&#xbb;" horiz-adv-x="458" 
d="M36 212l93 56l-93 55v111l191 -138v-58l-191 -137v111zM256 218l86 50l-86 48v101l180 -121v-58l-180 -120v100z" />
    <glyph glyph-name="onequarter" unicode="&#xbc;" horiz-adv-x="882" 
d="M196 0l404 664h74l-405 -664h-73zM156 257l-0.00195312 277c-16.667 -19.333 -35.5 -36.833 -56.5 -52.5s-44.5 -27.167 -70.5 -34.5l-2 89c34.667 10.667 64.334 27.167 89.001 49.5s40.334 48.5 47.001 78.5h94v-407h-101zM695.998 0v93h-208v78l46 61.5l53.5 73
l48.5 67c14.667 20.333 24.667 34.5 30 42.5h129l-220 -248h122v58l93 53v-111h65v-74h-65v-93h-94z" />
    <glyph glyph-name="onehalf" unicode="&#xbd;" horiz-adv-x="891" 
d="M661 664l-405 -664h-73l404 664h74zM526 0l0.000976562 17.999c0 46 11.833 82.167 35.5 108.5s49.667 48 78 65s54.333 31.833 78 44.5s35.5 28 35.5 46c0 12.667 -5 23.5 -15 32.5s-25.333 13.5 -46 13.5s-38.667 -5.33301 -54 -16s-29.333 -26.667 -42 -48l-79 49
c19.333 32.667 43.666 57.834 72.999 75.501s65 26.5 107 26.5c48 0 86.833 -11.667 116.5 -35s44.5 -55 44.5 -95c0 -32 -10 -57 -30 -75s-42.833 -33.333 -68.5 -46l-74 -36.5c-23.667 -11.667 -39.167 -27.167 -46.5 -46.5l70 1h150l1 -82h-334zM156.001 256.999
l-0.00195312 277c-16.667 -19.333 -35.5 -36.833 -56.5 -52.5s-44.5 -27.167 -70.5 -34.5l-2 89c34.667 10.667 64.334 27.167 89.001 49.5s40.334 48.5 47.001 78.5h94v-407h-101z" />
    <glyph glyph-name="threequarters" unicode="&#xbe;" horiz-adv-x="961" 
d="M226 242c-51.333 0 -93.168 10.8311 -125.501 32.498s-49.833 56.167 -52.5 103.5h92c2 -22.667 10.833 -38.167 26.5 -46.5s35.167 -12.5 58.5 -12.5c24.667 0 43.667 5 57 15s20 24.667 20 44v3c0 18.667 -8.33301 30.834 -25 36.501s-37 8.83398 -61 9.50098h-22v70
h23c24 0 43.167 3.66699 57.5 11s21.5 19.333 21.5 36c0 18.667 -6 31.834 -18 39.501s-30.333 11.5 -55 11.5c-20.667 0 -38.5 -4.5 -53.5 -13.5s-23.5 -25.5 -25.5 -49.5h-90c4.66699 44 21.334 78.167 50.001 102.5s69 36.5 121 36.5c52.667 0 93.167 -10.5 121.5 -31.5
s42.5 -49.833 42.5 -86.5c0 -21.333 -6.83301 -39.333 -20.5 -54s-34.167 -25.334 -61.5 -32.001c30 -6.66699 52.667 -18.167 68 -34.5s23 -37.5 23 -63.5c0 -38.667 -15.667 -69.5 -47 -92.5s-73 -34.5 -125 -34.5zM773.998 -0.00195312v93h-207v78l46 61.5l53.5 73l48 67
l30.5 42.5h129l-220 -248h122v58l93 53v-111h65v-74h-65v-93h-95zM274.998 -0.00195312l404 664h74l-405 -664h-73z" />
    <glyph glyph-name="questiondown" unicode="&#xbf;" horiz-adv-x="524" 
d="M334 257l0.000976562 -21.998c-4 -44.667 -14.833 -79.834 -32.5 -105.501s-36.167 -47.167 -55.5 -64.5l-52.5 -48c-15.667 -14.667 -23.5 -33.667 -23.5 -57c0 -20.667 7.33301 -38.5 22 -53.5s34.667 -22.5 60 -22.5c34 0 61.167 11.667 81.5 35
s36.833 49.333 49.5 78l105 -58c-24.667 -48 -56.334 -89 -95.001 -123s-88.667 -51 -150 -51c-62 0 -112.833 17.5 -152.5 52.5s-59.5 79.833 -59.5 134.5c0 40 10 72 30 96s42 45.667 66 65s46.333 39.666 67 60.999s31.667 49 33 83h107zM208.001 330.002v142h141v-142
h-141z" />
    <glyph glyph-name="Agrave" unicode="&#xc0;" horiz-adv-x="664" 
d="M13 0l250 664h145l242 -664h-135l-63 177h-249l-64 -177h-126zM330 528l-90 -246h177zM142 861h139l90 -147h-66l-163 136v11z" />
    <glyph glyph-name="Aacute" unicode="&#xc1;" horiz-adv-x="664" 
d="M13 0l250 664h145l242 -664h-135l-63 177h-249l-64 -177h-126zM330 528l-90 -246h177zM521 861v-11l-163 -136h-65l89 147h139z" />
    <glyph glyph-name="Acircumflex" unicode="&#xc2;" horiz-adv-x="664" 
d="M13 0l250 664h145l242 -664h-135l-63 177h-249l-64 -177h-126zM330 528l-90 -246h177zM386 859l108 -145h-86l-74 77l-76 -77h-84l107 145h105z" />
    <glyph glyph-name="Atilde" unicode="&#xc3;" horiz-adv-x="664" 
d="M13 0l250 664h145l242 -664h-135l-63 177h-249l-64 -177h-126zM330 528l-90 -246h177zM240 724l-61.999 6c-0.666992 2.66699 -0.833984 7.33398 -0.500977 14.001s0.5 11.334 0.5 14.001c2 36 12.333 61 31 75s37.334 21 56.001 21s33.667 -2.83301 45 -8.5
s21 -11.834 29 -18.501l22.5 -18.5c7 -5.66699 15.833 -8.5 26.5 -8.5c8.66699 0 15.167 2.66699 19.5 8s8.16602 12 11.499 20c0.666992 0.666992 1.66699 3.5 3 8.5s2 8.83301 2 11.5l61 -8c0.666992 -2.66699 0.833984 -7.33398 0.500977 -14.001
s-0.833008 -11.334 -1.5 -14.001c-2 -36 -12.167 -61 -30.5 -75s-36.833 -21 -55.5 -21c-18 0 -32.5 2.83301 -43.5 8.5s-20.5 11.834 -28.5 18.501l-23 18.5c-7.33301 5.66699 -16.333 8.5 -27 8.5c-8.66699 0 -15.334 -2.5 -20.001 -7.5s-8.66699 -12.167 -12 -21.5
c-0.666992 -2 -1.5 -5 -2.5 -9s-1.5 -6.66699 -1.5 -8z" />
    <glyph glyph-name="Adieresis" unicode="&#xc4;" horiz-adv-x="664" 
d="M13 0l250 664h145l242 -664h-135l-63 177h-249l-64 -177h-126zM330 528l-90 -246h177zM294 843v-121h-110v121h110zM481 843v-121h-110v121h110z" />
    <glyph glyph-name="Aring" unicode="&#xc5;" horiz-adv-x="664" 
d="M13 0l250 664h145l242 -664h-135l-63 177h-249l-64 -177h-126zM330 528l-90 -246h177zM332 705c14.667 0 26.5 4 35.5 12s13.5 18.333 13.5 31s-4.5 23.334 -13.5 32.001s-20.833 13 -35.5 13c-14 0 -25.333 -4.33301 -34 -13s-13 -19.334 -13 -32.001
s4.33301 -23 13 -31s20 -12 34 -12zM332 650c-33.333 0 -60.5 9.16699 -81.5 27.5s-31.5 41.833 -31.5 70.5c0 29.333 10.5 53.166 31.5 71.499s48.167 27.5 81.5 27.5c34 0 61.667 -9.16699 83 -27.5s32 -42.166 32 -71.499c0 -28.667 -10.667 -52.167 -32 -70.5
s-49 -27.5 -83 -27.5z" />
    <glyph glyph-name="AE" unicode="&#xc6;" horiz-adv-x="922" 
d="M776 396v-109h-197v-178h313v-109h-437v223h-191l-121 -223h-130l365 664h494v-109h-293v-159h197zM319 329h136v253z" />
    <glyph glyph-name="Ccedilla" unicode="&#xc7;" horiz-adv-x="656" 
d="M333 -206c-14.667 0 -28.165 1.1709 -40.498 3.50391s-22.166 4.83301 -29.499 7.5v85c4.66699 -1.33301 10.667 -2.83301 18 -4.5s16 -2.5 26 -2.5c16.667 0 28.834 3 36.501 9s11.5 15.333 11.5 28c0 14.667 -4.83301 27.667 -14.5 39s-24.167 21.666 -43.5 30.999
c-40 4.66699 -76.5 16.167 -109.5 34.5s-61.167 42.166 -84.5 71.499s-41.5 64.166 -54.5 104.499s-19.5 84.166 -19.5 131.499c0 51.333 7.66699 98.333 23 141s36.666 79 63.999 109s60.333 53.333 99 70s81.334 25 128.001 25c77.333 0 142.166 -20.5 194.499 -61.5
s85.833 -102.5 100.5 -184.5h-131c-10.667 46.667 -30.167 80.167 -58.5 100.5s-63.833 30.5 -106.5 30.5c-56 0 -100.167 -20.167 -132.5 -60.5s-48.5 -95.166 -48.5 -164.499v-10c0 -70 15.833 -125 47.5 -165s75.5 -60 131.5 -60c45.333 0 82.666 10.833 111.999 32.5
s48.333 57.834 57 108.501h131c-10.667 -76.667 -38.334 -135.834 -83.001 -177.501s-100.334 -66.5 -167.001 -74.5c20.667 -12.667 36.167 -27.5 46.5 -44.5s15.5 -35.833 15.5 -56.5c0 -26.667 -9.5 -49.334 -28.5 -68.001s-49.167 -28 -90.5 -28z" />
    <glyph glyph-name="Egrave" unicode="&#xc8;" horiz-adv-x="571" 
d="M412 396v-109h-237v-178h367v-109h-492v664h481v-109h-356v-159h237zM116 861h139l90 -147h-66l-163 136v11z" />
    <glyph glyph-name="Eacute" unicode="&#xc9;" horiz-adv-x="571" 
d="M412 396v-109h-237v-178h367v-109h-492v664h481v-109h-356v-159h237zM468 861v-11l-163 -136h-65l89 147h139z" />
    <glyph glyph-name="Ecircumflex" unicode="&#xca;" horiz-adv-x="571" 
d="M412 396v-109h-237v-178h367v-109h-492v664h481v-109h-356v-159h237zM360 859l108 -145h-86l-74 77l-76 -77h-84l107 145h105z" />
    <glyph glyph-name="Edieresis" unicode="&#xcb;" horiz-adv-x="571" 
d="M412 396v-109h-237v-178h367v-109h-492v664h481v-109h-356v-159h237zM268 843v-121h-110v121h110zM455 843v-121h-110v121h110z" />
    <glyph glyph-name="Igrave" unicode="&#xcc;" horiz-adv-x="237" 
d="M182 664v-664h-127v664h127zM98 714l-132 136v11h130l61 -147h-59z" />
    <glyph glyph-name="Iacute" unicode="&#xcd;" horiz-adv-x="237" 
d="M182 664v-664h-127v664h127zM267 861v-11l-131 -136h-59l60 147h130z" />
    <glyph glyph-name="Icircumflex" unicode="&#xce;" horiz-adv-x="237" 
d="M182 664v-664h-127v664h127zM173 859l108 -145h-86l-74 77l-76 -77h-84l107 145h105z" />
    <glyph glyph-name="Idieresis" unicode="&#xcf;" horiz-adv-x="237" 
d="M182 664v-664h-127v664h127zM94 843v-121h-110v121h110zM254 843v-121h-110v121h110z" />
    <glyph glyph-name="Eth" unicode="&#xd0;" horiz-adv-x="664" 
d="M62 664l245.001 0.000976562c104 0 185 -28.5 243 -85.5s87 -139.833 87 -248.5c0 -106.667 -29.833 -188.334 -89.5 -245.001s-142.834 -85 -249.501 -85h-236v284h-67v97h67v283zM191.001 106.001h108c68.667 0 120 18.5 154 55.5s51 92.5 51 166.5v6
c0 76 -16.333 132.333 -49 169s-82.667 55 -150 55h-114v-177h144v-97h-144v-178z" />
    <glyph glyph-name="Ntilde" unicode="&#xd1;" horiz-adv-x="658" 
d="M194 664l294 -449v449h120v-664h-121l-317 485v-485h-120v664h144zM238 724l-61.999 6c-0.666992 2.66699 -0.833984 7.33398 -0.500977 14.001s0.5 11.334 0.5 14.001c2 36 12.333 61 31 75s37.334 21 56.001 21s33.667 -2.83301 45 -8.5s21 -11.834 29 -18.501
l22.5 -18.5c7 -5.66699 15.833 -8.5 26.5 -8.5c8.66699 0 15.167 2.66699 19.5 8s8.16602 12 11.499 20c0.666992 0.666992 1.66699 3.5 3 8.5s2 8.83301 2 11.5l61 -8c0.666992 -2.66699 0.833984 -7.33398 0.500977 -14.001s-0.833008 -11.334 -1.5 -14.001
c-2 -36 -12.167 -61 -30.5 -75s-36.833 -21 -55.5 -21c-18 0 -32.5 2.83301 -43.5 8.5s-20.5 11.834 -28.5 18.501l-23 18.5c-7.33301 5.66699 -16.333 8.5 -27 8.5c-8.66699 0 -15.334 -2.5 -20.001 -7.5s-8.66699 -12.167 -12 -21.5c-0.666992 -2 -1.5 -5 -2.5 -9
s-1.5 -6.66699 -1.5 -8z" />
    <glyph glyph-name="Ograve" unicode="&#xd2;" horiz-adv-x="714" 
d="M356 98c60 0 107.667 20.332 143 60.999s53 97.667 53 171v5c0 72 -17.333 128.5 -52 169.5s-82 61.5 -142 61.5s-107.667 -20.167 -143 -60.5s-53 -97.166 -53 -170.499v-5c0 -72 17.333 -128.667 52 -170s82 -62 142 -62zM354 -13.001c-48 0 -92.167 8.33301 -132.5 25
s-74.666 40.167 -102.999 70.5s-50.333 66.833 -66 109.5s-23.5 89.334 -23.5 140.001s8 97.334 24 140.001s38.333 79 67 109s63.5 53.5 104.5 70.5s86.167 25.5 135.5 25.5c48 0 92.167 -8.33301 132.5 -25s74.666 -40.167 102.999 -70.5s50.333 -66.833 66 -109.5
s23.5 -89.334 23.5 -140.001s-8 -97.334 -24 -140.001s-38.333 -79 -67 -109s-63.5 -53.5 -104.5 -70.5s-86.167 -25.5 -135.5 -25.5zM167 860.999h139l90 -147h-66l-163 136v11z" />
    <glyph glyph-name="Oacute" unicode="&#xd3;" horiz-adv-x="714" 
d="M356 98c60 0 107.667 20.332 143 60.999s53 97.667 53 171v5c0 72 -17.333 128.5 -52 169.5s-82 61.5 -142 61.5s-107.667 -20.167 -143 -60.5s-53 -97.166 -53 -170.499v-5c0 -72 17.333 -128.667 52 -170s82 -62 142 -62zM354 -13.001c-48 0 -92.167 8.33301 -132.5 25
s-74.666 40.167 -102.999 70.5s-50.333 66.833 -66 109.5s-23.5 89.334 -23.5 140.001s8 97.334 24 140.001s38.333 79 67 109s63.5 53.5 104.5 70.5s86.167 25.5 135.5 25.5c48 0 92.167 -8.33301 132.5 -25s74.666 -40.167 102.999 -70.5s50.333 -66.833 66 -109.5
s23.5 -89.334 23.5 -140.001s-8 -97.334 -24 -140.001s-38.333 -79 -67 -109s-63.5 -53.5 -104.5 -70.5s-86.167 -25.5 -135.5 -25.5zM546 860.999v-11l-163 -136h-65l89 147h139z" />
    <glyph glyph-name="Ocircumflex" unicode="&#xd4;" horiz-adv-x="714" 
d="M356 98c60 0 107.667 20.332 143 60.999s53 97.667 53 171v5c0 72 -17.333 128.5 -52 169.5s-82 61.5 -142 61.5s-107.667 -20.167 -143 -60.5s-53 -97.166 -53 -170.499v-5c0 -72 17.333 -128.667 52 -170s82 -62 142 -62zM354 -13.001c-48 0 -92.167 8.33301 -132.5 25
s-74.666 40.167 -102.999 70.5s-50.333 66.833 -66 109.5s-23.5 89.334 -23.5 140.001s8 97.334 24 140.001s38.333 79 67 109s63.5 53.5 104.5 70.5s86.167 25.5 135.5 25.5c48 0 92.167 -8.33301 132.5 -25s74.666 -40.167 102.999 -70.5s50.333 -66.833 66 -109.5
s23.5 -89.334 23.5 -140.001s-8 -97.334 -24 -140.001s-38.333 -79 -67 -109s-63.5 -53.5 -104.5 -70.5s-86.167 -25.5 -135.5 -25.5zM411 858.999l108 -145h-86l-74 77l-76 -77h-84l107 145h105z" />
    <glyph glyph-name="Otilde" unicode="&#xd5;" horiz-adv-x="714" 
d="M356 98c60 0 107.667 20.332 143 60.999s53 97.667 53 171v5c0 72 -17.333 128.5 -52 169.5s-82 61.5 -142 61.5s-107.667 -20.167 -143 -60.5s-53 -97.166 -53 -170.499v-5c0 -72 17.333 -128.667 52 -170s82 -62 142 -62zM354 -13.001c-48 0 -92.167 8.33301 -132.5 25
s-74.666 40.167 -102.999 70.5s-50.333 66.833 -66 109.5s-23.5 89.334 -23.5 140.001s8 97.334 24 140.001s38.333 79 67 109s63.5 53.5 104.5 70.5s86.167 25.5 135.5 25.5c48 0 92.167 -8.33301 132.5 -25s74.666 -40.167 102.999 -70.5s50.333 -66.833 66 -109.5
s23.5 -89.334 23.5 -140.001s-8 -97.334 -24 -140.001s-38.333 -79 -67 -109s-63.5 -53.5 -104.5 -70.5s-86.167 -25.5 -135.5 -25.5zM265 723.999l-61.999 6c-0.666992 2.66699 -0.833984 7.33398 -0.500977 14.001s0.5 11.334 0.5 14.001c2 36 12.333 61 31 75
s37.334 21 56.001 21s33.667 -2.83301 45 -8.5s21 -11.834 29 -18.501l22.5 -18.5c7 -5.66699 15.833 -8.5 26.5 -8.5c8.66699 0 15.167 2.66699 19.5 8s8.16602 12 11.499 20c0.666992 0.666992 1.66699 3.5 3 8.5s2 8.83301 2 11.5l61 -8
c0.666992 -2.66699 0.833984 -7.33398 0.500977 -14.001s-0.833008 -11.334 -1.5 -14.001c-2 -36 -12.167 -61 -30.5 -75s-36.833 -21 -55.5 -21c-18 0 -32.5 2.83301 -43.5 8.5s-20.5 11.834 -28.5 18.501l-23 18.5c-7.33301 5.66699 -16.333 8.5 -27 8.5
c-8.66699 0 -15.334 -2.5 -20.001 -7.5s-8.66699 -12.167 -12 -21.5c-0.666992 -2 -1.5 -5 -2.5 -9s-1.5 -6.66699 -1.5 -8z" />
    <glyph glyph-name="Odieresis" unicode="&#xd6;" horiz-adv-x="714" 
d="M356 98c60 0 107.667 20.332 143 60.999s53 97.667 53 171v5c0 72 -17.333 128.5 -52 169.5s-82 61.5 -142 61.5s-107.667 -20.167 -143 -60.5s-53 -97.166 -53 -170.499v-5c0 -72 17.333 -128.667 52 -170s82 -62 142 -62zM354 -13.001c-48 0 -92.167 8.33301 -132.5 25
s-74.666 40.167 -102.999 70.5s-50.333 66.833 -66 109.5s-23.5 89.334 -23.5 140.001s8 97.334 24 140.001s38.333 79 67 109s63.5 53.5 104.5 70.5s86.167 25.5 135.5 25.5c48 0 92.167 -8.33301 132.5 -25s74.666 -40.167 102.999 -70.5s50.333 -66.833 66 -109.5
s23.5 -89.334 23.5 -140.001s-8 -97.334 -24 -140.001s-38.333 -79 -67 -109s-63.5 -53.5 -104.5 -70.5s-86.167 -25.5 -135.5 -25.5zM319 842.999v-121h-110v121h110zM506 842.999v-121h-110v121h110z" />
    <glyph glyph-name="multiply" unicode="&#xd7;" horiz-adv-x="478" 
d="M102 61l-71 72l137 137l-135 137l68 68l136 -136l139 138l71 -71l-138 -139l136 -137l-68 -68l-137 137z" />
    <glyph glyph-name="Oslash" unicode="&#xd8;" horiz-adv-x="712" 
d="M353 -13c-40 0 -77 5.33203 -111 15.999s-64.333 26.334 -91 47.001l-45 -50h-86l85 94c-25.333 30 -45 65.167 -59 105.5s-21 84.5 -21 132.5c0 50.667 8 97.334 24 140.001s38.5 79 67.5 109s64.167 53.5 105.5 70.5s87.333 25.5 138 25.5c40.667 0 78.5 -6 113.5 -18
s66.167 -28.667 93.5 -50l50 55h85l-90 -100c24.667 -30 43.5 -64.667 56.5 -104s19.5 -82 19.5 -128c0 -50.667 -8 -97.334 -24 -140.001s-38.5 -79 -67.5 -109s-64.167 -53.5 -105.5 -70.5s-87.333 -25.5 -138 -25.5zM156 327.999c0 -28.667 2.66699 -54.999 8 -78.999
s13.333 -45.333 24 -64l302 337c-16.667 14.667 -36.167 26.167 -58.5 34.5s-46.833 12.5 -73.5 12.5c-63.333 0 -112.833 -20.333 -148.5 -61s-53.5 -98.334 -53.5 -173.001v-7zM356 95c62.667 0 111.833 20.499 147.5 61.499s53.5 98.5 53.5 172.5v8
c0 26.667 -2.5 51.5 -7.5 74.5s-12.167 43.5 -21.5 61.5l-301 -336c16.667 -13.333 35.667 -23.666 57 -30.999s45.333 -11 72 -11z" />
    <glyph glyph-name="Ugrave" unicode="&#xd9;" horiz-adv-x="642" 
d="M324 -13c-89.333 0 -157.499 24.167 -204.499 72.5s-70.5 117.833 -70.5 208.5v396h127v-395c0 -58 12.333 -101.333 37 -130s62 -43 112 -43c51.333 0 88.666 14 111.999 42s35 71 35 129v397h121v-397c0 -93.333 -24.333 -163.333 -73 -210s-114 -70 -196 -70z
M132.001 861h139l90 -147h-66l-163 136v11z" />
    <glyph glyph-name="Uacute" unicode="&#xda;" horiz-adv-x="642" 
d="M324 -13c-89.333 0 -157.499 24.167 -204.499 72.5s-70.5 117.833 -70.5 208.5v396h127v-395c0 -58 12.333 -101.333 37 -130s62 -43 112 -43c51.333 0 88.666 14 111.999 42s35 71 35 129v397h121v-397c0 -93.333 -24.333 -163.333 -73 -210s-114 -70 -196 -70z
M511.001 861v-11l-163 -136h-65l89 147h139z" />
    <glyph glyph-name="Ucircumflex" unicode="&#xdb;" horiz-adv-x="642" 
d="M324 -13c-89.333 0 -157.499 24.167 -204.499 72.5s-70.5 117.833 -70.5 208.5v396h127v-395c0 -58 12.333 -101.333 37 -130s62 -43 112 -43c51.333 0 88.666 14 111.999 42s35 71 35 129v397h121v-397c0 -93.333 -24.333 -163.333 -73 -210s-114 -70 -196 -70z
M376.001 859l108 -145h-86l-74 77l-76 -77h-84l107 145h105z" />
    <glyph glyph-name="Udieresis" unicode="&#xdc;" horiz-adv-x="642" 
d="M324 -13c-89.333 0 -157.499 24.167 -204.499 72.5s-70.5 117.833 -70.5 208.5v396h127v-395c0 -58 12.333 -101.333 37 -130s62 -43 112 -43c51.333 0 88.666 14 111.999 42s35 71 35 129v397h121v-397c0 -93.333 -24.333 -163.333 -73 -210s-114 -70 -196 -70z
M284.001 843v-121h-110v121h110zM471.001 843v-121h-110v121h110z" />
    <glyph glyph-name="Yacute" unicode="&#xdd;" horiz-adv-x="619" 
d="M476 664h138l-241 -365v-299h-127v300l-239 364h144l163 -256zM500 861v-11l-163 -136h-65l89 147h139z" />
    <glyph glyph-name="Thorn" unicode="&#xde;" horiz-adv-x="585" 
d="M184 664v-115h97c92.667 0 161.667 -18 207 -54s68 -89.333 68 -160s-23.5 -124.5 -70.5 -161.5s-116.167 -55.5 -207.5 -55.5h-94v-118h-129v664h129zM184 446v-227.001h93c52.667 0 90.667 9.16699 114 27.5s35 47.833 35 88.5c0 38.667 -11.333 66.834 -34 84.501
s-60.667 26.5 -114 26.5h-94z" />
    <glyph glyph-name="germandbls" unicode="&#xdf;" horiz-adv-x="546" 
d="M223 -2l-0.000976562 100c4.66699 -0.666992 11.667 -1.5 21 -2.5s19.333 -1.5 30 -1.5c40.667 0 71.334 10 92.001 30s31 49 31 87c0 37.333 -12 66 -36 86s-56 30 -96 30h-29v95h26c28.667 0 50.667 7.5 66 22.5s23 34.5 23 58.5c0 26 -7.83301 46.667 -23.5 62
s-37.167 23 -64.5 23c-29.333 0 -52.166 -10 -68.499 -30s-24.5 -45.333 -24.5 -76v-482h-122v452c0 76.667 18.333 135.167 55 175.5s90.667 60.5 162 60.5c62 0 111.5 -16.333 148.5 -49s55.5 -75 55.5 -127c0 -26 -6.66699 -50 -20 -72s-31.333 -39.667 -54 -53
c38.667 -14.667 69.167 -37 91.5 -67s33.5 -67 33.5 -111c0 -70.667 -20.333 -124.167 -61 -160.5s-99.334 -54.5 -176.001 -54.5c-7.33301 0 -18 0.5 -32 1.5s-23.333 1.83301 -28 2.5z" />
    <glyph glyph-name="agrave" unicode="&#xe0;" horiz-adv-x="502" 
d="M189 -12c-50 0 -89.8291 12.667 -119.496 38s-44.5 58.333 -44.5 99c0 26.667 4.66699 48.5 14 65.5s22.166 31 38.499 42s35.833 19.833 58.5 26.5s47.334 13 74.001 19c43.333 8.66699 76.166 15.5 98.499 20.5s34.166 13.833 35.499 26.5v5
c0 14 -6.83301 26.5 -20.5 37.5s-36.5 16.5 -68.5 16.5s-55.833 -7.16699 -71.5 -21.5s-24.167 -31.833 -25.5 -52.5v-7h-123c2 53.333 22.833 96.333 62.5 129s92.5 49 158.5 49c64 0 114.333 -14.667 151 -44s55 -76 55 -140v-297h-119v64
c-14.667 -24.667 -35.334 -43.5 -62.001 -56.5s-57.334 -19.5 -92.001 -19.5zM218.004 77c14.667 0 29.3311 2 43.998 6s28 10.667 40 20s21.833 21.5 29.5 36.5s11.834 33.5 12.501 55.5v40c-13.333 -8 -30.166 -14.5 -50.499 -19.5l-59.5 -14.5c-24 -6 -44 -14 -60 -24
s-24 -25.333 -24 -46c0 -16 6 -29 18 -39s28.667 -15 50 -15zM65.001 683h139l88 -149h-63l-164 137v12z" />
    <glyph glyph-name="aacute" unicode="&#xe1;" horiz-adv-x="502" 
d="M189 -12c-50 0 -89.8291 12.667 -119.496 38s-44.5 58.333 -44.5 99c0 26.667 4.66699 48.5 14 65.5s22.166 31 38.499 42s35.833 19.833 58.5 26.5s47.334 13 74.001 19c43.333 8.66699 76.166 15.5 98.499 20.5s34.166 13.833 35.499 26.5v5
c0 14 -6.83301 26.5 -20.5 37.5s-36.5 16.5 -68.5 16.5s-55.833 -7.16699 -71.5 -21.5s-24.167 -31.833 -25.5 -52.5v-7h-123c2 53.333 22.833 96.333 62.5 129s92.5 49 158.5 49c64 0 114.333 -14.667 151 -44s55 -76 55 -140v-297h-119v64
c-14.667 -24.667 -35.334 -43.5 -62.001 -56.5s-57.334 -19.5 -92.001 -19.5zM218.004 77c14.667 0 29.3311 2 43.998 6s28 10.667 40 20s21.833 21.5 29.5 36.5s11.834 33.5 12.501 55.5v40c-13.333 -8 -30.166 -14.5 -50.499 -19.5l-59.5 -14.5c-24 -6 -44 -14 -60 -24
s-24 -25.333 -24 -46c0 -16 6 -29 18 -39s28.667 -15 50 -15zM443.001 683v-12l-164 -137h-63l88 149h139z" />
    <glyph glyph-name="acircumflex" unicode="&#xe2;" horiz-adv-x="502" 
d="M189 -12c-50 0 -89.8291 12.667 -119.496 38s-44.5 58.333 -44.5 99c0 26.667 4.66699 48.5 14 65.5s22.166 31 38.499 42s35.833 19.833 58.5 26.5s47.334 13 74.001 19c43.333 8.66699 76.166 15.5 98.499 20.5s34.166 13.833 35.499 26.5v5
c0 14 -6.83301 26.5 -20.5 37.5s-36.5 16.5 -68.5 16.5s-55.833 -7.16699 -71.5 -21.5s-24.167 -31.833 -25.5 -52.5v-7h-123c2 53.333 22.833 96.333 62.5 129s92.5 49 158.5 49c64 0 114.333 -14.667 151 -44s55 -76 55 -140v-297h-119v64
c-14.667 -24.667 -35.334 -43.5 -62.001 -56.5s-57.334 -19.5 -92.001 -19.5zM218.004 77c14.667 0 29.3311 2 43.998 6s28 10.667 40 20s21.833 21.5 29.5 36.5s11.834 33.5 12.501 55.5v40c-13.333 -8 -30.166 -14.5 -50.499 -19.5l-59.5 -14.5c-24 -6 -44 -14 -60 -24
s-24 -25.333 -24 -46c0 -16 6 -29 18 -39s28.667 -15 50 -15zM311.001 681l107 -147h-83l-75 81l-75 -81h-83l107 147h102z" />
    <glyph glyph-name="atilde" unicode="&#xe3;" horiz-adv-x="502" 
d="M189 -12c-50 0 -89.8291 12.667 -119.496 38s-44.5 58.333 -44.5 99c0 26.667 4.66699 48.5 14 65.5s22.166 31 38.499 42s35.833 19.833 58.5 26.5s47.334 13 74.001 19c43.333 8.66699 76.166 15.5 98.499 20.5s34.166 13.833 35.499 26.5v5
c0 14 -6.83301 26.5 -20.5 37.5s-36.5 16.5 -68.5 16.5s-55.833 -7.16699 -71.5 -21.5s-24.167 -31.833 -25.5 -52.5v-7h-123c2 53.333 22.833 96.333 62.5 129s92.5 49 158.5 49c64 0 114.333 -14.667 151 -44s55 -76 55 -140v-297h-119v64
c-14.667 -24.667 -35.334 -43.5 -62.001 -56.5s-57.334 -19.5 -92.001 -19.5zM218.004 77c14.667 0 29.3311 2 43.998 6s28 10.667 40 20s21.833 21.5 29.5 36.5s11.834 33.5 12.501 55.5v40c-13.333 -8 -30.166 -14.5 -50.499 -19.5l-59.5 -14.5c-24 -6 -44 -14 -60 -24
s-24 -25.333 -24 -46c0 -16 6 -29 18 -39s28.667 -15 50 -15zM110.001 549c-0.666992 2.66699 -0.831055 7.5 -0.498047 14.5s0.5 11.833 0.5 14.5c0 19.333 2.83301 35.5 8.5 48.5s12.667 23.167 21 30.5s17.666 12.333 27.999 15s20.166 4 29.499 4c16 0 29.667 -3 41 -9
s21.333 -12.667 30 -20l24 -20c7.33301 -6 14.666 -9 21.999 -9c8.66699 0 15.167 2.66699 19.5 8s7.83301 12.333 10.5 21c0.666992 1.33301 1.66699 4.5 3 9.5s2 9.16699 2 12.5l61 -7c0.666992 -2.66699 0.833984 -7.5 0.500977 -14.5s-0.5 -11.5 -0.5 -13.5
c0 -19.333 -3 -35.5 -9 -48.5s-13.333 -23.333 -22 -31s-18 -13 -28 -16s-19.333 -4.5 -28 -4.5c-16 0 -29.5 3 -40.5 9s-20.833 12.667 -29.5 20l-23.5 20c-7 6 -14.5 9 -22.5 9c-8.66699 0 -15.5 -2.5 -20.5 -7.5s-8.5 -12.5 -10.5 -22.5
c-0.666992 -2.66699 -1.66699 -6 -3 -10s-2 -7.33301 -2 -10z" />
    <glyph glyph-name="adieresis" unicode="&#xe4;" horiz-adv-x="502" 
d="M189 -12c-50 0 -89.8291 12.667 -119.496 38s-44.5 58.333 -44.5 99c0 26.667 4.66699 48.5 14 65.5s22.166 31 38.499 42s35.833 19.833 58.5 26.5s47.334 13 74.001 19c43.333 8.66699 76.166 15.5 98.499 20.5s34.166 13.833 35.499 26.5v5
c0 14 -6.83301 26.5 -20.5 37.5s-36.5 16.5 -68.5 16.5s-55.833 -7.16699 -71.5 -21.5s-24.167 -31.833 -25.5 -52.5v-7h-123c2 53.333 22.833 96.333 62.5 129s92.5 49 158.5 49c64 0 114.333 -14.667 151 -44s55 -76 55 -140v-297h-119v64
c-14.667 -24.667 -35.334 -43.5 -62.001 -56.5s-57.334 -19.5 -92.001 -19.5zM218.004 77c14.667 0 29.3311 2 43.998 6s28 10.667 40 20s21.833 21.5 29.5 36.5s11.834 33.5 12.501 55.5v40c-13.333 -8 -30.166 -14.5 -50.499 -19.5l-59.5 -14.5c-24 -6 -44 -14 -60 -24
s-24 -25.333 -24 -46c0 -16 6 -29 18 -39s28.667 -15 50 -15zM222.001 662v-121h-109v121h109zM408.001 662v-121h-109v121h109z" />
    <glyph glyph-name="aring" unicode="&#xe5;" horiz-adv-x="502" 
d="M189 -12c-50 0 -89.8291 12.667 -119.496 38s-44.5 58.333 -44.5 99c0 26.667 4.66699 48.5 14 65.5s22.166 31 38.499 42s35.833 19.833 58.5 26.5s47.334 13 74.001 19c43.333 8.66699 76.166 15.5 98.499 20.5s34.166 13.833 35.499 26.5v5
c0 14 -6.83301 26.5 -20.5 37.5s-36.5 16.5 -68.5 16.5s-55.833 -7.16699 -71.5 -21.5s-24.167 -31.833 -25.5 -52.5v-7h-123c2 53.333 22.833 96.333 62.5 129s92.5 49 158.5 49c64 0 114.333 -14.667 151 -44s55 -76 55 -140v-297h-119v64
c-14.667 -24.667 -35.334 -43.5 -62.001 -56.5s-57.334 -19.5 -92.001 -19.5zM218.004 77c14.667 0 29.3311 2 43.998 6s28 10.667 40 20s21.833 21.5 29.5 36.5s11.834 33.5 12.501 55.5v40c-13.333 -8 -30.166 -14.5 -50.499 -19.5l-59.5 -14.5c-24 -6 -44 -14 -60 -24
s-24 -25.333 -24 -46c0 -16 6 -29 18 -39s28.667 -15 50 -15zM260.001 590c12.667 0 23.334 4.33301 32.001 13s13 19.667 13 33c0 12.667 -4.33301 23.5 -13 32.5s-19.334 13.5 -32.001 13.5s-23.167 -4.5 -31.5 -13.5s-12.5 -19.833 -12.5 -32.5
c0 -13.333 4.16699 -24.333 12.5 -33s18.833 -13 31.5 -13zM260.001 535c-33.333 0 -59.833 9.33301 -79.5 28s-29.5 43 -29.5 73c0 29.333 9.83301 53.333 29.5 72s46.167 28 79.5 28s60 -9.33301 80 -28s30 -42.667 30 -72c0 -30 -10 -54.333 -30 -73s-46.667 -28 -80 -28
z" />
    <glyph glyph-name="ae" unicode="&#xe6;" horiz-adv-x="817" 
d="M571 -8c-43.333 0 -81.5 8.16406 -114.5 24.4971s-59.5 39.5 -79.5 69.5c-11.333 -18.667 -25.166 -34.334 -41.499 -47.001s-33 -22.667 -50 -30s-33.833 -12.666 -50.5 -15.999s-31 -5 -43 -5c-46.667 0 -86.167 12.833 -118.5 38.5s-48.5 59.834 -48.5 102.501
c0 25.333 4.66699 46.333 14 63s22.166 30.5 38.499 41.5s35.833 19.667 58.5 26s47.334 12.5 74.001 18.5c38 8 69.667 14.333 95 19s38.333 15 39 31v2c0 16 -7.16699 29 -21.5 39s-36.833 15 -67.5 15c-32 0 -56.167 -7.16699 -72.5 -21.5s-24.5 -31.833 -24.5 -52.5v-7
h-123c2 53.333 22.833 96.333 62.5 129s92.5 49 158.5 49c38 0 70 -5.66699 96 -17s46.333 -27.666 61 -48.999c18 20.667 40 36.667 66 48s55.333 17.333 88 18c70.667 0 126.334 -22.167 167.001 -66.5s61 -103.5 61 -177.5v-42h-342c4 -34 16.5 -60.167 37.5 -78.5
s48.167 -27.5 81.5 -27.5c34.667 0 60.667 7.16699 78 21.5s29.666 31.5 36.999 51.5l108 -38c-16.667 -37.333 -42.834 -68.666 -78.501 -93.999s-84.167 -38 -145.5 -38zM223 76.9971c24 0 48.166 6.83496 72.499 20.502s39.833 37.834 46.5 72.501
c-2 9.33301 -3.66699 19.166 -5 29.499s-2 20.833 -2 31.5c-15.333 -6.66699 -33.666 -12.334 -54.999 -17.001s-41.5 -10 -60.5 -16s-35.333 -13.833 -49 -23.5s-20.5 -23.167 -20.5 -40.5c0 -14.667 6.16699 -27.834 18.5 -39.501s30.5 -17.5 54.5 -17.5zM564.999 384.999
c-30 0 -55.332 -9.16699 -75.999 -27.5s-33.334 -43.833 -38.001 -76.5h220c-2.66699 34 -13 59.833 -31 77.5s-43 26.5 -75 26.5z" />
    <glyph glyph-name="ccedilla" unicode="&#xe7;" horiz-adv-x="491" 
d="M258 -9c-72.667 0 -130.001 22.832 -172.001 68.499s-63 104.834 -63 177.501c0 35.333 5.83301 68 17.5 98s27.834 55.833 48.501 77.5s45.667 38.5 75 50.5s61.666 18 96.999 18c56.667 0 102.5 -13.833 137.5 -41.5s60.5 -64.167 76.5 -109.5l-117 -36
c-6.66699 26 -17.5 46.833 -32.5 62.5s-36.833 23.5 -65.5 23.5c-34 0 -61.333 -13.333 -82 -40s-31 -60.667 -31 -102v-4c0 -41.333 9.66699 -75.333 29 -102s46 -40 80 -40c33.333 0 57.833 8 73.5 24s26.834 38.333 33.501 67l117 -34c-16.667 -48 -43 -86.333 -79 -115
s-83.667 -43 -143 -43zM248.999 -206.001c-14.667 0 -28.001 1.16797 -40.001 3.50098s-22 4.83301 -30 7.5v85c4.66699 -1.33301 10.667 -2.83301 18 -4.5s16 -2.5 26 -2.5c16.667 0 29 3 37 9s12 15.333 12 28c0 16.667 -7.16699 31.667 -21.5 45s-35.5 25 -63.5 35l33 26
c50 -13.333 87.333 -31.333 112 -54s37 -50 37 -82c0 -26.667 -9.66699 -49.334 -29 -68.001s-49.666 -28 -90.999 -28z" />
    <glyph glyph-name="egrave" unicode="&#xe8;" horiz-adv-x="509" 
d="M262 -8c-73.333 0 -131.499 21.832 -174.499 65.499s-64.5 102.167 -64.5 175.5c0 36 5.83301 69.333 17.5 100s27.834 56.834 48.501 78.501s45.667 38.667 75 51s61 18.5 95 18.5c71.333 0 127.166 -22.167 167.499 -66.5s60.5 -103.5 60.5 -177.5v-42h-342
c4 -34 16.5 -60.167 37.5 -78.5s48.167 -27.5 81.5 -27.5c34.667 0 60.667 7.16699 78 21.5s29.666 31.5 36.999 51.5l108 -38c-16.667 -38 -43 -69.5 -79 -94.5s-84.667 -37.5 -146 -37.5zM256.001 384.999c-30 0 -55.167 -9.16699 -75.5 -27.5
s-32.833 -43.833 -37.5 -76.5h219c-2.66699 34 -13 59.833 -31 77.5s-43 26.5 -75 26.5zM66.001 682.999h139l88 -149h-63l-164 137v12z" />
    <glyph glyph-name="eacute" unicode="&#xe9;" horiz-adv-x="509" 
d="M262 -8c-73.333 0 -131.499 21.832 -174.499 65.499s-64.5 102.167 -64.5 175.5c0 36 5.83301 69.333 17.5 100s27.834 56.834 48.501 78.501s45.667 38.667 75 51s61 18.5 95 18.5c71.333 0 127.166 -22.167 167.499 -66.5s60.5 -103.5 60.5 -177.5v-42h-342
c4 -34 16.5 -60.167 37.5 -78.5s48.167 -27.5 81.5 -27.5c34.667 0 60.667 7.16699 78 21.5s29.666 31.5 36.999 51.5l108 -38c-16.667 -38 -43 -69.5 -79 -94.5s-84.667 -37.5 -146 -37.5zM256.001 384.999c-30 0 -55.167 -9.16699 -75.5 -27.5
s-32.833 -43.833 -37.5 -76.5h219c-2.66699 34 -13 59.833 -31 77.5s-43 26.5 -75 26.5zM444.001 682.999v-12l-164 -137h-63l88 149h139z" />
    <glyph glyph-name="ecircumflex" unicode="&#xea;" horiz-adv-x="509" 
d="M262 -8c-73.333 0 -131.499 21.832 -174.499 65.499s-64.5 102.167 -64.5 175.5c0 36 5.83301 69.333 17.5 100s27.834 56.834 48.501 78.501s45.667 38.667 75 51s61 18.5 95 18.5c71.333 0 127.166 -22.167 167.499 -66.5s60.5 -103.5 60.5 -177.5v-42h-342
c4 -34 16.5 -60.167 37.5 -78.5s48.167 -27.5 81.5 -27.5c34.667 0 60.667 7.16699 78 21.5s29.666 31.5 36.999 51.5l108 -38c-16.667 -38 -43 -69.5 -79 -94.5s-84.667 -37.5 -146 -37.5zM256.001 384.999c-30 0 -55.167 -9.16699 -75.5 -27.5
s-32.833 -43.833 -37.5 -76.5h219c-2.66699 34 -13 59.833 -31 77.5s-43 26.5 -75 26.5zM312.001 680.999l107 -147h-83l-75 81l-75 -81h-83l107 147h102z" />
    <glyph glyph-name="edieresis" unicode="&#xeb;" horiz-adv-x="509" 
d="M262 -8c-73.333 0 -131.499 21.832 -174.499 65.499s-64.5 102.167 -64.5 175.5c0 36 5.83301 69.333 17.5 100s27.834 56.834 48.501 78.501s45.667 38.667 75 51s61 18.5 95 18.5c71.333 0 127.166 -22.167 167.499 -66.5s60.5 -103.5 60.5 -177.5v-42h-342
c4 -34 16.5 -60.167 37.5 -78.5s48.167 -27.5 81.5 -27.5c34.667 0 60.667 7.16699 78 21.5s29.666 31.5 36.999 51.5l108 -38c-16.667 -38 -43 -69.5 -79 -94.5s-84.667 -37.5 -146 -37.5zM256.001 384.999c-30 0 -55.167 -9.16699 -75.5 -27.5
s-32.833 -43.833 -37.5 -76.5h219c-2.66699 34 -13 59.833 -31 77.5s-43 26.5 -75 26.5zM223.001 661.999v-121h-109v121h109zM409.001 661.999v-121h-109v121h109z" />
    <glyph glyph-name="igrave" unicode="&#xec;" horiz-adv-x="219" 
d="M172 472v-472h-125v472h125zM-5 683h125l44 -149h-59l-110 137v12z" />
    <glyph glyph-name="iacute" unicode="&#xed;" horiz-adv-x="219" 
d="M172 472v-472h-125v472h125zM223 683v-12l-110 -137h-59l43 149h126z" />
    <glyph glyph-name="icircumflex" unicode="&#xee;" horiz-adv-x="219" 
d="M172 472v-472h-125v472h125zM-19 534l75 147h102l75 -147h-73l-53 82l-52 -82h-74z" />
    <glyph glyph-name="idieresis" unicode="&#xef;" horiz-adv-x="219" 
d="M172 472v-472h-125v472h125zM89 662v-121h-104v121h104zM232 662v-121h-104v121h104z" />
    <glyph glyph-name="eth" unicode="&#xf0;" horiz-adv-x="525" 
d="M255 -12c-31.333 0 -60.998 4.99902 -88.998 14.999s-52.5 24.833 -73.5 44.5s-37.833 43.834 -50.5 72.501s-19 61.667 -19 99v3c0.666992 64.667 19.5 117.167 56.5 157.5s86.5 60.5 148.5 60.5c36 0 66.167 -5.5 90.5 -16.5s43.166 -26.167 56.499 -45.5
c-6.66699 39.333 -19.667 73.666 -39 102.999s-44.333 54.333 -75 75l-48 -65l-59 42l45 63l-47 21.5c-16.667 7.66699 -32.334 12.834 -47.001 15.501l39 76c20.667 -4 39.834 -10.167 57.501 -18.5l48.5 -22.5l51 69l58 -42l-44 -63
c67.333 -42.667 115.166 -94.334 143.499 -155.001s42.5 -130.667 42.5 -210c0 -87.333 -20.5 -155.666 -61.5 -204.999s-102.5 -74 -184.5 -74zM261.002 87.999c36 0 64.001 10.499 84.001 31.499s30 47.833 30 80.5v55c-0.666992 22.667 -10.834 44 -30.501 64
s-47.5 30 -83.5 30c-34.667 0 -61.834 -10.167 -81.501 -30.5s-29.5 -48.833 -29.5 -85.5v-28c0 -37.333 10.833 -66.166 32.5 -86.499s47.834 -30.5 78.501 -30.5z" />
    <glyph glyph-name="ntilde" unicode="&#xf1;" horiz-adv-x="510" 
d="M170 472v-76.999c12.667 27.333 30.5 48.666 53.5 63.999s51.167 23 84.5 23c51.333 0 91.5 -17 120.5 -51s43.5 -83.333 43.5 -148v-283h-124v276c0 32.667 -6.66699 57.5 -20 74.5s-34.333 25.5 -63 25.5c-29.333 0 -52.5 -11.667 -69.5 -35s-25.5 -57 -25.5 -101v-240
h-124v472h124zM114 549.001c-0.666992 2.66699 -0.831055 7.5 -0.498047 14.5s0.5 11.833 0.5 14.5c0 19.333 2.83301 35.5 8.5 48.5s12.667 23.167 21 30.5s17.666 12.333 27.999 15s20.166 4 29.499 4c16 0 29.667 -3 41 -9s21.333 -12.667 30 -20l24 -20
c7.33301 -6 14.666 -9 21.999 -9c8.66699 0 15.167 2.66699 19.5 8s7.83301 12.333 10.5 21c0.666992 1.33301 1.66699 4.5 3 9.5s2 9.16699 2 12.5l61 -7c0.666992 -2.66699 0.833984 -7.5 0.500977 -14.5s-0.5 -11.5 -0.5 -13.5c0 -19.333 -3 -35.5 -9 -48.5
s-13.333 -23.333 -22 -31s-18 -13 -28 -16s-19.333 -4.5 -28 -4.5c-16 0 -29.5 3 -40.5 9s-20.833 12.667 -29.5 20l-23.5 20c-7 6 -14.5 9 -22.5 9c-8.66699 0 -15.5 -2.5 -20.5 -7.5s-8.5 -12.5 -10.5 -22.5c-0.666992 -2.66699 -1.66699 -6 -3 -10s-2 -7.33301 -2 -10z
" />
    <glyph glyph-name="ograve" unicode="&#xf2;" horiz-adv-x="531" 
d="M264 92c36 0 64.667 12.333 86 37s32 59 32 103v4c0 44.667 -10.333 79.834 -31 105.501s-49 38.5 -85 38.5s-64.5 -12.833 -85.5 -38.5s-31.5 -60.834 -31.5 -105.501v-4c0 -44 10.167 -78.333 30.5 -103s48.5 -37 84.5 -37zM263 -9c-35.333 0 -67.8359 6 -97.5029 18
s-55 28.667 -76 50s-37.333 47 -49 77s-17.5 63 -17.5 99s6 69.167 18 99.5s28.667 56.166 50 77.499s47 38.166 77 50.499s62.667 18.5 98 18.5s67.833 -6.16699 97.5 -18.5s55.167 -29.166 76.5 -50.499s38 -47.166 50 -77.499s18 -63.5 18 -99.5
c0 -35.333 -6.16699 -68 -18.5 -98s-29.166 -55.833 -50.499 -77.5s-47.166 -38.5 -77.499 -50.5s-63.166 -18 -98.499 -18zM70.9971 683h139l88 -149h-63l-164 137v12z" />
    <glyph glyph-name="oacute" unicode="&#xf3;" horiz-adv-x="531" 
d="M264 92c36 0 64.667 12.333 86 37s32 59 32 103v4c0 44.667 -10.333 79.834 -31 105.501s-49 38.5 -85 38.5s-64.5 -12.833 -85.5 -38.5s-31.5 -60.834 -31.5 -105.501v-4c0 -44 10.167 -78.333 30.5 -103s48.5 -37 84.5 -37zM263 -9c-35.333 0 -67.8359 6 -97.5029 18
s-55 28.667 -76 50s-37.333 47 -49 77s-17.5 63 -17.5 99s6 69.167 18 99.5s28.667 56.166 50 77.499s47 38.166 77 50.499s62.667 18.5 98 18.5s67.833 -6.16699 97.5 -18.5s55.167 -29.166 76.5 -50.499s38 -47.166 50 -77.499s18 -63.5 18 -99.5
c0 -35.333 -6.16699 -68 -18.5 -98s-29.166 -55.833 -50.499 -77.5s-47.166 -38.5 -77.499 -50.5s-63.166 -18 -98.499 -18zM448.997 683v-12l-164 -137h-63l88 149h139z" />
    <glyph glyph-name="ocircumflex" unicode="&#xf4;" horiz-adv-x="531" 
d="M264 92c36 0 64.667 12.333 86 37s32 59 32 103v4c0 44.667 -10.333 79.834 -31 105.501s-49 38.5 -85 38.5s-64.5 -12.833 -85.5 -38.5s-31.5 -60.834 -31.5 -105.501v-4c0 -44 10.167 -78.333 30.5 -103s48.5 -37 84.5 -37zM263 -9c-35.333 0 -67.8359 6 -97.5029 18
s-55 28.667 -76 50s-37.333 47 -49 77s-17.5 63 -17.5 99s6 69.167 18 99.5s28.667 56.166 50 77.499s47 38.166 77 50.499s62.667 18.5 98 18.5s67.833 -6.16699 97.5 -18.5s55.167 -29.166 76.5 -50.499s38 -47.166 50 -77.499s18 -63.5 18 -99.5
c0 -35.333 -6.16699 -68 -18.5 -98s-29.166 -55.833 -50.499 -77.5s-47.166 -38.5 -77.499 -50.5s-63.166 -18 -98.499 -18zM316.997 681l107 -147h-83l-75 81l-75 -81h-83l107 147h102z" />
    <glyph glyph-name="otilde" unicode="&#xf5;" horiz-adv-x="531" 
d="M264 92c36 0 64.667 12.333 86 37s32 59 32 103v4c0 44.667 -10.333 79.834 -31 105.501s-49 38.5 -85 38.5s-64.5 -12.833 -85.5 -38.5s-31.5 -60.834 -31.5 -105.501v-4c0 -44 10.167 -78.333 30.5 -103s48.5 -37 84.5 -37zM263 -9c-35.333 0 -67.8359 6 -97.5029 18
s-55 28.667 -76 50s-37.333 47 -49 77s-17.5 63 -17.5 99s6 69.167 18 99.5s28.667 56.166 50 77.499s47 38.166 77 50.499s62.667 18.5 98 18.5s67.833 -6.16699 97.5 -18.5s55.167 -29.166 76.5 -50.499s38 -47.166 50 -77.499s18 -63.5 18 -99.5
c0 -35.333 -6.16699 -68 -18.5 -98s-29.166 -55.833 -50.499 -77.5s-47.166 -38.5 -77.499 -50.5s-63.166 -18 -98.499 -18zM115.997 549c-0.666992 2.66699 -0.831055 7.5 -0.498047 14.5s0.5 11.833 0.5 14.5c0 19.333 2.83301 35.5 8.5 48.5s12.667 23.167 21 30.5
s17.666 12.333 27.999 15s20.166 4 29.499 4c16 0 29.667 -3 41 -9s21.333 -12.667 30 -20l24 -20c7.33301 -6 14.666 -9 21.999 -9c8.66699 0 15.167 2.66699 19.5 8s7.83301 12.333 10.5 21c0.666992 1.33301 1.66699 4.5 3 9.5s2 9.16699 2 12.5l61 -7
c0.666992 -2.66699 0.833984 -7.5 0.500977 -14.5s-0.5 -11.5 -0.5 -13.5c0 -19.333 -3 -35.5 -9 -48.5s-13.333 -23.333 -22 -31s-18 -13 -28 -16s-19.333 -4.5 -28 -4.5c-16 0 -29.5 3 -40.5 9s-20.833 12.667 -29.5 20l-23.5 20c-7 6 -14.5 9 -22.5 9
c-8.66699 0 -15.5 -2.5 -20.5 -7.5s-8.5 -12.5 -10.5 -22.5c-0.666992 -2.66699 -1.66699 -6 -3 -10s-2 -7.33301 -2 -10z" />
    <glyph glyph-name="odieresis" unicode="&#xf6;" horiz-adv-x="531" 
d="M264 92c36 0 64.667 12.333 86 37s32 59 32 103v4c0 44.667 -10.333 79.834 -31 105.501s-49 38.5 -85 38.5s-64.5 -12.833 -85.5 -38.5s-31.5 -60.834 -31.5 -105.501v-4c0 -44 10.167 -78.333 30.5 -103s48.5 -37 84.5 -37zM263 -9c-35.333 0 -67.8359 6 -97.5029 18
s-55 28.667 -76 50s-37.333 47 -49 77s-17.5 63 -17.5 99s6 69.167 18 99.5s28.667 56.166 50 77.499s47 38.166 77 50.499s62.667 18.5 98 18.5s67.833 -6.16699 97.5 -18.5s55.167 -29.166 76.5 -50.499s38 -47.166 50 -77.499s18 -63.5 18 -99.5
c0 -35.333 -6.16699 -68 -18.5 -98s-29.166 -55.833 -50.499 -77.5s-47.166 -38.5 -77.499 -50.5s-63.166 -18 -98.499 -18zM227.997 662v-121h-109v121h109zM413.997 662v-121h-109v121h109z" />
    <glyph glyph-name="divide" unicode="&#xf7;" horiz-adv-x="479" 
d="M290 163v-110h-102v110h102zM290 485v-109h-102v109h102zM442 318v-98h-405v98h405z" />
    <glyph glyph-name="oslash" unicode="&#xf8;" horiz-adv-x="536" 
d="M266 -9c-28.667 0 -55.167 3.67188 -79.5 11.0049s-46.5 17.666 -66.5 30.999l-31 -33h-81l68 74c-16.667 20.667 -29.667 44.667 -39 72s-14 57 -14 89c0 36 6 69.167 18 99.5s28.667 56.166 50 77.499s47.166 38.166 77.499 50.499s63.5 18.5 99.5 18.5
c26.667 0 51.834 -3.33301 75.501 -10s45.167 -16.334 64.5 -29.001l38 41h81l-74 -81c18.667 -21.333 33.167 -46.333 43.5 -75s15.5 -59.334 15.5 -92.001c0 -35.333 -6 -68 -18 -98s-28.833 -55.833 -50.5 -77.5s-47.667 -38.5 -78 -50.5s-63.5 -18 -99.5 -18z
M266 87.0049c38.667 0 69.333 13 92 39s34 61.333 34 106v4c0 16 -1.5 31 -4.5 45s-7.16699 26.667 -12.5 38l-185 -208c10 -8 21.333 -14 34 -18s26.667 -6 42 -6zM143.999 232.005c0 -14 1 -27.167 3 -39.5s5.33301 -23.833 10 -34.5l182 205
c-9.33301 6.66699 -20 12 -32 16s-25 6 -39 6c-38 0 -68.167 -13.333 -90.5 -40s-33.5 -63 -33.5 -109v-4z" />
    <glyph glyph-name="ugrave" unicode="&#xf9;" horiz-adv-x="510" 
d="M211 -9c-53.333 0 -95.5 17.832 -126.5 53.499s-46.5 83.834 -46.5 144.501v283h124v-276c0 -31.333 7.33301 -55.833 22 -73.5s36 -26.5 64 -26.5c32.667 0 56.167 12.667 70.5 38s21.5 58 21.5 98v240h124v-472h-124v67c-12.667 -24.667 -29.667 -43.5 -51 -56.5
s-47.333 -19.5 -78 -19.5zM56 681.999h139l88 -149h-63l-164 137v12z" />
    <glyph glyph-name="uacute" unicode="&#xfa;" horiz-adv-x="510" 
d="M211 -9c-53.333 0 -95.5 17.832 -126.5 53.499s-46.5 83.834 -46.5 144.501v283h124v-276c0 -31.333 7.33301 -55.833 22 -73.5s36 -26.5 64 -26.5c32.667 0 56.167 12.667 70.5 38s21.5 58 21.5 98v240h124v-472h-124v67c-12.667 -24.667 -29.667 -43.5 -51 -56.5
s-47.333 -19.5 -78 -19.5zM435 682.999v-12l-164 -137h-63l88 149h139z" />
    <glyph glyph-name="ucircumflex" unicode="&#xfb;" horiz-adv-x="510" 
d="M211 -9c-53.333 0 -95.5 17.832 -126.5 53.499s-46.5 83.834 -46.5 144.501v283h124v-276c0 -31.333 7.33301 -55.833 22 -73.5s36 -26.5 64 -26.5c32.667 0 56.167 12.667 70.5 38s21.5 58 21.5 98v240h124v-472h-124v67c-12.667 -24.667 -29.667 -43.5 -51 -56.5
s-47.333 -19.5 -78 -19.5zM303 680.999l107 -147h-83l-75 81l-75 -81h-83l107 147h102z" />
    <glyph glyph-name="udieresis" unicode="&#xfc;" horiz-adv-x="510" 
d="M211 -9c-53.333 0 -95.5 17.832 -126.5 53.499s-46.5 83.834 -46.5 144.501v283h124v-276c0 -31.333 7.33301 -55.833 22 -73.5s36 -26.5 64 -26.5c32.667 0 56.167 12.667 70.5 38s21.5 58 21.5 98v240h124v-472h-124v67c-12.667 -24.667 -29.667 -43.5 -51 -56.5
s-47.333 -19.5 -78 -19.5zM214 661.999v-121h-109v121h109zM400 661.999v-121h-109v121h109z" />
    <glyph glyph-name="yacute" unicode="&#xfd;" horiz-adv-x="465" 
d="M26 -84h49c28.667 0 49.167 5 61.5 15s25.833 34.333 40.5 73l-178 468h130l110 -329l103 329h124l-180 -516c-20 -52 -44.5 -89.5 -73.5 -112.5s-71.833 -34.5 -128.5 -34.5h-58v107zM421 683v-12l-164 -137h-63l88 149h139z" />
    <glyph glyph-name="thorn" unicode="&#xfe;" horiz-adv-x="548" 
d="M313 -10c-30 0 -57.168 6.16602 -81.501 18.499s-44.833 29.833 -61.5 52.5v-247h-124v859h124v-262c16 22.667 36.333 40.167 61 52.5s52.334 18.5 83.001 18.5c29.333 0 57 -5.66699 83 -17s48.333 -27.333 67 -48s33.334 -46.167 44.001 -76.5s16 -64.166 16 -101.499
c0 -38 -5.33301 -72.5 -16 -103.5s-25.334 -57.167 -44.001 -78.5s-41 -37.833 -67 -49.5s-54 -17.5 -84 -17.5zM279.999 90.999c33.333 0 60.833 12.5 82.5 37.5s32.5 60.5 32.5 106.5v7c0 46 -10.667 80.667 -32 104s-49 35 -83 35c-36 0 -64.167 -13.333 -84.5 -40
s-30.5 -61 -30.5 -103v-8c0 -42 10.167 -75.667 30.5 -101s48.5 -38 84.5 -38z" />
    <glyph glyph-name="ydieresis" unicode="&#xff;" horiz-adv-x="465" 
d="M26 -84h49c28.667 0 49.167 5 61.5 15s25.833 34.333 40.5 73l-178 468h130l110 -329l103 329h124l-180 -516c-20 -52 -44.5 -89.5 -73.5 -112.5s-71.833 -34.5 -128.5 -34.5h-58v107zM200 662v-121h-109v121h109zM386 662v-121h-109v121h109z" />
    <glyph glyph-name="Amacron" unicode="&#x100;" horiz-adv-x="664" 
d="M13 0l250 664h145l242 -664h-135l-63 177h-249l-64 -177h-126zM330 528l-90 -246h177zM480 824v-87h-296v87h296z" />
    <glyph glyph-name="amacron" unicode="&#x101;" horiz-adv-x="502" 
d="M189 -12c-50 0 -89.8291 12.667 -119.496 38s-44.5 58.333 -44.5 99c0 26.667 4.66699 48.5 14 65.5s22.166 31 38.499 42s35.833 19.833 58.5 26.5s47.334 13 74.001 19c43.333 8.66699 76.166 15.5 98.499 20.5s34.166 13.833 35.499 26.5v5
c0 14 -6.83301 26.5 -20.5 37.5s-36.5 16.5 -68.5 16.5s-55.833 -7.16699 -71.5 -21.5s-24.167 -31.833 -25.5 -52.5v-7h-123c2 53.333 22.833 96.333 62.5 129s92.5 49 158.5 49c64 0 114.333 -14.667 151 -44s55 -76 55 -140v-297h-119v64
c-14.667 -24.667 -35.334 -43.5 -62.001 -56.5s-57.334 -19.5 -92.001 -19.5zM218.004 77c14.667 0 29.3311 2 43.998 6s28 10.667 40 20s21.833 21.5 29.5 36.5s11.834 33.5 12.501 55.5v40c-13.333 -8 -30.166 -14.5 -50.499 -19.5l-59.5 -14.5c-24 -6 -44 -14 -60 -24
s-24 -25.333 -24 -46c0 -16 6 -29 18 -39s28.667 -15 50 -15zM400.001 643v-88h-280v88h280z" />
    <glyph glyph-name="Abreve" unicode="&#x102;" horiz-adv-x="664" 
d="M13 0l250 664h145l242 -664h-135l-63 177h-249l-64 -177h-126zM330 528l-90 -246h177zM333 714c-49.333 0 -87.833 13.333 -115.5 40s-40.167 62.667 -37.5 108l89 5c0 -25.333 5 -44.666 15 -57.999s26.333 -20 49 -20c21.333 0 37 6.66699 47 20
s14.667 32.666 14 57.999l90 -5c2.66699 -45.333 -9.83301 -81.333 -37.5 -108s-65.5 -40 -113.5 -40z" />
    <glyph glyph-name="abreve" unicode="&#x103;" horiz-adv-x="502" 
d="M189 -12c-50 0 -89.8291 12.667 -119.496 38s-44.5 58.333 -44.5 99c0 26.667 4.66699 48.5 14 65.5s22.166 31 38.499 42s35.833 19.833 58.5 26.5s47.334 13 74.001 19c43.333 8.66699 76.166 15.5 98.499 20.5s34.166 13.833 35.499 26.5v5
c0 14 -6.83301 26.5 -20.5 37.5s-36.5 16.5 -68.5 16.5s-55.833 -7.16699 -71.5 -21.5s-24.167 -31.833 -25.5 -52.5v-7h-123c2 53.333 22.833 96.333 62.5 129s92.5 49 158.5 49c64 0 114.333 -14.667 151 -44s55 -76 55 -140v-297h-119v64
c-14.667 -24.667 -35.334 -43.5 -62.001 -56.5s-57.334 -19.5 -92.001 -19.5zM218.004 77c14.667 0 29.3311 2 43.998 6s28 10.667 40 20s21.833 21.5 29.5 36.5s11.834 33.5 12.501 55.5v40c-13.333 -8 -30.166 -14.5 -50.499 -19.5l-59.5 -14.5c-24 -6 -44 -14 -60 -24
s-24 -25.333 -24 -46c0 -16 6 -29 18 -39s28.667 -15 50 -15zM261.001 537c-50 0 -88.002 12.6689 -114.002 38.002s-38 59.666 -36 102.999l86 5c0.666992 -24.667 5.83398 -43 15.501 -55s25.834 -18 48.501 -18s38.5 6.33301 47.5 19s13.5 30.667 13.5 54l87 -5
c2.66699 -42.667 -9 -76.834 -35 -102.501s-63.667 -38.5 -113 -38.5z" />
    <glyph glyph-name="Aogonek" unicode="&#x104;" horiz-adv-x="664" 
d="M592 -206c-38 0 -68.332 9.16699 -90.999 27.5s-34 40.833 -34 67.5c0 23.333 7.5 44.5 22.5 63.5s34.833 34.833 59.5 47.5h-34l-63 177h-249l-64 -177h-126l250 664h145l242 -664h-2c-28 -12 -48.833 -24.667 -62.5 -38s-20.5 -27.666 -20.5 -42.999
c0 -12 3.83301 -21.167 11.5 -27.5s19.5 -9.5 35.5 -9.5c10.667 0 19.167 0.5 25.5 1.5s11.166 2.16699 14.499 3.5v-84c-7.33301 -2.66699 -16 -4.83398 -26 -6.50098s-21.333 -2.5 -34 -2.5zM330.001 528l-90 -246h177z" />
    <glyph glyph-name="aogonek" unicode="&#x105;" horiz-adv-x="502" 
d="M404 -207c-38 0 -68.3281 9.33203 -90.9951 27.999s-34 41.334 -34 68.001c0 23.333 7.33301 44.5 22 63.5s34.334 34.833 59.001 47.5h-17v65c-14.667 -24.667 -35.334 -43.667 -62.001 -57s-57.334 -20 -92.001 -20c-50 0 -89.833 12.5 -119.5 37.5
s-44.5 58.167 -44.5 99.5c0 26.667 4.66699 48.5 14 65.5s22.166 31 38.499 42s35.833 19.833 58.5 26.5s47.334 13 74.001 19c43.333 8.66699 76.166 15.5 98.499 20.5s34.166 13.833 35.499 26.5v5c0 14 -6.83301 26.333 -20.5 37s-36.5 16 -68.5 16s-55.833 -7 -71.5 -21
s-24.167 -31.333 -25.5 -52v-7h-123c2 53.333 22.833 96.166 62.5 128.499s92.5 48.5 158.5 48.5c64 0 114.167 -14.5 150.5 -43.5s54.5 -75.5 54.5 -139.5v-297h-2c-28 -12 -48.833 -24.667 -62.5 -38s-20.5 -27.666 -20.5 -42.999c0 -12 4 -21.167 12 -27.5
s19.667 -9.5 35 -9.5c10.667 0 19.167 0.5 25.5 1.5s11.166 2.16699 14.499 3.5v-84c-7.33301 -2.66699 -15.833 -5 -25.5 -7s-20.834 -3 -33.501 -3zM218.005 76.999c14.667 0 29.3311 2 43.998 6s27.834 10.667 39.501 20s21.5 21.5 29.5 36.5s12.333 33.5 13 55.5v40
c-13.333 -8 -30.166 -14.5 -50.499 -19.5l-59.5 -14.5c-24 -6 -44 -14 -60 -24s-24 -25.333 -24 -46c0 -16 6 -29 18 -39s28.667 -15 50 -15z" />
    <glyph glyph-name="Cacute" unicode="&#x106;" horiz-adv-x="656" 
d="M337 -13c-45.333 0 -86.998 8.33105 -124.998 24.998s-70.5 40 -97.5 70s-48 66.333 -63 109s-22.5 89.667 -22.5 141s7.66699 98.333 23 141s36.666 79 63.999 109s60.333 53.333 99 70s81.334 25 128.001 25c77.333 0 142.166 -20.5 194.499 -61.5
s85.833 -102.5 100.5 -184.5h-131c-10.667 46.667 -30.167 80.167 -58.5 100.5s-63.833 30.5 -106.5 30.5c-56 0 -100.167 -20.167 -132.5 -60.5s-48.5 -95.166 -48.5 -164.499v-10c0 -70 15.833 -125 47.5 -165s75.5 -60 131.5 -60c45.333 0 82.666 10.833 111.999 32.5
s48.333 57.834 57 108.501h131c-12.667 -86.667 -46.167 -151 -100.5 -193s-121.833 -63 -202.5 -63zM531.002 860.998v-11l-163 -136h-65l89 147h139z" />
    <glyph glyph-name="cacute" unicode="&#x107;" horiz-adv-x="491" 
d="M258 -9c-72.667 0 -130.001 22.832 -172.001 68.499s-63 104.834 -63 177.501c0 35.333 5.83301 68 17.5 98s27.834 55.833 48.501 77.5s45.667 38.5 75 50.5s61.666 18 96.999 18c56.667 0 102.5 -13.833 137.5 -41.5s60.5 -64.167 76.5 -109.5l-117 -36
c-6.66699 26 -17.5 46.833 -32.5 62.5s-36.833 23.5 -65.5 23.5c-34 0 -61.333 -13.333 -82 -40s-31 -60.667 -31 -102v-4c0 -41.333 9.66699 -75.333 29 -102s46 -40 80 -40c33.333 0 57.833 8 73.5 24s26.834 38.333 33.501 67l117 -34c-16.667 -48 -43 -86.333 -79 -115
s-83.667 -43 -143 -43zM444.999 682.999v-12l-164 -137h-63l88 149h139z" />
    <glyph glyph-name="Ccircumflex" unicode="&#x108;" horiz-adv-x="656" 
d="M337 -13c-45.333 0 -86.998 8.33105 -124.998 24.998s-70.5 40 -97.5 70s-48 66.333 -63 109s-22.5 89.667 -22.5 141s7.66699 98.333 23 141s36.666 79 63.999 109s60.333 53.333 99 70s81.334 25 128.001 25c77.333 0 142.166 -20.5 194.499 -61.5
s85.833 -102.5 100.5 -184.5h-131c-10.667 46.667 -30.167 80.167 -58.5 100.5s-63.833 30.5 -106.5 30.5c-56 0 -100.167 -20.167 -132.5 -60.5s-48.5 -95.166 -48.5 -164.499v-10c0 -70 15.833 -125 47.5 -165s75.5 -60 131.5 -60c45.333 0 82.666 10.833 111.999 32.5
s48.333 57.834 57 108.501h131c-12.667 -86.667 -46.167 -151 -100.5 -193s-121.833 -63 -202.5 -63zM396.002 858.998l108 -145h-86l-74 77l-76 -77h-84l107 145h105z" />
    <glyph glyph-name="ccircumflex" unicode="&#x109;" horiz-adv-x="491" 
d="M258 -9c-72.667 0 -130.001 22.832 -172.001 68.499s-63 104.834 -63 177.501c0 35.333 5.83301 68 17.5 98s27.834 55.833 48.501 77.5s45.667 38.5 75 50.5s61.666 18 96.999 18c56.667 0 102.5 -13.833 137.5 -41.5s60.5 -64.167 76.5 -109.5l-117 -36
c-6.66699 26 -17.5 46.833 -32.5 62.5s-36.833 23.5 -65.5 23.5c-34 0 -61.333 -13.333 -82 -40s-31 -60.667 -31 -102v-4c0 -41.333 9.66699 -75.333 29 -102s46 -40 80 -40c33.333 0 57.833 8 73.5 24s26.834 38.333 33.501 67l117 -34c-16.667 -48 -43 -86.333 -79 -115
s-83.667 -43 -143 -43zM312.999 680.999l107 -147h-83l-75 81l-75 -81h-83l107 147h102z" />
    <glyph glyph-name="Cdotaccent" unicode="&#x10a;" horiz-adv-x="656" 
d="M337 -13c-45.333 0 -86.998 8.33105 -124.998 24.998s-70.5 40 -97.5 70s-48 66.333 -63 109s-22.5 89.667 -22.5 141s7.66699 98.333 23 141s36.666 79 63.999 109s60.333 53.333 99 70s81.334 25 128.001 25c77.333 0 142.166 -20.5 194.499 -61.5
s85.833 -102.5 100.5 -184.5h-131c-10.667 46.667 -30.167 80.167 -58.5 100.5s-63.833 30.5 -106.5 30.5c-56 0 -100.167 -20.167 -132.5 -60.5s-48.5 -95.166 -48.5 -164.499v-10c0 -70 15.833 -125 47.5 -165s75.5 -60 131.5 -60c45.333 0 82.666 10.833 111.999 32.5
s48.333 57.834 57 108.501h131c-12.667 -86.667 -46.167 -151 -100.5 -193s-121.833 -63 -202.5 -63zM407.002 842.998v-121h-130v121h130z" />
    <glyph glyph-name="cdotaccent" unicode="&#x10b;" horiz-adv-x="491" 
d="M258 -9c-72.667 0 -130.001 22.832 -172.001 68.499s-63 104.834 -63 177.501c0 35.333 5.83301 68 17.5 98s27.834 55.833 48.501 77.5s45.667 38.5 75 50.5s61.666 18 96.999 18c56.667 0 102.5 -13.833 137.5 -41.5s60.5 -64.167 76.5 -109.5l-117 -36
c-6.66699 26 -17.5 46.833 -32.5 62.5s-36.833 23.5 -65.5 23.5c-34 0 -61.333 -13.333 -82 -40s-31 -60.667 -31 -102v-4c0 -41.333 9.66699 -75.333 29 -102s46 -40 80 -40c33.333 0 57.833 8 73.5 24s26.834 38.333 33.501 67l117 -34c-16.667 -48 -43 -86.333 -79 -115
s-83.667 -43 -143 -43zM326.999 661.999v-121h-129v121h129z" />
    <glyph glyph-name="Ccaron" unicode="&#x10c;" horiz-adv-x="656" 
d="M337 -13c-45.333 0 -86.998 8.33105 -124.998 24.998s-70.5 40 -97.5 70s-48 66.333 -63 109s-22.5 89.667 -22.5 141s7.66699 98.333 23 141s36.666 79 63.999 109s60.333 53.333 99 70s81.334 25 128.001 25c77.333 0 142.166 -20.5 194.499 -61.5
s85.833 -102.5 100.5 -184.5h-131c-10.667 46.667 -30.167 80.167 -58.5 100.5s-63.833 30.5 -106.5 30.5c-56 0 -100.167 -20.167 -132.5 -60.5s-48.5 -95.166 -48.5 -164.499v-10c0 -70 15.833 -125 47.5 -165s75.5 -60 131.5 -60c45.333 0 82.666 10.833 111.999 32.5
s48.333 57.834 57 108.501h131c-12.667 -86.667 -46.167 -151 -100.5 -193s-121.833 -63 -202.5 -63zM294.002 710.998l-110 148l84 1l76 -79l75 78l88 2l-110 -146z" />
    <glyph glyph-name="ccaron" unicode="&#x10d;" horiz-adv-x="491" 
d="M258 -9c-72.667 0 -130.001 22.832 -172.001 68.499s-63 104.834 -63 177.501c0 35.333 5.83301 68 17.5 98s27.834 55.833 48.501 77.5s45.667 38.5 75 50.5s61.666 18 96.999 18c56.667 0 102.5 -13.833 137.5 -41.5s60.5 -64.167 76.5 -109.5l-117 -36
c-6.66699 26 -17.5 46.833 -32.5 62.5s-36.833 23.5 -65.5 23.5c-34 0 -61.333 -13.333 -82 -40s-31 -60.667 -31 -102v-4c0 -41.333 9.66699 -75.333 29 -102s46 -40 80 -40c33.333 0 57.833 8 73.5 24s26.834 38.333 33.501 67l117 -34c-16.667 -48 -43 -86.333 -79 -115
s-83.667 -43 -143 -43zM186.999 680.999l75 -80l75 80h83l-107 -146h-102l-107 146h83z" />
    <glyph glyph-name="Dcaron" unicode="&#x10e;" horiz-adv-x="654" 
d="M50 0l-0.00195312 664.001h244c104.667 0 186.334 -28.5 245.001 -85.5s88 -139.833 88 -248.5c0 -106.667 -30.167 -188.334 -90.5 -245.001s-144.166 -85 -251.499 -85h-235zM177.998 558.001v-452h109c69.333 0 121.333 18.5 156 55.5s52 92.5 52 166.5v6
c0 76 -16.5 132.333 -49.5 169s-83.833 55 -152.5 55h-115zM259.998 711.001l-110 148l84 1l76 -79l75 78l88 2l-110 -146z" />
    <glyph glyph-name="dcaron" unicode="&#x10f;" horiz-adv-x="645" 
d="M233 -10c-29.333 0 -56.8301 5.49707 -82.4971 16.4971s-47.834 26.833 -66.501 47.5s-33.5 46.334 -44.5 77.001s-16.5 65 -16.5 103c0 37.333 5.33301 71.333 16 102s25.5 56.834 44.5 78.501s41.333 38.334 67 50.001s53.5 17.5 83.5 17.5s57.167 -6.33301 81.5 -19
s44.833 -30 61.5 -52v262h121v-673h-120v61c-16.667 -22 -37.334 -39.333 -62.001 -52s-52.334 -19 -83.001 -19zM268.003 90.9971c35.333 0 63.333 13.333 84 40s31 61 31 103v8c0 42 -10.167 75.667 -30.5 101s-48.5 38 -84.5 38c-34 0 -61.667 -12.5 -83 -37.5
s-32 -60.5 -32 -106.5v-7c0 -46 10.5 -80.667 31.5 -104s48.833 -35 83.5 -35zM542.003 507.997l10 165h100v-17l-28 -148h-82z" />
    <glyph glyph-name="Dcroat" unicode="&#x110;" horiz-adv-x="664" 
d="M62 664l245.001 0.000976562c104 0 185 -28.5 243 -85.5s87 -139.833 87 -248.5c0 -106.667 -29.833 -188.334 -89.5 -245.001s-142.834 -85 -249.501 -85h-236v284h-67v97h67v283zM191.001 106.001h108c68.667 0 120 18.5 154 55.5s51 92.5 51 166.5v6
c0 76 -16.333 132.333 -49 169s-82.667 55 -150 55h-114v-177h144v-97h-144v-178z" />
    <glyph glyph-name="dcroat" unicode="&#x111;" horiz-adv-x="548" 
d="M557 606l0.00292969 -83.0029h-59v-523h-120v61c-16.667 -22 -37.334 -39.333 -62.001 -52s-52.334 -19 -83.001 -19c-29.333 0 -56.833 5.5 -82.5 16.5s-47.834 26.833 -66.501 47.5s-33.5 46.334 -44.5 77.001s-16.5 65 -16.5 103c0 37.333 5.33301 71.333 16 102
s25.5 56.834 44.5 78.501s41.333 38.334 67 50.001s53.5 17.5 83.5 17.5s57.167 -6.33301 81.5 -19s44.833 -30 61.5 -52v112h-103v83h103v67h121v-67h59zM268.003 90.9971c35.333 0 63.333 13.333 84 40s31 61 31 103v8c0 42 -10.167 75.667 -30.5 101s-48.5 38 -84.5 38
c-34 0 -61.667 -12.5 -83 -37.5s-32 -60.5 -32 -106.5v-7c0 -46 10.5 -80.667 31.5 -104s48.833 -35 83.5 -35z" />
    <glyph glyph-name="Emacron" unicode="&#x112;" horiz-adv-x="571" 
d="M412 396v-109h-237v-178h367v-109h-492v664h481v-109h-356v-159h237zM454 824v-87h-296v87h296z" />
    <glyph glyph-name="emacron" unicode="&#x113;" horiz-adv-x="509" 
d="M262 -8c-73.333 0 -131.499 21.832 -174.499 65.499s-64.5 102.167 -64.5 175.5c0 36 5.83301 69.333 17.5 100s27.834 56.834 48.501 78.501s45.667 38.667 75 51s61 18.5 95 18.5c71.333 0 127.166 -22.167 167.499 -66.5s60.5 -103.5 60.5 -177.5v-42h-342
c4 -34 16.5 -60.167 37.5 -78.5s48.167 -27.5 81.5 -27.5c34.667 0 60.667 7.16699 78 21.5s29.666 31.5 36.999 51.5l108 -38c-16.667 -38 -43 -69.5 -79 -94.5s-84.667 -37.5 -146 -37.5zM256.001 384.999c-30 0 -55.167 -9.16699 -75.5 -27.5
s-32.833 -43.833 -37.5 -76.5h219c-2.66699 34 -13 59.833 -31 77.5s-43 26.5 -75 26.5zM401.001 642.999v-88h-280v88h280z" />
    <glyph glyph-name="Ebreve" unicode="&#x114;" horiz-adv-x="571" 
d="M412 396v-109h-237v-178h367v-109h-492v664h481v-109h-356v-159h237zM307 714c-49.333 0 -87.833 13.333 -115.5 40s-40.167 62.667 -37.5 108l89 5c0 -25.333 5 -44.666 15 -57.999s26.333 -20 49 -20c21.333 0 37 6.66699 47 20s14.667 32.666 14 57.999l90 -5
c2.66699 -45.333 -9.83301 -81.333 -37.5 -108s-65.5 -40 -113.5 -40z" />
    <glyph glyph-name="ebreve" unicode="&#x115;" horiz-adv-x="509" 
d="M262 -8c-73.333 0 -131.499 21.832 -174.499 65.499s-64.5 102.167 -64.5 175.5c0 36 5.83301 69.333 17.5 100s27.834 56.834 48.501 78.501s45.667 38.667 75 51s61 18.5 95 18.5c71.333 0 127.166 -22.167 167.499 -66.5s60.5 -103.5 60.5 -177.5v-42h-342
c4 -34 16.5 -60.167 37.5 -78.5s48.167 -27.5 81.5 -27.5c34.667 0 60.667 7.16699 78 21.5s29.666 31.5 36.999 51.5l108 -38c-16.667 -38 -43 -69.5 -79 -94.5s-84.667 -37.5 -146 -37.5zM256.001 384.999c-30 0 -55.167 -9.16699 -75.5 -27.5
s-32.833 -43.833 -37.5 -76.5h219c-2.66699 34 -13 59.833 -31 77.5s-43 26.5 -75 26.5zM262.001 536.999c-50 0 -88.002 12.6689 -114.002 38.002s-38 59.666 -36 102.999l86 5c0.666992 -24.667 5.83398 -43 15.501 -55s25.834 -18 48.501 -18s38.5 6.33301 47.5 19
s13.5 30.667 13.5 54l87 -5c2.66699 -42.667 -9 -76.834 -35 -102.501s-63.667 -38.5 -113 -38.5z" />
    <glyph glyph-name="Edotaccent" unicode="&#x116;" horiz-adv-x="571" 
d="M412 396v-109h-237v-178h367v-109h-492v664h481v-109h-356v-159h237zM371 843v-121h-130v121h130z" />
    <glyph glyph-name="edotaccent" unicode="&#x117;" horiz-adv-x="509" 
d="M262 -8c-73.333 0 -131.499 21.832 -174.499 65.499s-64.5 102.167 -64.5 175.5c0 36 5.83301 69.333 17.5 100s27.834 56.834 48.501 78.501s45.667 38.667 75 51s61 18.5 95 18.5c71.333 0 127.166 -22.167 167.499 -66.5s60.5 -103.5 60.5 -177.5v-42h-342
c4 -34 16.5 -60.167 37.5 -78.5s48.167 -27.5 81.5 -27.5c34.667 0 60.667 7.16699 78 21.5s29.666 31.5 36.999 51.5l108 -38c-16.667 -38 -43 -69.5 -79 -94.5s-84.667 -37.5 -146 -37.5zM256.001 384.999c-30 0 -55.167 -9.16699 -75.5 -27.5
s-32.833 -43.833 -37.5 -76.5h219c-2.66699 34 -13 59.833 -31 77.5s-43 26.5 -75 26.5zM326.001 661.999v-121h-129v121h129z" />
    <glyph glyph-name="Eogonek" unicode="&#x118;" horiz-adv-x="572" 
d="M484 -206c-38 0 -68.332 9.16699 -90.999 27.5s-34 40.833 -34 67.5c0 23.333 7.5 44.5 22.5 63.5s34.833 34.833 59.5 47.5h-391v664h481v-109h-356v-159h237v-109h-237v-178h367v-109h-3c-28 -12 -48.667 -24.667 -62 -38s-20 -27.666 -20 -42.999
c0 -12 3.83301 -21.167 11.5 -27.5s19.167 -9.5 34.5 -9.5c10.667 0 19.167 0.5 25.5 1.5s11.5 2.16699 15.5 3.5v-84c-8 -2.66699 -16.833 -4.83398 -26.5 -6.50098s-20.834 -2.5 -33.501 -2.5z" />
    <glyph glyph-name="eogonek" unicode="&#x119;" horiz-adv-x="509" 
d="M320 -206c-34 0 -62.666 9.33203 -85.999 27.999s-35 42.334 -35 71.001c0 18.667 5.16699 36.5 15.5 53.5s24.166 32.167 41.499 45.5c-71.333 1.33301 -128 23.833 -170 67.5s-63 101.5 -63 173.5c0 36 5.83301 69.333 17.5 100s27.834 56.834 48.501 78.501
s45.667 38.667 75 51s61 18.5 95 18.5c71.333 0 127.166 -22.167 167.499 -66.5s60.5 -103.5 60.5 -177.5v-42h-342c4 -34 16.5 -60.167 37.5 -78.5s48.167 -27.5 81.5 -27.5c34.667 0 60.667 7.16699 78 21.5s29.666 31.5 36.999 51.5l108 -38
c-10.667 -24.667 -25.667 -47.167 -45 -67.5s-43.666 -35.833 -72.999 -46.5c-22.667 -13.333 -40.667 -27 -54 -41s-20 -30.333 -20 -49c0 -12.667 4 -22.167 12 -28.5s20.333 -9.5 37 -9.5c8 0 15 0.5 21 1.5s10.667 2.16699 14 3.5v-84
c-6.66699 -2.66699 -15 -4.83398 -25 -6.50098s-21.333 -2.5 -34 -2.5zM256.001 384.999c-30 0 -55.167 -9.16699 -75.5 -27.5s-32.833 -43.833 -37.5 -76.5h219c-2.66699 34 -13 59.833 -31 77.5s-43 26.5 -75 26.5z" />
    <glyph glyph-name="Ecaron" unicode="&#x11a;" horiz-adv-x="571" 
d="M412 396v-109h-237v-178h367v-109h-492v664h481v-109h-356v-159h237zM258 711l-110 148l84 1l76 -79l75 78l88 2l-110 -146z" />
    <glyph glyph-name="ecaron" unicode="&#x11b;" horiz-adv-x="509" 
d="M262 -8c-73.333 0 -131.499 21.832 -174.499 65.499s-64.5 102.167 -64.5 175.5c0 36 5.83301 69.333 17.5 100s27.834 56.834 48.501 78.501s45.667 38.667 75 51s61 18.5 95 18.5c71.333 0 127.166 -22.167 167.499 -66.5s60.5 -103.5 60.5 -177.5v-42h-342
c4 -34 16.5 -60.167 37.5 -78.5s48.167 -27.5 81.5 -27.5c34.667 0 60.667 7.16699 78 21.5s29.666 31.5 36.999 51.5l108 -38c-16.667 -38 -43 -69.5 -79 -94.5s-84.667 -37.5 -146 -37.5zM256.001 384.999c-30 0 -55.167 -9.16699 -75.5 -27.5
s-32.833 -43.833 -37.5 -76.5h219c-2.66699 34 -13 59.833 -31 77.5s-43 26.5 -75 26.5zM186.001 680.999l75 -80l75 80h83l-107 -146h-102l-107 146h83z" />
    <glyph glyph-name="Gcircumflex" unicode="&#x11c;" horiz-adv-x="686" 
d="M524 0l-0.00195312 90.999c-18.667 -32.667 -44.5 -58.167 -77.5 -76.5s-71.5 -27.5 -115.5 -27.5c-45.333 0 -86.666 8 -123.999 24s-69.166 38.333 -95.499 67s-46.666 63.834 -60.999 105.501s-21.5 87.834 -21.5 138.501c0 54 7.83301 103 23.5 147
s37.5 81.333 65.5 112s61.5 54.334 100.5 71.001s82.167 25 129.5 25c78 0 142.333 -20 193 -60s82 -98.333 94 -175h-132c-8 42 -25.333 72.667 -52 92s-61.334 29 -104.001 29c-56 0 -101.333 -20.833 -136 -62.5s-52 -99.834 -52 -174.501v-10
c0 -68.667 17 -122.334 51 -161.001s80 -58 138 -58c40.667 0 76.167 11.5 106.5 34.5s47.833 54.5 52.5 94.5h-147v105h277v-331h-113zM403.998 858.999l108 -145h-86l-74 77l-76 -77h-84l107 145h105z" />
    <glyph glyph-name="gcircumflex" unicode="&#x11d;" horiz-adv-x="519" 
d="M236 121c-12 0 -23.666 0.833984 -34.999 2.50098s-22.333 4.16699 -33 7.5h-4c-12 0 -22.167 -2.5 -30.5 -7.5s-12.5 -11.167 -12.5 -18.5c0 -8.66699 5.5 -15.834 16.5 -21.501s24.833 -8.5 41.5 -8.5h110c73.333 0 129.666 -13.167 168.999 -39.5
s59 -64.166 59 -113.499c0 -50.667 -23.167 -90.667 -69.5 -120s-110.166 -44 -191.499 -44c-79.333 0 -140.166 12 -182.499 36s-63.5 58 -63.5 102c0 22.667 7.33301 43 22 61s35 32.333 61 43c-22.667 5.33301 -40.834 15.166 -54.501 29.499s-20.5 30.833 -20.5 49.5
c0 20.667 7.33301 38.334 22 53.001s35.334 25.667 62.001 33c-20.667 16 -37.167 35.667 -49.5 59s-18.5 48.333 -18.5 75c0 26 5.16699 50.167 15.5 72.5s24.666 41.5 42.999 57.5s40.333 28.667 66 38s53.167 14 82.5 14c36.667 0 69.834 -7.16699 99.501 -21.5
s53.167 -33.833 70.5 -58.5c8.66699 22 21.167 39.333 37.5 52s36.833 19 61.5 19v-121c-10.667 4.66699 -22.834 6.33398 -36.501 5.00098s-25.834 -6.33301 -36.501 -15c1.33301 -6.66699 2.5 -13.334 3.5 -20.001s1.5 -13.334 1.5 -20.001
c0 -54 -18.833 -97.5 -56.5 -130.5s-87.5 -49.5 -149.5 -49.5zM283.001 -29.999l-94 0.000976562c-21.333 -2.66699 -39.166 -9.33398 -53.499 -20.001s-21.5 -25 -21.5 -43c0 -18.667 12.667 -33.5 38 -44.5s61.333 -16.5 108 -16.5c45.333 0 81.666 5.83301 108.999 17.5
s41 27.5 41 47.5c0 20.667 -10.333 35.667 -31 45s-52.667 14 -96 14zM239.001 212.002c28.667 0 51.5 7.99902 68.5 23.999s25.5 36.667 25.5 62v6c0 24.667 -9 45.334 -27 62.001s-40.333 25 -67 25s-48.667 -8.5 -66 -25.5s-26 -37.833 -26 -62.5v-5
c0 -24.667 8.5 -45.167 25.5 -61.5s39.167 -24.5 66.5 -24.5zM298.001 681.001l107 -147h-83l-75 81l-75 -81h-83l107 147h102z" />
    <glyph glyph-name="Gbreve" unicode="&#x11e;" horiz-adv-x="686" 
d="M524 0l-0.00195312 90.999c-18.667 -32.667 -44.5 -58.167 -77.5 -76.5s-71.5 -27.5 -115.5 -27.5c-45.333 0 -86.666 8 -123.999 24s-69.166 38.333 -95.499 67s-46.666 63.834 -60.999 105.501s-21.5 87.834 -21.5 138.501c0 54 7.83301 103 23.5 147
s37.5 81.333 65.5 112s61.5 54.334 100.5 71.001s82.167 25 129.5 25c78 0 142.333 -20 193 -60s82 -98.333 94 -175h-132c-8 42 -25.333 72.667 -52 92s-61.334 29 -104.001 29c-56 0 -101.333 -20.833 -136 -62.5s-52 -99.834 -52 -174.501v-10
c0 -68.667 17 -122.334 51 -161.001s80 -58 138 -58c40.667 0 76.167 11.5 106.5 34.5s47.833 54.5 52.5 94.5h-147v105h277v-331h-113zM350.998 713.999c-49.333 0 -87.833 13.333 -115.5 40s-40.167 62.667 -37.5 108l89 5c0 -25.333 5 -44.666 15 -57.999
s26.333 -20 49 -20c21.333 0 37 6.66699 47 20s14.667 32.666 14 57.999l90 -5c2.66699 -45.333 -9.83301 -81.333 -37.5 -108s-65.5 -40 -113.5 -40z" />
    <glyph glyph-name="gbreve" unicode="&#x11f;" horiz-adv-x="519" 
d="M236 121c-12 0 -23.666 0.833984 -34.999 2.50098s-22.333 4.16699 -33 7.5h-4c-12 0 -22.167 -2.5 -30.5 -7.5s-12.5 -11.167 -12.5 -18.5c0 -8.66699 5.5 -15.834 16.5 -21.501s24.833 -8.5 41.5 -8.5h110c73.333 0 129.666 -13.167 168.999 -39.5
s59 -64.166 59 -113.499c0 -50.667 -23.167 -90.667 -69.5 -120s-110.166 -44 -191.499 -44c-79.333 0 -140.166 12 -182.499 36s-63.5 58 -63.5 102c0 22.667 7.33301 43 22 61s35 32.333 61 43c-22.667 5.33301 -40.834 15.166 -54.501 29.499s-20.5 30.833 -20.5 49.5
c0 20.667 7.33301 38.334 22 53.001s35.334 25.667 62.001 33c-20.667 16 -37.167 35.667 -49.5 59s-18.5 48.333 -18.5 75c0 26 5.16699 50.167 15.5 72.5s24.666 41.5 42.999 57.5s40.333 28.667 66 38s53.167 14 82.5 14c36.667 0 69.834 -7.16699 99.501 -21.5
s53.167 -33.833 70.5 -58.5c8.66699 22 21.167 39.333 37.5 52s36.833 19 61.5 19v-121c-10.667 4.66699 -22.834 6.33398 -36.501 5.00098s-25.834 -6.33301 -36.501 -15c1.33301 -6.66699 2.5 -13.334 3.5 -20.001s1.5 -13.334 1.5 -20.001
c0 -54 -18.833 -97.5 -56.5 -130.5s-87.5 -49.5 -149.5 -49.5zM283.001 -29.999l-94 0.000976562c-21.333 -2.66699 -39.166 -9.33398 -53.499 -20.001s-21.5 -25 -21.5 -43c0 -18.667 12.667 -33.5 38 -44.5s61.333 -16.5 108 -16.5c45.333 0 81.666 5.83301 108.999 17.5
s41 27.5 41 47.5c0 20.667 -10.333 35.667 -31 45s-52.667 14 -96 14zM239.001 212.002c28.667 0 51.5 7.99902 68.5 23.999s25.5 36.667 25.5 62v6c0 24.667 -9 45.334 -27 62.001s-40.333 25 -67 25s-48.667 -8.5 -66 -25.5s-26 -37.833 -26 -62.5v-5
c0 -24.667 8.5 -45.167 25.5 -61.5s39.167 -24.5 66.5 -24.5zM248.001 537.001c-50 0 -88.002 12.6689 -114.002 38.002s-38 59.666 -36 102.999l86 5c0.666992 -24.667 5.83398 -43 15.501 -55s25.834 -18 48.501 -18s38.5 6.33301 47.5 19s13.5 30.667 13.5 54l87 -5
c2.66699 -42.667 -9 -76.834 -35 -102.501s-63.667 -38.5 -113 -38.5z" />
    <glyph glyph-name="Gdotaccent" unicode="&#x120;" horiz-adv-x="686" 
d="M524 0l-0.00195312 90.999c-18.667 -32.667 -44.5 -58.167 -77.5 -76.5s-71.5 -27.5 -115.5 -27.5c-45.333 0 -86.666 8 -123.999 24s-69.166 38.333 -95.499 67s-46.666 63.834 -60.999 105.501s-21.5 87.834 -21.5 138.501c0 54 7.83301 103 23.5 147
s37.5 81.333 65.5 112s61.5 54.334 100.5 71.001s82.167 25 129.5 25c78 0 142.333 -20 193 -60s82 -98.333 94 -175h-132c-8 42 -25.333 72.667 -52 92s-61.334 29 -104.001 29c-56 0 -101.333 -20.833 -136 -62.5s-52 -99.834 -52 -174.501v-10
c0 -68.667 17 -122.334 51 -161.001s80 -58 138 -58c40.667 0 76.167 11.5 106.5 34.5s47.833 54.5 52.5 94.5h-147v105h277v-331h-113zM414.998 842.999v-121h-130v121h130z" />
    <glyph glyph-name="gdotaccent" unicode="&#x121;" horiz-adv-x="519" 
d="M236 121c-12 0 -23.666 0.833984 -34.999 2.50098s-22.333 4.16699 -33 7.5h-4c-12 0 -22.167 -2.5 -30.5 -7.5s-12.5 -11.167 -12.5 -18.5c0 -8.66699 5.5 -15.834 16.5 -21.501s24.833 -8.5 41.5 -8.5h110c73.333 0 129.666 -13.167 168.999 -39.5
s59 -64.166 59 -113.499c0 -50.667 -23.167 -90.667 -69.5 -120s-110.166 -44 -191.499 -44c-79.333 0 -140.166 12 -182.499 36s-63.5 58 -63.5 102c0 22.667 7.33301 43 22 61s35 32.333 61 43c-22.667 5.33301 -40.834 15.166 -54.501 29.499s-20.5 30.833 -20.5 49.5
c0 20.667 7.33301 38.334 22 53.001s35.334 25.667 62.001 33c-20.667 16 -37.167 35.667 -49.5 59s-18.5 48.333 -18.5 75c0 26 5.16699 50.167 15.5 72.5s24.666 41.5 42.999 57.5s40.333 28.667 66 38s53.167 14 82.5 14c36.667 0 69.834 -7.16699 99.501 -21.5
s53.167 -33.833 70.5 -58.5c8.66699 22 21.167 39.333 37.5 52s36.833 19 61.5 19v-121c-10.667 4.66699 -22.834 6.33398 -36.501 5.00098s-25.834 -6.33301 -36.501 -15c1.33301 -6.66699 2.5 -13.334 3.5 -20.001s1.5 -13.334 1.5 -20.001
c0 -54 -18.833 -97.5 -56.5 -130.5s-87.5 -49.5 -149.5 -49.5zM283.001 -29.999l-94 0.000976562c-21.333 -2.66699 -39.166 -9.33398 -53.499 -20.001s-21.5 -25 -21.5 -43c0 -18.667 12.667 -33.5 38 -44.5s61.333 -16.5 108 -16.5c45.333 0 81.666 5.83301 108.999 17.5
s41 27.5 41 47.5c0 20.667 -10.333 35.667 -31 45s-52.667 14 -96 14zM239.001 212.002c28.667 0 51.5 7.99902 68.5 23.999s25.5 36.667 25.5 62v6c0 24.667 -9 45.334 -27 62.001s-40.333 25 -67 25s-48.667 -8.5 -66 -25.5s-26 -37.833 -26 -62.5v-5
c0 -24.667 8.5 -45.167 25.5 -61.5s39.167 -24.5 66.5 -24.5zM312.001 662.001v-121h-129v121h129z" />
    <glyph glyph-name="Gcommaaccent" unicode="&#x122;" horiz-adv-x="686" 
d="M524 0l-0.00195312 90.999c-18.667 -32.667 -44.5 -58.167 -77.5 -76.5s-71.5 -27.5 -115.5 -27.5c-45.333 0 -86.666 8 -123.999 24s-69.166 38.333 -95.499 67s-46.666 63.834 -60.999 105.501s-21.5 87.834 -21.5 138.501c0 54 7.83301 103 23.5 147
s37.5 81.333 65.5 112s61.5 54.334 100.5 71.001s82.167 25 129.5 25c78 0 142.333 -20 193 -60s82 -98.333 94 -175h-132c-8 42 -25.333 72.667 -52 92s-61.334 29 -104.001 29c-56 0 -101.333 -20.833 -136 -62.5s-52 -99.834 -52 -174.501v-10
c0 -68.667 17 -122.334 51 -161.001s80 -58 138 -58c40.667 0 76.167 11.5 106.5 34.5s47.833 54.5 52.5 94.5h-147v105h277v-331h-113zM270.998 -271.001l-4.00195 10.998c18.667 8.66699 32.834 20.334 42.501 35.001s14.834 31.334 15.501 50.001h-50v108h130v-100
c0 -26.667 -11.333 -50.667 -34 -72s-56 -32 -100 -32z" />
    <glyph glyph-name="gcommaaccent" unicode="&#x123;" horiz-adv-x="519" 
d="M236 121c-12 0 -23.666 0.833984 -34.999 2.50098s-22.333 4.16699 -33 7.5h-4c-12 0 -22.167 -2.5 -30.5 -7.5s-12.5 -11.167 -12.5 -18.5c0 -8.66699 5.5 -15.834 16.5 -21.501s24.833 -8.5 41.5 -8.5h110c73.333 0 129.666 -13.167 168.999 -39.5
s59 -64.166 59 -113.499c0 -50.667 -23.167 -90.667 -69.5 -120s-110.166 -44 -191.499 -44c-79.333 0 -140.166 12 -182.499 36s-63.5 58 -63.5 102c0 22.667 7.33301 43 22 61s35 32.333 61 43c-22.667 5.33301 -40.834 15.166 -54.501 29.499s-20.5 30.833 -20.5 49.5
c0 20.667 7.33301 38.334 22 53.001s35.334 25.667 62.001 33c-20.667 16 -37.167 35.667 -49.5 59s-18.5 48.333 -18.5 75c0 26 5.16699 50.167 15.5 72.5s24.666 41.5 42.999 57.5s40.333 28.667 66 38s53.167 14 82.5 14c36.667 0 69.834 -7.16699 99.501 -21.5
s53.167 -33.833 70.5 -58.5c8.66699 22 21.167 39.333 37.5 52s36.833 19 61.5 19v-121c-10.667 4.66699 -22.834 6.33398 -36.501 5.00098s-25.834 -6.33301 -36.501 -15c1.33301 -6.66699 2.5 -13.334 3.5 -20.001s1.5 -13.334 1.5 -20.001
c0 -54 -18.833 -97.5 -56.5 -130.5s-87.5 -49.5 -149.5 -49.5zM283.001 -29.999l-94 0.000976562c-21.333 -2.66699 -39.166 -9.33398 -53.499 -20.001s-21.5 -25 -21.5 -43c0 -18.667 12.667 -33.5 38 -44.5s61.333 -16.5 108 -16.5c45.333 0 81.666 5.83301 108.999 17.5
s41 27.5 41 47.5c0 20.667 -10.333 35.667 -31 45s-52.667 14 -96 14zM239.001 212.002c28.667 0 51.5 7.99902 68.5 23.999s25.5 36.667 25.5 62v6c0 24.667 -9 45.334 -27 62.001s-40.333 25 -67 25s-48.667 -8.5 -66 -25.5s-26 -37.833 -26 -62.5v-5
c0 -24.667 8.5 -45.167 25.5 -61.5s39.167 -24.5 66.5 -24.5zM183.001 541.001l-0.000976562 101.001c0 26.667 11.167 50.667 33.5 72s55.5 32 99.5 32l4 -11c-17.333 -8 -31.166 -17.833 -41.499 -29.5s-15.833 -26.834 -16.5 -45.501h50v-119h-129z" />
    <glyph glyph-name="Hcircumflex" unicode="&#x124;" horiz-adv-x="653" 
d="M602 664v-664h-127v283h-298v-283h-127v664h127v-273h298v273h127zM380 859l108 -145h-86l-74 77l-76 -77h-84l107 145h105z" />
    <glyph glyph-name="hcircumflex" unicode="&#x125;" horiz-adv-x="508" 
d="M167 673v-284.998c12 29.333 29.5 52.166 52.5 68.499s51.5 24.5 85.5 24.5c51.333 0 91.5 -16.833 120.5 -50.5s43.5 -82.834 43.5 -147.501v-283h-124v276c0 32.667 -6.66699 57.5 -20 74.5s-34.333 25.5 -63 25.5s-51.667 -11.667 -69 -35s-26 -57 -26 -101v-240h-121
v673h121zM161 859.002l108 -145h-86l-74 77l-76 -77h-84l107 145h105z" />
    <glyph glyph-name="Hbar" unicode="&#x126;" horiz-adv-x="679" 
d="M618 664v-94h59v-92h-59v-478h-127v243h-303v-243h-127v478h-59v92h59v94h127v-94h303v94h127zM188 478v-127h303v127h-303z" />
    <glyph glyph-name="hbar" unicode="&#x127;" horiz-adv-x="510" 
d="M272 606v-83h-104v-131c12.667 26 30 46 52 60s48.667 21 80 21c52.667 0 94.5 -17.667 125.5 -53s46.5 -83.666 46.5 -144.999v-275h-124v269c0 31.333 -7.16699 55.666 -21.5 72.999s-35.833 26 -64.5 26c-32.667 0 -56.167 -12.5 -70.5 -37.5s-21.5 -57.5 -21.5 -97.5
v-233h-124v523h-57v83h57v67h122v-67h104z" />
    <glyph glyph-name="Itilde" unicode="&#x128;" horiz-adv-x="237" 
d="M183 664v-664h-127v664h127zM28 724l-61.999 6c-0.666992 2.66699 -0.833984 7.33398 -0.500977 14.001s0.5 11.334 0.5 14.001c2 36 12.333 61 31 75s37.334 21 56.001 21s33.667 -2.83301 45 -8.5s21 -11.834 29 -18.501l22.5 -18.5c7 -5.66699 15.833 -8.5 26.5 -8.5
c8.66699 0 15.167 2.66699 19.5 8s8.16602 12 11.499 20c0.666992 0.666992 1.66699 3.5 3 8.5s2 8.83301 2 11.5l61 -8c0.666992 -2.66699 0.833984 -7.33398 0.500977 -14.001s-0.833008 -11.334 -1.5 -14.001c-2 -36 -12.167 -61 -30.5 -75s-36.833 -21 -55.5 -21
c-18 0 -32.5 2.83301 -43.5 8.5s-20.5 11.834 -28.5 18.501l-23 18.5c-7.33301 5.66699 -16.333 8.5 -27 8.5c-8.66699 0 -15.334 -2.5 -20.001 -7.5s-8.66699 -12.167 -12 -21.5c-0.666992 -2 -1.5 -5 -2.5 -9s-1.5 -6.66699 -1.5 -8z" />
    <glyph glyph-name="itilde" unicode="&#x129;" horiz-adv-x="219" 
d="M172 472v-472h-125v472h125zM-19 549c0 2.66699 0.166016 7.5 0.499023 14.5s0.5 11.833 0.5 14.5c1.33301 40 9.5 66.333 24.5 79s30.167 19 45.5 19s28 -3.16699 38 -9.5s18.5 -13.333 25.5 -21l19 -21c5.66699 -6.33301 11.834 -9.5 18.501 -9.5
c4.66699 0 8.83398 2.5 12.501 7.5s6.5 11.5 8.5 19.5l5 27l56 -7c0 -2.66699 -0.166992 -7.5 -0.5 -14.5s-0.5 -11.833 -0.5 -14.5c-1.33301 -38 -9.5 -64 -24.5 -78s-30.833 -21 -47.5 -21c-14 0 -25.667 3.16699 -35 9.5s-17.5 13.5 -24.5 21.5l-19 21.5
c-5.66699 6.33301 -11.834 9.5 -18.501 9.5c-6 0 -10.833 -2.66699 -14.5 -8s-6.5 -12 -8.5 -20c-1.33301 -4.66699 -2.33301 -9.16699 -3 -13.5l-2 -12.5z" />
    <glyph glyph-name="Imacron" unicode="&#x12a;" horiz-adv-x="237" 
d="M182 664v-664h-127v664h127zM267 824v-87h-296v87h296z" />
    <glyph glyph-name="imacron" unicode="&#x12b;" horiz-adv-x="219" 
d="M172 472v-472h-125v472h125zM229 643v-88h-242v88h242z" />
    <glyph glyph-name="Ibreve" unicode="&#x12c;" horiz-adv-x="237" 
d="M186 664v-664h-127v664h127zM124 714c-49.333 0 -87.833 13.333 -115.5 40s-40.167 62.667 -37.5 108l89 5c0 -25.333 5 -44.666 15 -57.999s26.333 -20 49 -20c21.333 0 37 6.66699 47 20s14.667 32.666 14 57.999l90 -5c2.66699 -45.333 -9.83301 -81.333 -37.5 -108
s-65.5 -40 -113.5 -40z" />
    <glyph glyph-name="ibreve" unicode="&#x12d;" horiz-adv-x="219" 
d="M115 608c18.667 0 31.6641 6.33008 38.9971 18.9971s10 31.334 8 56.001l75 -5c5.33301 -43.333 -3 -77.666 -25 -102.999s-54.667 -38 -98 -38c-44 0 -76.667 13 -98 39s-29.666 60 -24.999 102l75 5c-1.33301 -25.333 1.83398 -44.166 9.50098 -56.499
s20.834 -18.5 39.501 -18.5zM177.997 471.997v-472h-125v472h125z" />
    <glyph glyph-name="Iogonek" unicode="&#x12e;" horiz-adv-x="237" 
d="M182 664l0.000976562 -664h-2c-28 -12 -48.833 -24.667 -62.5 -38s-20.5 -27.666 -20.5 -42.999c0 -12 3.83301 -21.167 11.5 -27.5s19.5 -9.5 35.5 -9.5c10.667 0 19.167 0.5 25.5 1.5s11.166 2.16699 14.499 3.5v-84c-7.33301 -2.66699 -16 -4.83398 -26 -6.50098
s-21.333 -2.5 -34 -2.5c-38 0 -68.333 9.16699 -91 27.5s-34 40.833 -34 67.5c0 23.333 7.5 44.5 22.5 63.5s34.833 34.833 59.5 47.5h-26v664h127z" />
    <glyph glyph-name="iogonek" unicode="&#x12f;" horiz-adv-x="219" 
d="M114 -206c-38 0 -68.3311 9.16699 -90.998 27.5s-34 40.833 -34 67.5c0 23.333 7.5 44.5 22.5 63.5s34.833 34.833 59.5 47.5h-24v472h125v-472h-3c-28 -12 -48.667 -24.667 -62 -38s-20 -27.666 -20 -42.999c0 -12 3.83301 -21.167 11.5 -27.5s19.167 -9.5 34.5 -9.5
c10.667 0 19.167 0.5 25.5 1.5s11.166 2.16699 14.499 3.5v-84c-7.33301 -2.66699 -15.833 -4.83398 -25.5 -6.50098s-20.834 -2.5 -33.501 -2.5zM174.002 662v-121h-129v121h129z" />
    <glyph glyph-name="Idotaccent" unicode="&#x130;" horiz-adv-x="237" 
d="M182 664v-664h-127v664h127zM184 843v-121h-130v121h130z" />
    <glyph glyph-name="dotlessi" unicode="&#x131;" horiz-adv-x="219" 
d="M172 472v-472h-125v472h125z" />
    <glyph glyph-name="IJ" unicode="&#x132;" horiz-adv-x="755" 
d="M182 664v-664h-127v664h127zM481 -13c-73.333 0 -128.167 19.501 -164.5 58.501s-56.833 89.833 -61.5 152.5l125 18c2.66699 -40.667 11.667 -70.834 27 -90.501s39.333 -29.5 72 -29.5c36 0 61.833 9.33301 77.5 28s23.5 49.667 23.5 93v447h127v-445
c0 -78 -18.667 -136.167 -56 -174.5s-94 -57.5 -170 -57.5z" />
    <glyph glyph-name="ij" unicode="&#x133;" horiz-adv-x="437" 
d="M172 472v-472h-125v472h125zM174 662v-121h-129v121h129zM186 -84l30 -0.000976562c20 0 33.333 3.83301 40 11.5s10 22.834 10 45.501v499h125v-502c0 -61.333 -13.333 -103.333 -40 -126s-71 -34 -133 -34h-32v106zM393 661.999v-121h-129v121h129z" />
    <glyph glyph-name="Jcircumflex" unicode="&#x134;" horiz-adv-x="518" 
d="M244 -13c-73.333 0 -128.167 19.501 -164.5 58.501s-56.833 89.833 -61.5 152.5l125 18c2.66699 -40.667 11.667 -70.834 27 -90.501s39.333 -29.5 72 -29.5c36 0 61.833 9.33301 77.5 28s23.5 49.667 23.5 93v447h127v-445c0 -78 -18.667 -136.167 -56 -174.5
s-94 -57.5 -170 -57.5zM456.999 859.001l108 -145h-86l-74 77l-76 -77h-84l107 145h105z" />
    <glyph glyph-name="jcircumflex" unicode="&#x135;" horiz-adv-x="219" 
d="M-33 -84l30 -0.000976562c20 0 33.333 3.83301 40 11.5s10 22.834 10 45.501v499h125v-502c0 -61.333 -13.333 -103.333 -40 -126s-71 -34 -133 -34h-32v106zM-19 533.999l75 147h102l75 -147h-73l-53 82l-52 -82h-74z" />
    <glyph glyph-name="Kcommaaccent" unicode="&#x136;" horiz-adv-x="626" 
d="M177 664v-347l286 347h139l-222 -269l232 -395h-142l-177 304l-116 -138v-166h-127v664h127zM243 -271l-4.00195 10.998c18.667 8.66699 32.834 20.334 42.501 35.001s14.834 31.334 15.501 50.001h-50v108h130v-100c0 -26.667 -11.333 -50.667 -34 -72s-56 -32 -100 -32
z" />
    <glyph glyph-name="kcommaaccent" unicode="&#x137;" horiz-adv-x="481" 
d="M167 673v-408l169 207h140l-163 -177l174 -295h-134l-120 208l-66 -77v-131h-121v673h121zM187 -268l-4.00195 10.998c18.667 8.66699 32.834 20.334 42.501 35.001s14.834 31.334 15.501 50.001h-50v108h130v-100c0 -26.667 -11.333 -50.667 -34 -72s-56 -32 -100 -32z
" />
    <glyph glyph-name="kgreenlandic" unicode="&#x138;" horiz-adv-x="481" 
d="M168 472v-206l168 206h140l-163 -177l174 -295h-134l-120 208l-65 -76v-132h-122v472h122z" />
    <glyph glyph-name="Lacute" unicode="&#x139;" horiz-adv-x="510" 
d="M177 664v-555h300v-109h-427v664h127zM306 861v-11l-163 -136h-65l89 147h139z" />
    <glyph glyph-name="lacute" unicode="&#x13a;" horiz-adv-x="219" 
d="M172 673v-673h-125v673h125zM264 861v-11l-132 -136h-60l62 147h130z" />
    <glyph glyph-name="Lcommaaccent" unicode="&#x13b;" horiz-adv-x="510" 
d="M177 664v-555h300v-109h-427v664h127zM195 -271l-4.00195 10.998c18.667 8.66699 32.834 20.334 42.501 35.001s14.834 31.334 15.501 50.001h-50v108h130v-100c0 -26.667 -11.333 -50.667 -34 -72s-56 -32 -100 -32z" />
    <glyph glyph-name="lcommaaccent" unicode="&#x13c;" horiz-adv-x="219" 
d="M172 673v-673h-125v673h125zM41 -271l-4.00195 10.998c18.667 8.66699 32.834 20.334 42.501 35.001s14.834 31.334 15.501 50.001h-50v108h130v-100c0 -26.667 -11.333 -50.667 -34 -72s-56 -32 -100 -32z" />
    <glyph glyph-name="Lcaron" unicode="&#x13d;" horiz-adv-x="510" 
d="M177 664v-555h300v-109h-427v664h127zM288 507l10 165h100v-17l-28 -148h-82z" />
    <glyph glyph-name="lcaron" unicode="&#x13e;" horiz-adv-x="315" 
d="M172 673v-673h-125v673h125zM212 508l10 165h100v-17l-28 -148h-82z" />
    <glyph glyph-name="Ldot" unicode="&#x13f;" horiz-adv-x="513" 
d="M177 664v-555h300v-109h-427v664h127zM442 442v-138h-136v138h136z" />
    <glyph glyph-name="ldot" unicode="&#x140;" horiz-adv-x="334" 
d="M172 673v-673h-125v673h125zM339 387v-120h-123v120h123z" />
    <glyph glyph-name="Lslash" unicode="&#x141;" horiz-adv-x="541" 
d="M209 664v-248l149 61v-101l-149 -61v-206h300v-109h-427v264l-68 -27v102l68 27v298h127z" />
    <glyph glyph-name="lslash" unicode="&#x142;" horiz-adv-x="271" 
d="M77 673h122v-222l72 36v-94l-72 -35v-358h-122v300l-72 -36v94l72 36v279z" />
    <glyph glyph-name="Nacute" unicode="&#x143;" horiz-adv-x="658" 
d="M194 664l294 -449v449h120v-664h-121l-317 485v-485h-120v664h144zM519 861v-11l-163 -136h-65l89 147h139z" />
    <glyph glyph-name="nacute" unicode="&#x144;" horiz-adv-x="510" 
d="M170 472v-76.999c12.667 27.333 30.5 48.666 53.5 63.999s51.167 23 84.5 23c51.333 0 91.5 -17 120.5 -51s43.5 -83.333 43.5 -148v-283h-124v276c0 32.667 -6.66699 57.5 -20 74.5s-34.333 25.5 -63 25.5c-29.333 0 -52.5 -11.667 -69.5 -35s-25.5 -57 -25.5 -101v-240
h-124v472h124zM440 683.001v-12l-164 -137h-63l88 149h139z" />
    <glyph glyph-name="Ncommaaccent" unicode="&#x145;" horiz-adv-x="658" 
d="M194 664l294 -449v449h120v-664h-121l-317 485v-485h-120v664h144zM261 -271l-4.00195 10.998c18.667 8.66699 32.834 20.334 42.501 35.001s14.834 31.334 15.501 50.001h-50v108h130v-100c0 -26.667 -11.333 -50.667 -34 -72s-56 -32 -100 -32z" />
    <glyph glyph-name="ncommaaccent" unicode="&#x146;" horiz-adv-x="510" 
d="M170 472v-76.999c12.667 27.333 30.5 48.666 53.5 63.999s51.167 23 84.5 23c51.333 0 91.5 -17 120.5 -51s43.5 -83.333 43.5 -148v-283h-124v276c0 32.667 -6.66699 57.5 -20 74.5s-34.333 25.5 -63 25.5c-29.333 0 -52.5 -11.667 -69.5 -35s-25.5 -57 -25.5 -101v-240
h-124v472h124zM196 -270.999l-4.00195 10.998c18.667 8.66699 32.834 20.334 42.501 35.001s14.834 31.334 15.501 50.001h-50v108h130v-100c0 -26.667 -11.333 -50.667 -34 -72s-56 -32 -100 -32z" />
    <glyph glyph-name="Ncaron" unicode="&#x147;" horiz-adv-x="658" 
d="M194 664l294 -449v449h120v-664h-121l-317 485v-485h-120v664h144zM282 711l-110 148l84 1l76 -79l75 78l88 2l-110 -146z" />
    <glyph glyph-name="ncaron" unicode="&#x148;" horiz-adv-x="510" 
d="M170 472v-76.999c12.667 27.333 30.5 48.666 53.5 63.999s51.167 23 84.5 23c51.333 0 91.5 -17 120.5 -51s43.5 -83.333 43.5 -148v-283h-124v276c0 32.667 -6.66699 57.5 -20 74.5s-34.333 25.5 -63 25.5c-29.333 0 -52.5 -11.667 -69.5 -35s-25.5 -57 -25.5 -101v-240
h-124v472h124zM208 681.001l75 -80l75 80h83l-107 -146h-102l-107 146h83z" />
    <glyph glyph-name="Eng" unicode="&#x14a;" horiz-adv-x="660" 
d="M358 -190v101.999h81c18 0 31.167 4 39.5 12s12.5 20 12.5 36v38l-321 489v-487h-119v664h145l293 -450v450h120v-653c0 -59.333 -9.5 -107.666 -28.5 -144.999s-58.833 -56 -119.5 -56h-103z" />
    <glyph glyph-name="eng" unicode="&#x14b;" horiz-adv-x="509" 
d="M271 -91h24c20.667 0 34.5 4.33301 41.5 13s10.5 27 10.5 55v290c0 35.333 -6.33301 62.333 -19 81s-34.334 28 -65.001 28c-36.667 0 -61.5 -15.333 -74.5 -46s-19.5 -70.667 -19.5 -120v-210h-123v472h120v-85c10.667 30 27.334 53.333 50.001 70s52.334 25 89.001 25
c50 0 89.833 -15.667 119.5 -47s44.5 -77 44.5 -137v-337c0 -32 -3.66699 -57.833 -11 -77.5s-18 -35 -32 -46s-31.333 -18.333 -52 -22s-44.334 -5.5 -71.001 -5.5h-32v99z" />
    <glyph glyph-name="Omacron" unicode="&#x14c;" horiz-adv-x="714" 
d="M356 98c60 0 107.667 20.332 143 60.999s53 97.667 53 171v5c0 72 -17.333 128.5 -52 169.5s-82 61.5 -142 61.5s-107.667 -20.167 -143 -60.5s-53 -97.166 -53 -170.499v-5c0 -72 17.333 -128.667 52 -170s82 -62 142 -62zM354 -13.001c-48 0 -92.167 8.33301 -132.5 25
s-74.666 40.167 -102.999 70.5s-50.333 66.833 -66 109.5s-23.5 89.334 -23.5 140.001s8 97.334 24 140.001s38.333 79 67 109s63.5 53.5 104.5 70.5s86.167 25.5 135.5 25.5c48 0 92.167 -8.33301 132.5 -25s74.666 -40.167 102.999 -70.5s50.333 -66.833 66 -109.5
s23.5 -89.334 23.5 -140.001s-8 -97.334 -24 -140.001s-38.333 -79 -67 -109s-63.5 -53.5 -104.5 -70.5s-86.167 -25.5 -135.5 -25.5zM505 823.999v-87h-296v87h296z" />
    <glyph glyph-name="omacron" unicode="&#x14d;" horiz-adv-x="531" 
d="M264 92c36 0 64.667 12.333 86 37s32 59 32 103v4c0 44.667 -10.333 79.834 -31 105.501s-49 38.5 -85 38.5s-64.5 -12.833 -85.5 -38.5s-31.5 -60.834 -31.5 -105.501v-4c0 -44 10.167 -78.333 30.5 -103s48.5 -37 84.5 -37zM263 -9c-35.333 0 -67.8359 6 -97.5029 18
s-55 28.667 -76 50s-37.333 47 -49 77s-17.5 63 -17.5 99s6 69.167 18 99.5s28.667 56.166 50 77.499s47 38.166 77 50.499s62.667 18.5 98 18.5s67.833 -6.16699 97.5 -18.5s55.167 -29.166 76.5 -50.499s38 -47.166 50 -77.499s18 -63.5 18 -99.5
c0 -35.333 -6.16699 -68 -18.5 -98s-29.166 -55.833 -50.499 -77.5s-47.166 -38.5 -77.499 -50.5s-63.166 -18 -98.499 -18zM405.997 643v-88h-280v88h280z" />
    <glyph glyph-name="Obreve" unicode="&#x14e;" horiz-adv-x="714" 
d="M356 98c60 0 107.667 20.332 143 60.999s53 97.667 53 171v5c0 72 -17.333 128.5 -52 169.5s-82 61.5 -142 61.5s-107.667 -20.167 -143 -60.5s-53 -97.166 -53 -170.499v-5c0 -72 17.333 -128.667 52 -170s82 -62 142 -62zM354 -13.001c-48 0 -92.167 8.33301 -132.5 25
s-74.666 40.167 -102.999 70.5s-50.333 66.833 -66 109.5s-23.5 89.334 -23.5 140.001s8 97.334 24 140.001s38.333 79 67 109s63.5 53.5 104.5 70.5s86.167 25.5 135.5 25.5c48 0 92.167 -8.33301 132.5 -25s74.666 -40.167 102.999 -70.5s50.333 -66.833 66 -109.5
s23.5 -89.334 23.5 -140.001s-8 -97.334 -24 -140.001s-38.333 -79 -67 -109s-63.5 -53.5 -104.5 -70.5s-86.167 -25.5 -135.5 -25.5zM358 713.999c-49.333 0 -87.833 13.333 -115.5 40s-40.167 62.667 -37.5 108l89 5c0 -25.333 5 -44.666 15 -57.999s26.333 -20 49 -20
c21.333 0 37 6.66699 47 20s14.667 32.666 14 57.999l90 -5c2.66699 -45.333 -9.83301 -81.333 -37.5 -108s-65.5 -40 -113.5 -40z" />
    <glyph glyph-name="obreve" unicode="&#x14f;" horiz-adv-x="531" 
d="M264 92c36 0 64.667 12.333 86 37s32 59 32 103v4c0 44.667 -10.333 79.834 -31 105.501s-49 38.5 -85 38.5s-64.5 -12.833 -85.5 -38.5s-31.5 -60.834 -31.5 -105.501v-4c0 -44 10.167 -78.333 30.5 -103s48.5 -37 84.5 -37zM263 -9c-35.333 0 -67.8359 6 -97.5029 18
s-55 28.667 -76 50s-37.333 47 -49 77s-17.5 63 -17.5 99s6 69.167 18 99.5s28.667 56.166 50 77.499s47 38.166 77 50.499s62.667 18.5 98 18.5s67.833 -6.16699 97.5 -18.5s55.167 -29.166 76.5 -50.499s38 -47.166 50 -77.499s18 -63.5 18 -99.5
c0 -35.333 -6.16699 -68 -18.5 -98s-29.166 -55.833 -50.499 -77.5s-47.166 -38.5 -77.499 -50.5s-63.166 -18 -98.499 -18zM266.997 537c-50 0 -88.002 12.6689 -114.002 38.002s-38 59.666 -36 102.999l86 5c0.666992 -24.667 5.83398 -43 15.501 -55
s25.834 -18 48.501 -18s38.5 6.33301 47.5 19s13.5 30.667 13.5 54l87 -5c2.66699 -42.667 -9 -76.834 -35 -102.501s-63.667 -38.5 -113 -38.5z" />
    <glyph glyph-name="Ohungarumlaut" unicode="&#x150;" horiz-adv-x="714" 
d="M356 98c60 0 107.667 20.332 143 60.999s53 97.667 53 171v5c0 72 -17.333 128.5 -52 169.5s-82 61.5 -142 61.5s-107.667 -20.167 -143 -60.5s-53 -97.166 -53 -170.499v-5c0 -72 17.333 -128.667 52 -170s82 -62 142 -62zM354 -13.001c-48 0 -92.167 8.33301 -132.5 25
s-74.666 40.167 -102.999 70.5s-50.333 66.833 -66 109.5s-23.5 89.334 -23.5 140.001s8 97.334 24 140.001s38.333 79 67 109s63.5 53.5 104.5 70.5s86.167 25.5 135.5 25.5c48 0 92.167 -8.33301 132.5 -25s74.666 -40.167 102.999 -70.5s50.333 -66.833 66 -109.5
s23.5 -89.334 23.5 -140.001s-8 -97.334 -24 -140.001s-38.333 -79 -67 -109s-63.5 -53.5 -104.5 -70.5s-86.167 -25.5 -135.5 -25.5zM432 862.999v-12l-140 -136h-53l75 148h118zM628 862.999v-12l-151 -136h-55l86 148h120z" />
    <glyph glyph-name="ohungarumlaut" unicode="&#x151;" horiz-adv-x="531" 
d="M264 92c36 0 64.667 12.333 86 37s32 59 32 103v4c0 44.667 -10.333 79.834 -31 105.501s-49 38.5 -85 38.5s-64.5 -12.833 -85.5 -38.5s-31.5 -60.834 -31.5 -105.501v-4c0 -44 10.167 -78.333 30.5 -103s48.5 -37 84.5 -37zM263 -9c-35.333 0 -67.8359 6 -97.5029 18
s-55 28.667 -76 50s-37.333 47 -49 77s-17.5 63 -17.5 99s6 69.167 18 99.5s28.667 56.166 50 77.499s47 38.166 77 50.499s62.667 18.5 98 18.5s67.833 -6.16699 97.5 -18.5s55.167 -29.166 76.5 -50.499s38 -47.166 50 -77.499s18 -63.5 18 -99.5
c0 -35.333 -6.16699 -68 -18.5 -98s-29.166 -55.833 -50.499 -77.5s-47.166 -38.5 -77.499 -50.5s-63.166 -18 -98.499 -18zM340.997 682v-11l-140 -137h-54l75 148h119zM536.997 682v-11l-151 -137h-57l86 148h122z" />
    <glyph glyph-name="OE" unicode="&#x152;" horiz-adv-x="1068" 
d="M344 -13c-46.667 0 -89.5 8.33301 -128.5 25s-72.167 40 -99.5 70s-48.666 66.333 -63.999 109s-23 90 -23 142s7.66699 99.167 23 141.5s37 78.5 65 108.5s61.833 53.167 101.5 69.5s83.5 24.5 131.5 24.5c42.667 0 80.667 -8 114 -24s61.333 -39.333 84 -70v81h470
v-109h-343v-159h238v-109h-238v-178h363v-109h-490v82c-22.667 -30.667 -51.334 -54.167 -86.001 -70.5s-74 -24.5 -118 -24.5zM355 96c60 0 106.667 17.999 140 53.999s51 87 53 153v56c-2 66 -19.833 117.333 -53.5 154s-79.5 55 -137.5 55
c-59.333 0 -106.333 -20.667 -141 -62s-52 -97 -52 -167v-12c0 -69.333 17.333 -125.166 52 -167.499s81 -63.5 139 -63.5z" />
    <glyph glyph-name="oe" unicode="&#x153;" horiz-adv-x="865" 
d="M262 -9c-35.333 0 -67.668 6.00195 -97.001 18.002s-54.5 28.667 -75.5 50s-37.333 47 -49 77s-17.5 63 -17.5 99s6 69.167 18 99.5s28.5 56.166 49.5 77.499s46.333 38.166 76 50.499s62.167 18.5 97.5 18.5c38 0 72.333 -7.33301 103 -22s55.667 -35 75 -61
c19.333 26 44 46.333 74 61s63.667 22 101 22c70.667 0 126.167 -22.167 166.5 -66.5s60.5 -103.5 60.5 -177.5v-42h-342c4 -34 16.5 -60.167 37.5 -78.5s48.167 -27.5 81.5 -27.5c34.667 0 60.667 7.16699 78 21.5s30 31.5 38 51.5l107 -38
c-16.667 -38 -43.167 -69.667 -79.5 -95s-84.833 -38 -145.5 -38c-40 0 -75.167 7 -105.5 21s-55.166 33.667 -74.499 59c-20 -24.667 -45 -44.167 -75 -58.5s-64 -21.5 -102 -21.5zM262.998 92.002c36 0 65 12.5 87 37.5s33 59.167 33 102.5v4
c0 44.667 -10.667 79.834 -32 105.501s-50 38.5 -86 38.5s-64.667 -12.833 -86 -38.5s-32 -60.834 -32 -105.501v-4c0 -44 10.333 -78.333 31 -103s49 -37 85 -37zM612.998 385.002c-29.333 0 -54.332 -9.16699 -74.999 -27.5s-33.334 -43.833 -38.001 -76.5h220
c-2.66699 34 -13 59.833 -31 77.5s-43.333 26.5 -76 26.5z" />
    <glyph glyph-name="Racute" unicode="&#x154;" horiz-adv-x="622" 
d="M50 664l253.001 -0.000976562c93.333 0 160.5 -17.333 201.5 -52s61.5 -79 61.5 -133c0 -46.667 -14.167 -86.667 -42.5 -120s-67.5 -54.333 -117.5 -63c50.667 -14.667 89.167 -43 115.5 -85s44.166 -101.667 53.499 -179c0 -1.33301 0.5 -6.83301 1.5 -16.5
s1.83301 -14.834 2.5 -15.501h-135l-0.5 11.5c-0.333008 7.66699 -0.5 11.834 -0.5 12.501c-8 68 -26.5 121.333 -55.5 160s-75.833 58.334 -140.5 59.001h-72v-243h-125v664zM175.001 561.999v-223.001l113 1c28 0 51.5 3.83301 70.5 11.5s34.5 17.334 46.5 29.001
s20.5 25 25.5 40s7.5 29.5 7.5 43.5c0 32 -11 56.333 -33 73s-58.667 25 -110 25h-120zM469.001 860.998v-11l-163 -136h-65l89 147h139z" />
    <glyph glyph-name="racute" unicode="&#x155;" horiz-adv-x="339" 
d="M170 472l-0.000976562 -87c6.66699 26.667 20 48.667 40 66s51.667 26 95 26h10v-119h-49c-37.333 0 -62.666 -9.16699 -75.999 -27.5s-20 -47.833 -20 -88.5v-242h-124v472h124zM356.999 683v-12l-143 -137h-63l71 149h135z" />
    <glyph glyph-name="Rcommaaccent" unicode="&#x156;" horiz-adv-x="622" 
d="M50 664l253.001 -0.000976562c93.333 0 160.5 -17.333 201.5 -52s61.5 -79 61.5 -133c0 -46.667 -14.167 -86.667 -42.5 -120s-67.5 -54.333 -117.5 -63c50.667 -14.667 89.167 -43 115.5 -85s44.166 -101.667 53.499 -179c0 -1.33301 0.5 -6.83301 1.5 -16.5
s1.83301 -14.834 2.5 -15.501h-135l-0.5 11.5c-0.333008 7.66699 -0.5 11.834 -0.5 12.501c-8 68 -26.5 121.333 -55.5 160s-75.833 58.334 -140.5 59.001h-72v-243h-125v664zM175.001 561.999v-223.001l113 1c28 0 51.5 3.83301 70.5 11.5s34.5 17.334 46.5 29.001
s20.5 25 25.5 40s7.5 29.5 7.5 43.5c0 32 -11 56.333 -33 73s-58.667 25 -110 25h-120zM248.001 -271.002l-4.00195 10.998c18.667 8.66699 32.834 20.334 42.501 35.001s14.834 31.334 15.501 50.001h-50v108h130v-100c0 -26.667 -11.333 -50.667 -34 -72s-56 -32 -100 -32
z" />
    <glyph glyph-name="rcommaaccent" unicode="&#x157;" horiz-adv-x="339" 
d="M170 472l-0.000976562 -87c6.66699 26.667 20 48.667 40 66s51.667 26 95 26h10v-119h-49c-37.333 0 -62.666 -9.16699 -75.999 -27.5s-20 -47.833 -20 -88.5v-242h-124v472h124zM36.999 -271l-4.00195 10.998c18.667 8.66699 32.834 20.334 42.501 35.001
s14.834 31.334 15.501 50.001h-50v108h130v-100c0 -26.667 -11.333 -50.667 -34 -72s-56 -32 -100 -32z" />
    <glyph glyph-name="Rcaron" unicode="&#x158;" horiz-adv-x="622" 
d="M50 664l253.001 -0.000976562c93.333 0 160.5 -17.333 201.5 -52s61.5 -79 61.5 -133c0 -46.667 -14.167 -86.667 -42.5 -120s-67.5 -54.333 -117.5 -63c50.667 -14.667 89.167 -43 115.5 -85s44.166 -101.667 53.499 -179c0 -1.33301 0.5 -6.83301 1.5 -16.5
s1.83301 -14.834 2.5 -15.501h-135l-0.5 11.5c-0.333008 7.66699 -0.5 11.834 -0.5 12.501c-8 68 -26.5 121.333 -55.5 160s-75.833 58.334 -140.5 59.001h-72v-243h-125v664zM175.001 561.999v-223.001l113 1c28 0 51.5 3.83301 70.5 11.5s34.5 17.334 46.5 29.001
s20.5 25 25.5 40s7.5 29.5 7.5 43.5c0 32 -11 56.333 -33 73s-58.667 25 -110 25h-120zM268.001 710.998l-110 148l84 1l76 -79l75 78l88 2l-110 -146z" />
    <glyph glyph-name="rcaron" unicode="&#x159;" horiz-adv-x="339" 
d="M170 472l-0.000976562 -87c6.66699 26.667 20 48.667 40 66s51.667 26 95 26h10v-119h-49c-37.333 0 -62.666 -9.16699 -75.999 -27.5s-20 -47.833 -20 -88.5v-242h-124v472h124zM135.999 681l69 -81l68 81h80l-91 -146h-115l-92 146h81z" />
    <glyph glyph-name="Sacute" unicode="&#x15a;" horiz-adv-x="581" 
d="M308 -11c-87.333 0 -155.165 20.1689 -203.498 60.502s-77.833 95.5 -88.5 165.5h131c8 -42.667 24.167 -73.334 48.5 -92.001s60.166 -28 107.499 -28c40 0 71 8.33301 93 25s33 40 33 70c0 28.667 -16.167 48.667 -48.5 60s-71.166 21.333 -116.499 30
c-27.333 5.33301 -54.833 12.166 -82.5 20.499s-52.334 19.5 -74.001 33.5s-39.334 32 -53.001 54s-20.5 49.333 -20.5 82c0 30 6.16699 57.833 18.5 83.5s29.333 47.5 51 65.5s47.667 32.167 78 42.5s63.166 15.5 98.499 15.5c78 0 141 -19.5 189 -58.5
s76 -94.167 84 -165.5h-129c-5.33301 40 -20 69.667 -44 89s-57.667 29 -101 29c-36.667 0 -65.667 -8.33301 -87 -25s-32 -39 -32 -67c0 -16 4.83301 -28.833 14.5 -38.5s22.5 -17.5 38.5 -23.5s34.5 -11 55.5 -15l65.5 -13c27.333 -5.33301 54.333 -11.833 81 -19.5
s50.334 -18.5 71.001 -32.5s37.5 -32 50.5 -54s19.5 -49.667 19.5 -83c0 -63.333 -22.167 -114.333 -66.5 -153s-104.833 -58 -181.5 -58zM481.001 861.002v-11l-163 -136h-65l89 147h139z" />
    <glyph glyph-name="sacute" unicode="&#x15b;" horiz-adv-x="446" 
d="M233 -14c-48 0 -90.167 9.33496 -126.5 28.002s-65.5 42.667 -87.5 72l98 56c12.667 -18.667 29.5 -33.167 50.5 -43.5s43.833 -15.5 68.5 -15.5c22 0 39.333 4.5 52 13.5s19 21.167 19 36.5c0 16.667 -11.667 28 -35 34s-52 12.667 -86 20
c-20.667 4 -40.834 9.33301 -60.501 16s-37.167 15.5 -52.5 26.5s-27.666 24.667 -36.999 41s-14 36.166 -14 59.499c0 21.333 4.83301 41.333 14.5 60s22.834 34.834 39.501 48.501s36.5 24.5 59.5 32.5s47.833 12 74.5 12c46.667 0 88 -9.66699 124 -29
s65.333 -44.333 88 -75l-98 -52c-12.667 19.333 -28.834 34 -48.501 44s-41.167 15 -64.5 15c-22 0 -39.5 -4.33301 -52.5 -13s-19.5 -20 -19.5 -34c0 -16 8 -26.833 24 -32.5s44.333 -12.5 85 -20.5c21.333 -4 42.666 -9.33301 63.999 -16s40.333 -15.334 57 -26.001
s30.334 -24.334 41.001 -41.001s16 -37 16 -61c0 -44 -18.333 -81 -55 -111s-82.667 -45 -138 -45zM414 683.002v-12l-164 -137h-63l88 149h139z" />
    <glyph glyph-name="Scircumflex" unicode="&#x15c;" horiz-adv-x="581" 
d="M308 -11c-87.333 0 -155.165 20.1689 -203.498 60.502s-77.833 95.5 -88.5 165.5h131c8 -42.667 24.167 -73.334 48.5 -92.001s60.166 -28 107.499 -28c40 0 71 8.33301 93 25s33 40 33 70c0 28.667 -16.167 48.667 -48.5 60s-71.166 21.333 -116.499 30
c-27.333 5.33301 -54.833 12.166 -82.5 20.499s-52.334 19.5 -74.001 33.5s-39.334 32 -53.001 54s-20.5 49.333 -20.5 82c0 30 6.16699 57.833 18.5 83.5s29.333 47.5 51 65.5s47.667 32.167 78 42.5s63.166 15.5 98.499 15.5c78 0 141 -19.5 189 -58.5
s76 -94.167 84 -165.5h-129c-5.33301 40 -20 69.667 -44 89s-57.667 29 -101 29c-36.667 0 -65.667 -8.33301 -87 -25s-32 -39 -32 -67c0 -16 4.83301 -28.833 14.5 -38.5s22.5 -17.5 38.5 -23.5s34.5 -11 55.5 -15l65.5 -13c27.333 -5.33301 54.333 -11.833 81 -19.5
s50.334 -18.5 71.001 -32.5s37.5 -32 50.5 -54s19.5 -49.667 19.5 -83c0 -63.333 -22.167 -114.333 -66.5 -153s-104.833 -58 -181.5 -58zM346.001 859.002l108 -145h-86l-74 77l-76 -77h-84l107 145h105z" />
    <glyph glyph-name="scircumflex" unicode="&#x15d;" horiz-adv-x="446" 
d="M233 -14c-48 0 -90.167 9.33496 -126.5 28.002s-65.5 42.667 -87.5 72l98 56c12.667 -18.667 29.5 -33.167 50.5 -43.5s43.833 -15.5 68.5 -15.5c22 0 39.333 4.5 52 13.5s19 21.167 19 36.5c0 16.667 -11.667 28 -35 34s-52 12.667 -86 20
c-20.667 4 -40.834 9.33301 -60.501 16s-37.167 15.5 -52.5 26.5s-27.666 24.667 -36.999 41s-14 36.166 -14 59.499c0 21.333 4.83301 41.333 14.5 60s22.834 34.834 39.501 48.501s36.5 24.5 59.5 32.5s47.833 12 74.5 12c46.667 0 88 -9.66699 124 -29
s65.333 -44.333 88 -75l-98 -52c-12.667 19.333 -28.834 34 -48.501 44s-41.167 15 -64.5 15c-22 0 -39.5 -4.33301 -52.5 -13s-19.5 -20 -19.5 -34c0 -16 8 -26.833 24 -32.5s44.333 -12.5 85 -20.5c21.333 -4 42.666 -9.33301 63.999 -16s40.333 -15.334 57 -26.001
s30.334 -24.334 41.001 -41.001s16 -37 16 -61c0 -44 -18.333 -81 -55 -111s-82.667 -45 -138 -45zM282 681.002l107 -147h-83l-75 81l-75 -81h-83l107 147h102z" />
    <glyph glyph-name="Scedilla" unicode="&#x15e;" horiz-adv-x="581" 
d="M275 -206c-14.667 0 -28.167 1.17285 -40.5 3.50586s-22.166 4.83301 -29.499 7.5v85c4.66699 -1.33301 10.5 -2.83301 17.5 -4.5s15.833 -2.5 26.5 -2.5c16.667 0 28.834 3 36.501 9s11.5 15.333 11.5 28c0 16 -6.5 30.5 -19.5 43.5s-31.833 24.167 -56.5 33.5
c-60 12 -107 36.833 -141 74.5s-55.333 85.5 -64 143.5h131c8 -42.667 24.167 -73.334 48.5 -92.001s60.166 -28 107.499 -28c40 0 71 8.33301 93 25s33 40 33 70c0 28.667 -16.167 48.667 -48.5 60s-71.166 21.333 -116.499 30
c-27.333 5.33301 -54.833 12.166 -82.5 20.499s-52.334 19.5 -74.001 33.5s-39.334 32 -53.001 54s-20.5 49.333 -20.5 82c0 30 6.16699 57.833 18.5 83.5s29.333 47.5 51 65.5s47.667 32.167 78 42.5s63.166 15.5 98.499 15.5c78 0 141 -19.5 189 -58.5
s76 -94.167 84 -165.5h-129c-5.33301 40 -20 69.667 -44 89s-57.667 29 -101 29c-36.667 0 -65.667 -8.33301 -87 -25s-32 -39 -32 -67c0 -16 4.83301 -28.833 14.5 -38.5s22.5 -17.5 38.5 -23.5s34.5 -11 55.5 -15l65.5 -13c27.333 -5.33301 54.333 -11.833 81 -19.5
s50.334 -18.5 71.001 -32.5s37.5 -32 50.5 -54s19.5 -49.667 19.5 -83c0 -60 -19.833 -108.833 -59.5 -146.5s-94.167 -58.834 -163.5 -63.501c20.667 -12.667 36 -27.334 46 -44.001s15 -35.334 15 -56.001c0 -26.667 -9.5 -49.334 -28.5 -68.001s-49.167 -28 -90.5 -28z
" />
    <glyph glyph-name="scedilla" unicode="&#x15f;" horiz-adv-x="446" 
d="M212 -206c-14.667 0 -28.1689 1.17188 -40.502 3.50488s-22.166 4.83301 -29.499 7.5v85c4.66699 -1.33301 10.667 -2.83301 18 -4.5s16 -2.5 26 -2.5c16.667 0 28.834 3 36.501 9s11.5 15.333 11.5 28c0 14.667 -4.66699 27.834 -14 39.501s-23.666 22.167 -42.999 31.5
c-34.667 6 -65.334 17.5 -92.001 34.5s-48.667 37.167 -66 60.5l98 56c12.667 -18.667 29.667 -33.167 51 -43.5s44 -15.5 68 -15.5c22 0 39.333 4.5 52 13.5s19 21.5 19 37.5s-11.667 27 -35 33s-52 12.667 -86 20c-20.667 4 -40.834 9.33301 -60.501 16
s-37.167 15.5 -52.5 26.5s-27.666 24.667 -36.999 41s-14 36.166 -14 59.499c0 21.333 4.83301 41.333 14.5 60s22.834 34.834 39.501 48.501s36.5 24.5 59.5 32.5s47.833 12 74.5 12c46.667 0 88 -9.66699 124 -29s65.333 -44.333 88 -75l-98 -52
c-12.667 19.333 -29 34 -49 44s-41.667 15 -65 15c-21.333 0 -38.5 -4.33301 -51.5 -13s-19.5 -20.334 -19.5 -35.001c0 -15.333 8 -25.833 24 -31.5s44.333 -12.5 85 -20.5c21.333 -4 42.666 -9.33301 63.999 -16s40.333 -15.334 57 -26.001s30.334 -24.334 41.001 -41.001
s16 -37 16 -61c0 -38.667 -14.167 -72 -42.5 -100s-64.833 -45.333 -109.5 -52c19.333 -12.667 33.666 -27.334 42.999 -44.001s14 -35.334 14 -56.001c0 -26.667 -9.5 -49.334 -28.5 -68.001s-49.167 -28 -90.5 -28z" />
    <glyph glyph-name="Scaron" unicode="&#x160;" horiz-adv-x="581" 
d="M308 -11c-87.333 0 -155.165 20.1689 -203.498 60.502s-77.833 95.5 -88.5 165.5h131c8 -42.667 24.167 -73.334 48.5 -92.001s60.166 -28 107.499 -28c40 0 71 8.33301 93 25s33 40 33 70c0 28.667 -16.167 48.667 -48.5 60s-71.166 21.333 -116.499 30
c-27.333 5.33301 -54.833 12.166 -82.5 20.499s-52.334 19.5 -74.001 33.5s-39.334 32 -53.001 54s-20.5 49.333 -20.5 82c0 30 6.16699 57.833 18.5 83.5s29.333 47.5 51 65.5s47.667 32.167 78 42.5s63.166 15.5 98.499 15.5c78 0 141 -19.5 189 -58.5
s76 -94.167 84 -165.5h-129c-5.33301 40 -20 69.667 -44 89s-57.667 29 -101 29c-36.667 0 -65.667 -8.33301 -87 -25s-32 -39 -32 -67c0 -16 4.83301 -28.833 14.5 -38.5s22.5 -17.5 38.5 -23.5s34.5 -11 55.5 -15l65.5 -13c27.333 -5.33301 54.333 -11.833 81 -19.5
s50.334 -18.5 71.001 -32.5s37.5 -32 50.5 -54s19.5 -49.667 19.5 -83c0 -63.333 -22.167 -114.333 -66.5 -153s-104.833 -58 -181.5 -58zM244.001 711.002l-110 148l84 1l76 -79l75 78l88 2l-110 -146z" />
    <glyph glyph-name="scaron" unicode="&#x161;" horiz-adv-x="446" 
d="M233 -14c-48 0 -90.167 9.33496 -126.5 28.002s-65.5 42.667 -87.5 72l98 56c12.667 -18.667 29.5 -33.167 50.5 -43.5s43.833 -15.5 68.5 -15.5c22 0 39.333 4.5 52 13.5s19 21.167 19 36.5c0 16.667 -11.667 28 -35 34s-52 12.667 -86 20
c-20.667 4 -40.834 9.33301 -60.501 16s-37.167 15.5 -52.5 26.5s-27.666 24.667 -36.999 41s-14 36.166 -14 59.499c0 21.333 4.83301 41.333 14.5 60s22.834 34.834 39.501 48.501s36.5 24.5 59.5 32.5s47.833 12 74.5 12c46.667 0 88 -9.66699 124 -29
s65.333 -44.333 88 -75l-98 -52c-12.667 19.333 -28.834 34 -48.501 44s-41.167 15 -64.5 15c-22 0 -39.5 -4.33301 -52.5 -13s-19.5 -20 -19.5 -34c0 -16 8 -26.833 24 -32.5s44.333 -12.5 85 -20.5c21.333 -4 42.666 -9.33301 63.999 -16s40.333 -15.334 57 -26.001
s30.334 -24.334 41.001 -41.001s16 -37 16 -61c0 -44 -18.333 -81 -55 -111s-82.667 -45 -138 -45zM156 681.002l75 -80l75 80h83l-107 -146h-102l-107 146h83z" />
    <glyph glyph-name="uni0162" unicode="&#x162;" horiz-adv-x="574" 
d="M553 664l0.000976562 -109h-202v-555h-13c24.667 -13.333 43.167 -29.333 55.5 -48s18.5 -39 18.5 -61c0 -27.333 -9.5 -51 -28.5 -71s-47.833 -30 -86.5 -30c-17.333 0 -31.5 1 -42.5 3l-27.5 5v93l16 -4.5c6 -1.66699 14.333 -2.5 25 -2.5
c13.333 0 23.666 3.16699 30.999 9.5s11 15.5 11 27.5c0 16.667 -6.83301 32 -20.5 46s-33.167 25 -58.5 33h-7v555h-202v109h531z" />
    <glyph glyph-name="tcedilla" unicode="&#x163;" horiz-adv-x="320" 
d="M290 0h-60.002c18.667 -16.667 33 -34 43 -52s15 -37.333 15 -58c0 -26.667 -9.5 -49.334 -28.5 -68.001s-49.167 -28 -90.5 -28c-14.667 0 -28.167 1.16699 -40.5 3.5s-22.166 4.83301 -29.499 7.5v85c4.66699 -1.33301 10.667 -2.83301 18 -4.5s16 -2.5 26 -2.5
c16.667 0 28.834 3 36.501 9s11.5 15.333 11.5 28c0 15.333 -4.66699 30.5 -14 45.5s-24.333 30.833 -45 47.5c-19.333 9.33301 -32.5 23.333 -39.5 42s-10.833 42 -11.5 70v247h-67v100h67v89l121 68v-157h93v-100h-94v-235c0 -11.333 2.83301 -19.666 8.5 -24.999
s14.167 -8.33301 25.5 -9h55v-103z" />
    <glyph glyph-name="Tcaron" unicode="&#x164;" horiz-adv-x="574" 
d="M553 664v-109h-202v-555h-127v555h-202v109h531zM239 711l-110 148l84 1l76 -79l75 78l88 2l-110 -146z" />
    <glyph glyph-name="tcaron" unicode="&#x165;" horiz-adv-x="352" 
d="M290 0l-95.999 -0.000976562c-45.333 2.66699 -75.333 14.5 -90 35.5s-22.334 50.833 -23.001 89.5v247h-67v100h67v89l121 68v-157h93v-100h-94v-235c0 -11.333 2.83301 -19.666 8.5 -24.999s14.167 -8.33301 25.5 -9h55v-103zM249.001 507.999l10 165h99v-17l-27 -148
h-82z" />
    <glyph glyph-name="Tbar" unicode="&#x166;" horiz-adv-x="574" 
d="M553 664v-109h-203v-174h152v-108h-152v-273h-135v273h-150v108h150v174h-193v109h531z" />
    <glyph glyph-name="tbar" unicode="&#x167;" horiz-adv-x="321" 
d="M290 0l-95.999 -0.000976562c-45.333 2.66699 -75.333 14.5 -90 35.5s-22.334 50.833 -23.001 89.5v72h-75v95h75v82h-67v98h67v89l121 68v-157h93v-98h-94v-82h99v-95h-99v-60c0 -11.333 2.83301 -19.666 8.5 -24.999s14.167 -8.33301 25.5 -9h55v-103z" />
    <glyph glyph-name="Utilde" unicode="&#x168;" horiz-adv-x="642" 
d="M324 -13c-89.333 0 -157.499 24.167 -204.499 72.5s-70.5 117.833 -70.5 208.5v396h127v-395c0 -58 12.333 -101.333 37 -130s62 -43 112 -43c51.333 0 88.666 14 111.999 42s35 71 35 129v397h121v-397c0 -93.333 -24.333 -163.333 -73 -210s-114 -70 -196 -70z
M230.001 724l-61.999 6c-0.666992 2.66699 -0.833984 7.33398 -0.500977 14.001s0.5 11.334 0.5 14.001c2 36 12.333 61 31 75s37.334 21 56.001 21s33.667 -2.83301 45 -8.5s21 -11.834 29 -18.501l22.5 -18.5c7 -5.66699 15.833 -8.5 26.5 -8.5
c8.66699 0 15.167 2.66699 19.5 8s8.16602 12 11.499 20c0.666992 0.666992 1.66699 3.5 3 8.5s2 8.83301 2 11.5l61 -8c0.666992 -2.66699 0.833984 -7.33398 0.500977 -14.001s-0.833008 -11.334 -1.5 -14.001c-2 -36 -12.167 -61 -30.5 -75s-36.833 -21 -55.5 -21
c-18 0 -32.5 2.83301 -43.5 8.5s-20.5 11.834 -28.5 18.501l-23 18.5c-7.33301 5.66699 -16.333 8.5 -27 8.5c-8.66699 0 -15.334 -2.5 -20.001 -7.5s-8.66699 -12.167 -12 -21.5c-0.666992 -2 -1.5 -5 -2.5 -9s-1.5 -6.66699 -1.5 -8z" />
    <glyph glyph-name="utilde" unicode="&#x169;" horiz-adv-x="510" 
d="M211 -9c-53.333 0 -95.5 17.832 -126.5 53.499s-46.5 83.834 -46.5 144.501v283h124v-276c0 -31.333 7.33301 -55.833 22 -73.5s36 -26.5 64 -26.5c32.667 0 56.167 12.667 70.5 38s21.5 58 21.5 98v240h124v-472h-124v67c-12.667 -24.667 -29.667 -43.5 -51 -56.5
s-47.333 -19.5 -78 -19.5zM102 552.999c-0.666992 2.66699 -0.831055 7.5 -0.498047 14.5s0.5 11.833 0.5 14.5c0 19.333 2.83301 35.5 8.5 48.5s12.667 23.167 21 30.5s17.666 12.333 27.999 15s20.166 4 29.499 4c16 0 29.667 -3 41 -9s21.333 -12.667 30 -20l24 -20
c7.33301 -6 14.666 -9 21.999 -9c8.66699 0 15.167 2.66699 19.5 8s7.83301 12.333 10.5 21c0.666992 1.33301 1.66699 4.5 3 9.5s2 9.16699 2 12.5l61 -7c0.666992 -2.66699 0.833984 -7.5 0.500977 -14.5s-0.5 -11.5 -0.5 -13.5c0 -19.333 -3 -35.5 -9 -48.5
s-13.333 -23.333 -22 -31s-18 -13 -28 -16s-19.333 -4.5 -28 -4.5c-16 0 -29.5 3 -40.5 9s-20.833 12.667 -29.5 20l-23.5 20c-7 6 -14.5 9 -22.5 9c-8.66699 0 -15.5 -2.5 -20.5 -7.5s-8.5 -12.5 -10.5 -22.5c-0.666992 -2.66699 -1.66699 -6 -3 -10s-2 -7.33301 -2 -10z
" />
    <glyph glyph-name="Umacron" unicode="&#x16a;" horiz-adv-x="642" 
d="M324 -13c-89.333 0 -157.499 24.167 -204.499 72.5s-70.5 117.833 -70.5 208.5v396h127v-395c0 -58 12.333 -101.333 37 -130s62 -43 112 -43c51.333 0 88.666 14 111.999 42s35 71 35 129v397h121v-397c0 -93.333 -24.333 -163.333 -73 -210s-114 -70 -196 -70z
M470.001 824v-87h-296v87h296z" />
    <glyph glyph-name="umacron" unicode="&#x16b;" horiz-adv-x="510" 
d="M211 -9c-53.333 0 -95.5 17.832 -126.5 53.499s-46.5 83.834 -46.5 144.501v283h124v-276c0 -31.333 7.33301 -55.833 22 -73.5s36 -26.5 64 -26.5c32.667 0 56.167 12.667 70.5 38s21.5 58 21.5 98v240h124v-472h-124v67c-12.667 -24.667 -29.667 -43.5 -51 -56.5
s-47.333 -19.5 -78 -19.5zM392 642.999v-88h-280v88h280z" />
    <glyph glyph-name="Ubreve" unicode="&#x16c;" horiz-adv-x="642" 
d="M324 -13c-89.333 0 -157.499 24.167 -204.499 72.5s-70.5 117.833 -70.5 208.5v396h127v-395c0 -58 12.333 -101.333 37 -130s62 -43 112 -43c51.333 0 88.666 14 111.999 42s35 71 35 129v397h121v-397c0 -93.333 -24.333 -163.333 -73 -210s-114 -70 -196 -70z
M323.001 714c-49.333 0 -87.833 13.333 -115.5 40s-40.167 62.667 -37.5 108l89 5c0 -25.333 5 -44.666 15 -57.999s26.333 -20 49 -20c21.333 0 37 6.66699 47 20s14.667 32.666 14 57.999l90 -5c2.66699 -45.333 -9.83301 -81.333 -37.5 -108s-65.5 -40 -113.5 -40z" />
    <glyph glyph-name="ubreve" unicode="&#x16d;" horiz-adv-x="510" 
d="M211 -9c-53.333 0 -95.5 17.832 -126.5 53.499s-46.5 83.834 -46.5 144.501v283h124v-276c0 -31.333 7.33301 -55.833 22 -73.5s36 -26.5 64 -26.5c32.667 0 56.167 12.667 70.5 38s21.5 58 21.5 98v240h124v-472h-124v67c-12.667 -24.667 -29.667 -43.5 -51 -56.5
s-47.333 -19.5 -78 -19.5zM254 536.999c-50 0 -88.002 12.6689 -114.002 38.002s-38 59.666 -36 102.999l86 5c0.666992 -24.667 5.83398 -43 15.501 -55s25.834 -18 48.501 -18s38.5 6.33301 47.5 19s13.5 30.667 13.5 54l87 -5c2.66699 -42.667 -9 -76.834 -35 -102.501
s-63.667 -38.5 -113 -38.5z" />
    <glyph glyph-name="Uring" unicode="&#x16e;" horiz-adv-x="642" 
d="M324 -13c-89.333 0 -157.499 24.167 -204.499 72.5s-70.5 117.833 -70.5 208.5v396h127v-395c0 -58 12.333 -101.333 37 -130s62 -43 112 -43c51.333 0 88.666 14 111.999 42s35 71 35 129v397h121v-397c0 -93.333 -24.333 -163.333 -73 -210s-114 -70 -196 -70z
M322.001 763c14.667 0 26.5 4 35.5 12s13.5 18.333 13.5 31s-4.5 23.334 -13.5 32.001s-20.833 13 -35.5 13c-14 0 -25.333 -4.33301 -34 -13s-13 -19.334 -13 -32.001s4.33301 -23 13 -31s20 -12 34 -12zM322.001 708c-33.333 0 -60.5 9.16699 -81.5 27.5
s-31.5 41.833 -31.5 70.5c0 29.333 10.5 53.166 31.5 71.499s48.167 27.5 81.5 27.5c34 0 61.667 -9.16699 83 -27.5s32 -42.166 32 -71.499c0 -28.667 -10.667 -52.167 -32 -70.5s-49 -27.5 -83 -27.5z" />
    <glyph glyph-name="uring" unicode="&#x16f;" horiz-adv-x="510" 
d="M211 -9c-53.333 0 -95.5 17.832 -126.5 53.499s-46.5 83.834 -46.5 144.501v283h124v-276c0 -31.333 7.33301 -55.833 22 -73.5s36 -26.5 64 -26.5c32.667 0 56.167 12.667 70.5 38s21.5 58 21.5 98v240h124v-472h-124v67c-12.667 -24.667 -29.667 -43.5 -51 -56.5
s-47.333 -19.5 -78 -19.5zM252 589.999c12.667 0 23.334 4.33301 32.001 13s13 19.667 13 33c0 12.667 -4.33301 23.5 -13 32.5s-19.334 13.5 -32.001 13.5s-23.167 -4.5 -31.5 -13.5s-12.5 -19.833 -12.5 -32.5c0 -13.333 4.16699 -24.333 12.5 -33s18.833 -13 31.5 -13z
M252 534.999c-33.333 0 -59.833 9.33301 -79.5 28s-29.5 43 -29.5 73c0 29.333 9.83301 53.333 29.5 72s46.167 28 79.5 28s60 -9.33301 80 -28s30 -42.667 30 -72c0 -30 -10 -54.333 -30 -73s-46.667 -28 -80 -28z" />
    <glyph glyph-name="Uhungarumlaut" unicode="&#x170;" horiz-adv-x="642" 
d="M324 -13c-89.333 0 -157.499 24.167 -204.499 72.5s-70.5 117.833 -70.5 208.5v396h127v-395c0 -58 12.333 -101.333 37 -130s62 -43 112 -43c51.333 0 88.666 14 111.999 42s35 71 35 129v397h121v-397c0 -93.333 -24.333 -163.333 -73 -210s-114 -70 -196 -70z
M397.001 863v-12l-140 -136h-53l75 148h118zM593.001 863v-12l-151 -136h-55l86 148h120z" />
    <glyph glyph-name="uhungarumlaut" unicode="&#x171;" horiz-adv-x="510" 
d="M211 -9c-53.333 0 -95.5 17.832 -126.5 53.499s-46.5 83.834 -46.5 144.501v283h124v-276c0 -31.333 7.33301 -55.833 22 -73.5s36 -26.5 64 -26.5c32.667 0 56.167 12.667 70.5 38s21.5 58 21.5 98v240h124v-472h-124v67c-12.667 -24.667 -29.667 -43.5 -51 -56.5
s-47.333 -19.5 -78 -19.5zM327 681.999v-11l-140 -137h-54l75 148h119zM523 681.999v-11l-151 -137h-57l86 148h122z" />
    <glyph glyph-name="Uogonek" unicode="&#x172;" horiz-adv-x="642" 
d="M364 -206c-38 0 -68.3301 9.16699 -90.9971 27.5s-34 40.833 -34 67.5c0 20 5.5 38.333 16.5 55s25.833 31.334 44.5 44.001c-82 4 -144.333 30 -187 78s-64 115.333 -64 202v396h127v-395c0 -58 12.333 -101.333 37 -130s62 -43 112 -43c51.333 0 88.666 14 111.999 42
s35 71 35 129v397h121v-397c0 -75.333 -16 -135.5 -48 -180.5s-76 -74.5 -132 -88.5c-26 -12 -45.333 -24.5 -58 -37.5s-19 -26.833 -19 -41.5c0 -12 3.83301 -21.167 11.5 -27.5s19.5 -9.5 35.5 -9.5c10.667 0 19.167 0.5 25.5 1.5s11.166 2.16699 14.499 3.5v-84
c-7.33301 -2.66699 -15.833 -4.83398 -25.5 -6.50098s-20.834 -2.5 -33.501 -2.5z" />
    <glyph glyph-name="uogonek" unicode="&#x173;" horiz-adv-x="510" 
d="M406 -206c-38 0 -68.3311 9.16602 -90.998 27.499s-34 40.833 -34 67.5c0 23.333 7.5 44.5 22.5 63.5s34.833 34.833 59.5 47.5h-23v66c-12.667 -24 -29.834 -42.5 -51.501 -55.5s-47.5 -19.5 -77.5 -19.5c-53.333 0 -95.5 17.833 -126.5 53.5
s-46.5 83.834 -46.5 144.501v283h125v-276c0 -31.333 7.16699 -55.833 21.5 -73.5s35.5 -26.5 63.5 -26.5c32.667 0 56.167 12.667 70.5 38s21.5 58 21.5 98v240h124v-472h-2c-28.667 -12 -49.667 -24.667 -63 -38s-20 -27.666 -20 -42.999
c0 -12 3.83301 -21.167 11.5 -27.5s19.5 -9.5 35.5 -9.5c10.667 0 19 0.5 25 1.5s11 2.16699 15 3.5v-84c-8 -2.66699 -16.833 -4.83398 -26.5 -6.50098s-20.834 -2.5 -33.501 -2.5z" />
    <glyph glyph-name="Wcircumflex" unicode="&#x174;" horiz-adv-x="902" 
d="M194 0l-183 664h138l111 -479l130 479h126l129 -480l112 480h134l-187 -664h-122l-132 485l-133 -485h-123zM506 859l108 -145h-86l-74 77l-76 -77h-84l107 145h105z" />
    <glyph glyph-name="wcircumflex" unicode="&#x175;" horiz-adv-x="713" 
d="M135 472l81 -300l86 300h115l86 -303l80 303h122l-147 -472h-111l-90 323l-89 -323h-112l-149 472h128zM409 681l107 -147h-83l-75 81l-75 -81h-83l107 147h102z" />
    <glyph glyph-name="Ycircumflex" unicode="&#x176;" horiz-adv-x="619" 
d="M476 664h138l-241 -365v-299h-127v300l-239 364h144l163 -256zM365 859l108 -145h-86l-74 77l-76 -77h-84l107 145h105z" />
    <glyph glyph-name="ycircumflex" unicode="&#x177;" horiz-adv-x="465" 
d="M26 -84h49c28.667 0 49.167 5 61.5 15s25.833 34.333 40.5 73l-178 468h130l110 -329l103 329h124l-180 -516c-20 -52 -44.5 -89.5 -73.5 -112.5s-71.833 -34.5 -128.5 -34.5h-58v107zM289 681l107 -147h-83l-75 81l-75 -81h-83l107 147h102z" />
    <glyph glyph-name="Ydieresis" unicode="&#x178;" horiz-adv-x="619" 
d="M476 664h138l-241 -365v-299h-127v300l-239 364h144l163 -256zM273 843v-121h-110v121h110zM460 843v-121h-110v121h110z" />
    <glyph glyph-name="Zacute" unicode="&#x179;" horiz-adv-x="589" 
d="M398 557h-353v107h507v-98l-367 -459h368v-107h-517v98zM483 861v-11l-163 -136h-65l89 147h139z" />
    <glyph glyph-name="zacute" unicode="&#x17a;" horiz-adv-x="436" 
d="M266 371h-241v101h386v-89l-238 -282h238v-101h-387v89zM401 683v-12l-164 -137h-63l88 149h139z" />
    <glyph glyph-name="Zdotaccent" unicode="&#x17b;" horiz-adv-x="589" 
d="M398 557h-353v107h507v-98l-367 -459h368v-107h-517v98zM359 843v-121h-130v121h130z" />
    <glyph glyph-name="zdotaccent" unicode="&#x17c;" horiz-adv-x="436" 
d="M266 371h-241v101h386v-89l-238 -282h238v-101h-387v89zM283 662v-121h-129v121h129z" />
    <glyph glyph-name="Zcaron" unicode="&#x17d;" horiz-adv-x="589" 
d="M398 557h-353v107h507v-98l-367 -459h368v-107h-517v98zM246 711l-110 148l84 1l76 -79l75 78l88 2l-110 -146z" />
    <glyph glyph-name="zcaron" unicode="&#x17e;" horiz-adv-x="436" 
d="M266 371h-241v101h386v-89l-238 -282h238v-101h-387v89zM143 681l75 -80l75 80h83l-107 -146h-102l-107 146h83z" />
    <glyph glyph-name="uni018F" unicode="&#x18f;" horiz-adv-x="667" 
d="M29 274v87h477c-2 75.333 -19.167 128.333 -51.5 159s-74.5 46 -126.5 46c-51.333 0 -90.666 -12 -117.999 -36s-44 -55.333 -50 -94l-126 20c4.66699 30.667 14.667 59.5 30 86.5s35.333 50.333 60 70s54.334 35.167 89.001 46.5s74 17 118 17
c93.333 0 167.666 -28 222.999 -84s83 -141 83 -255c0 -108.667 -26.5 -194.167 -79.5 -256.5s-129.5 -93.5 -229.5 -93.5c-42 0 -81.333 6 -118 18s-68.334 29.833 -95.001 53.5s-47.667 53.5 -63 89.5s-23 78 -23 126zM332 98c48 0 86 13.167 114 39.5
s46.333 67.5 55 123.5h-339v-10c0 -50 16.333 -88 49 -114s73 -39 121 -39z" />
    <glyph glyph-name="florin" unicode="&#x192;" horiz-adv-x="494" 
d="M8 97l33.001 -0.000976562c28 0 48.167 4.83301 60.5 14.5s22.833 29.834 31.5 60.501l39 150h-95v93h120l27 102c12.667 51.333 29.5 88.666 50.5 111.999s55.5 35 103.5 35h108v-97h-57c-32 0 -54.333 -5.33301 -67 -16s-24.334 -36.667 -35.001 -78l-15 -58h121v-93
h-146l-45 -175c-12.667 -51.333 -29.5 -88.666 -50.5 -111.999s-55.5 -35 -103.5 -35h-80v97z" />
    <glyph glyph-name="Ohorn" unicode="&#x1a0;" horiz-adv-x="782" 
d="M354 -13c-48 0 -92.168 8.33203 -132.501 24.999s-74.666 40.167 -102.999 70.5s-50.333 66.833 -66 109.5s-23.5 89.334 -23.5 140.001s8 97.334 24 140.001s38.333 79 67 109s63.5 53.5 104.5 70.5s86.167 25.5 135.5 25.5c55.333 0 105 -11 149 -33
s80.333 -52.333 109 -91c19.333 4.66699 36 13.834 50 27.501s21 33.5 21 59.5c0 20.667 -4.5 36.667 -13.5 48s-20.5 21 -34.5 29l59 70c32.667 -16 54.834 -36.333 66.501 -61s17.5 -49.334 17.5 -74.001c0 -22 -3.66699 -42 -11 -60s-17 -33.667 -29 -47
s-25.833 -24.666 -41.5 -33.999s-31.834 -16.333 -48.501 -21c10 -22.667 17.667 -47.334 23 -74.001s8 -54.667 8 -84c0 -50.667 -8 -97.334 -24 -140.001s-38.333 -79 -67 -109s-63.5 -53.5 -104.5 -70.5s-86.167 -25.5 -135.5 -25.5zM355.999 97.999
c60 0 107.667 20.332 143 60.999s53 97.667 53 171v5c0 72 -17.333 128.5 -52 169.5s-82 61.5 -142 61.5s-107.667 -20.167 -143 -60.5s-53 -97.166 -53 -170.499v-5c0 -72 17.333 -128.667 52 -170s82 -62 142 -62z" />
    <glyph glyph-name="ohorn" unicode="&#x1a1;" horiz-adv-x="593" 
d="M452 573l59.998 67.999c32.667 -15.333 55 -35.166 67 -59.499s18 -48.833 18 -73.5c0 -40.667 -11.833 -73.5 -35.5 -98.5s-50.834 -42.833 -81.501 -53.5c8.66699 -17.333 15.5 -36.166 20.5 -56.499s7.5 -41.833 7.5 -64.5c0 -35.333 -6.16699 -68 -18.5 -98
s-29.166 -55.833 -50.499 -77.5s-47.166 -38.5 -77.499 -50.5s-63.166 -18 -98.499 -18s-67.833 6 -97.5 18s-55 28.667 -76 50s-37.333 47 -49 77s-17.5 63 -17.5 99s6 69.167 18 99.5s28.667 56.166 50 77.499s47 38.166 77 50.499s62.667 18.5 98 18.5
c34.667 0 67 -6.16699 97 -18.5s55.667 -29.166 77 -50.499c16.667 6 31 15.667 43 29s18 31.333 18 54c0 20.667 -4.5 36.667 -13.5 48s-20.833 21.333 -35.5 30zM263.998 91.999c36 0 64.667 12.334 86 37.001s32 59 32 103v4c0 46 -10.333 81.5 -31 106.5
s-49 37.5 -85 37.5s-64.5 -12.833 -85.5 -38.5s-31.5 -60.834 -31.5 -105.501v-4c0 -44 10.167 -78.333 30.5 -103s48.5 -37 84.5 -37z" />
    <glyph glyph-name="Uhorn" unicode="&#x1af;" horiz-adv-x="772" 
d="M324 -13c-89.333 0 -157.669 24.168 -205.002 72.501s-71 117.833 -71 208.5v396h127v-395c0 -58 12.5 -101.333 37.5 -130s62.5 -43 112.5 -43c51.333 0 88.5 14 111.5 42s34.5 71 34.5 129v397h122v-103c22.667 3.33301 42.834 11.833 60.501 25.5
s26.5 35.167 26.5 64.5c0 20.667 -4.5 36.667 -13.5 48s-20.833 21 -35.5 29l60 70c32.667 -16 54.834 -36.333 66.501 -61s17.5 -49.334 17.5 -74.001c0 -28 -5.83301 -52.5 -17.5 -73.5s-26.167 -38.5 -43.5 -52.5s-36.833 -24.667 -58.5 -32s-42.5 -11.333 -62.5 -12
v-226c0 -93.333 -24.333 -163.333 -73 -210s-114 -70 -196 -70z" />
    <glyph glyph-name="uhorn" unicode="&#x1b0;" horiz-adv-x="629" 
d="M488 573l59.001 67.9971c32.667 -15.333 55 -35.166 67 -59.499s18 -48.833 18 -73.5c0 -26 -5.16699 -49 -15.5 -69s-23.5 -36.833 -39.5 -50.5s-34 -24.5 -54 -32.5s-39.667 -13 -59 -15v-341h-124v67c-12.667 -24.667 -29.667 -43.5 -51 -56.5
s-47.333 -19.5 -78 -19.5c-53.333 0 -95.5 17.833 -126.5 53.5s-46.5 83.834 -46.5 144.501v283h124v-276c0 -31.333 7.33301 -55.833 22 -73.5s36 -26.5 64 -26.5c32.667 0 56.167 12.667 70.5 38s21.5 58 21.5 98v240h124v-63c19.333 4.66699 36.166 13.834 50.499 27.501
s21.5 33.167 21.5 58.5c0 20.667 -4.5 36.667 -13.5 48s-20.5 21.333 -34.5 30z" />
    <glyph glyph-name="Aringacute" unicode="&#x1fa;" horiz-adv-x="664" 
d="M13 0l243.001 648.997c-11.333 8.66699 -20.166 19.334 -26.499 32.001s-9.5 27 -9.5 43c0 28 9.66699 50.833 29 68.5s44.666 27.167 75.999 28.5l47 97h105v-11l-93 -95c19.333 -7.33301 34.666 -18.666 45.999 -33.999s17 -33.333 17 -54
c0 -15.333 -3.16699 -29.166 -9.5 -41.499s-14.833 -22.833 -25.5 -31.5l238 -651h-134l-64 177h-249l-64 -177h-126zM329.001 527.997l-89 -246h177zM332.001 680.997c14.667 0 26.5 4 35.5 12s13.5 18.333 13.5 31s-4.5 23.167 -13.5 31.5s-20.833 12.5 -35.5 12.5
c-14 0 -25.333 -4.16699 -34 -12.5s-13 -18.833 -13 -31.5s4.33301 -23 13 -31s20 -12 34 -12z" />
    <glyph glyph-name="aringacute" unicode="&#x1fb;" horiz-adv-x="502" 
d="M189 -12c-50 0 -89.8291 12.667 -119.496 38s-44.5 58.333 -44.5 99c0 26.667 4.66699 48.5 14 65.5s22.166 31 38.499 42s35.833 19.833 58.5 26.5s47.334 13 74.001 19c43.333 8.66699 76.166 15.5 98.499 20.5s34.166 13.833 35.499 26.5v5
c0 14 -6.83301 26.5 -20.5 37.5s-36.5 16.5 -68.5 16.5s-55.833 -7.16699 -71.5 -21.5s-24.167 -31.833 -25.5 -52.5v-7h-123c2 53.333 22.833 96.333 62.5 129s92.5 49 158.5 49c64 0 114.333 -14.667 151 -44s55 -76 55 -140v-297h-119v64
c-14.667 -24.667 -35.334 -43.5 -62.001 -56.5s-57.334 -19.5 -92.001 -19.5zM260.004 535c-32.667 0 -58.833 9.33496 -78.5 28.002s-29.5 42.667 -29.5 72c0 28 8.66699 51 26 69s41 28 71 30l48 105h101v-11l-96 -99c20.667 -6.66699 37.167 -18.334 49.5 -35.001
s18.5 -36.334 18.5 -59.001c0 -29.333 -10 -53.333 -30 -72s-46.667 -28 -80 -28zM218.005 77.002c14.667 0 29.3311 2 43.998 6s28 10.667 40 20s21.833 21.5 29.5 36.5s11.834 33.5 12.501 55.5v40c-13.333 -8 -30.166 -14.5 -50.499 -19.5l-59.5 -14.5
c-24 -6 -44 -14 -60 -24s-24 -25.333 -24 -46c0 -16 6 -29 18 -39s28.667 -15 50 -15zM260.002 590.002c12.667 0 23.334 4.33301 32.001 13s13 19.334 13 32.001s-4.33301 23.5 -13 32.5s-19.334 13.5 -32.001 13.5s-23.167 -4.5 -31.5 -13.5s-12.5 -19.833 -12.5 -32.5
s4.16699 -23.334 12.5 -32.001s18.833 -13 31.5 -13z" />
    <glyph glyph-name="AEacute" unicode="&#x1fc;" horiz-adv-x="922" 
d="M776 396v-109h-197v-178h313v-109h-437v223h-191l-121 -223h-130l365 664h494v-109h-293v-159h197zM319 329h136v253zM731 861v-11l-163 -136h-65l89 147h139z" />
    <glyph glyph-name="aeacute" unicode="&#x1fd;" horiz-adv-x="815" 
d="M571 -8c-43.333 0 -81.5 8.16406 -114.5 24.4971s-59.5 39.5 -79.5 69.5c-11.333 -18.667 -25.166 -34.334 -41.499 -47.001s-33 -22.667 -50 -30s-33.833 -12.666 -50.5 -15.999s-31 -5 -43 -5c-46.667 0 -86.167 12.833 -118.5 38.5s-48.5 59.834 -48.5 102.501
c0 25.333 4.66699 46.333 14 63s22.166 30.5 38.499 41.5s35.833 19.667 58.5 26s47.334 12.5 74.001 18.5c38 8 69.667 14.333 95 19s38.333 15 39 31v2c0 16 -7.16699 29 -21.5 39s-36.833 15 -67.5 15c-32 0 -56.167 -7.16699 -72.5 -21.5s-24.5 -31.833 -24.5 -52.5v-7
h-123c2 53.333 22.833 96.333 62.5 129s92.5 49 158.5 49c38 0 70 -5.66699 96 -17s46.333 -27.666 61 -48.999c18 20.667 40 36.667 66 48s55.333 17.333 88 18c70.667 0 126.334 -22.167 167.001 -66.5s61 -103.5 61 -177.5v-42h-342c4 -34 16.5 -60.167 37.5 -78.5
s48.167 -27.5 81.5 -27.5c34.667 0 60.667 7.16699 78 21.5s29.666 31.5 36.999 51.5l108 -38c-16.667 -37.333 -42.834 -68.666 -78.501 -93.999s-84.167 -38 -145.5 -38zM223 76.9971c24 0 48.166 6.83496 72.499 20.502s39.833 37.834 46.5 72.501
c-2 9.33301 -3.66699 19.166 -5 29.499s-2 20.833 -2 31.5c-15.333 -6.66699 -33.666 -12.334 -54.999 -17.001s-41.5 -10 -60.5 -16s-35.333 -13.833 -49 -23.5s-20.5 -23.167 -20.5 -40.5c0 -14.667 6.16699 -27.834 18.5 -39.501s30.5 -17.5 54.5 -17.5zM564.999 384.999
c-30 0 -55.332 -9.16699 -75.999 -27.5s-33.334 -43.833 -38.001 -76.5h220c-2.66699 34 -13 59.833 -31 77.5s-43 26.5 -75 26.5zM585 682.999v-12l-164 -137h-63l88 149h139z" />
    <glyph glyph-name="Oslashacute" unicode="&#x1fe;" horiz-adv-x="712" 
d="M353 -13c-40 0 -77 5.33203 -111 15.999s-64.333 26.334 -91 47.001l-45 -50h-86l85 94c-25.333 30 -45 65.167 -59 105.5s-21 84.5 -21 132.5c0 50.667 8 97.334 24 140.001s38.5 79 67.5 109s64.167 53.5 105.5 70.5s87.333 25.5 138 25.5c40.667 0 78.5 -6 113.5 -18
s66.167 -28.667 93.5 -50l50 55h85l-90 -100c24.667 -30 43.5 -64.667 56.5 -104s19.5 -82 19.5 -128c0 -50.667 -8 -97.334 -24 -140.001s-38.5 -79 -67.5 -109s-64.167 -53.5 -105.5 -70.5s-87.333 -25.5 -138 -25.5zM156 327.999c0 -28.667 2.66699 -54.999 8 -78.999
s13.333 -45.333 24 -64l302 337c-16.667 14.667 -36.167 26.167 -58.5 34.5s-46.833 12.5 -73.5 12.5c-63.333 0 -112.833 -20.333 -148.5 -61s-53.5 -98.334 -53.5 -173.001v-7zM356 95c62.667 0 111.833 20.499 147.5 61.499s53.5 98.5 53.5 172.5v8
c0 26.667 -2.5 51.5 -7.5 74.5s-12.167 43.5 -21.5 61.5l-301 -336c16.667 -13.333 35.667 -23.666 57 -30.999s45.333 -11 72 -11zM548.999 860.999v-11l-163 -136h-65l89 147h139z" />
    <glyph glyph-name="oslashacute" unicode="&#x1ff;" horiz-adv-x="536" 
d="M266 -9c-28.667 0 -55.167 3.67188 -79.5 11.0049s-46.5 17.666 -66.5 30.999l-31 -33h-81l68 74c-16.667 20.667 -29.667 44.667 -39 72s-14 57 -14 89c0 36 6 69.167 18 99.5s28.667 56.166 50 77.499s47.166 38.166 77.499 50.499s63.5 18.5 99.5 18.5
c26.667 0 51.834 -3.33301 75.501 -10s45.167 -16.334 64.5 -29.001l38 41h81l-74 -81c18.667 -21.333 33.167 -46.333 43.5 -75s15.5 -59.334 15.5 -92.001c0 -35.333 -6 -68 -18 -98s-28.833 -55.833 -50.5 -77.5s-47.667 -38.5 -78 -50.5s-63.5 -18 -99.5 -18z
M266 87.0049c38.667 0 69.333 13 92 39s34 61.333 34 106v4c0 16 -1.5 31 -4.5 45s-7.16699 26.667 -12.5 38l-185 -208c10 -8 21.333 -14 34 -18s26.667 -6 42 -6zM143.999 232.005c0 -14 1 -27.167 3 -39.5s5.33301 -23.833 10 -34.5l182 205
c-9.33301 6.66699 -20 12 -32 16s-25 6 -39 6c-38 0 -68.167 -13.333 -90.5 -40s-33.5 -63 -33.5 -109v-4zM450.999 683.005v-12l-164 -137h-63l88 149h139z" />
    <glyph glyph-name="Scommaaccent" unicode="&#x218;" horiz-adv-x="581" 
d="M308 -11c-87.333 0 -155.165 20.1689 -203.498 60.502s-77.833 95.5 -88.5 165.5h131c8 -42.667 24.167 -73.334 48.5 -92.001s60.166 -28 107.499 -28c40 0 71 8.33301 93 25s33 40 33 70c0 28.667 -16.167 48.667 -48.5 60s-71.166 21.333 -116.499 30
c-27.333 5.33301 -54.833 12.166 -82.5 20.499s-52.334 19.5 -74.001 33.5s-39.334 32 -53.001 54s-20.5 49.333 -20.5 82c0 30 6.16699 57.833 18.5 83.5s29.333 47.5 51 65.5s47.667 32.167 78 42.5s63.166 15.5 98.499 15.5c78 0 141 -19.5 189 -58.5
s76 -94.167 84 -165.5h-129c-5.33301 40 -20 69.667 -44 89s-57.667 29 -101 29c-36.667 0 -65.667 -8.33301 -87 -25s-32 -39 -32 -67c0 -16 4.83301 -28.833 14.5 -38.5s22.5 -17.5 38.5 -23.5s34.5 -11 55.5 -15l65.5 -13c27.333 -5.33301 54.333 -11.833 81 -19.5
s50.334 -18.5 71.001 -32.5s37.5 -32 50.5 -54s19.5 -49.667 19.5 -83c0 -63.333 -22.167 -114.333 -66.5 -153s-104.833 -58 -181.5 -58zM217.001 -270.998l-4.00195 10.998c18.667 8.66699 32.834 20.334 42.501 35.001s14.834 31.334 15.501 50.001h-50v108h130v-100
c0 -26.667 -11.333 -50.667 -34 -72s-56 -32 -100 -32z" />
    <glyph glyph-name="scommaaccent" unicode="&#x219;" horiz-adv-x="446" 
d="M233 -14c-48 0 -90.167 9.33496 -126.5 28.002s-65.5 42.667 -87.5 72l98 56c12.667 -18.667 29.5 -33.167 50.5 -43.5s43.833 -15.5 68.5 -15.5c22 0 39.333 4.5 52 13.5s19 21.167 19 36.5c0 16.667 -11.667 28 -35 34s-52 12.667 -86 20
c-20.667 4 -40.834 9.33301 -60.501 16s-37.167 15.5 -52.5 26.5s-27.666 24.667 -36.999 41s-14 36.166 -14 59.499c0 21.333 4.83301 41.333 14.5 60s22.834 34.834 39.501 48.501s36.5 24.5 59.5 32.5s47.833 12 74.5 12c46.667 0 88 -9.66699 124 -29
s65.333 -44.333 88 -75l-98 -52c-12.667 19.333 -28.834 34 -48.501 44s-41.167 15 -64.5 15c-22 0 -39.5 -4.33301 -52.5 -13s-19.5 -20 -19.5 -34c0 -16 8 -26.833 24 -32.5s44.333 -12.5 85 -20.5c21.333 -4 42.666 -9.33301 63.999 -16s40.333 -15.334 57 -26.001
s30.334 -24.334 41.001 -41.001s16 -37 16 -61c0 -44 -18.333 -81 -55 -111s-82.667 -45 -138 -45zM142 -270.998l-4.00195 10.998c18.667 8.66699 32.834 20.334 42.501 35.001s14.834 31.334 15.501 50.001h-50v108h130v-100c0 -26.667 -11.333 -50.667 -34 -72
s-56 -32 -100 -32z" />
    <glyph glyph-name="uni021A" unicode="&#x21a;" horiz-adv-x="574" 
d="M553 664v-109h-202v-555h-127v555h-202v109h531zM219 -271l-4.00195 10.998c18.667 8.66699 32.834 20.334 42.501 35.001s14.834 31.334 15.501 50.001h-50v108h130v-100c0 -26.667 -11.333 -50.667 -34 -72s-56 -32 -100 -32z" />
    <glyph glyph-name="uni0237" unicode="&#x237;" horiz-adv-x="219" 
d="M-33 -84l30 -0.000976562c20 0 33.333 3.83301 40 11.5s10 22.834 10 45.501v499h125v-502c0 -61.333 -13.333 -103.333 -40 -126s-71 -34 -133 -34h-32v106z" />
    <glyph glyph-name="uni0259" unicode="&#x259;" horiz-adv-x="509" 
d="M248 481c73.333 0 131.5 -21.999 174.5 -65.999s64.5 -102.667 64.5 -176c0 -36 -5.83301 -69.333 -17.5 -100s-27.834 -56.834 -48.501 -78.501s-45.5 -38.5 -74.5 -50.5s-60.5 -18 -94.5 -18c-71.333 0 -127.333 22 -168 66s-61 103.333 -61 178v41h342
c-4 34 -16.667 60.167 -38 78.5s-48.333 27.5 -81 27.5c-34.667 0 -60.667 -7.16699 -78 -21.5s-29.666 -31.5 -36.999 -51.5l-107 38c16 38 42.167 69.667 78.5 95s84.833 38 145.5 38zM254 88.001c29.333 0 54.332 9 74.999 27s33.334 43.333 38.001 76h-220
c2.66699 -34.667 13 -60.5 31 -77.5s43.333 -25.5 76 -25.5z" />
    <glyph glyph-name="uni02BB" unicode="&#x2bb;" horiz-adv-x="262" 
d="M66 531l-0.000976562 88c0 28 11.167 53.167 33.5 75.5s55.5 33.5 99.5 33.5l4 -11c-17.333 -8.66699 -31.166 -19.667 -41.499 -33s-15.833 -30.333 -16.5 -51h50v-102h-129z" />
    <glyph glyph-name="uni02BC" unicode="&#x2bc;" horiz-adv-x="262" 
d="M72 531l-4.00098 12c17.333 8.66699 31.333 19.667 42 33s16.334 30.333 17.001 51h-51v101h129v-88c0 -28 -11.167 -53.167 -33.5 -75.5s-55.5 -33.5 -99.5 -33.5z" />
    <glyph glyph-name="circumflex" unicode="&#x2c6;" horiz-adv-x="416" 
d="M259 681l107 -147h-83l-75 81l-76 -81h-82l107 147h102z" />
    <glyph glyph-name="caron" unicode="&#x2c7;" horiz-adv-x="416" 
d="M132 681l76 -80l75 80h83l-107 -146h-102l-107 146h82z" />
    <glyph glyph-name="uni02CA" unicode="&#x2ca;" horiz-adv-x="327" 
d="M277 683v-12l-163 -137h-64l88 149h139z" />
    <glyph glyph-name="uni02CB" unicode="&#x2cb;" horiz-adv-x="327" 
d="M50 683h139l88 -149h-63l-164 137v12z" />
    <glyph glyph-name="breve" unicode="&#x2d8;" horiz-adv-x="397" 
d="M203 537c-50 0 -88.002 12.6689 -114.002 38.002s-38 59.666 -36 102.999l86 5c0.666992 -24.667 5.83398 -43 15.501 -55s25.834 -18 48.501 -18s38.5 6.33301 47.5 19s13.167 30.667 12.5 54l87 -5c2.66699 -42.667 -9 -76.834 -35 -102.501s-63.333 -38.5 -112 -38.5z
" />
    <glyph glyph-name="dotaccent" unicode="&#x2d9;" horiz-adv-x="230" 
d="M180 662v-121h-130v121h130z" />
    <glyph glyph-name="ring" unicode="&#x2da;" horiz-adv-x="319" 
d="M159 590c12.667 0 23.334 4.33301 32.001 13s13 19.667 13 33c0 12.667 -4.33301 23.5 -13 32.5s-19.334 13.5 -32.001 13.5s-23.167 -4.5 -31.5 -13.5s-12.5 -19.833 -12.5 -32.5c0 -13.333 4.16699 -24.333 12.5 -33s18.833 -13 31.5 -13zM159 535
c-33.333 0 -59.833 9.33301 -79.5 28s-29.5 43 -29.5 73c0 29.333 9.83301 53.333 29.5 72s46.167 28 79.5 28s60 -9.33301 80 -28s30 -42.667 30 -72c0 -30 -10 -54.333 -30 -73s-46.667 -28 -80 -28z" />
    <glyph glyph-name="ogonek" unicode="&#x2db;" horiz-adv-x="24" 
d="M51 -206c-38 0 -68.166 9.16699 -90.499 27.5s-33.5 40.833 -33.5 67.5c0 34.667 16.167 64.167 48.5 88.5s71.166 41.833 116.499 52.5l15 -30c-28 -12 -48.667 -24.667 -62 -38s-20 -27.666 -20 -42.999c0 -12 3.83301 -21.167 11.5 -27.5s19.5 -9.5 35.5 -9.5
c10 0 18 0.5 24 1.5s10.667 2.16699 14 3.5v-84c-8 -2.66699 -16.667 -4.83398 -26 -6.50098s-20.333 -2.5 -33 -2.5z" />
    <glyph glyph-name="tilde" unicode="&#x2dc;" horiz-adv-x="401" 
d="M112 542l-61.9961 7c0 2.66699 0.166992 7.5 0.5 14.5s0.5 11.833 0.5 14.5c0 19.333 2.83301 35.5 8.5 48.5s12.667 23.167 21 30.5s17.666 12.333 27.999 15s20.166 4 29.499 4c16 0 29.667 -3 41 -9s21.333 -12.667 30 -20l24 -20c7.33301 -6 14.666 -9 21.999 -9
c8.66699 0 15.167 2.66699 19.5 8s7.83301 12.333 10.5 21c0.666992 1.33301 1.5 4.5 2.5 9.5s1.5 9.16699 1.5 12.5l62 -7c0 -2.66699 -0.166992 -7.5 -0.5 -14.5s-0.5 -11.5 -0.5 -13.5c0 -19.333 -2.83301 -35.5 -8.5 -48.5s-12.834 -23.333 -21.501 -31s-18 -13 -28 -16
s-19.333 -4.5 -28 -4.5c-16 0 -29.5 3 -40.5 9s-20.833 12.667 -29.5 20l-23.5 20c-7 6 -14.5 9 -22.5 9c-8.66699 0 -15.667 -2.5 -21 -7.5s-9 -12.5 -11 -22.5l-2.5 -10c-1 -4 -1.5 -7.33301 -1.5 -10z" />
    <glyph glyph-name="hungarumlaut" unicode="&#x2dd;" horiz-adv-x="490" 
d="M244 682v-11l-139 -137h-55l75 148h119zM440 682v-11l-150 -137h-57l86 148h121z" />
    <glyph glyph-name="uni0300" unicode="&#x300;" 
d="M-195 683h139l88 -149h-63l-164 137v12z" />
    <glyph glyph-name="uni0301" unicode="&#x301;" 
d="M183 683v-12l-164 -137h-63l88 149h139z" />
    <glyph glyph-name="uni0302" unicode="&#x302;" 
d="M51 681l107 -147h-83l-75 81l-75 -81h-83l107 147h102z" />
    <glyph glyph-name="uni0303" unicode="&#x303;" 
d="M-149 549c-0.666992 2.66699 -0.831055 7.5 -0.498047 14.5s0.5 11.833 0.5 14.5c0 19.333 2.83301 35.5 8.5 48.5s12.667 23.167 21 30.5s17.666 12.333 27.999 15s20.166 4 29.499 4c16 0 29.667 -3 41 -9s21.333 -12.667 30 -20l24 -20
c7.33301 -6 14.666 -9 21.999 -9c8.66699 0 15.167 2.66699 19.5 8s7.83301 12.333 10.5 21c0.666992 1.33301 1.66699 4.5 3 9.5s2 9.16699 2 12.5l61 -7c0.666992 -2.66699 0.833984 -7.5 0.500977 -14.5s-0.5 -11.5 -0.5 -13.5c0 -19.333 -3 -35.5 -9 -48.5
s-13.333 -23.333 -22 -31s-18 -13 -28 -16s-19.333 -4.5 -28 -4.5c-16 0 -29.5 3 -40.5 9s-20.833 12.667 -29.5 20l-23.5 20c-7 6 -14.5 9 -22.5 9c-8.66699 0 -15.5 -2.5 -20.5 -7.5s-8.5 -12.5 -10.5 -22.5c-0.666992 -2.66699 -1.66699 -6 -3 -10s-2 -7.33301 -2 -10z
" />
    <glyph glyph-name="uni0304" unicode="&#x304;" 
d="M140 643v-88h-280v88h280z" />
    <glyph glyph-name="uni0306" unicode="&#x306;" 
d="M4 537c-50 0 -88.002 12.6689 -114.002 38.002s-38 59.666 -36 102.999l86 5c0.666992 -24.667 5.83398 -43 15.501 -55s25.834 -18 48.501 -18s38.5 6.33301 47.5 19s13.5 30.667 13.5 54l87 -5c2.66699 -42.667 -9 -76.834 -35 -102.501s-63.667 -38.5 -113 -38.5z" />
    <glyph glyph-name="uni0307" unicode="&#x307;" 
d="M65 662v-121h-129v121h129z" />
    <glyph glyph-name="uni0308" unicode="&#x308;" 
d="M-38 662v-121h-109v121h109zM148 662v-121h-109v121h109z" />
    <glyph glyph-name="uni0309" unicode="&#x309;" 
d="M-36 535l-0.00390625 12c0 12 1.83301 22.167 5.5 30.5s9.83398 15.833 18.501 22.5s17.834 13.167 27.501 19.5s14.5 14.166 14.5 23.499c0 4 -2.33301 8.66699 -7 14s-15.334 8 -32.001 8c-17.333 0 -32.666 -2.83301 -45.999 -8.5s-24.333 -11.167 -33 -16.5l-35 57
c12.667 9.33301 30 17.833 52 25.5s45.333 11.5 70 11.5c34.667 0 64.834 -6.83301 90.501 -20.5s38.5 -32.834 38.5 -57.501c0 -10.667 -2.66699 -20.167 -8 -28.5s-11.666 -15.666 -18.999 -21.999s-15.333 -12.166 -24 -17.499s-16 -10.333 -22 -15
c-6.66699 -4.66699 -11.667 -9.5 -15 -14.5s-5 -11.5 -5 -19.5v-4h-71z" />
    <glyph glyph-name="uni030A" unicode="&#x30a;" 
d="M0 590c12.667 0 23.334 4.33301 32.001 13s13 19.667 13 33c0 12.667 -4.33301 23.5 -13 32.5s-19.334 13.5 -32.001 13.5s-23.167 -4.5 -31.5 -13.5s-12.5 -19.833 -12.5 -32.5c0 -13.333 4.16699 -24.333 12.5 -33s18.833 -13 31.5 -13zM0 535
c-33.333 0 -59.833 9.33301 -79.5 28s-29.5 43 -29.5 73c0 29.333 9.83301 53.333 29.5 72s46.167 28 79.5 28s60 -9.33301 80 -28s30 -42.667 30 -72c0 -30 -10 -54.333 -30 -73s-46.667 -28 -80 -28z" />
    <glyph glyph-name="uni030B" unicode="&#x30b;" 
d="M75 682v-11l-140 -137h-54l75 148h119zM271 682v-11l-151 -137h-57l86 148h122z" />
    <glyph glyph-name="uni030C" unicode="&#x30c;" 
d="M-75 681l75 -80l75 80h83l-107 -146h-102l-107 146h83z" />
    <glyph glyph-name="uni0312" unicode="&#x312;" 
d="M-64 541l-0.000976562 101.001c0 26.667 11.167 50.667 33.5 72s55.5 32 99.5 32l4 -11c-17.333 -8 -31.166 -17.833 -41.499 -29.5s-15.833 -26.834 -16.5 -45.501h50v-119h-129z" />
    <glyph glyph-name="uni0315" unicode="&#x315;" 
d="M-19 508l10 165h100v-17l-28 -148h-82z" />
    <glyph glyph-name="uni031B" unicode="&#x31b;" 
d="M-45 578l58.0029 71.001c34 -16 57.167 -36.333 69.5 -61s18.5 -49.334 18.5 -74.001c0 -28.667 -6.16699 -53.5 -18.5 -74.5s-27.833 -38 -46.5 -51s-39.167 -22.5 -61.5 -28.5s-43.5 -8.66699 -63.5 -8l-26 57c14.667 0.666992 29.167 2.5 43.5 5.5s27.166 8 38.499 15
s20.666 16.333 27.999 28s11 26.167 11 43.5c0 20.667 -4.83301 36.667 -14.5 48s-21.834 21 -36.501 29z" />
    <glyph glyph-name="uni0323" unicode="&#x323;" 
d="M65 -67v-120h-129v120h129z" />
    <glyph glyph-name="uni0326" unicode="&#x326;" 
d="M-68 -271l-4.00195 10.998c18.667 8.66699 32.834 20.334 42.501 35.001s14.834 31.334 15.501 50.001h-50v108h130v-100c0 -26.667 -11.333 -50.667 -34 -72s-56 -32 -100 -32z" />
    <glyph glyph-name="uni0327" unicode="&#x327;" 
d="M-12 -206c-14.667 0 -28.001 1.16797 -40.001 3.50098s-22 4.83301 -30 7.5v85c4.66699 -1.33301 10.667 -2.83301 18 -4.5s16 -2.5 26 -2.5c16.667 0 29 3 37 9s12 15.333 12 28c0 16.667 -7.16699 31.667 -21.5 45s-35.5 25 -63.5 35l33 26
c50 -13.333 87.333 -31.333 112 -54s37 -50 37 -82c0 -26.667 -9.66699 -49.334 -29 -68.001s-49.666 -28 -90.999 -28z" />
    <glyph glyph-name="uni0328" unicode="&#x328;" 
d="M37 -206c-38 0 -68.166 9.16699 -90.499 27.5s-33.5 40.833 -33.5 67.5c0 34.667 16.167 64.167 48.5 88.5s71.166 41.833 116.499 52.5l15 -30c-28 -12 -48.667 -24.667 -62 -38s-20 -27.666 -20 -42.999c0 -12 3.83301 -21.167 11.5 -27.5s19.5 -9.5 35.5 -9.5
c10 0 18 0.5 24 1.5s10.667 2.16699 14 3.5v-84c-8 -2.66699 -16.667 -4.83398 -26 -6.50098s-20.333 -2.5 -33 -2.5z" />
    <glyph glyph-name="pi" unicode="&#x3c0;" horiz-adv-x="601" 
d="M463 -9c-34 0 -58.667 10 -74 30s-23.333 47.667 -24 83l-7 266h-137l-7 -370h-121l9 370h-89v102h569v-104h-107l11 -233c0.666992 -17.333 3.5 -29.5 8.5 -36.5s13.833 -10.5 26.5 -10.5h35v-83c-6.66699 -2.66699 -18.167 -5.66699 -34.5 -9s-35.833 -5 -58.5 -5z" />
    <glyph glyph-name="Wgrave" unicode="&#x1e80;" horiz-adv-x="902" 
d="M194 0l-183 664h138l111 -479l130 479h126l129 -480l112 480h134l-187 -664h-122l-132 485l-133 -485h-123zM262 861h139l90 -147h-66l-163 136v11z" />
    <glyph glyph-name="wgrave" unicode="&#x1e81;" horiz-adv-x="713" 
d="M135 472l81 -300l86 300h115l86 -303l80 303h122l-147 -472h-111l-90 323l-89 -323h-112l-149 472h128zM163 683h139l88 -149h-63l-164 137v12z" />
    <glyph glyph-name="Wacute" unicode="&#x1e82;" horiz-adv-x="902" 
d="M194 0l-183 664h138l111 -479l130 479h126l129 -480l112 480h134l-187 -664h-122l-132 485l-133 -485h-123zM641 861v-11l-163 -136h-65l89 147h139z" />
    <glyph glyph-name="wacute" unicode="&#x1e83;" horiz-adv-x="713" 
d="M135 472l81 -300l86 300h115l86 -303l80 303h122l-147 -472h-111l-90 323l-89 -323h-112l-149 472h128zM541 683v-12l-164 -137h-63l88 149h139z" />
    <glyph glyph-name="Wdieresis" unicode="&#x1e84;" horiz-adv-x="902" 
d="M194 0l-183 664h138l111 -479l130 479h126l129 -480l112 480h134l-187 -664h-122l-132 485l-133 -485h-123zM414 843v-121h-110v121h110zM601 843v-121h-110v121h110z" />
    <glyph glyph-name="wdieresis" unicode="&#x1e85;" horiz-adv-x="713" 
d="M135 472l81 -300l86 300h115l86 -303l80 303h122l-147 -472h-111l-90 323l-89 -323h-112l-149 472h128zM320 662v-121h-109v121h109zM506 662v-121h-109v121h109z" />
    <glyph glyph-name="uni1E9E" unicode="&#x1e9e;" horiz-adv-x="642" 
d="M325 -11c-23.333 0 -40.5029 0.663086 -51.5029 1.99609s-23.167 3.33301 -36.5 6v102c10.667 -2.66699 24.334 -4.66699 41.001 -6s32.334 -2 47.001 -2c44.667 0 79.667 7.83301 105 23.5s38 43.834 38 84.501c0 32 -9.83301 56.833 -29.5 74.5
s-57.167 26.5 -112.5 26.5c-4 0 -8.5 -0.166992 -13.5 -0.5s-8.83301 -0.833008 -11.5 -1.5v89l135 172h-88c-57.333 0 -100.166 -13.333 -128.499 -40s-42.5 -69.667 -42.5 -129v-390h-127v368c0 56 7.33301 103.167 22 141.5s35 68.833 61 91.5s57 38.834 93 48.501
s75 14.5 117 14.5h228v-114l-143 -169c52 -3.33301 94.333 -21.166 127 -53.499s49 -76.166 49 -131.499c0 -26.667 -4.5 -52.5 -13.5 -77.5s-24 -47 -45 -66s-49.5 -34.333 -85.5 -46s-81 -17.5 -135 -17.5z" />
    <glyph glyph-name="uni1EA0" unicode="&#x1ea0;" horiz-adv-x="664" 
d="M13 0l250 664h145l242 -664h-135l-63 177h-249l-64 -177h-126zM330 528l-90 -246h177zM398 -67v-120h-129v120h129z" />
    <glyph glyph-name="uni1EA1" unicode="&#x1ea1;" horiz-adv-x="502" 
d="M189 -12c-50 0 -89.8291 12.667 -119.496 38s-44.5 58.333 -44.5 99c0 26.667 4.66699 48.5 14 65.5s22.166 31 38.499 42s35.833 19.833 58.5 26.5s47.334 13 74.001 19c43.333 8.66699 76.166 15.5 98.499 20.5s34.166 13.833 35.499 26.5v5
c0 14 -6.83301 26.5 -20.5 37.5s-36.5 16.5 -68.5 16.5s-55.833 -7.16699 -71.5 -21.5s-24.167 -31.833 -25.5 -52.5v-7h-123c2 53.333 22.833 96.333 62.5 129s92.5 49 158.5 49c64 0 114.333 -14.667 151 -44s55 -76 55 -140v-297h-119v64
c-14.667 -24.667 -35.334 -43.5 -62.001 -56.5s-57.334 -19.5 -92.001 -19.5zM218.004 77c14.667 0 29.3311 2 43.998 6s28 10.667 40 20s21.833 21.5 29.5 36.5s11.834 33.5 12.501 55.5v40c-13.333 -8 -30.166 -14.5 -50.499 -19.5l-59.5 -14.5c-24 -6 -44 -14 -60 -24
s-24 -25.333 -24 -46c0 -16 6 -29 18 -39s28.667 -15 50 -15zM318.001 -67v-120h-129v120h129z" />
    <glyph glyph-name="uni1EA2" unicode="&#x1ea2;" horiz-adv-x="664" 
d="M13 0l250 664h145l242 -664h-135l-63 177h-249l-64 -177h-126zM330 528l-90 -246h177zM296 720v12c0 12.667 2.33301 23.334 7 32.001s11.334 16.334 20.001 23.001c10 7.33301 20.333 14.166 31 20.499s16 14.166 16 23.499c0 4 -2.83301 8.66699 -8.5 14
s-18.5 8 -38.5 8c-18.667 0 -35.334 -2.66699 -50.001 -8s-26.667 -10.666 -36 -15.999l-36 58c13.333 9.33301 31.666 18 54.999 26s48.333 12 75 12c38 0 70.667 -7 98 -21s41 -33.667 41 -59c0 -11.333 -2.83301 -21.333 -8.5 -30s-12.667 -16.334 -21 -23.001
s-17.166 -12.667 -26.499 -18s-17.333 -10.333 -24 -15s-11.667 -9.5 -15 -14.5s-5 -11.833 -5 -20.5v-4h-74z" />
    <glyph glyph-name="uni1EA3" unicode="&#x1ea3;" horiz-adv-x="502" 
d="M189 -12c-50 0 -89.8291 12.667 -119.496 38s-44.5 58.333 -44.5 99c0 26.667 4.66699 48.5 14 65.5s22.166 31 38.499 42s35.833 19.833 58.5 26.5s47.334 13 74.001 19c43.333 8.66699 76.166 15.5 98.499 20.5s34.166 13.833 35.499 26.5v5
c0 14 -6.83301 26.5 -20.5 37.5s-36.5 16.5 -68.5 16.5s-55.833 -7.16699 -71.5 -21.5s-24.167 -31.833 -25.5 -52.5v-7h-123c2 53.333 22.833 96.333 62.5 129s92.5 49 158.5 49c64 0 114.333 -14.667 151 -44s55 -76 55 -140v-297h-119v64
c-14.667 -24.667 -35.334 -43.5 -62.001 -56.5s-57.334 -19.5 -92.001 -19.5zM218.004 77c14.667 0 29.3311 2 43.998 6s28 10.667 40 20s21.833 21.5 29.5 36.5s11.834 33.5 12.501 55.5v40c-13.333 -8 -30.166 -14.5 -50.499 -19.5l-59.5 -14.5c-24 -6 -44 -14 -60 -24
s-24 -25.333 -24 -46c0 -16 6 -29 18 -39s28.667 -15 50 -15zM229.001 535l-0.00390625 12c0 12 1.83301 22.167 5.5 30.5s9.83398 15.833 18.501 22.5s17.834 13.167 27.501 19.5s14.5 14.166 14.5 23.499c0 4 -2.33301 8.66699 -7 14s-15.334 8 -32.001 8
c-17.333 0 -32.666 -2.83301 -45.999 -8.5s-24.333 -11.167 -33 -16.5l-35 57c12.667 9.33301 30 17.833 52 25.5s45.333 11.5 70 11.5c34.667 0 64.834 -6.83301 90.501 -20.5s38.5 -32.834 38.5 -57.501c0 -10.667 -2.66699 -20.167 -8 -28.5
s-11.666 -15.666 -18.999 -21.999s-15.333 -12.166 -24 -17.499s-16 -10.333 -22 -15c-6.66699 -4.66699 -11.667 -9.5 -15 -14.5s-5 -11.5 -5 -19.5v-4h-71z" />
    <glyph glyph-name="uni1EA4" unicode="&#x1ea4;" horiz-adv-x="664" 
d="M13 0l250 664h145l242 -664h-135l-63 177h-249l-64 -177h-126zM330 528l-90 -246h177zM286 856h96l105 -143h-81l-74 79l-72 -78l-79 -1zM541 944h109l1 -11l-138 -124l-58 -1z" />
    <glyph glyph-name="uni1EA5" unicode="&#x1ea5;" horiz-adv-x="502" 
d="M189 -12c-50 0 -89.8291 12.667 -119.496 38s-44.5 58.333 -44.5 99c0 26.667 4.66699 48.5 14 65.5s22.166 31 38.499 42s35.833 19.833 58.5 26.5s47.334 13 74.001 19c43.333 8.66699 76.166 15.5 98.499 20.5s34.166 13.833 35.499 26.5v5
c0 14 -6.83301 26.5 -20.5 37.5s-36.5 16.5 -68.5 16.5s-55.833 -7.16699 -71.5 -21.5s-24.167 -31.833 -25.5 -52.5v-7h-123c2 53.333 22.833 96.333 62.5 129s92.5 49 158.5 49c64 0 114.333 -14.667 151 -44s55 -76 55 -140v-297h-119v64
c-14.667 -24.667 -35.334 -43.5 -62.001 -56.5s-57.334 -19.5 -92.001 -19.5zM218.004 77c14.667 0 29.3311 2 43.998 6s28 10.667 40 20s21.833 21.5 29.5 36.5s11.834 33.5 12.501 55.5v40c-13.333 -8 -30.166 -14.5 -50.499 -19.5l-59.5 -14.5c-24 -6 -44 -14 -60 -24
s-24 -25.333 -24 -46c0 -16 6 -29 18 -39s28.667 -15 50 -15zM190.001 534h-78l101 145h95l100 -145h-78l-70 80zM560.001 769v-11l-133 -127h-56l81 138h108z" />
    <glyph glyph-name="uni1EA6" unicode="&#x1ea6;" horiz-adv-x="664" 
d="M13 0l250 664h145l242 -664h-135l-63 177h-249l-64 -177h-126zM330 528l-90 -246h177zM286 856h96l105 -143h-81l-74 79l-72 -78l-79 -1zM367 931v12h112l86 -135h-58z" />
    <glyph glyph-name="uni1EA7" unicode="&#x1ea7;" horiz-adv-x="502" 
d="M189 -12c-50 0 -89.8291 12.667 -119.496 38s-44.5 58.333 -44.5 99c0 26.667 4.66699 48.5 14 65.5s22.166 31 38.499 42s35.833 19.833 58.5 26.5s47.334 13 74.001 19c43.333 8.66699 76.166 15.5 98.499 20.5s34.166 13.833 35.499 26.5v5
c0 14 -6.83301 26.5 -20.5 37.5s-36.5 16.5 -68.5 16.5s-55.833 -7.16699 -71.5 -21.5s-24.167 -31.833 -25.5 -52.5v-7h-123c2 53.333 22.833 96.333 62.5 129s92.5 49 158.5 49c64 0 114.333 -14.667 151 -44s55 -76 55 -140v-297h-119v64
c-14.667 -24.667 -35.334 -43.5 -62.001 -56.5s-57.334 -19.5 -92.001 -19.5zM218.004 77c14.667 0 29.3311 2 43.998 6s28 10.667 40 20s21.833 21.5 29.5 36.5s11.834 33.5 12.501 55.5v40c-13.333 -8 -30.166 -14.5 -50.499 -19.5l-59.5 -14.5c-24 -6 -44 -14 -60 -24
s-24 -25.333 -24 -46c0 -16 6 -29 18 -39s28.667 -15 50 -15zM213.001 679h95l100 -145h-78l-70 80l-70 -80h-78zM485.001 631h-56l-135 127v11h109z" />
    <glyph glyph-name="uni1EA8" unicode="&#x1ea8;" horiz-adv-x="664" 
d="M13 0l250 664h145l242 -664h-135l-63 177h-249l-64 -177h-126zM330 528l-90 -246h177zM468 810l0.00292969 9.99902c0 10.667 2.16699 19.834 6.5 27.501s11.5 14.834 21.5 21.501l25.5 17c8.33301 5.33301 12.5 12.333 12.5 21c0 5.33301 -2.83301 10.5 -8.5 15.5
s-16.834 7.5 -33.501 7.5c-14.667 0 -29.334 -2.66699 -44.001 -8s-28 -13.333 -40 -24l-37 44c7.33301 10 23 21 47 33s53 18 87 18c31.333 0 58.333 -6.66699 81 -20s34 -31.333 34 -54c0 -10 -2.5 -18.833 -7.5 -26.5s-11 -14.167 -18 -19.5s-14.333 -10.333 -22 -15
s-14.167 -9 -19.5 -13c-6.66699 -4.66699 -11.334 -9.33398 -14.001 -14.001s-4 -10.667 -4 -18v-3h-67zM286.003 855.999h96l105 -143h-81l-74 79l-72 -78l-79 -1z" />
    <glyph glyph-name="uni1EA9" unicode="&#x1ea9;" horiz-adv-x="502" 
d="M189 -12c-50 0 -89.8291 12.667 -119.496 38s-44.5 58.333 -44.5 99c0 26.667 4.66699 48.5 14 65.5s22.166 31 38.499 42s35.833 19.833 58.5 26.5s47.334 13 74.001 19c43.333 8.66699 76.166 15.5 98.499 20.5s34.166 13.833 35.499 26.5v5
c0 14 -6.83301 26.5 -20.5 37.5s-36.5 16.5 -68.5 16.5s-55.833 -7.16699 -71.5 -21.5s-24.167 -31.833 -25.5 -52.5v-7h-123c2 53.333 22.833 96.333 62.5 129s92.5 49 158.5 49c64 0 114.333 -14.667 151 -44s55 -76 55 -140v-297h-119v64
c-14.667 -24.667 -35.334 -43.5 -62.001 -56.5s-57.334 -19.5 -92.001 -19.5zM218.004 77c14.667 0 29.3311 2 43.998 6s28 10.667 40 20s21.833 21.5 29.5 36.5s11.834 33.5 12.501 55.5v40c-13.333 -8 -30.166 -14.5 -50.499 -19.5l-59.5 -14.5c-24 -6 -44 -14 -60 -24
s-24 -25.333 -24 -46c0 -16 6 -29 18 -39s28.667 -15 50 -15zM386.001 630l-0.000976562 10.002c0 12 2.33301 21.667 7 29s11.334 14.666 20.001 21.999l22.5 18.5c7 5.66699 10.5 12.834 10.5 21.501c0 6 -2.5 11.5 -7.5 16.5s-14.833 7.5 -29.5 7.5
c-12.667 0 -26 -2.5 -40 -7.5s-26.333 -12.833 -37 -23.5l-38 44c6.66699 10 21.5 21.167 44.5 33.5s50.5 18.5 82.5 18.5c30 0 55.833 -6.83301 77.5 -20.5s32.5 -32.167 32.5 -55.5c0 -21.333 -7.66699 -37.333 -23 -48s-28.333 -20.334 -39 -29.001
c-6 -4.66699 -10.333 -9.33398 -13 -14.001s-4 -11 -4 -19v-4h-66zM213 679.002h95l100 -145h-78l-70 80l-70 -80h-78z" />
    <glyph glyph-name="uni1EAA" unicode="&#x1eaa;" horiz-adv-x="664" 
d="M13 0l250 664h145l242 -664h-135l-63 177h-249l-64 -177h-126zM330 528l-90 -246h177zM392 885c-14 0 -26 2.50098 -36 7.50098s-18.833 10.5 -26.5 16.5s-15.167 11.5 -22.5 16.5s-15.666 7.5 -24.999 7.5c-6.66699 0 -12.834 -1.5 -18.501 -4.5
s-10.167 -8.5 -13.5 -16.5c-0.666992 -2.66699 -1.83398 -6.83398 -3.50098 -12.501s-2.5 -9.83398 -2.5 -12.501l-57 7c0 4.66699 -0.166992 9.66699 -0.5 15s-0.166016 10 0.500977 14c4.66699 32.667 16.167 55.334 34.5 68.001s36.833 19 55.5 19
c14.667 0 27 -2.66699 37 -8s19 -11 27 -17l23 -17c7.33301 -5.33301 15.666 -8 24.999 -8c6.66699 0 12.834 2.16699 18.501 6.5s10.167 10.5 13.5 18.5c0.666992 1.33301 1.66699 5 3 11s2 9.66699 2 11l61 -6l-4 -30c-4.66699 -32 -16 -54.333 -34 -67s-37 -19 -57 -19z
M286 856.001h96l105 -143h-81l-74 79l-72 -78l-79 -1z" />
    <glyph glyph-name="uni1EAB" unicode="&#x1eab;" horiz-adv-x="502" 
d="M189 -12c-50 0 -89.8291 12.667 -119.496 38s-44.5 58.333 -44.5 99c0 26.667 4.66699 48.5 14 65.5s22.166 31 38.499 42s35.833 19.833 58.5 26.5s47.334 13 74.001 19c43.333 8.66699 76.166 15.5 98.499 20.5s34.166 13.833 35.499 26.5v5
c0 14 -6.83301 26.5 -20.5 37.5s-36.5 16.5 -68.5 16.5s-55.833 -7.16699 -71.5 -21.5s-24.167 -31.833 -25.5 -52.5v-7h-123c2 53.333 22.833 96.333 62.5 129s92.5 49 158.5 49c64 0 114.333 -14.667 151 -44s55 -76 55 -140v-297h-119v64
c-14.667 -24.667 -35.334 -43.5 -62.001 -56.5s-57.334 -19.5 -92.001 -19.5zM218.004 77c14.667 0 29.3311 2 43.998 6s28 10.667 40 20s21.833 21.5 29.5 36.5s11.834 33.5 12.501 55.5v40c-13.333 -8 -30.166 -14.5 -50.499 -19.5l-59.5 -14.5c-24 -6 -44 -14 -60 -24
s-24 -25.333 -24 -46c0 -16 6 -29 18 -39s28.667 -15 50 -15zM212.001 679h95l100 -145h-78l-70 80l-70 -80h-78zM317.001 710c-14 0 -25.665 2.66992 -34.998 8.00293s-17.666 11.166 -24.999 17.499s-14.5 12.166 -21.5 17.499s-14.833 8 -23.5 8
c-6 0 -11.833 -1.66699 -17.5 -5s-9.83398 -9.33301 -12.501 -18c-0.666992 -2 -1.66699 -6 -3 -12s-2 -10.333 -2 -13l-57 6v15c0 5.33301 0.333008 9.66602 1 12.999c4.66699 34 15.667 57.333 33 70s35.333 19 54 19c14 0 25.667 -2.66699 35 -8
s17.666 -11.333 24.999 -18s14.5 -12.667 21.5 -18s14.833 -8 23.5 -8c6.66699 0 12.667 2.16699 18 6.5s9.33301 10.833 12 19.5c0.666992 1.33301 1.66699 4.83301 3 10.5s2 9.83398 2 12.501l58 -6c0 -2.66699 -0.333008 -7.83398 -1 -15.501
s-1.33398 -13.167 -2.00098 -16.5c-4.66699 -31.333 -15.5 -53.333 -32.5 -66s-34.833 -19 -53.5 -19z" />
    <glyph glyph-name="uni1EAC" unicode="&#x1eac;" horiz-adv-x="664" 
d="M13 0l250 664h145l242 -664h-135l-63 177h-249l-64 -177h-126zM330 528l-90 -246h177zM398 -67v-120h-129v120h129zM386 859l108 -145h-86l-74 77l-76 -77h-84l107 145h105z" />
    <glyph glyph-name="uni1EAD" unicode="&#x1ead;" horiz-adv-x="502" 
d="M189 -12c-50 0 -89.8291 12.667 -119.496 38s-44.5 58.333 -44.5 99c0 26.667 4.66699 48.5 14 65.5s22.166 31 38.499 42s35.833 19.833 58.5 26.5s47.334 13 74.001 19c43.333 8.66699 76.166 15.5 98.499 20.5s34.166 13.833 35.499 26.5v5
c0 14 -6.83301 26.5 -20.5 37.5s-36.5 16.5 -68.5 16.5s-55.833 -7.16699 -71.5 -21.5s-24.167 -31.833 -25.5 -52.5v-7h-123c2 53.333 22.833 96.333 62.5 129s92.5 49 158.5 49c64 0 114.333 -14.667 151 -44s55 -76 55 -140v-297h-119v64
c-14.667 -24.667 -35.334 -43.5 -62.001 -56.5s-57.334 -19.5 -92.001 -19.5zM218.004 77c14.667 0 29.3311 2 43.998 6s28 10.667 40 20s21.833 21.5 29.5 36.5s11.834 33.5 12.501 55.5v40c-13.333 -8 -30.166 -14.5 -50.499 -19.5l-59.5 -14.5c-24 -6 -44 -14 -60 -24
s-24 -25.333 -24 -46c0 -16 6 -29 18 -39s28.667 -15 50 -15zM311.001 681l107 -147h-83l-75 81l-75 -81h-83l107 147h102zM318.001 -67v-120h-129v120h129z" />
    <glyph glyph-name="uni1EAE" unicode="&#x1eae;" horiz-adv-x="664" 
d="M13 0l250 664h145l242 -664h-135l-63 177h-249l-64 -177h-126zM330 528l-90 -246h177zM332 716c-50 0 -87.834 12.167 -113.501 36.5s-38.5 56.5 -38.5 96.5l83 4c0.666992 -22 6.33398 -38.5 17.001 -49.5s28 -16.5 52 -16.5c24.667 0 42.167 5.5 52.5 16.5
s15.833 27.5 16.5 49.5l84 -4c0 -40 -13 -72.167 -39 -96.5s-64 -36.5 -114 -36.5zM387.999 996h109l2 -9l-141 -125h-59z" />
    <glyph glyph-name="uni1EAF" unicode="&#x1eaf;" horiz-adv-x="502" 
d="M189 -12c-50 0 -89.8291 12.667 -119.496 38s-44.5 58.333 -44.5 99c0 26.667 4.66699 48.5 14 65.5s22.166 31 38.499 42s35.833 19.833 58.5 26.5s47.334 13 74.001 19c43.333 8.66699 76.166 15.5 98.499 20.5s34.166 13.833 35.499 26.5v5
c0 14 -6.83301 26.5 -20.5 37.5s-36.5 16.5 -68.5 16.5s-55.833 -7.16699 -71.5 -21.5s-24.167 -31.833 -25.5 -52.5v-7h-123c2 53.333 22.833 96.333 62.5 129s92.5 49 158.5 49c64 0 114.333 -14.667 151 -44s55 -76 55 -140v-297h-119v64
c-14.667 -24.667 -35.334 -43.5 -62.001 -56.5s-57.334 -19.5 -92.001 -19.5zM218.004 77c14.667 0 29.3311 2 43.998 6s28 10.667 40 20s21.833 21.5 29.5 36.5s11.834 33.5 12.501 55.5v40c-13.333 -8 -30.166 -14.5 -50.499 -19.5l-59.5 -14.5c-24 -6 -44 -14 -60 -24
s-24 -25.333 -24 -46c0 -16 6 -29 18 -39s28.667 -15 50 -15zM419.001 823v-12l-133 -126h-56l81 138h108zM260.001 534c-50 0 -87.833 12.333 -113.5 37s-38.5 58 -38.5 100l83 4c0.666992 -22.667 6.16699 -40.167 16.5 -52.5s27.833 -18.5 52.5 -18.5
s42.167 6.16699 52.5 18.5s15.833 29.833 16.5 52.5l83 -4c0 -42 -12.833 -75.333 -38.5 -100s-63.5 -37 -113.5 -37z" />
    <glyph glyph-name="uni1EB0" unicode="&#x1eb0;" horiz-adv-x="664" 
d="M13 0l250 664h145l242 -664h-135l-63 177h-249l-64 -177h-126zM330 528l-90 -246h177zM335 716c-50 0 -88 12.167 -114 36.5s-39 56.5 -39 96.5l84 4c0.666992 -22 6.16699 -38.5 16.5 -49.5s27.833 -16.5 52.5 -16.5c24 0 41.167 5.5 51.5 16.5s15.833 27.5 16.5 49.5
l83 -4c0 -40 -12.833 -72.167 -38.5 -96.5s-63.167 -36.5 -112.5 -36.5zM368 862h-58l-142 125l1 10l112 -1z" />
    <glyph glyph-name="uni1EB1" unicode="&#x1eb1;" horiz-adv-x="502" 
d="M189 -12c-50 0 -89.8291 12.667 -119.496 38s-44.5 58.333 -44.5 99c0 26.667 4.66699 48.5 14 65.5s22.166 31 38.499 42s35.833 19.833 58.5 26.5s47.334 13 74.001 19c43.333 8.66699 76.166 15.5 98.499 20.5s34.166 13.833 35.499 26.5v5
c0 14 -6.83301 26.5 -20.5 37.5s-36.5 16.5 -68.5 16.5s-55.833 -7.16699 -71.5 -21.5s-24.167 -31.833 -25.5 -52.5v-7h-123c2 53.333 22.833 96.333 62.5 129s92.5 49 158.5 49c64 0 114.333 -14.667 151 -44s55 -76 55 -140v-297h-119v64
c-14.667 -24.667 -35.334 -43.5 -62.001 -56.5s-57.334 -19.5 -92.001 -19.5zM218.004 77c14.667 0 29.3311 2 43.998 6s28 10.667 40 20s21.833 21.5 29.5 36.5s11.834 33.5 12.501 55.5v40c-13.333 -8 -30.166 -14.5 -50.499 -19.5l-59.5 -14.5c-24 -6 -44 -14 -60 -24
s-24 -25.333 -24 -46c0 -16 6 -29 18 -39s28.667 -15 50 -15zM260.001 534c-50 0 -87.833 12.167 -113.5 36.5s-38.5 57.5 -38.5 99.5l83 4c0.666992 -22.667 6.16699 -40.167 16.5 -52.5s27.833 -18.5 52.5 -18.5s42.167 6.16699 52.5 18.5s15.833 29.833 16.5 52.5l83 -4
c0 -42 -12.833 -75.167 -38.5 -99.5s-63.5 -36.5 -113.5 -36.5zM103.001 811v12h109l81 -138h-56z" />
    <glyph glyph-name="uni1EB2" unicode="&#x1eb2;" horiz-adv-x="664" 
d="M13 0l250 664h145l242 -664h-135l-63 177h-249l-64 -177h-126zM330 528l-90 -246h177zM296 861l0.00195312 9.00098c0 12 2.16699 21.667 6.5 29s11.166 14.333 20.499 21l21.5 18c6.33301 5.33301 9.5 12 9.5 20c0 4.66699 -2 9.5 -6 14.5s-13.333 7.5 -28 7.5
c-12.667 0 -26 -2.5 -40 -7.5s-26.333 -12.5 -37 -22.5l-39 44c6.66699 10 21.667 21 45 33s50.666 18 81.999 18c30 0 56 -6.66699 78 -20s33 -31.333 33 -54c0 -20.667 -7.16699 -36.334 -21.5 -47.001s-27.5 -20 -39.5 -28c-7.33301 -4.66699 -12 -9.16699 -14 -13.5
s-3 -10.5 -3 -18.5v-3h-68zM332.002 716.001c-50 0 -87.834 12.167 -113.501 36.5s-38.5 56.5 -38.5 96.5l83 4c0.666992 -22 6.33398 -38.5 17.001 -49.5s28 -16.5 52 -16.5c24.667 0 42.167 5.5 52.5 16.5s15.833 27.5 16.5 49.5l84 -4c0 -40 -13 -72.167 -39 -96.5
s-64 -36.5 -114 -36.5z" />
    <glyph glyph-name="uni1EB3" unicode="&#x1eb3;" horiz-adv-x="502" 
d="M189 -12c-50 0 -89.8291 12.667 -119.496 38s-44.5 58.333 -44.5 99c0 26.667 4.66699 48.5 14 65.5s22.166 31 38.499 42s35.833 19.833 58.5 26.5s47.334 13 74.001 19c43.333 8.66699 76.166 15.5 98.499 20.5s34.166 13.833 35.499 26.5v5
c0 14 -6.83301 26.5 -20.5 37.5s-36.5 16.5 -68.5 16.5s-55.833 -7.16699 -71.5 -21.5s-24.167 -31.833 -25.5 -52.5v-7h-123c2 53.333 22.833 96.333 62.5 129s92.5 49 158.5 49c64 0 114.333 -14.667 151 -44s55 -76 55 -140v-297h-119v64
c-14.667 -24.667 -35.334 -43.5 -62.001 -56.5s-57.334 -19.5 -92.001 -19.5zM218.004 77c14.667 0 29.3311 2 43.998 6s28 10.667 40 20s21.833 21.5 29.5 36.5s11.834 33.5 12.501 55.5v40c-13.333 -8 -30.166 -14.5 -50.499 -19.5l-59.5 -14.5c-24 -6 -44 -14 -60 -24
s-24 -25.333 -24 -46c0 -16 6 -29 18 -39s28.667 -15 50 -15zM224.001 682l0.00195312 10.001c0 12 2.33301 21.667 7 29s11.334 14.666 20.001 21.999l22.5 18.5c7 5.66699 10.5 12.834 10.5 21.501c0 6 -2.33301 11.5 -7 16.5s-14.334 7.5 -29.001 7.5
c-13.333 0 -26.833 -2.5 -40.5 -7.5s-26.167 -12.833 -37.5 -23.5l-38 43c6.66699 10.667 21.667 22 45 34s50.666 18 81.999 18c30 0 56 -6.66699 78 -20s33 -31.666 33 -54.999c0 -21.333 -7.83301 -37.333 -23.5 -48s-28.834 -20.334 -39.501 -29.001
c-6 -4.66699 -10.167 -9.33398 -12.5 -14.001s-3.5 -11 -3.5 -19v-4h-67zM260.003 534.001c-50 0 -87.833 12.333 -113.5 37s-38.5 58 -38.5 100l83 4c0.666992 -22.667 6.16699 -40.167 16.5 -52.5s27.833 -18.5 52.5 -18.5s42.167 6.16699 52.5 18.5
s15.833 29.833 16.5 52.5l83 -4c0 -42 -12.833 -75.333 -38.5 -100s-63.5 -37 -113.5 -37z" />
    </font>
</defs>
</svg>
