<?xml version="1.0" standalone="no"?>
<!DOCTYPE svg PUBLIC "-//W3C//DTD SVG 20010904//EN"
 "http://www.w3.org/TR/2001/REC-SVG-20010904/DTD/svg10.dtd">
<svg version="1.0" xmlns="http://www.w3.org/2000/svg"
 width="512.000000pt" height="512.000000pt" viewBox="0 0 512.000000 512.000000"
 preserveAspectRatio="xMidYMid meet">
<metadata>
Created by potrace 1.16, written by Peter Selinger 2001-2019
</metadata>
<g transform="translate(0.000000,512.000000) scale(0.100000,-0.100000)"
fill="#000000" stroke="none">
<path d="M361 4149 c-229 -45 -390 -279 -352 -511 18 -112 57 -179 195 -330
66 -74 550 -607 1074 -1186 524 -578 965 -1059 980 -1070 98 -70 197 -97 331
-89 106 5 168 23 243 69 44 27 334 337 726 776 51 57 98 110 105 116 6 7 48
53 92 102 44 48 127 140 185 204 58 63 274 302 480 530 206 227 428 472 493
544 137 151 172 206 194 311 72 332 -248 624 -572 522 -79 -25 -141 -66 -215
-144 -42 -43 -246 -267 -455 -498 -209 -231 -506 -559 -661 -730 -155 -170
-361 -398 -458 -505 -97 -107 -181 -195 -186 -195 -9 0 -178 185 -680 741 -74
82 -137 151 -141 154 -3 3 -51 55 -105 116 -220 246 -754 834 -828 911 -137
143 -279 195 -445 162z"/>
</g>
</svg>
