<svg width="17" height="17" viewBox="0 0 17 17" fill="none" xmlns="http://www.w3.org/2000/svg">
<path fill-rule="evenodd" clip-rule="evenodd" d="M8.6 16.8C3.96081 16.8 0.200001 13.0392 0.200001 8.4C0.200001 3.76081 3.96081 0 8.6 0C13.2392 0 17 3.76081 17 8.4C17 13.0392 13.2392 16.8 8.6 16.8ZM8.6 14.6C5.50721 14.6 3.2 12.4167 3.2 9.6C3.2 9.3 5.50721 10.2846 8.6 10.2846C11.6928 10.2846 14 9.3 14 9.6C14 12.4167 11.6928 14.6 8.6 14.6ZM10.9 8.4C10.4029 8.4 10 7.37025 10 6.1C10 4.82974 10.4029 3.8 10.9 3.8C11.3971 3.8 11.8 4.82974 11.8 6.1C11.8 7.37025 11.3971 8.4 10.9 8.4ZM6.3 8.4C5.80294 8.4 5.4 7.37025 5.4 6.1C5.4 4.82974 5.80294 3.8 6.3 3.8C6.79706 3.8 7.2 4.82974 7.2 6.1C7.2 7.37025 6.79706 8.4 6.3 8.4Z" fill="white"/>
</svg>
