<?xml version="1.0" encoding="UTF-8"?>
<!DOCTYPE svg PUBLIC "-//W3C//DTD SVG 1.1//EN" "http://www.w3.org/Graphics/SVG/1.1/DTD/svg11.dtd">
<!-- Creator: CorelDRAW 2019 (64-Bit) -->
<svg xmlns="http://www.w3.org/2000/svg" xml:space="preserve" width="72px" height="64px" version="1.1" style="shape-rendering:geometricPrecision; text-rendering:geometricPrecision; image-rendering:optimizeQuality; fill-rule:evenodd; clip-rule:evenodd"
viewBox="0 0 72 64"
 xmlns:xlink="http://www.w3.org/1999/xlink"
 xmlns:xodm="http://www.corel.com/coreldraw/odm/2003">
 <defs>
  <style type="text/css">
   <![CDATA[
    .fil0 {fill:#1E266D}
    .fil1 {fill:#FE2E69}
   ]]>
  </style>
 </defs>
 <g id="Слой_x0020_1">
  <metadata id="CorelCorpID_0Corel-Layer"/>
  <g id="_758228048">
   <path class="fil0" d="M33.32 62.48l13.86 0.07 -0.27 -62.55 -13.63 0 -0.26 23.15c-3.34,-2.1 -3.9,-4.42 -9.81,-5.62 -12.25,-2.47 -23.04,7.98 -23.19,22.96 -0.07,9.74 4.31,17.42 10.3,20.98 3.86,2.28 8.09,3.1 13.07,2.13 4.95,-0.93 7.23,-3.52 9.78,-5.69l0.15 4.57 0 0zm-10.94 -34.24c-6.11,1.39 -7.68,7.65 -7.15,14.69 0.52,6.63 3.93,11.5 11.27,10.11 6.22,-1.24 7.38,-7.83 7.12,-14.53 -0.3,-6.63 -3.98,-11.95 -11.24,-10.27l0 0z"/>
   <path class="fil1" d="M62.12 46.93c-10.11,3 -5.4,17.68 4.75,14.27 9.07,-3.07 4.91,-17.11 -4.75,-14.27z"/>
   <path class="fil1" d="M62.45 16.26c-10.33,2.88 -5.8,16.89 3.56,14.64 9.7,-2.36 6.26,-17.38 -3.56,-14.64z"/>
  </g>
 </g>
</svg>
