<?xml version="1.0" encoding="UTF-8"?>
<!DOCTYPE svg PUBLIC "-//W3C//DTD SVG 1.1//EN" "http://www.w3.org/Graphics/SVG/1.1/DTD/svg11.dtd">
<!-- Creator: CorelDRAW 2019 (64-Bit) -->
<svg xmlns="http://www.w3.org/2000/svg" xml:space="preserve" width="81.03mm" height="27.95mm" version="1.1" style="shape-rendering:geometricPrecision; text-rendering:geometricPrecision; image-rendering:optimizeQuality; fill-rule:evenodd; clip-rule:evenodd"
viewBox="0 0 8103 2795"
 xmlns:xlink="http://www.w3.org/1999/xlink"
 xmlns:xodm="http://www.corel.com/coreldraw/odm/2003">
 <defs>
  <style type="text/css">
   <![CDATA[
    .fil0 {fill:#1E266D}
    .fil1 {fill:#FE2E69}
   ]]>
  </style>
 </defs>
 <g id="Слой_x0020_1">
  <metadata id="CorelCorpID_0Corel-Layer"/>
  <g id="_1070508928">
   <path class="fil0" d="M2990.86 2205.75c78.41,-12.84 788.11,-76.82 681.39,188.27 -65.05,161.58 -573.66,145.27 -734.64,96.68 -77.19,-23.3 -155.58,-63.66 -129.82,-166.28 18,-71.71 96.47,-104.5 183.07,-118.67zm148.35 -1315.68c148.66,-25.65 270.09,62.77 290.98,198.41 24.3,157.77 -47.9,270.28 -186.88,293.91 -372,63.27 -417.1,-438.31 -104.1,-492.32zm700.39 153.09c102.73,-34.76 86.53,-45.71 212.27,-15.09l-3.51 -405.76c-82.47,3.74 -139.97,22.29 -192.37,66.43 -61.42,51.75 -59.68,73.83 -105.57,145.77 -112.4,-121.41 -201.01,-199.76 -426.31,-235.66 -606.7,-96.68 -976.33,405.62 -755.87,789.29 61.84,107.62 97.84,105.62 154.9,176.36 -240.49,59.76 -319.51,285.64 -191.37,430.88 17.45,19.78 39.1,38.4 66.8,54.37 16.89,9.74 27.56,13.41 44.34,21.59 14.21,6.93 6.85,3.13 22.33,11.59l14.29 8.88c-37.7,27.51 -92.42,47.49 -132.99,78.37 -179.34,136.51 -182.83,476.39 236.55,584.16 312.21,80.22 804.52,67.62 1063.57,-86.34 322.63,-191.76 369.87,-814.73 -389.09,-849.22 -136.55,-6.2 -280.73,-2.37 -417.98,-2.02 -61.99,0.15 -135.36,3.55 -180.33,-28.4 -52.25,-37.12 -36.65,-92.53 13.65,-116.61 57.96,-27.74 120.69,1.8 180.96,8.89 68.11,8.01 137.33,8.27 205.66,3.59 116.51,-7.97 235.19,-40.46 324.72,-91.21 180.32,-102.2 283.43,-272.53 255.35,-549.86z"/>
   <path class="fil0" d="M749.45 942.21c237.48,-34.87 347.17,138.47 350.36,358.36 3.31,227.49 -36.66,438.75 -257.19,464.51 -245.65,28.7 -340.44,-142.75 -348.34,-365.52 -7.86,-221.56 45.76,-426.61 255.17,-457.35zm331.12 -149.57c-19.33,-25.14 -101.32,-101.07 -135.06,-122.64 -238.99,-152.83 -561.5,-92.37 -749.14,116.89 -40.17,44.8 -69.25,85.31 -102.12,149.72 -267.58,524.46 29.67,1292.08 667.91,1172.06 204.5,-38.45 312.65,-186.2 325.5,-194.02l0.45 168.1 461.35 0.75 -3.69 -2075.53 -462.67 0.06 -2.53 784.61z"/>
   <path class="fil0" d="M6896.13 1079.35c42.54,-21.43 246.7,-175.83 272.91,-207.11 -265.44,-376.01 -1137.4,-409.35 -1267.16,81.81 -145.89,552.28 596.36,553.63 774.33,643.45 143.72,72.54 39.49,211.37 -131.67,211.37 -165.74,0 -321.74,-90.14 -379.78,-183.28 -58.09,17.64 -113.89,79.98 -160.39,112.7 -50.12,35.27 -91.01,71.64 -136.88,109.02 518.84,546.95 1459.7,239.21 1305.21,-318.14 -84.39,-304.43 -477.57,-322.23 -710.55,-387.5 -225.46,-63.17 -151.21,-239.29 60.32,-236.39 180.28,2.48 290.23,97.77 373.66,174.07z"/>
   <path class="fil0" d="M5042.79 337.35l-2.09 284.27 -192.95 0.99 -1.62 329.93 194.6 2.52c0.39,218.24 -24.31,712.43 20.93,894.73 69.59,280.43 398.75,232.82 694.49,233.71l-0.09 -343.22c-284.51,0.87 -257.88,17.14 -257.96,-263.75 -0.05,-173.97 0.3,-347.95 -0.06,-521.92l260.89 0.17 5.37 -333.16 -263.18 -0.26 -0.81 -505.2 -457.52 221.19z"/>
   <path class="fil0" d="M1809.81 2082.97l471.68 0.53c-1.58,-471.61 8.06,-998.34 -2.72,-1461.87l-467.92 1.34 -0.83 1347.98 -0.21 112.02z"/>
   <polygon class="fil0" points="4211.22,2083.5 4680.83,2083.41 4680.58,621.62 4215.28,621.71 "/>
   <path class="fil1" d="M7600.6 1850.09c59.37,314.01 561.29,228.98 491.77,-107.52 -63.26,-306.24 -557.05,-237.77 -491.77,107.52z"/>
   <path class="fil1" d="M7779.96 552.32c-333.01,98.35 -174.18,574.97 142.59,478.05 302.75,-92.64 177.97,-572.71 -142.59,-478.05z"/>
  </g>
 </g>
</svg>
