<svg width="30" height="30" viewBox="0 0 30 30" fill="none" xmlns="http://www.w3.org/2000/svg">
<g clip-path="url(#clip0_3_4671)">
<g filter="url(#filter0_d_3_4671)">
<path d="M25 15H20C18.625 15 17.5 16.125 17.5 17.5V25C17.5 26.375 18.625 27.5 20 27.5H25C26.375 27.5 27.5 26.375 27.5 25V17.5C27.5 16.125 26.375 15 25 15Z" fill="white"/>
<path d="M10 2.5H5C3.625 2.5 2.5 3.625 2.5 5V12.5C2.5 13.875 3.625 15 5 15H10C11.375 15 12.5 13.875 12.5 12.5V5C12.5 3.625 11.375 2.5 10 2.5Z" fill="white"/>
<path d="M25 2.5H20C18.625 2.5 17.5 3.625 17.5 5V7.5C17.5 8.875 18.625 10 20 10H25C26.375 10 27.5 8.875 27.5 7.5V5C27.5 3.625 26.375 2.5 25 2.5Z" fill="white"/>
<path d="M10 20H5C3.625 20 2.5 21.125 2.5 22.5V25C2.5 26.375 3.625 27.5 5 27.5H10C11.375 27.5 12.5 26.375 12.5 25V22.5C12.5 21.125 11.375 20 10 20Z" fill="white"/>
</g>
</g>
<defs>
<filter id="filter0_d_3_4671" x="0.5" y="2.5" width="33" height="33" filterUnits="userSpaceOnUse" color-interpolation-filters="sRGB">
<feFlood flood-opacity="0" result="BackgroundImageFix"/>
<feColorMatrix in="SourceAlpha" type="matrix" values="0 0 0 0 0 0 0 0 0 0 0 0 0 0 0 0 0 0 127 0" result="hardAlpha"/>
<feOffset dx="2" dy="4"/>
<feGaussianBlur stdDeviation="2"/>
<feColorMatrix type="matrix" values="0 0 0 0 0.270588 0 0 0 0 0.345098 0 0 0 0 0.501961 0 0 0 0.2 0"/>
<feBlend mode="normal" in2="BackgroundImageFix" result="effect1_dropShadow_3_4671"/>
<feBlend mode="normal" in="SourceGraphic" in2="effect1_dropShadow_3_4671" result="shape"/>
</filter>
<clipPath id="clip0_3_4671">
<rect width="30" height="30" fill="white"/>
</clipPath>
</defs>
</svg>
