<svg width="12" height="13" viewBox="0 0 12 13" fill="none" xmlns="http://www.w3.org/2000/svg">
<path d="M11.8792 7.22811L5.93422 3.75718C4.69267 3.03219 3.91781 1.69093 3.91781 0.25V5.23438H1.40198C1.15152 5.23438 0.948853 5.43726 0.948853 5.6875C0.948853 5.93774 1.15152 6.14063 1.40198 6.14063H3.91781H5.64648H7.00813C7.75579 6.14063 8.3675 6.75233 8.3675 7.5C8.3675 8.24764 7.75579 8.85938 7.00813 8.85938H6.55273H3.91781H0.948853C0.698395 8.85938 0.495728 9.06226 0.495728 9.3125C0.495728 9.56274 0.698395 9.76563 0.948853 9.76563H3.91781V12.9647L11.8792 7.22811Z" fill="#53C07E"/>
</svg>
